<?xml version="1.0" encoding="UTF-8" standalone="no"?><!DOCTYPE svg PUBLIC "-//W3C//DTD SVG 1.1//EN" "http://www.w3.org/Graphics/SVG/1.1/DTD/svg11.dtd"><svg width="100%" height="100%" viewBox="0 0 32 32" version="1.1" xmlns="http://www.w3.org/2000/svg" xmlns:xlink="http://www.w3.org/1999/xlink" xml:space="preserve" style="fill-rule:evenodd;clip-rule:evenodd;stroke-linejoin:round;stroke-miterlimit:1.41421;"><path d="M16,0.395c-8.836,0 -16,7.163 -16,16c0,7.069 4.585,13.067 10.942,15.182c0.8,0.148 1.094,-0.347 1.094,-0.77c0,-0.381 -0.015,-1.642 -0.022,-2.979c-4.452,0.968 -5.391,-1.888 -5.391,-1.888c-0.728,-1.849 -1.776,-2.341 -1.776,-2.341c-1.452,-0.993 0.11,-0.973 0.11,-0.973c1.606,0.113 2.452,1.649 2.452,1.649c1.427,2.446 3.743,1.739 4.656,1.33c0.143,-1.034 0.558,-1.74 1.016,-2.14c-3.554,-0.404 -7.29,-1.777 -7.29,-7.907c0,-1.747 0.625,-3.174 1.649,-4.295c-0.166,-0.403 -0.714,-2.03 0.155,-4.234c0,0 1.344,-0.43 4.401,1.64c1.276,-0.355 2.645,-0.532 4.005,-0.539c1.359,0.006 2.729,0.184 4.008,0.539c3.054,-2.07 4.395,-1.64 4.395,-1.64c0.871,2.204 0.323,3.831 0.157,4.234c1.026,1.12 1.647,2.548 1.647,4.295c0,6.145 -3.743,7.498 -7.306,7.895c0.574,0.497 1.085,1.47 1.085,2.963c0,2.141 -0.019,3.864 -0.019,4.391c0,0.426 0.288,0.925 1.099,0.768c6.354,-2.118 10.933,-8.113 10.933,-15.18c0,-8.837 -7.164,-16 -16,-16l0,0Z" style="fill:#fff;fill-rule:nonzero;"/></svg>
