<?xml version="1.0" encoding="UTF-8" standalone="no"?><!DOCTYPE svg PUBLIC "-//W3C//DTD SVG 1.1//EN" "http://www.w3.org/Graphics/SVG/1.1/DTD/svg11.dtd"><svg width="100%" height="100%" viewBox="0 0 32 32" version="1.1" xmlns="http://www.w3.org/2000/svg" xmlns:xlink="http://www.w3.org/1999/xlink" xml:space="preserve" style="fill-rule:evenodd;clip-rule:evenodd;stroke-linejoin:round;stroke-miterlimit:1.41421;"><path d="M32,7.075c-1.175,0.525 -2.444,0.875 -3.769,1.031c1.356,-0.813 2.394,-2.1 2.887,-3.631c-1.269,0.75 -2.675,1.3 -4.169,1.594c-1.2,-1.275 -2.906,-2.069 -4.794,-2.069c-3.625,0 -6.563,2.938 -6.563,6.563c0,0.512 0.056,1.012 0.169,1.494c-5.456,-0.275 -10.294,-2.888 -13.531,-6.862c-0.563,0.969 -0.887,2.1 -0.887,3.3c0,2.275 1.156,4.287 2.919,5.463c-1.075,-0.031 -2.087,-0.331 -2.975,-0.819c0,0.025 0,0.056 0,0.081c0,3.181 2.263,5.838 5.269,6.437c-0.55,0.15 -1.131,0.231 -1.731,0.231c-0.425,0 -0.831,-0.044 -1.237,-0.119c0.838,2.606 3.263,4.506 6.131,4.563c-2.25,1.762 -5.075,2.813 -8.156,2.813c-0.531,0 -1.05,-0.031 -1.569,-0.094c2.913,1.869 6.362,2.95 10.069,2.95c12.075,0 18.681,-10.006 18.681,-18.681c0,-0.287 -0.006,-0.569 -0.019,-0.85c1.281,-0.919 2.394,-2.075 3.275,-3.394l0,-0.001Z" style="fill:#fff;fill-rule:nonzero;"/></svg>
