<?xml version="1.0" encoding="UTF-8"?>
<svg width="248px" height="45px" viewBox="0 0 248 45" version="1.1" xmlns="http://www.w3.org/2000/svg" xmlns:xlink="http://www.w3.org/1999/xlink">
    <title>api.gouv.fr.svg</title>
    <g id="api.gouv.fr.svg" stroke="none" stroke-width="1" fill="none" fill-rule="evenodd">
        <path d="M26.2093987,11.4775633 L26.2093987,34.0808861 L20.9208544,34.0808861 L20.9208544,31.1432911 C19.0138924,33.1834494 16.7888608,34.325443 14.2457595,34.57 C13.8418038,34.5976582 13.4080063,34.6107595 12.9458228,34.6107595 C9.16028481,34.6107595 6.11132911,33.3464873 3.79968354,30.8164873 C1.83522152,28.6409494 0.852626582,25.9886709 0.852626582,22.8611076 C0.852626582,19.1068671 2.18167722,16.0877532 4.84050633,13.803038 C7.09392405,11.8989873 9.83936709,10.946962 13.0753797,10.946962 C16.2255063,10.946962 18.7249367,11.9805063 20.5743987,14.0483228 C20.6901266,14.1837025 20.8058544,14.3336392 20.9208544,14.4966772 L20.9208544,11.4775633 L26.2093987,11.4775633 L26.2093987,11.4775633 Z M13.6824051,15.9247152 C11.1393038,15.9247152 9.21778481,16.8767405 7.9178481,18.7807911 C7.07936709,19.9773734 6.66085443,21.378481 6.66085443,22.9833861 C6.66085443,25.5126582 7.67183544,27.3759494 9.69452532,28.5725316 C10.8503481,29.28 12.2085127,29.6337342 13.769019,29.6337342 C16.0522785,29.6337342 17.8005696,28.9531962 19.0138924,27.5935759 C20.0831013,26.2332278 20.6610127,24.6829114 20.7476266,22.9426266 C20.7476266,20.358038 19.7650316,18.4139557 17.8005696,17.1081962 C16.6156329,16.3192089 15.2429114,15.9247152 13.6824051,15.9247152 L13.6824051,15.9247152 Z M32.6675949,41.6286709 L32.6675949,11.4775633 L37.9554114,11.4775633 L37.9554114,14.1298418 C39.8914873,12.0081646 42.5212025,10.946962 45.844557,10.946962 C49.600981,10.946962 52.6208228,12.211962 54.9033544,14.741962 C56.8394304,16.9175 57.8074684,19.5697785 57.8074684,22.6973418 C57.8074684,26.3969937 56.5075316,29.3884494 53.9069304,31.6731646 L52.5633228,32.7343671 C50.569019,33.985538 48.3148734,34.6107595 45.8008861,34.6107595 C42.969557,34.6107595 40.5130696,33.7271519 38.4328797,31.9592089 L38.4328797,41.6286709 L32.6675949,41.6286709 L32.6675949,41.6286709 Z M45.1079747,15.9247152 C42.7089873,15.9247152 40.8311392,16.8221519 39.4729747,18.6177532 C38.5478797,19.8143354 38.0856962,21.1877848 38.0856962,22.7381013 C38.0856962,25.1319937 39.0246203,26.9952848 40.9031962,28.3279747 C42.1456329,29.198481 43.5758544,29.6337342 45.1945886,29.6337342 C47.4771203,29.6337342 49.2829114,28.7493987 50.6126899,26.9814557 C51.537057,25.7848734 51.9992405,24.3975949 51.9992405,22.8196203 C51.9992405,20.4533861 51.0748734,18.5900949 49.2254114,17.2304747 C48.0404747,16.3599684 46.668481,15.9247152 45.1079747,15.9247152 L45.1079747,15.9247152 Z M63.4424684,34.0808861 L63.4424684,11.4775633 L69.2077532,11.4775633 L69.2077532,34.0808861 L63.4424684,34.0808861 Z M63.4424684,9.02981013 L63.4424684,3.92977848 L69.2077532,3.92977848 L69.2077532,9.02981013 L63.4424684,9.02981013 Z M79.0904747,30.0005696 C77.7898101,30.0005696 76.7060443,31.0210127 76.7060443,32.3260443 C76.7060443,33.5095253 77.7898101,34.5292405 79.0468038,34.5292405 C80.3904114,34.5292405 81.5178481,33.5502848 81.5178481,32.3260443 C81.5178481,31.0617722 80.3904114,30.0005696 79.0904747,30.0005696 Z M107.654873,11.4775633 L113.159589,11.4775633 L113.159589,29.7967722 C113.159589,33.9309494 112.350222,36.9908228 110.732215,38.9763924 C108.42057,41.724019 105.082658,43.0974684 100.719209,43.0974684 C96.1250316,43.0974684 92.5993354,41.6556013 90.1428481,38.7725949 C89.4112926,37.9146543 88.8124182,36.9519411 88.3661709,35.916519 L94.910981,35.916519 C96.2982595,37.3583861 97.9599367,38.1473734 99.8960127,38.2827532 C100.213354,38.3104114 100.560538,38.3235127 100.936108,38.3235127 C105.212943,38.3235127 107.452532,35.916519 107.654873,31.1025316 C105.805411,33.141962 103.666994,34.2846835 101.23962,34.5292405 C100.750341,34.5852292 100.258197,34.612449 99.7657278,34.6107595 C96.0668038,34.6107595 93.0906329,33.3188291 90.8364873,30.7349684 C88.9295253,28.5317722 87.9760443,25.8256329 87.9760443,22.6158228 C87.9760443,18.9984177 89.2621519,16.0608228 91.8336392,13.803038 C94.029557,11.8989873 96.6883861,10.946962 99.8093987,10.946962 C103.276867,10.946962 105.892025,12.0758544 107.654873,14.3336392 L107.654873,11.4775633 L107.654873,11.4775633 Z M100.459367,15.9247152 C97.8296519,15.9247152 95.9226899,16.9451582 94.7377532,18.9845886 C94.1023418,20.0996519 93.7842722,21.3923101 93.7842722,22.8611076 C93.7842722,25.6625949 94.853481,27.6481646 96.9918987,28.8178165 C98.0028797,29.361519 99.1878165,29.6337342 100.545981,29.6337342 C103.26231,29.6337342 105.2275,28.6271203 106.440823,26.6146203 C107.076962,25.5534177 107.394304,24.3022468 107.394304,22.8611076 C107.394304,20.195 106.383323,18.2370886 104.360633,16.9859177 C103.378038,16.3599684 102.250601,16.0062342 100.979778,15.9247152 L100.459367,15.9247152 L100.459367,15.9247152 Z M131.451139,10.946962 C135.207563,10.946962 138.328576,12.1850316 140.813449,14.6597152 C143.125095,16.9451582 144.280918,19.7058861 144.280918,22.9426266 C144.280918,26.1247785 143.009367,28.8716772 140.466994,31.1840506 C137.953006,33.4687658 134.962278,34.6107595 131.494082,34.6107595 C127.94,34.6107595 124.905601,33.4280063 122.391614,31.0617722 C119.964241,28.7493987 118.750918,25.9886709 118.750918,22.7788608 C118.750918,19.4882595 120.022468,16.6867722 122.56557,14.3743987 C125.050443,12.0896835 128.012057,10.946962 131.451139,10.946962 L131.451139,10.946962 Z M131.494082,15.9247152 C129.327278,15.9247152 127.535316,16.754462 126.119652,18.4139557 C125.079557,19.6651266 124.559146,21.0924367 124.559146,22.6973418 C124.559146,25.0097152 125.469684,26.8591772 127.290032,28.2464557 C128.532468,29.1708228 129.948133,29.6337342 131.537753,29.6337342 C133.762785,29.6337342 135.568576,28.777057 136.955854,27.0629747 C137.967563,25.8118038 138.47269,24.3837658 138.47269,22.7788608 C138.47269,20.5756646 137.591266,18.7807911 135.829146,17.3935127 C134.557595,16.414557 133.112816,15.9247152 131.494082,15.9247152 L131.494082,15.9247152 Z M171.068639,11.4775633 L171.068639,34.0808861 L165.737152,34.0808861 L165.737152,31.9184494 C164.060918,33.4687658 162.24057,34.3392722 160.27538,34.5292405 L158.845158,34.6107595 C155.608418,34.6107595 153.167215,33.4956962 151.520095,31.2655696 C150.421772,29.7421835 149.829304,27.6750949 149.74269,25.0643038 C149.713576,24.6290506 149.699019,24.1392089 149.699019,23.5955063 L149.699019,11.4775633 L155.464304,11.4775633 L155.464304,22.5343038 C155.464304,25.3903797 155.85443,27.2806013 156.634684,28.2056962 C157.385823,29.1577215 158.512532,29.6337342 160.015538,29.6337342 C162.067342,29.6337342 163.526677,28.9400949 164.393544,27.5528165 C164.999842,26.6823101 165.303354,24.8736076 165.303354,22.1267089 L165.303354,11.4775633 L171.068639,11.4775633 Z M185.242025,34.0808861 L175.576203,11.4775633 L181.991456,11.4775633 L187.539842,26.4508544 L193.000886,11.4775633 L199.502753,11.4775633 L189.83693,34.0808861 L185.242025,34.0808861 L185.242025,34.0808861 Z M202.736582,30.0020253 C201.51307,30.0020253 200.494082,31.0217405 200.494082,32.3267722 C200.494082,33.5095253 201.51307,34.5292405 202.695823,34.5292405 C203.960095,34.5292405 205.02057,33.5502848 205.02057,32.3267722 C205.02057,31.0625 203.960095,30.0020253 202.736582,30.0020253 L202.736582,30.0020253 Z M212.489747,14.2412025 L216.98057,14.2412025 L212.440253,35.2650949 C211.256044,40.6941139 209.62712,43.4082595 207.505443,43.4082595 C206.912975,43.4082595 206.517753,43.0625316 206.517753,42.5690506 C206.517753,42.4212975 206.567247,42.3223101 206.715728,42.0755696 C206.912975,41.7305696 206.962468,41.5325949 206.962468,41.2370886 C206.962468,40.1511392 206.073766,39.3119304 204.987816,39.3119304 C203.952089,39.3119304 203.162373,40.2493987 203.162373,41.4343354 C203.162373,43.1120253 204.889557,44.4447152 207.060728,44.4447152 C211.552278,44.4447152 215.056139,39.5091772 217.22731,30.2807911 L220.929146,14.2412025 L226.40693,14.2412025 L226.703165,12.6617722 L221.323639,12.6617722 C222.804082,4.7653481 224.729241,1.26148734 227.49288,1.26148734 C228.183608,1.26148734 228.578829,1.50822785 228.578829,1.90272152 C228.578829,2.00170886 228.529335,2.14946203 228.380854,2.39620253 C228.134114,2.79142405 228.085348,3.03816456 228.085348,3.43265823 C228.085348,4.61759494 228.82557,5.40658228 229.910791,5.40658228 C231.046234,5.40658228 232.033196,4.46911392 232.033196,3.38316456 C232.033196,1.55772152 230.207025,0.175537975 227.73962,0.175537975 C225.321709,0.175537975 223.347057,1.26148734 221.520886,3.58113924 C220.040443,5.55506329 219.003987,7.82522152 217.474051,12.6617722 L212.835475,12.6617722 L212.489747,14.2412025 L212.489747,14.2412025 Z M232.625665,34.0808861 C235.33981,25.4442405 236.179019,23.4208228 238.449177,19.6207278 C240.176361,16.8075949 241.558544,15.2776582 242.397025,15.2776582 C242.742753,15.2776582 242.989494,15.4749051 243.236234,15.9683861 C243.631456,16.8075949 244.025949,17.0543354 245.012911,17.0543354 C246.493354,17.0543354 247.332563,16.1656329 247.332563,14.5862025 C247.332563,13.0075 246.395095,12.0198101 245.012911,12.0198101 C243.878196,12.0198101 242.496013,12.7607595 241.212816,14.1422152 C239.139905,16.2151266 237.066994,19.2255063 236.277278,21.1506646 L235.537057,22.9761076 L238.301424,12.1187975 L238.152943,12.0198101 C234.550095,12.6617722 234.00712,12.7607595 230.405,13.3525 L230.405,14.1917089 C231.490222,13.994462 231.687468,13.9449684 232.08269,13.9449684 C233.168639,13.9449684 233.809873,14.4384494 233.809873,15.3264241 C233.809873,15.9683861 233.41538,17.9918038 233.020158,19.4722468 L228.82557,34.0808861 L232.625665,34.0808861 Z" id="Shape" fill="#373C42" fill-rule="nonzero"></path>
    </g>
</svg>