<?xml version="1.0" encoding="UTF-8" standalone="no"?>
<!-- Generator: Adobe Illustrator 16.0.0, SVG Export Plug-In . SVG Version: 6.00 Build 0)  -->

<svg
   xmlns:dc="http://purl.org/dc/elements/1.1/"
   xmlns:cc="http://creativecommons.org/ns#"
   xmlns:rdf="http://www.w3.org/1999/02/22-rdf-syntax-ns#"
   xmlns:svg="http://www.w3.org/2000/svg"
   xmlns="http://www.w3.org/2000/svg"
   xmlns:sodipodi="http://sodipodi.sourceforge.net/DTD/sodipodi-0.dtd"
   xmlns:inkscape="http://www.inkscape.org/namespaces/inkscape"
   version="1.1"
   id="Layer_1"
   x="0px"
   y="0px"
   width="334.41293"
   height="316.16602"
   viewBox="0 0 334.41293 316.16602"
   enable-background="new 0 0 640 480"
   xml:space="preserve"
   inkscape:version="0.48.4 r9939"
   sodipodi:docname="Apigouv_visual.svg"><metadata
     id="metadata3109"><rdf:RDF><cc:Work
         rdf:about=""><dc:format>image/svg+xml</dc:format><dc:type
           rdf:resource="http://purl.org/dc/dcmitype/StillImage" /></cc:Work></rdf:RDF></metadata><defs
     id="defs3107" /><sodipodi:namedview
     pagecolor="#ff333b"
     bordercolor="#666666"
     borderopacity="1"
     objecttolerance="10"
     gridtolerance="10"
     guidetolerance="10"
     inkscape:pageopacity="0"
     inkscape:pageshadow="2"
     inkscape:window-width="1535"
     inkscape:window-height="876"
     id="namedview3105"
     showgrid="false"
     fit-margin-top="0"
     fit-margin-left="0"
     fit-margin-right="0"
     fit-margin-bottom="0"
     inkscape:zoom="1.51875"
     inkscape:cx="166.69892"
     inkscape:cy="155"
     inkscape:window-x="65"
     inkscape:window-y="24"
     inkscape:window-maximized="1"
     inkscape:current-layer="Layer_1" /><path
     d="m 90.362925,243.552 c -0.747,0 -1.491,-0.306 -2.026,-0.909 -2.832,-3.174 -69.437,-77.877 -75.991,-88.315 -15.8860001,-25.307 -16.4810001,-57.086 -1.554,-82.938 10.727,-18.582 28.05,-31.875 48.775,-37.429 20.727,-5.551 42.374995,-2.705 60.955995,8.023 1.298,0.75 1.744,2.41 0.994,3.708 -0.748,1.298 -2.407,1.745 -3.708,0.993 -17.324,-10.001 -37.510995,-12.657 -56.834995,-7.48 -19.325,5.179 -35.476,17.573 -45.479,34.898 -13.9180001,24.104 -13.3620001,53.737 1.451,77.336 6.313,10.055 74.753,86.815 75.443,87.589 0.999,1.119 0.9,2.835 -0.218,3.832 -0.519,0.463 -1.164,0.692 -1.808,0.692 z"
     id="path3075"
     inkscape:connector-curvature="0"
     style="fill:#af2341" /><path
     d="m 204.52792,113.481 c 0,-35.854 29.097,-65.765 64.947,-65.765 35.858,0 64.938,30.333 64.938,66.187 0,35.854 -29.046,66.184 -64.898,66.184 l -166.884,-1.174 101.897,-65.432 z"
     id="path3077"
     inkscape:connector-curvature="0"
     style="fill:#1e4c8e" /><circle
     cx="355.03201"
     cy="173.972"
     r="84.309998"
     id="circle3079"
     sodipodi:cx="355.03201"
     sodipodi:cy="173.972"
     sodipodi:rx="84.309998"
     sodipodi:ry="84.309998"
     style="fill:#1b86bc"
     transform="translate(-153.30108,-78.834)" /><circle
     cx="303.44901"
     cy="143.235"
     r="64.401001"
     id="circle3081"
     sodipodi:cx="303.44901"
     sodipodi:cy="143.235"
     sodipodi:rx="64.401001"
     sodipodi:ry="64.401001"
     style="fill:#23b0b7"
     transform="translate(-153.30108,-78.834)" /><path
     d="m 47.174925,167.934 c -32.222,-18.602 -43.2620001,-59.802 -24.661,-92.024 18.603,-32.222 59.804,-43.262 92.025995,-24.66 11.292,6.521 25.394,24.215 38.947,44.453 25.122,37.507 48.367,83.745 48.367,83.745 0,0 -55.476,0.64 -105.582995,-0.691 -20.772,-1.817 -39.195,-5.108 -49.096,-10.823 z"
     id="path3083"
     inkscape:connector-curvature="0"
     style="fill:#10c6b0" /><path
     d="m 120.30092,105.192 -5.127,-0.279 c -1.257,-0.129 -2.333,-0.951 -2.786,-2.128 l -2.004,-4.663 c -0.511,-1.154 -0.329,-2.498 0.47,-3.475 l 3.441,-3.816 c 0.719,-0.917 0.719,-2.211 0,-3.13 l -7.04,-7.321 c -0.917,-0.723 -2.211,-0.723 -3.13,0 l -3.816,3.441 c -0.977995,0.799 -2.320995,0.981 -3.474995,0.47 l -4.82,-1.815 c -1.176,-0.452 -1.998,-1.529 -2.126,-2.784 l -0.283,-5.133 c -0.097,-1.22 -1.013,-2.213 -2.22,-2.409 -3.447,-0.488 -6.943,-0.488 -10.389,0 -1.206,0.196 -2.123,1.189 -2.22,2.409 l -0.251,5.101 c -0.127,1.255 -0.951,2.331 -2.128,2.786 l -4.599,1.907 c -1.156,0.512 -2.498,0.33 -3.475,-0.469 l -3.816,-3.441 c -0.921,-0.723 -2.209,-0.723 -3.129,0 l -7.323,7.321 c -0.721,0.919 -0.721,2.209 0,3.128 l 3.441,3.818 c 0.804,0.946 1.023,2.257 0.562,3.411 l -1.905,4.599 c -0.458,1.177 -1.532,2.001 -2.786,2.13 l -5.133,0.278 c -1.22,0.103 -2.213,1.02 -2.409,2.225 -0.488,3.445 -0.488,6.943 0,10.39 0.196,1.205 1.189,2.119 2.409,2.22 l 5.133,0.283 c 1.253,0.127 2.328,0.949 2.786,2.126 l 1.905,4.599 c 0.509,1.154 0.331,2.498 -0.468,3.473 l -3.441,3.818 c -0.723,0.919 -0.723,2.213 0,3.128 l 7.04,7.418 c 0.917,0.719 2.211,0.719 3.13,0 l 3.816,-3.445 c 0.976,-0.795 2.319,-0.978 3.473,-0.467 l 4.601,1.907 c 1.179,0.456 1.999,1.532 2.128,2.786 l 0.279,5.133 c 0.103,1.22 1.018,2.213 2.222,2.407 3.447,0.488 6.945,0.488 10.392,0 1.204,-0.194 2.121,-1.188 2.22,-2.407 l 0.283,-5.133 c 0.135,-1.251 0.955,-2.326 2.126,-2.786 l 4.601,-1.907 c 1.152,-0.511 2.496,-0.329 3.473,0.467 l 3.815995,3.445 c 0.919,0.719 2.213,0.719 3.132,0 l 7.321,-7.323 c 0.721,-0.919 0.721,-2.211 0,-3.13 l -3.441,-3.818 c -0.808,-1.015 -0.953,-2.404 -0.376,-3.567 l 1.909,-4.599 c 0.454,-1.177 1.53,-1.999 2.784,-2.126 l 5.225,-0.221 c 1.208,-0.113 2.187,-1.023 2.381,-2.222 0.488,-3.445 0.488,-6.943 0,-10.388 -0.197,-1.195 -1.176,-2.109 -2.383,-2.222 z m -38.080995,17.776 c -5.72,-0.018 -10.34,-4.67 -10.326,-10.39 0.021,-5.721 4.668,-10.345 10.389,-10.328 5.709,0.018 10.326,4.65 10.326,10.36 0,5.72 -4.636,10.357 -10.356,10.357 -0.011,0.001 -0.023,0.001 -0.033,0.001 z"
     id="path3085"
     inkscape:connector-curvature="0"
     style="fill:#ffffff" /><g
     id="g3087"
     transform="translate(-153.30108,-78.834)"><path
       d="m 468,391.001 c 0,2.209 -1.791,3.999 -4,3.999 h -84 c -2.209,0 -4,-1.79 -4,-3.999 V 280.999 c 0,-2.209 1.791,-3.999 4,-3.999 h 84 c 2.209,0 4,1.79 4,3.999 V 391.001 z M 381,389 h 82 V 282 h -82 v 107 z"
       id="path3089"
       inkscape:connector-curvature="0"
       style="fill:#b0bbc0" /><path
       d="m 398.288,316.406 c -5.15,0 -9.34,-4.191 -9.34,-9.342 0,-5.151 4.189,-9.34 9.34,-9.34 5.151,0 9.341,4.189 9.341,9.34 0,5.151 -4.191,9.342 -9.341,9.342 z m 0,-13.251 c -2.156,0 -3.91,1.753 -3.91,3.909 0,2.156 1.754,3.912 3.91,3.912 2.156,0 3.911,-1.756 3.911,-3.912 0,-2.156 -1.755,-3.909 -3.911,-3.909 z"
       id="path3091"
       inkscape:connector-curvature="0"
       style="fill:#b0bbc0" /><path
       d="m 398.288,344.564 c -5.15,0 -9.34,-4.19 -9.34,-9.342 0,-5.15 4.189,-9.339 9.34,-9.339 5.151,0 9.341,4.188 9.341,9.339 0,5.152 -4.191,9.342 -9.341,9.342 z m 0,-13.251 c -2.156,0 -3.91,1.753 -3.91,3.909 0,2.157 1.754,3.912 3.91,3.912 2.156,0 3.911,-1.755 3.911,-3.912 0,-2.156 -1.755,-3.909 -3.911,-3.909 z"
       id="path3093"
       inkscape:connector-curvature="0"
       style="fill:#b0bbc0" /><path
       d="m 398.288,372.723 c -5.15,0 -9.34,-4.19 -9.34,-9.341 0,-5.151 4.189,-9.34 9.34,-9.34 5.151,0 9.341,4.188 9.341,9.34 0,5.15 -4.191,9.341 -9.341,9.341 z m 0,-13.251 c -2.156,0 -3.91,1.753 -3.91,3.91 0,2.156 1.754,3.911 3.91,3.911 2.156,0 3.911,-1.755 3.911,-3.911 0,-2.157 -1.755,-3.91 -3.911,-3.91 z"
       id="path3095"
       inkscape:connector-curvature="0"
       style="fill:#b0bbc0" /><path
       d="m 454,309.751 c 0,0.916 -1.218,1.249 -2.132,1.249 H 413.552 C 412.639,311 412,310.667 412,309.751 v -3.924 c 0,-0.915 0.639,-1.827 1.552,-1.827 h 38.316 c 0.914,0 2.132,0.912 2.132,1.827 v 3.924 z"
       id="path3097"
       inkscape:connector-curvature="0"
       style="fill:#b0bbc0" /><path
       d="m 454,336.344 c 0,0.915 -0.741,1.656 -1.656,1.656 H 413.656 C 412.741,338 412,337.259 412,336.344 v -3.688 c 0,-0.915 0.741,-1.656 1.656,-1.656 h 38.688 c 0.915,0 1.656,0.741 1.656,1.656 v 3.688 z"
       id="path3099"
       inkscape:connector-curvature="0"
       style="fill:#b0bbc0" /><path
       d="m 454,365.344 c 0,0.915 -0.741,1.656 -1.656,1.656 H 413.656 C 412.741,367 412,366.259 412,365.344 v -3.688 c 0,-0.915 0.741,-1.656 1.656,-1.656 h 38.688 c 0.915,0 1.656,0.741 1.656,1.656 v 3.688 z"
       id="path3101"
       inkscape:connector-curvature="0"
       style="fill:#b0bbc0" /></g><path
     d="m 202.42792,230.786 -39.471,-31.571 c -2.009,-1.608 -4.99,-1.942 -7.307,-0.83 -2.367,1.138 -3.951,3.573 -3.951,6.207 v 7.65 c 0,0.06 0,0.114 0.001,0.172 -0.006,0.286 -0.108,0.752 -0.995,0.752 h -39.864 c -3.914,0 -8.142,3.311 -8.142,7.051 v 23.918 c 0,0.143 0.017,0.282 0.045,0.416 0.221,1.438 1.542,2.482 2.957,2.482 1.546,0 2.998,-1.246 2.998,-2.898 v -23.913 c 0,-0.597 1.497,-2.056 2.142,-2.056 h 39.864 c 4.03,0 6.994,-2.313 6.994,-5.924 v -7.65 c 0,-0.338 0.122,-0.767 0.568,-0.979 0.368,-0.18 0.699,-0.118 1.011,0.131 l 39.51,31.566 c 0.242,0.194 0.4,0.521 0.4,0.873 0,0.343 -0.103,0.646 -0.333,0.829 l -39.391,31.569 c -0.303,0.241 -0.854,0.306 -1.205,0.135 -0.443,-0.214 -0.561,-0.647 -0.561,-0.984 v -7.653 c 0,-3.668 -3.085,-7.912 -6.994,-7.912 H 96.509925 c -1.384,0 -2.812,0.015 -2.812,-0.095 v -7.653 c 0,-3.159 -0.93,-5.189 -3.041,-6.208 -2.325,-1.117 -4.753,-0.814 -6.807,0.833 l -39.267,31.569 c -1.604,1.287 -2.487,3.195 -2.487,5.377 0,2.076 0.958,4.037 2.631,5.377 l 39.486,31.571 c 1.267,1.011 2.515,1.502 3.819,1.502 0.878,0 1.668,-0.221 2.614,-0.673 2.088,-1.004 3.052,-3.092 3.052,-6.206 v -7.643 c 0,-0.613 2.15,-1.752 2.812,-1.752 h 39.864995 c 3.997,0 6.323,-2.6 6.323,-6.23 v -23.918 c 0,-1.652 -0.952,-2.898 -2.5,-2.898 -1.265,0 -2.122,0.839 -2.396,2.045 -0.013,0.051 -0.026,0.103 -0.037,0.156 -0.011,0.06 -0.021,0.119 -0.029,0.18 -0.023,0.166 -0.038,0.337 -0.038,0.518 v 23.918 c 0,0.184 -0.219,0.178 -0.218,0.178 -0.023,0.02 -0.359,0.053 -1.105,0.053 H 96.509925 c -3.912,0 -7.812,4.045 -7.812,7.741 v 7.653 l -0.113,0.358 c 0.006,0.214 -0.104,0.538 -0.16,0.621 -0.274,0.132 -0.288,0.323 -0.857,-0.128 l -39.319,-31.573 c -0.214,-0.172 -0.336,-0.455 -0.336,-0.779 0,-0.369 0.154,-0.71 0.411,-0.915 l 39.5,-31.567 c 0.242,-0.194 0.322,-0.226 0.307,-0.229 0.007,0 0.076,0.024 0.299,0.126 0.047,0.09 0.04,0.46 0.035,0.683 l -0.004,8.041 c 0,3.795 4.148,5.969 8.051,5.969 h 13.553995 40.64 c 0.329,0 0.994,1.028 0.994,1.912 v 7.653 c 0,2.63 1.583,5.065 3.951,6.207 0.918,0.44 2,0.674 3.025,0.674 0.001,0 0,0 0,0 1.564,0 3.093,-0.534 4.307,-1.504 l 39.458,-31.572 c 1.641,-1.312 2.579,-3.271 2.579,-5.376 0,-2.104 -0.949,-4.063 -2.592,-5.377 z"
     id="path3103"
     inkscape:connector-curvature="0"
     style="fill:#af2341" /></svg>