<svg xmlns="http://www.w3.org/2000/svg" viewBox="0 0 542.22 476.18"><defs><style>.a{fill:#000091;}.b{fill:#e1000f;}.c{fill:#9d9d9c;}</style></defs><path d="M.22,125.79H19.53c13.89,0,22.46,7.13,22.46,18.86,0,7.58-3.69,13.26-10.1,16.33l19.85,28H36.4L19.62,163.42H13V189H.22ZM13,136.71V152.5h7.22c5.41,0,8.57-2.89,8.57-8,0-4.78-3.16-7.76-8.57-7.76Z"/><path d="M59.68,125.79H96.49v10.92h-24v14.62H92.88v10.91H72.49V178h24V189H59.68Zm12.45-5.41,10.2-12.18H95.5L83.77,120.38Z"/><path d="M111.38,125.79h20.84c13.9,0,22.38,7.13,22.38,18.86s-8.48,18.77-22.38,18.77h-8V189H111.38Zm12.81,10.92V152.5h8.57c5.42,0,8.67-2.89,8.67-8,0-4.78-3.25-7.76-8.67-7.76Z"/><path d="M202.42,125.79h12.81v38.44c0,16.6-9.74,26.52-25.62,26.52s-25.54-9.92-25.54-26.52V125.79h12.82v39.52c0,8.48,4.78,13.44,12.81,13.44,7.85,0,12.72-5,12.72-13.44Z"/><path d="M231.11,125.79h18c13.17,0,21.11,6.5,21.11,17.14a14.78,14.78,0,0,1-6.68,12.46c6.68,3,10.38,8.39,10.38,15,0,11.55-8.93,18.59-23.46,18.59H231.11Zm12.81,10.92v13.8h5.42c4.87,0,7.67-2.43,7.67-6.94,0-4.24-2.8-6.86-7.67-6.86Zm0,24.81V178h7.22c6,0,9.57-3.16,9.57-8.39s-3.61-8.12-9.57-8.12Z"/><path d="M287,125.79h12.82v51.52h24V189H287Z"/><path d="M335.06,125.79h12.81V189H335.06Z"/><path d="M431.78,193.37a13.17,13.17,0,0,0,4.51-.72v10.83a16.73,16.73,0,0,1-6.68,1.17c-7,0-13.53-2.89-19.76-8.3l-7.49-6.68a33.52,33.52,0,0,1-8.66,1.08c-19.94,0-33.56-15.33-33.56-33.38S373.76,124,393.7,124s33.48,15.34,33.48,33.38a33.46,33.46,0,0,1-12.46,26.35l3.79,3.61C423.39,191.75,427.72,193.37,431.78,193.37Zm-17.78-36c0-12.09-8.48-21.38-20.3-21.38s-20.39,9.29-20.39,21.38,8.48,21.38,20.39,21.38S414,169.46,414,157.37Z"/><path d="M476.71,125.79h12.81v38.44c0,16.6-9.74,26.52-25.62,26.52s-25.53-9.92-25.53-26.52V125.79h12.81v39.52c0,8.48,4.78,13.44,12.81,13.44,7.85,0,12.72-5,12.72-13.44Z"/><path d="M505.4,125.79h36.82v10.92h-24v14.62h20.39v10.91H518.22V178h24V189H505.4Z"/><path d="M.22,216.86H37v10.92H13V242.4H33.42v10.91H13V280H.22Z"/><path d="M48.31,216.86H67.62c13.9,0,22.47,7.13,22.47,18.86,0,7.58-3.7,13.26-10.11,16.33l19.85,28H84.49L67.71,254.49H61.12V280H48.31Zm12.81,10.92v15.79h7.22c5.42,0,8.57-2.89,8.57-8,0-4.78-3.15-7.76-8.57-7.76Z"/><path d="M126.45,216.86h16.78L167.14,280H153.52l-6.05-16.42H122.21l-6,16.42H102.54Zm17,35.82L134.84,229l-8.66,23.73Z"/><path d="M176.89,216.86h16.42l28.24,45.21V216.86h12.81V280H217.94L189.7,234.64V280H176.89Z"/><path d="M296.71,261.16l10.1,7.76a31.35,31.35,0,0,1-21.65,12.54l-7.85,13.09H265.94l7.94-13.27c-16.42-2.88-27.25-16.78-27.25-32.84,0-18,13.63-33.38,33.57-33.38,11.45,0,20.84,5.14,26.61,12.81l-10.1,7.85a19.76,19.76,0,0,0-16.51-8.66c-11.91,0-20.39,9.29-20.39,21.38s8.48,21.38,20.39,21.38A19.74,19.74,0,0,0,296.71,261.16Z"/><path d="M333.43,216.86h16.78L374.12,280H360.5l-6.05-16.42H329.19l-6,16.42H309.52Zm17.05,35.82L341.82,229l-8.66,23.73Z"/><path d="M383.87,216.86h12.81V280H383.87Z"/><path d="M418,262.7c3.79,4.87,8.85,7.76,14,7.76s8.12-2.71,8.12-7.31c0-11.28-28.87-8.75-28.87-29.78,0-10,8.21-18.31,20.21-18.31,9.47,0,16.78,4.24,22.1,10.64l-9.38,8.4c-3.7-4.79-7.85-7.85-12.63-7.85-4.42,0-7.31,2.88-7.31,6.58,0,11.28,28.87,8.66,28.87,30-.18,11.73-9.38,18.94-20.93,18.94-10.65,0-17.86-3.88-23.46-10.55Z"/><path d="M466.52,216.86h36.81v10.92h-24V242.4h20.39v10.91H479.33V269.1h24V280H466.52Z"/><path d="M205.73,454.41c1.72,0,3.2,1.3,2.41,4.59l-8,1.85c1.39-3.7,3.7-6.44,5.55-6.44m4.4,12.83h-1.57c-2,2.36-4.12,4.21-6.25,4.21s-3.29-1.29-3.29-4.21a17.58,17.58,0,0,1,.37-3.52l12.83-4.21c2.5-5.93-.51-8.52-4-8.52-6.07,0-13,10.14-13,19,0,4,1.9,6.16,4.86,6.16,3.48,0,7.09-3.38,10-8.94m-2.54-18.61,9-8.43v-1h-4.87l-5.55,9.4Zm-27.69,5.92h4.26L177.39,473c-.6,1.57.24,3.15,1.86,3.15,3.84,0,10.05-3.8,12.22-9h-1.2c-1.72,1.81-5,4.22-7.83,4.73l6.21-17.37H195l.79-2.64h-6.16l2.36-6.66h-2.45l-4.4,6.66-5.23.74Zm-5.75-.88a1.89,1.89,0,0,0-1.52-2.68c-3.71,0-8.11,3.33-9.87,8H164c1.2-1.71,3.24-3.61,5.14-3.94L162,473.49a1.85,1.85,0,0,0,1.53,2.69c3.52,0,7.64-3.38,9.4-8h-1.2c-1.21,1.71-3.25,3.61-5.14,3.93Zm1.3-9.26a3.05,3.05,0,0,0,3.06-3.05,3.06,3.06,0,0,0-6.12,0,3,3,0,0,0,3.06,3.05m-40.8,28.34c-.92,2.09,0,3.43,2.09,3.43,1.25,0,1.8-.33,2.31-1.67l4.91-13c2.27-2.78,6.95-5.74,8.8-5.74,1.34,0,1.16,1.11.28,2.78L145.49,473a2.13,2.13,0,0,0,1.85,3.15c3.71,0,8.11-3.34,9.87-8H156c-1.2,1.71-3.24,3.61-5.14,3.93l6.48-13.1a10.45,10.45,0,0,0,1.26-4.49,3.19,3.19,0,0,0-3.43-3.52c-3.2,0-6.44,3.61-10.28,8.05v-3.42c0-2.46-.79-4.63-3-4.63-1.39,0-2.73,1.2-4,2.91v.47c2.4-.14,3.47,3.47,1.76,7.27Zm-.09-16.11c.88-3,.42-5.65-1.9-5.65-2.73,0-3.42,2.08-6.2,8.05v-3.42c0-2.46-.79-4.63-3-4.63-2.59,0-5,4-6.76,8h1.2c1.25-1.81,2.41-2.87,3.34-2.87,1.11,0,1.71,1.71,0,5.51l-5,11.11c-.92,2.09,0,3.43,2.09,3.43,1.25,0,1.8-.33,2.31-1.67l4.91-13c1.39-1.71,2.64-3.2,4.22-4.86Zm-28.43-2.23c1.71,0,3.2,1.3,2.41,4.59l-8,1.85c1.39-3.7,3.71-6.44,5.56-6.44m4.4,12.83H109c-2,2.36-4.12,4.21-6.25,4.21s-3.28-1.29-3.28-4.21a16.87,16.87,0,0,1,.37-3.52l12.82-4.21c2.5-5.93-.51-8.52-4-8.52-6.06,0-13,10.14-13,19,0,4,1.9,6.16,4.86,6.16,3.47,0,7.09-3.38,10-8.94M80.29,454.55h4.26L77.79,473c-.6,1.57.23,3.15,1.85,3.15,3.85,0,10-3.8,12.23-9H90.66c-1.71,1.81-5,4.22-7.82,4.73L89,454.55h6.35l.78-2.64H90l2.36-6.66H89.92l-4.4,6.66-5.23.74ZM56.91,469c0-5.69,6.34-13.42,9.91-13.42a8.21,8.21,0,0,1,2.17.27l-3.7,9.87c-2.13,2.59-5.42,5.74-7,5.74-.88,0-1.43-.74-1.43-2.46m19.49-19-1.94-.14-2.18,2.13h-.46c-10.56,0-19.68,11.86-19.68,20.47a3.5,3.5,0,0,0,3.79,3.8c2.74,0,5.42-3.89,8.43-8.06l-.14,1.48c-.37,4.26.93,6.58,3.15,6.58,2.59,0,5-4,6.76-8h-1.2C71.68,470,70.52,471,69.59,471s-1.66-1.76,0-5.51Zm-22.5,6.72c.88-3,.41-5.65-1.9-5.65-2.73,0-3.43,2.08-6.21,8.05v-3.42c0-2.46-.78-4.63-3-4.63-2.59,0-5,4-6.76,8h1.21c1.25-1.81,2.4-2.87,3.33-2.87,1.11,0,1.71,1.71,0,5.51l-5,11.11c-.93,2.09,0,3.43,2.08,3.43A2.07,2.07,0,0,0,40,474.51l4.91-13c1.39-1.71,2.64-3.2,4.21-4.86ZM18.43,475.25l.46-1.43c-6.16-1.16-7-1.16-4.49-7.88l2.5-6.9h6.81c3.05,0,3.1,1.25,2.63,4.59H28.1l4.08-11.16H30.42c-1.53,2.64-2.73,4.58-6.07,4.58H17.64l3.56-9.77c1.12-3.1,1.76-3.75,5.93-3.75h3c4.3,0,4.81,1.16,4.81,5.51h1.71l1.44-7.59H12.5L12,442.88c4.95,1,5.41,1.49,3.1,7.88L9.58,465.94c-2.31,6.35-3.29,6.86-9,7.88l-.42,1.43Z"/><path d="M143.73,396.53c1.71,0,3.2,1.3,2.41,4.58l-8,1.86c1.39-3.71,3.71-6.44,5.56-6.44m4.4,12.83h-1.57c-2,2.36-4.13,4.21-6.26,4.21s-3.28-1.3-3.28-4.21a17.5,17.5,0,0,1,.37-3.52l12.82-4.22c2.5-5.92-.51-8.52-4-8.52-6.06,0-13,10.14-13,19,0,4,1.9,6.15,4.86,6.15,3.47,0,7.09-3.38,10-8.93m-2.55-18.62,9-8.43v-1h-4.86l-5.56,9.4Zm-27.69,5.93h4.26l-6.76,18.48c-.6,1.57.23,3.14,1.85,3.14,3.85,0,10.05-3.79,12.23-9h-1.21c-1.71,1.81-5,4.21-7.82,4.72l6.2-17.36H133l.79-2.64h-6.16l2.36-6.67h-2.46l-4.4,6.67-5.23.74Zm-5.74-.88a1.9,1.9,0,0,0-1.53-2.69c-3.7,0-8.1,3.34-9.86,8H102c1.21-1.71,3.24-3.61,5.14-3.93L100,415.61a1.84,1.84,0,0,0,1.53,2.68c3.52,0,7.64-3.38,9.4-8h-1.21c-1.2,1.72-3.24,3.62-5.14,3.94Zm1.3-9.26a3.06,3.06,0,1,0-3.06-3.06,3.05,3.05,0,0,0,3.06,3.06M88.81,414.22l12.92-33.85-.42-.51-8.1.93v1l1.58,1.2c1.43,1.11,1,2.18-.33,5.61L84.37,415.15a2.12,2.12,0,0,0,1.85,3.14c3.7,0,7.64-3.33,9.4-8H94.41a10.38,10.38,0,0,1-5.6,3.94m-24.54-3.15c0-5.7,6.34-13.43,9.91-13.43a7.83,7.83,0,0,1,2.18.28l-3.71,9.86c-2.13,2.6-5.42,5.74-6.94,5.74-.88,0-1.44-.74-1.44-2.45m19.49-19-1.94-.14L79.64,394h-.46C68.62,394,59.5,405.88,59.5,414.5a3.5,3.5,0,0,0,3.8,3.79c2.73,0,5.42-3.89,8.43-8.05l-.14,1.48c-.37,4.26.92,6.57,3.14,6.57,2.6,0,5-4,6.77-8H80.29c-1.25,1.81-2.41,2.87-3.33,2.87s-1.67-1.76,0-5.51ZM36.62,422.79c0-2.46,2.37-4,5.75-5.33a41.23,41.23,0,0,0,5,1.9c3.52,1.16,4.86,1.62,4.86,2.69,0,2.26-3.84,4-9.08,4-4.39,0-6.53-.93-6.53-3.24m9.59-15c-1.53,0-2.13-1.3-2.13-2.78,0-4.12,2.22-10.19,5.7-10.19,1.52,0,2.13,1.3,2.13,2.78,0,4.12-2.23,10.19-5.7,10.19m10,12.69c0-3-2.64-4-6.95-5.33-3.7-1.11-5.37-1.43-5.37-2.64,0-1,.79-2.13,2.36-3a10.81,10.81,0,0,0,10-10.37,6.3,6.3,0,0,0-.51-2.55h5.14l.78-2.64H53.57a6.3,6.3,0,0,0-3.28-.93,10.74,10.74,0,0,0-10.61,10.24,6,6,0,0,0,4.91,6.16c-3,1.34-4.68,2.91-4.68,4.77a2.92,2.92,0,0,0,1.25,2.5c-6.94,2-9.68,4.35-9.68,7.64S35.7,429,40.7,429c8.47,0,15.56-4.59,15.56-8.43M23.89,400.7c3.06,0,3.1,1.25,2.64,4.58h1.76l4.07-11.16H30.61c-1.53,2.64-2.74,4.59-6.07,4.59H17.82l3.38-9.31c1.12-3.1,1.76-3.71,5.93-3.71h3c4.3,0,4.81,1.16,4.81,5.47h1.71l1.44-7.6H12.5L12,385c4.95,1,5.41,1.48,3.1,7.87L9.58,408.06c-2.31,6.34-3.29,6.85-9,7.87l-.42,1.44H28.61l5.1-8.06H31.76c-3.24,3.06-7.31,6-13,6-7.55,0-6.85-.32-4.35-7.22l2.68-7.36Zm3.71-19.4,9-6.21v-1H31.16l-5,7.18Z"/><path d="M140.72,338.65c1.71,0,3.2,1.29,2.41,4.58l-8,1.85c1.39-3.7,3.71-6.43,5.56-6.43m4.4,12.82h-1.58c-2,2.37-4.12,4.22-6.25,4.22s-3.28-1.3-3.28-4.22a17,17,0,0,1,.37-3.52l12.82-4.21c2.5-5.93-.51-8.52-4-8.52-6.06,0-13,10.14-13,19,0,4,1.9,6.16,4.86,6.16,3.47,0,7.09-3.38,10.05-8.94m-2.55-18.61,9-8.43v-1h-4.86l-5.56,9.4ZM116,338.79h3.38l-6.76,18.47c-.6,1.58.23,3.15,1.85,3.15,3.84,0,10-3.8,12.23-9h-1.21c-1.71,1.8-5,4.21-7.82,4.72l6.2-17.36h6.35l.78-2.64h-6.16l2.37-6.67h-2.46l-4.4,6.67-4.35.74Zm-3.33,2.08c.88-3,.41-5.65-1.9-5.65-2.74,0-3.43,2.08-6.21,8.06v-3.43c0-2.45-.79-4.63-3-4.63-2.59,0-5,4-6.76,8H96c1.25-1.8,2.4-2.87,3.33-2.87,1.11,0,1.71,1.71,0,5.51l-5,11.11c-.93,2.09,0,3.43,2.08,3.43a2.07,2.07,0,0,0,2.32-1.67l4.91-13c1.38-1.71,2.64-3.19,4.21-4.86Zm-28.44-2.22c1.72,0,3.2,1.29,2.41,4.58l-8,1.85c1.39-3.7,3.7-6.43,5.55-6.43m4.4,12.82H87.1c-2,2.37-4.12,4.22-6.25,4.22s-3.29-1.3-3.29-4.22a17.65,17.65,0,0,1,.37-3.52l12.83-4.21c2.5-5.93-.51-8.52-4-8.52-6.07,0-13,10.14-13,19,0,4,1.9,6.16,4.86,6.16,3.48,0,7.09-3.38,10-8.94m-31.44,5.19c-1.25,0-3.06-1.16-3.06-2.18a26.48,26.48,0,0,1,1.25-3.56l2.09-5.51c2.22-2.64,5.6-5.47,7.5-5.47,1.16,0,2,.74,2,2.46,0,5-4.73,14.26-9.82,14.26m14.59-16.3c0-3.75-1.39-5.14-4-5.14-3.24,0-6.29,3.43-9.35,7.59l7.73-20.32L65.8,322l-8.11.92v1l1.58,1.21c1.43,1.11,1,2.27-.33,5.6l-8.33,21.49a24.31,24.31,0,0,0-1.34,3.93c0,2.23,3,4.31,5.74,4.31,6.3,0,16.81-11.34,16.81-20.05m-25.19-2.45a1.9,1.9,0,0,0-1.53-2.69c-3.71,0-8.11,3.33-9.86,8h1.2c1.2-1.71,3.24-3.61,5.14-3.94l-7.09,18.44A1.85,1.85,0,0,0,36,360.41c3.52,0,7.64-3.38,9.4-8h-1.2C43,354.11,41,356,39.08,356.34Zm1.29-9.27A3.05,3.05,0,0,0,51,325.59a3.09,3.09,0,0,0-3.06-3.06,3.05,3.05,0,0,0-3.05,3.06,3,3,0,0,0,3.05,3.05m-18.66-3H12.41l-.47,1.44c5,1,5.42,1.48,3.11,7.87L9.58,350.18c-2.31,6.34-3.29,6.85-9,7.87l-.42,1.43H25.84l5.55-9.9H29.45c-3.15,3.47-6.86,7.82-12.55,7.82-4.31,0-4.82-.74-2.5-7.22L19.86,335c2.27-6.35,3.29-6.86,9-7.87Z"/><path class="a" d="M95.34,74c.9-.9,1.81-1.86,2.72-2.83h0a52.76,52.76,0,0,1,5.28-5.4,17.67,17.67,0,0,1,1.73-1.38c.15-.15.15-.47.31-.63-.79.32-1.27,1-2.06,1.27-.16,0-.31-.16-.16-.32l1.7-1.27h-.11c-.16,0-.16-.15-.16-.31-2.06-.32-3.65,1.11-5.07,2.37-.32.16-.64-.15-.79-.15-2.38.79-4.12,2.85-6.5,3.8V68.8c-.95.32-1.88.89-2.85,1.11a16.84,16.84,0,0,1-4,.16,50.45,50.45,0,0,0-5.76,1l-.16,0a13,13,0,0,0-3,1.19l-.11.06a3.2,3.2,0,0,1-.22.27,3.93,3.93,0,0,1-1.09,1,16.12,16.12,0,0,0-2.63,2.06.39.39,0,0,1-.25.08c-.85.82-1.69,1.64-2.56,2.44a.75.75,0,0,1-.48.06h0a1.3,1.3,0,0,1,.1-.15c.13-.23.26-.45.4-.67s.31-.49.47-.74.44-.65.68-1a.15.15,0,0,0,0-.21.31.31,0,0,0-.22-.08,15.12,15.12,0,0,1,2.66-2v0c-.11,0-.26,0-.18-.15s.18-.29.27-.44l.06-.14-.12-.12a5,5,0,0,0-.75.52c-.38.34-.68,1-1.25,1l-.24,0a.38.38,0,0,1-.17-.06l0,0,0,0,0,0a1,1,0,0,1,.08-.14l.07-.13.06-.11.11-.2.09-.15c.06-.12.13-.23.2-.35l.1-.17.17-.28c.08-.14,0-.24-.12-.29a3.5,3.5,0,0,1,1.08-.94h0c.6-.31,1.21-.68,1.82-1l.26-.23a10.77,10.77,0,0,0-2.52,1.25,1.16,1.16,0,0,0-.27.14.4.4,0,0,1-.4-.14.21.21,0,0,1,0-.12c.16-.32.63-.48,1-.79.16,0,.31,0,.31.16,5.08-4,12-3,17.91-5.07l1.43-1c.79-.31,1.42-1.1,2.38-1.58a7,7,0,0,0,2.69-3.65.56.56,0,0,0-.16-.31,24.48,24.48,0,0,1-7,5.23c-3.33,1.74-7,1.42-10.46,1.9.16-.32.47-.32.79-.32,0-.47.32-.63.64-.95h.47c.16,0,.16-.32.32-.32.31,0,.79-.15.63-.15-.47-.64-1.42.47-2.22,0,.32-.32.16-.8.48-.95h.63a1.12,1.12,0,0,1,.32-.64c2.38-1.43,4.6-2.53,6.81-3.8-.47,0-.79.47-1.26.16.31,0,0-.48.31-.48,1.75-.47,3.17-1.43,4.92-2.06-.64,0-1.11.48-1.75,0,.32-.16.48-.47,1-.47v-.48c0-.16.16-.16.32-.16a.56.56,0,0,1-.32-.16c.16-.31.64-.16,1-.47-.15,0-.47,0-.47-.16a3.16,3.16,0,0,1,2.06-.95c-.16-.32-.64,0-.64-.32,0-.16.16-.16.32-.16h-.32c-.31-.16-.15-.47-.15-.63,1-1.11,1-2.54,1.42-3.8-.16,0-.31,0-.31-.16-1.59,1.74-4.12,2.37-6.5,3H87.3a3.28,3.28,0,0,1-2.7-.16A11,11,0,0,1,83,50.1a18.74,18.74,0,0,0-4-1.9,35.56,35.56,0,0,0-12.21-1.74c1.75-1,3.67-1,5.55-1.59,2.69-.79,5.23-1.74,8.08-1.58a5.23,5.23,0,0,0-1.58,0c-2.22-.16-4.44.47-6.82,1-1.58.31-3,.95-4.59,1.27-.95.31-1.43,1.26-2.54,1.11v-.48c1.59-1.9,3.49-3.8,6-4,2.86-.48,5.55,0,8.4.31a41,41,0,0,1,6,1.11c.8,0,1,1.27,1.59,1.43,1,.32,1.9,0,2.85.63,0-.31-.16-.63,0-.95.64-.63,1.43.16,2.06-.16,1.27-.79-1.11-2.21-1.74-3.32a.56.56,0,0,1,.16-.32c1.26,1.11,2.22,2.38,3.8,3.17.79.32,2.69.79,2.38-.16-.79-1.74-2.38-3.17-3.65-4.75v-.64c-.31,0-.31-.16-.47-.31v-.64c-.64-.32-.48-.95-.8-1.42-.47-.8-.15-1.91-.47-2.86a15.4,15.4,0,0,1-.63-2.69C90,27.91,89.36,25.54,89,23c-.32-3,1.74-5.39,3.17-8.08a13.61,13.61,0,0,1,4.44-5.07,13.77,13.77,0,0,1,3-5.07,13.14,13.14,0,0,1,4.89-3.17A42,42,0,0,1,108.76,0H0V83.86H77c3-2.17,6-3.2,10.24-5.28C89.25,77.6,93.8,75.52,95.34,74ZM71,62.62c-.31,0-1,.16-.79-.16.16-.79,1.27-.79,1.9-1.11.32-.16.79-.47,1.11-.31.32.47.79.31,1.11.63C73.35,62.62,72.08,62.15,71,62.62ZM46.73,59.13a.52.52,0,0,1-.16-.31,49.55,49.55,0,0,0,5.07-8.08A22,22,0,0,0,57,46.3a30.68,30.68,0,0,1,8.87-7,6.15,6.15,0,0,1,4.12.15c-.47.64-1.27.48-1.9,1a.61.61,0,0,1-.48-.15.59.59,0,0,0,.16-.48c-1.58,1.74-3.8,2.54-5.07,4.6C61.78,46,61.15,48,59.09,48.52c-.64.16.16-.48-.16-.32C54,51.21,50.53,54.86,46.73,59.13ZM59.88,48.68c-.16.31-.33.35-.48.63a1.18,1.18,0,0,1-.63.63c-.16,0-.32,0-.32-.16a2,2,0,0,1,1.27-1.42C59.88,48.36,59.88,48.52,59.88,48.68Zm7.36,23.74a1.39,1.39,0,0,1-.39.46c.2,0,.34.13.21.25a3.54,3.54,0,0,1-1.2.83.9.9,0,0,1-.25,0c-.19.19-.39.37-.59.55s-1.06,0-.79-.19.77-.74,1.17-1.1c.22-.21.46-.4.66-.63a1.94,1.94,0,0,1,.34-.36C66.53,72.18,67.37,72.11,67.24,72.42ZM64.4,71.11l0,0c-.59.42-1.18.84-1.81,1.2s-1.39.7-2.09,1c0,0,0,0,0,0a.21.21,0,0,0-.27-.06,7.26,7.26,0,0,0-1.59,1.21,2.28,2.28,0,0,0-.22.22h0l-.22.22,0,0v0c-.11.11-.22.22-.35.37a.73.73,0,0,1-.21.22c-.1.06-.37.06-.34-.12v0l-.28.14a2,2,0,0,0-.25.14.2.2,0,0,0-.11,0,.15.15,0,0,0-.11,0c-.2.15-.39.31-.58.48a7.66,7.66,0,0,0-.91,1l0,0,0,0-.05.06,0,.07v0l-.11.15h0a.26.26,0,0,1-.13.07l-.06-.1a.56.56,0,0,1-.05-.08c0-.08-.09-.16-.13-.25h0a.3.3,0,0,1,0-.08c.17-.18.33-.37.5-.57l0,0,.16-.2L55.2,76l.09-.12c.18-.23.34-.45.5-.67v0l.07-.1c.08-.11.15-.23.22-.34a3.24,3.24,0,0,0,.17-.32v0l0,0,0-.06.15-.37v0a.49.49,0,0,1,0-.11,1.54,1.54,0,0,1,0-.17h0v0l.06-.23a.13.13,0,0,0,0-.11,5.56,5.56,0,0,1,.63-.86l-.07.05c-.23.14-.38.35-.59.5s-.49-.08-.29-.23a3.92,3.92,0,0,0,.36-.33l0,0a8.75,8.75,0,0,1,.81-.8c.18-.13.34-.25.48-.37a.23.23,0,0,0,.07-.07,4.48,4.48,0,0,1,.36-.4h0c1.51-1.47,4.07-1.4,6.07-2.33.79-.32,1.74.15,2.53,0a2.41,2.41,0,0,1,1.43.31C67,69.42,65.7,70.3,64.4,71.11Zm3.24-11c-.15-.16.48,0,.64-.32H67c-.16,0-.16-.16-.16-.32-.79.16-1.74.48-2.53.64-1.11.31-2.06,1.1-3.33,1.42-1.74.64-3.17,2.06-5.07,2.7-.16,0-.16-.16-.16-.32.16-.48.79-.63,1.11-1.11,0-.16,0-.32-.16-.32,1.27-1.74,3-2.69,4.6-4.12v-.47c.47-.64,1.26-.95,1.58-1.75a2.83,2.83,0,0,1,1.59-1.42c-.16-.16-.48-.16-.48-.48-.63,0-1.27.32-1.9-.16a2.29,2.29,0,0,1,1-.56.58.58,0,0,1-.36-.23c-.16-.32.31-.67.79-.79.64-.16,1.43-.16,1.91-.64-1.11-.15-2.38.32-3.49-.31a8.47,8.47,0,0,1,4-4.76c.16,0,.48,0,.48.16a1.56,1.56,0,0,1-1.27,1.59,16,16,0,0,1,3.8.95c-.16.31-.47.16-.63.16.79.47,1.74.15,2.53.79-.47.47-1,0-1.42,0,4.91,1.42,10.14,2.53,14.26,5.7a43.33,43.33,0,0,1-10.93,3.33,3.44,3.44,0,0,1-1.27-.16c0,.16,0,.48-.16.48a2.57,2.57,0,0,0-1.58.32A2,2,0,0,1,67.64,60.09Z"/><path class="b" d="M230.63,0H140.41a4.18,4.18,0,0,1,.86.4l2.27,1.21a7.51,7.51,0,0,1,3,2.53c.31.48.79,1.43.47,2.06-.32.8-.47,2.06-1.27,2.38a5.81,5.81,0,0,1-3.32.32,8,8,0,0,1-1.91-.32c2.38.95,4.6,2.06,6.18,4.28.16.32.8.48,1.43.48.16,0,.16.31.16.47-.32.32-.63.48-.48.95h.48c.79-.32.63-1.9,1.74-1.42a1.79,1.79,0,0,1,.64,2.37,16.75,16.75,0,0,1-1.91,1.59,1.43,1.43,0,0,0,0,1.11,4.79,4.79,0,0,1,.8,1.9c.47,1.11.63,2.38,1.11,3.48a22.72,22.72,0,0,1,1.11,7.14c0,1.26-.64,2.37-.16,3.64a13.22,13.22,0,0,0,1.74,3.33,23.85,23.85,0,0,1,1.74,2.53c.95,1.59,2.7,3.17,1.91,5.08-.48,1.11-2.22,1-3.33,1.58-.95.79-.16,2.06.31,2.85.8,1.43-.95,2.38-2.06,2.86.32.47,1,.31,1.11.63.16.79.95,1.27.48,2.06-.64.95-2.54,1.43-1.59,2.85.64,1.11.23,2.34-.15,3.49a3.9,3.9,0,0,1-2.86,2.38,6.54,6.54,0,0,1-3,.15,2.31,2.31,0,0,0-1-.31c-2.69-.32-5.39-1.11-8.08-1.11a9.47,9.47,0,0,0-2.22.63,14.46,14.46,0,0,0-1.92,1.7l0,0-.34.38-.21.25s-.09.1-.13.16a15.16,15.16,0,0,0-1.25,1.83l-.07.12-.12.22a14.67,14.67,0,0,0-1.2,2.91c-1.08,3.63-.61,6.74.15,7.5.21.21,5.23,1.76,8.73,3.31A30.3,30.3,0,0,1,142,83.86h88.59Z"/><path class="c" d="M145.78,30.59c.63.16,1.58.16,1.58.48-.31,1.27-2.22,1.58-3.17,2.85h-.47c-.48.32-.32,1.11-.8,1.11a2.2,2.2,0,0,0-1.42.16,2.72,2.72,0,0,0,2.38,1,.72.72,0,0,1,.47.64.5.5,0,0,0,.32-.16c.16,0,.32,0,.32.16v.63c-.48.63-1.27.32-1.91.47a7.05,7.05,0,0,0,3.65,0c1-.31,0-1.9.63-2.69-.31,0,0-.47-.31-.47.31-.32.63-.8.95-1a1.13,1.13,0,0,0,.95-.47c0-.32-.64-.48-.48-.79.95-.64,1.74-1.59,1.43-2.54-.16-.47-1.43-.47-2.22-.79a5.23,5.23,0,0,0-2.69.16,12.88,12.88,0,0,0-2.38.63,10.87,10.87,0,0,0-3,1.59,22.4,22.4,0,0,1,3.48-1A10.61,10.61,0,0,1,145.78,30.59Z"/></svg>