<svg viewBox="0 0 650 130" xmlns="http://www.w3.org/2000/svg" fill-rule="evenodd" clip-rule="evenodd" stroke-linejoin="round" stroke-miterlimit="1.414"><g fill="#373c42" fill-rule="nonzero"><path d="M327.279 50.117v31.055h-7.266v-4.036c-2.62 2.803-5.677 4.372-9.171 4.708-.555.038-1.151.056-1.786.056-5.201 0-9.39-1.737-12.566-5.213-2.699-2.989-4.049-6.633-4.049-10.93 0-5.158 1.826-9.306 5.479-12.445 3.096-2.616 6.868-3.924 11.314-3.924 4.328 0 7.762 1.42 10.303 4.261.159.186.318.392.476.616v-4.148h7.266zm-17.211 6.11c-3.494 0-6.134 1.308-7.92 3.924-1.152 1.644-1.727 3.569-1.727 5.774 0 3.475 1.389 6.035 4.168 7.679 1.588.972 3.454 1.458 5.598 1.458 3.137 0 5.539-.935 7.206-2.803 1.469-1.869 2.263-3.999 2.382-6.39 0-3.551-1.35-6.222-4.049-8.016-1.628-1.084-3.514-1.626-5.658-1.626zM336.152 91.542V50.117h7.265v3.644c2.66-2.915 6.273-4.373 10.839-4.373 5.161 0 9.31 1.738 12.446 5.214 2.66 2.989 3.99 6.633 3.99 10.93 0 5.083-1.786 9.193-5.359 12.332l-1.846 1.458c-2.74 1.719-5.837 2.578-9.291 2.578-3.89 0-7.265-1.214-10.123-3.643v13.285h-7.921zm17.092-35.315c-3.296 0-5.876 1.233-7.742 3.7-1.271 1.644-1.906 3.531-1.906 5.661 0 3.289 1.29 5.849 3.871 7.68 1.707 1.196 3.672 1.794 5.896 1.794 3.136 0 5.617-1.215 7.444-3.644 1.27-1.644 1.905-3.55 1.905-5.718 0-3.251-1.27-5.811-3.811-7.679-1.628-1.196-3.513-1.794-5.657-1.794zM378.434 81.172V50.117h7.921v31.055h-7.921zm0-34.418v-7.007h7.921v7.007h-7.921zM399.933 75.566c-1.787 0-3.276 1.402-3.276 3.195 0 1.626 1.489 3.027 3.216 3.027 1.846 0 3.395-1.345 3.395-3.027 0-1.737-1.549-3.195-3.335-3.195zM439.178 50.117h7.563v25.169c0 5.68-1.112 9.884-3.335 12.612-3.176 3.775-7.762 5.662-13.757 5.662-6.312 0-11.156-1.981-14.531-5.942a15.507 15.507 0 0 1-2.441-3.924h8.992c1.906 1.981 4.189 3.065 6.849 3.251.436.038.913.056 1.429.056 5.876 0 8.953-3.307 9.231-9.921-2.541 2.802-5.479 4.372-8.814 4.708a17.29 17.29 0 0 1-2.025.112c-5.082 0-9.171-1.775-12.268-5.325-2.62-3.027-3.93-6.745-3.93-11.155 0-4.97 1.767-9.006 5.3-12.108 3.017-2.616 6.67-3.924 10.958-3.924 4.764 0 8.357 1.551 10.779 4.653v-3.924zm-9.886 6.11c-3.613 0-6.233 1.402-7.861 4.204-.873 1.532-1.31 3.308-1.31 5.326 0 3.849 1.469 6.577 4.407 8.184 1.389.747 3.017 1.121 4.883 1.121 3.732 0 6.432-1.383 8.099-4.148.874-1.458 1.31-3.177 1.31-5.157 0-3.663-1.389-6.353-4.168-8.072-1.35-.86-2.899-1.346-4.645-1.458h-.715zM471.872 49.388c5.161 0 9.449 1.701 12.863 5.101 3.176 3.14 4.764 6.933 4.764 11.38 0 4.372-1.747 8.146-5.24 11.323-3.454 3.139-7.563 4.708-12.328 4.708-4.883 0-9.052-1.625-12.506-4.876-3.335-3.177-5.002-6.97-5.002-11.38 0-4.521 1.747-8.37 5.241-11.547 3.414-3.139 7.483-4.709 12.208-4.709zm.059 6.839c-2.977 0-5.439 1.14-7.384 3.42-1.429 1.719-2.144 3.68-2.144 5.885 0 3.177 1.251 5.718 3.752 7.624 1.707 1.27 3.652 1.906 5.836 1.906 3.057 0 5.538-1.177 7.444-3.532 1.39-1.719 2.084-3.681 2.084-5.886 0-3.027-1.211-5.493-3.632-7.399-1.747-1.345-3.732-2.018-5.956-2.018zM526.303 50.117v31.055h-7.325v-2.971c-2.303 2.13-4.804 3.326-7.504 3.587l-1.965.112c-4.447 0-7.801-1.532-10.064-4.596-1.509-2.093-2.323-4.933-2.442-8.52-.04-.598-.06-1.271-.06-2.018V50.117h7.921v15.191c0 3.924.536 6.521 1.608 7.792 1.032 1.308 2.58 1.962 4.645 1.962 2.819 0 4.824-.953 6.015-2.859.833-1.196 1.25-3.681 1.25-7.455V50.117h7.921zM545.776 81.172l-13.28-31.055h8.814l7.623 20.572 7.503-20.572h8.933l-13.28 31.055h-6.313zM569.812 75.568c-1.681 0-3.081 1.401-3.081 3.194 0 1.625 1.4 3.026 3.025 3.026 1.737 0 3.194-1.345 3.194-3.026 0-1.737-1.457-3.194-3.138-3.194zM583.212 53.914h6.17l-6.238 28.885c-1.627 7.459-3.865 11.188-6.78 11.188-.814 0-1.357-.475-1.357-1.153 0-.203.068-.339.272-.678.271-.474.339-.746.339-1.152 0-1.492-1.221-2.645-2.713-2.645-1.423 0-2.508 1.288-2.508 2.916 0 2.305 2.373 4.136 5.356 4.136 6.171 0 10.985-6.781 13.968-19.46l5.086-22.037h7.526l.407-2.17h-7.391c2.034-10.849 4.679-15.663 8.476-15.663.949 0 1.492.339 1.492.881 0 .136-.068.339-.272.678-.339.543-.406.882-.406 1.424 0 1.628 1.017 2.712 2.508 2.712 1.56 0 2.916-1.288 2.916-2.78 0-2.508-2.509-4.407-5.899-4.407-3.322 0-6.035 1.492-8.544 4.679-2.034 2.712-3.458 5.831-5.56 12.476h-6.373l-.475 2.17zM610.877 81.172c3.729-11.866 4.882-14.646 8.001-19.867 2.373-3.865 4.272-5.967 5.424-5.967.475 0 .814.271 1.153.949.543 1.153 1.085 1.492 2.441 1.492 2.034 0 3.187-1.221 3.187-3.391 0-2.169-1.288-3.526-3.187-3.526-1.559 0-3.458 1.018-5.221 2.916-2.848 2.848-5.696 6.984-6.781 9.629l-1.017 2.508 3.798-14.917-.204-.136c-4.95.882-5.696 1.018-10.645 1.831v1.153c1.491-.271 1.762-.339 2.305-.339 1.492 0 2.373.678 2.373 1.898 0 .882-.542 3.662-1.085 5.696l-5.763 20.071h5.221z"/></g><clipPath id="a"><path d="M0 0h245.808v130H0z"/></clipPath><g clip-path="url(#a)" fill-rule="nonzero"><path fill="#fff" d="M0 0h244.558v74.613H0z"/><path d="M195.292 129.916c-.134-.049-.143-.183-.029-.475.142-.371.21-.401.762-.335.498.062.646.019.848-.252.404-.517.094-.891-.646-.768-.566.095-.566.089-.458-.298.337-1.232.364-1.163-.646-1.346a6.175 6.175 0 0 1-3.273-1.728c-1.346-1.346-1.804-2.707-1.67-4.896.068-1.114.162-1.549.553-2.325 1.185-2.372 3.905-3.58 7.568-3.365.794.047 1.791.17 2.235.271l.794.183.081 2.639h-.485c-.282 0-.484-.079-.484-.183 0-.379-.983-1.241-1.67-1.476-.889-.314-2.613-.236-3.488.143-1.979.863-2.882 3.097-2.276 5.658.283 1.175.741 1.972 1.616 2.795.835.771 1.684 1.085 2.949 1.085 1.334 0 2.263-.484 2.855-1.49.404-.679.539-.77.929-.548.175.104.175.339.014 1.424l-.202 1.306-.727.222c-.404.118-1.32.262-2.034.314-1.252.078-1.319.105-1.319.418 0 .248.094.34.363.34.525 0 1.024.366 1.145.849.134.562-.31 1.385-.889 1.659-.417.196-2.06.275-2.478.118l.062.061zm-94.605-.603c-1.373-.366-2.558-.919-3.986-1.856l-1.225-.812-1.899-.089c-2.114-.098-2.854-.311-4.215-1.218-3.016-1.996-3.124-7.079-.202-9.55 2.209-1.865 6.074-2.248 8.848-.882 3.757 1.844 4.161 7.286.74 10.138-.525.442-1.037.804-1.144.804-.323 0 3.42 1.846 4.511 2.224 1.212.418 2.612.473 3.649.143.754-.239.889-.209 1.01.225.081.255-.054.362-.808.679-1.198.502-3.703.595-5.211.194h-.068zm-4.659-4.435c2.666-1.254 3.178-5.274.997-7.841-2.02-2.378-5.562-2.019-6.895.701-1.198 2.456.175 6.256 2.626 7.262.996.405 2.262.361 3.286-.122h-.014zm-83.572 1.487c-.727-.287-1.53-1.182-2.795-3.122-1.946-2.985-2.311-3.424-2.855-3.424h-.472l.004 1.617c.007 2.946.337 3.953 1.365 4.187.274.062.382.186.382.442v.356H1.567v-.326c0-.248.122-.366.499-.471.276-.065.651-.313.835-.535.327-.392.334-.536.334-5.971 0-5.435-.007-5.579-.334-5.971-.184-.222-.559-.457-.835-.536-.364-.091-.499-.209-.499-.444 0-.313.017-.313 4.038-.405 4.279-.091 5.222-.026 6.428.51 1.053.457 1.933 1.855 1.934 3.07.003 1.398-1.145 2.966-2.66 3.645l-.794.353 1.755 2.365c2.06 2.796 2.706 3.541 3.312 3.828.566.261.62.849.095.967-.647.157-2.734.091-3.219-.105v-.03zm-3.976-7.996c2.131-.535 2.85-3.206 1.238-4.599-.759-.653-1.564-.892-2.593-.764l-.781.098v5.425h.754c.417 0 1.05-.072 1.387-.16H8.48zm36.635 7.996c-.871-.279-1.692-.78-2.127-1.293-.791-.937-.875-1.428-.884-5.233-.01-3.977-.094-4.416-.902-4.753-.323-.136-.514-.32-.517-.503-.003-.274.102-.288 2.7-.288 2.697 0 2.704 0 2.704.324 0 .217-.094.323-.291.323-.159 0-.463.167-.676.37l-.385.371v3.899c0 3.668.019 3.932.33 4.465.485.837 1.454 1.264 2.696 1.197 1.333-.073 2.06-.5 2.585-1.536.404-.795.418-.834.418-4.325 0-3.122-.027-3.564-.283-3.906-.162-.213-.458-.428-.673-.476-.256-.056-.404-.192-.404-.362 0-.252.148-.27 2.141-.27s2.141.018 2.141.27c0 .17-.148.306-.39.361-.741.156-.795.47-.876 4.612l-.081 3.88-.484.836c-.566.993-1.482 1.686-2.653 1.999-.997.262-3.326.275-4.121.013l.032.025zm62.015 0c-.881-.282-1.694-.781-2.144-1.314-.75-.889-.858-1.542-.867-5.289-.014-3.893-.108-4.338-.903-4.677-.336-.135-.525-.319-.525-.502-.013-.274.094-.288 2.693-.288 2.667 0 2.694.004 2.694.314 0 .209-.122.327-.35.359-.189.026-.499.228-.674.451-.31.379-.336.614-.39 3.76-.068 3.864.054 4.678.781 5.348 1.306 1.215 4.04.875 4.807-.588.485-.928.606-2.077.552-5.122-.067-3.214-.175-3.619-1.01-3.802-.256-.052-.404-.183-.404-.352 0-.249.148-.262 2.141-.262s2.155.026 2.155.275c0 .17-.189.339-.471.444-.256.104-.526.287-.593.418-.067.131-.161 1.986-.215 4.129l-.095 3.893-.484.849c-.566.993-1.482 1.686-2.667 1.999-.996.275-3.326.288-4.12.026l.089-.069zm50.332-.004c-.636-.251-1.391-1.1-2.561-2.881-1.511-2.299-1.684-2.508-2.077-2.508-.35-.003-.357.026-.357 1.795 0 2.145.198 2.75.947 2.885.377.068.485.163.485.428v.34h-5.408v-.34c0-.265.107-.36.485-.428.906-.163.969-.551.915-5.546l-.048-4.423-.385-.371c-.212-.203-.516-.37-.676-.37-.179 0-.29-.104-.29-.274 0-.235.162-.288 1.172-.374.646-.065 2.41-.078 3.932-.052 2.478.039 2.841.078 3.434.366 1.05.496 1.642 1.476 1.642 2.704 0 1.176-.74 2.208-2.1 2.901-.431.222-.714.444-.62.496.095.053.795.941 1.562 1.986 1.509 2.051 2.344 2.966 2.694 2.966.309 0 .282.666-.027.771-.445.157-2.195.078-2.694-.118l-.025.047zm-2.938-6.751c.632-.294 1.252-1.003 1.368-1.563.151-.719-.202-1.66-.808-2.182-.562-.471-1.104-.614-2.044-.51l-.573.065v4.416h.803c.431 0 .996-.091 1.252-.209l.002-.017zm70.777 6.726c-.475-.117-.894-.235-.929-.267-.033-.026-.151-.667-.256-1.424l-.196-1.372h.448c.247 0 .449.052.449.117 0 .379 1.043 1.477 1.648 1.738 1.636.719 3.599.039 3.598-1.228 0-.836-.45-1.333-1.982-2.195-2.149-1.215-2.98-1.855-3.407-2.639-.431-.771-.505-1.986-.183-2.862.213-.575 1.212-1.45 2.053-1.777.846-.339 3.496-.326 4.592.014l.835.261v2.561h-.458c-.358 0-.482-.079-.56-.353-.165-.601-1.018-1.346-1.732-1.516-1.898-.457-3.433 1.307-2.235 2.587.229.248 1.266.967 2.303 1.607 2.02 1.228 2.76 1.908 3.016 2.705.552 1.777-.363 3.358-2.329 4.011-1.051.366-3.327.392-4.66.065l-.015-.033zm-208.311-.3c0-.256.089-.332.385-.332.229 0 .521-.157.717-.379.316-.363.328-.542.328-4.886 0-3.154-.067-4.606-.188-4.824-.243-.402-.62-.662-.97-.666-.188-.005-.283-.122-.283-.366v-.358h9.548v3.031l-.418-.044c-.323-.034-.471-.166-.606-.536-.323-.854-.848-1.074-2.733-1.137l-1.67-.055v4.087l1.279-.065c1.387-.075 2.088-.379 2.182-.954.027-.228.161-.309.471-.309h.418v3.736h-.431c-.35 0-.445-.065-.445-.34 0-.64-.538-.875-2.087-.927l-1.414-.052v2.025c0 2.43.014 2.469 1.832 2.469 1.79 0 2.72-.405 3.191-1.398.229-.496.781-.64.956-.248.108.261-.337 1.947-.673 2.535l-.243.418-4.605-.027-4.605-.026v-.326l.064-.046zm12.244.044c0-.261.107-.359.457-.424.835-.152.876-.366.93-4.974.053-4.799-.014-5.232-.889-5.596-.364-.152-.512-.314-.525-.551v-.338l3.609.061c3.905.065 4.228.13 5.292.927 1.158.889 1.468 2.652.673 3.959-.687 1.15-1.885 1.751-3.77 1.921l-.997.091-.242-.549-.256-.548.579-.079c.74-.091 1.548-.522 1.979-1.045.243-.287.337-.601.324-1.15-.027-1.398-.889-2.247-2.411-2.365l-.862-.065.041 4.795c.054 5.226.08 5.37.969 5.54.323.065.431.17.431.431v.34h-5.4v-.34l.068-.041zm26.393-.052c0-.222.094-.324.296-.324.162 0 .472-.124.674-.274l.377-.275.04-4.447c.054-4.978-.013-5.354-.929-5.665-.296-.098-.485-.267-.485-.418 0-.233.216-.262 2.424-.293 4.632-.068 5.615-.021 6.37.308.969.428 1.427 1.046 1.508 2.052.027.453.013.982-.041 1.176-.161.561-.902 1.251-1.723 1.594l-.768.316.647.173a3.1 3.1 0 0 1 2.302 3.411c-.175 1.306-.794 2.051-2.249 2.652-.767.313-.969.326-4.645.326h-3.81v-.326l.012.014zm7.003-1.08c.807-.489 1.131-1.154 1.036-2.156-.134-1.503-1.306-2.398-3.137-2.398h-.97l.041 2.167c.04 2.074.067 2.176.417 2.439.539.4 1.872.374 2.572-.052h.041zm-.66-5.962c.969-.34 1.481-1.028 1.387-1.864-.135-1.124-1.145-1.749-2.815-1.749h-.956v3.874l.835-.008c.458-.004 1.145-.117 1.535-.253h.014zm6.517 7.05c0-.231.108-.327.418-.358.229-.026.565-.222.754-.451.323-.392.336-.562.336-4.808 0-3.527-.053-4.472-.228-4.76-.283-.448-.647-.705-1.01-.712-.189-.013-.283-.117-.283-.339 0-.327 0-.327 2.855-.327 2.854 0 2.854 0 2.854.314 0 .222-.094.313-.309.313-.175 0-.512.157-.754.34l-.404.379-.054 4.52-.041 4.521.404.235c.324.183.66.222 1.643.17 1.508-.078 2.222-.418 2.64-1.267.269-.562.579-.693.996-.458.148.092.121.353-.121 1.242-.175.614-.431 1.28-.566 1.463l-.256.34-4.443-.053-4.444-.052v-.313l.013.061zm11.123.044c0-.265.108-.36.485-.428.875-.157.943-.549.943-5.36 0-3.995-.027-4.303-.31-4.736-.175-.254-.498-.504-.714-.554-.283-.052-.404-.183-.404-.392 0-.3.041-.3 2.707-.3s2.693.013 2.693.313c0 .209-.134.34-.39.405a1.328 1.328 0 0 0-.674.484c-.255.353-.282.823-.282 4.769 0 4.873.067 5.265.888 5.422.337.065.445.17.445.431v.34h-5.4v-.34l.013-.054zm38.002-.026c0-.235.121-.337.484-.402.876-.157.943-.549.943-5.375 0-4.228-.013-4.295-.364-4.776-.202-.267-.525-.509-.713-.533-.256-.032-.35-.143-.35-.394v-.349h9.372v1.506c0 1.49-.013 1.503-.39 1.503-.31 0-.404-.092-.485-.497-.189-.849-.835-1.136-2.734-1.202l-1.602-.052-.108.68c-.054.365-.108 1.293-.108 2.038v1.358l1.347-.078c1.481-.091 2.074-.327 2.235-.901.068-.262.202-.366.472-.366h.377v3.723h-.391c-.269 0-.404-.078-.404-.248-.013-.718-.781-1.045-2.383-1.045h-1.307l.054 2.012c.068 2.443.054 2.43 1.953 2.43 1.683 0 2.558-.366 3.016-1.254.229-.457.404-.614.66-.614.189 0 .404.065.458.157.148.209-.566 2.547-.848 2.796-.189.169-.997.196-4.741.169l-4.511-.026v-.313l.068.053zm17.492.034c0-.235.148-.392.498-.538.283-.112.647-.387.835-.61.323-.392.323-.569.323-5.812 0-6.088-.013-6.153-1.117-6.48-.431-.131-.566-.248-.566-.523v-.352H146.2v3.593h-.485c-.39 0-.484-.066-.484-.327 0-.536-.593-1.254-1.239-1.503-.377-.143-1.239-.261-2.37-.3l-1.791-.065v4.912l1.306-.013c1.751-.013 2.343-.209 2.72-.888.242-.445.377-.549.754-.549h.471v4.324l-.511-.052c-.35-.039-.539-.143-.593-.339-.256-.85-1.225-1.229-3.164-1.229h-1.024l.068 2.548c.067 2.901.202 3.332 1.158 3.632.417.131.552.262.552.51v.326h-6.518v-.326l.054.061zm25.438-.026c0-.261.08-.358.309-.358.485 0 1.037-.895 2.249-3.619 1.616-3.653 3.151-7.365 3.151-7.63 0-.179.162-.23.754-.227l.754.002 2.142 4.961c2.329 5.387 2.76 6.224 3.299 6.441.215.085.35.265.35.464 0 .327 0 .327-2.707.327h-2.707v-.343c0-.261.108-.36.472-.426.687-.122.727-.54.202-1.959l-.458-1.219h-3.757l-.377 1.006c-.485 1.267-.458 2.129.067 2.208.256.039.35.143.35.392v.352h-4.134v-.352l.041-.02zm7.312-5.024c0-.209-1.172-3.083-1.266-3.083-.067 0-.229.274-.364.614l-.673 1.581-.404.967h1.347c.74 0 1.346-.026 1.346-.065l.014-.014zm6.84 5.044c0-.249.108-.353.431-.418.862-.157.889-.353.956-5.044.068-4.834 0-5.239-.929-5.552-.282-.092-.484-.262-.484-.418 0-.223.175-.249 1.791-.249h1.777l1.037 1.189c.566.654 2.033 2.247 3.259 3.554a165.61 165.61 0 0 1 2.585 2.809l.364.431-.054-3.24c-.054-3.528-.148-3.893-.997-4.089-.255-.053-.404-.196-.404-.366 0-.248.149-.275 2.142-.275 2.02 0 2.141.027 2.141.288 0 .183-.135.3-.35.326-.189.027-.499.236-.674.458-.323.392-.336.588-.39 5.709l-.054 5.305h-.7c-.633 0-.754-.052-1.226-.601-.431-.484-7.164-8.022-7.42-8.284-.04-.039-.04 1.542 0 3.515.068 4.011.175 4.481.93 4.625.35.065.457.157.457.418v.34H174.6v-.34l.094-.091zm27.821-.013c0-.209.081-.353.216-.353.31 0 .902-.666 1.32-1.516.579-1.163 3.299-7.499 3.77-8.78l.431-1.189 1.427.105 2.101 4.886c1.158 2.692 2.235 5.109 2.397 5.383.35.641.875 1.15 1.145 1.15.121 0 .215.157.215.366v.366h-5.413v-.366c0-.248.081-.353.283-.353.767 0 .834-.601.255-2.182l-.417-1.11h-3.73l-.337.967c-.633 1.829-.606 2.338.148 2.338.216 0 .297.105.297.366v.366h-4.134v-.366l.026-.078zm6.747-6.415c-.31-.81-.593-1.568-.646-1.686-.054-.131-.377.418-.795 1.372-.39.875-.7 1.633-.7 1.685 0 .066.592.118 1.333.118h1.333l-.552-1.463.027-.026zm7.245 6.428c0-.275.081-.353.363-.353.202 0 .512-.131.674-.301.269-.274.296-.614.336-4.768.027-2.457.014-4.612-.04-4.782-.108-.405-.7-.902-1.064-.902-.202 0-.296-.104-.296-.313 0-.314 0-.314 2.693-.314 2.599 0 2.707.013 2.707.287 0 .183-.175.366-.472.471-.255.104-.525.366-.619.575-.229.548-.364 5.03-.216 7.447.095 1.685.162 2.09.418 2.339.162.169.431.3.592.3.202 0 .283.105.283.366v.366h-5.4v-.366l.041-.052zm17.802-.026c0-.249.094-.327.39-.327.229 0 .512-.157.714-.379.31-.366.323-.536.323-4.886 0-3.149-.054-4.599-.188-4.821-.243-.392-.62-.654-.97-.667-.188 0-.283-.117-.283-.366v-.352h9.534v3.031l-.417-.039c-.31-.027-.458-.157-.593-.536-.309-.849-.834-1.071-2.733-1.137l-1.67-.052v4.05h.997c1.373-.013 2.046-.235 2.343-.81.175-.34.336-.457.633-.457h.39v3.723h-.404c-.363 0-.444-.065-.444-.339 0-.64-.525-.876-2.088-.928l-1.413-.052v2.012c0 2.43.026 2.469 1.844 2.469 1.791 0 2.721-.405 3.192-1.398.229-.496.781-.64.956-.248.108.261-.337 1.947-.673 2.535l-.243.418-4.605-.026-4.606-.026v-.34l.014-.052zM21.29 112.95l-.387-.271.946-1.293c.52-.719 1.046-1.307 1.171-1.307.536 0 2.249.327 2.206.431-.086.207-3.224 2.731-3.387 2.727-.087 0-.334-.123-.548-.274l-.001-.013zm-20.199-9.914h242.174v1.287H1.088v-1.291l.003.004zm92.169-2.94c-1.272-.41-1.988-1.476-1.756-2.626.161-.771.646-1.314 1.508-1.672l.754-.314-.458-.235c-.256-.137-.458-.362-.458-.523 0-.261 1.172-1.306 1.454-1.306.068 0-.026-.239-.215-.531-.808-1.246-.162-3.047 1.36-3.752.822-.383 1.104-.399 3.986-.233 1.656.097 1.724.113 1.629.405-.04.17-.08.356-.094.416 0 .059-.269.107-.619.107h-.62l.081.834c.189 1.82-1.252 3.066-3.568 3.1-1.199.017-1.778.248-1.307.52.135.076.916.333 1.724.572 2.639.771 3.124 1.159 3.016 2.391-.107 1.287-1.252 2.404-2.908 2.855-.943.257-2.653.255-3.461-.005l-.048-.003zm3.541-.888c1.29-.579 1.849-1.686 1.145-2.261-.477-.388-2.543-.985-3.079-.888-1.09.196-2.114 1.398-1.925 2.26.256 1.189 2.195 1.637 3.851.891l.008-.002zm.426-6.494c.969-.53 1.346-2.045.7-2.792-.889-1.024-2.586.118-2.599 1.751 0 .507.081.686.444.967.539.418.835.431 1.482.078l-.027-.004zm6.032 3.332c-.7-.131-1.063-.549-1.144-1.294-.202-1.907 1.575-4.708 3.568-5.611 1.037-.471 3.084-.518 4.444-.105.121.039.041.529-.283 1.538-.606 1.973-.969 3.948-.767 4.289.134.223.229.24.66.108.39-.131.525-.118.633.039.228.326.094.444-.822.731-1.212.379-1.777.301-1.966-.261l-.135-.444-.646.327c-1.091.561-2.599.849-3.501.679l-.041.004zm2.748-1.29c.471-.198.942-.503 1.077-.679.215-.291.862-2.443 1.118-3.698.107-.513.094-.531-.485-.675-1.064-.272-2.141.431-2.99 1.96-.889 1.594-1.117 3.02-.538 3.39.404.254.646.209 1.844-.3l-.026.002zm75.289 1.248c-.714-.157-.957-.379-1.159-1.032-.296-.993.391-2.871 1.563-4.259 1.4-1.66 2.949-2.222 5.238-1.895.606.086 1.144.203 1.198.257.068.053-.134.971-.444 2.039-.296 1.064-.566 2.355-.579 2.869l-.027.938.673-.026c.606-.026.674.013.674.3 0 .275-.149.366-.916.575-1.252.353-1.845.275-1.912-.235-.027-.209-.081-.392-.108-.392-.027 0-.444.157-.916.34-.754.3-2.302.692-2.612.653-.054 0-.337-.065-.62-.118l-.053-.014zm2.666-1.228c.39-.183.835-.444.983-.588.35-.366.983-2.234 1.32-3.88.094-.445.067-.471-.539-.615-.512-.13-.727-.117-1.185.079-1.01.431-2.007 1.894-2.532 3.697-.498 1.728.121 2.135 1.98 1.299l-.027.008zm-172.447.901c-.041-.183.242-1.515.633-2.965.781-2.862.781-3.097-.081-2.875-.417.105-.458.079-.458-.209 0-.274.148-.366.916-.572.498-.131 1.171-.256 1.468-.274.525-.031.565-.004.606.449.027.265-.243 1.577-.606 2.914-.364 1.34-.62 2.534-.566 2.657.081.176.242.201.821.123.687-.096.728-.084.674.228-.041.262-.243.379-.929.575-.472.131-1.212.249-1.63.249-.646 0-.754-.04-.835-.314l-.013.014zm6.113.066l-.363-.275 1.239-4.886c.673-2.688 1.212-5.069 1.185-5.297-.054-.422-.108-.444-.727-.274-.297.082-.35.044-.35-.261 0-.419.565-.621 2.114-.758.888-.079.915-.075.915.261 0 .191-.242 1.372-.552 2.624-.309 1.254-.552 2.358-.552 2.46 0 .144.175.117.687-.086 1.777-.706 3.313-.667 3.878.091.525.719.256 2.561-.592 4.076-.431.797-1.737 2.026-2.451 2.313-.929.379-3.865.392-4.39 0l-.041.012zm4.027-.915c.808-.509 1.697-2.234 1.939-3.75.256-1.528-.862-1.829-2.639-.718a2.13 2.13 0 0 0-.835.954c-.283.705-.876 2.992-.876 3.399 0 .601 1.549.672 2.424.105l-.013.01zm6.073.732c-.431-.405-.458-.523-.458-1.477.027-2.425 1.549-4.592 3.65-5.187 1.05-.3 1.979-.195 2.598.281.364.277.431.45.431 1.036 0 1.477-1.481 2.6-3.635 2.731-.62.039-1.185.144-1.239.231-.175.246-.135 1.072.067 1.424.404.68.97.699 2.33.066.848-.392 1.023-.431 1.158-.248.283.401.148.527-1.078 1.051-1.023.434-1.414.523-2.275.523-.943 0-1.078-.037-1.509-.439l-.04.008zm2.855-3.449c1.36-.34 2.249-1.647 1.562-2.274-.431-.394-.835-.381-1.401.046-.444.34-1.171 1.415-1.387 2.056-.08.262-.04.314.27.314.202 0 .646-.078.983-.157l-.027.015zm5.359 3.834c0-.021.283-1.136.633-2.469.35-1.337.647-2.712.647-3.057v-.628l-.633.092c-.566.078-.633.057-.633-.196 0-.314.512-.555 1.804-.847.889-.196 1.226-.061 1.226.497v.337l.565-.345c.997-.601 1.603-.719 2.316-.418.351.144.606.326.58.418-.431 1.372-.674 1.803-1.024 1.803-.31 0-.363-.065-.363-.483 0-1.046-.997-1.046-1.738-.014-.444.654-.915 2.117-1.292 4.064-.108.588-.283 1.071-.364 1.097-.283.079-1.683.209-1.683.17l-.041-.021zm7.986-.136c-.175-.183-.081-.705.835-4.442l.377-1.542h-.539c-.296 0-.539-.039-.539-.078 0-.222.364-.64.553-.64.39 0 1.131-.68 1.454-1.32.35-.705.485-.823 1.01-.823.35 0 .377.052.283.47-.054.262-.148.719-.202 1.007l-.095.535h.741c.754 0 .862.118.646.64-.067.17-.309.236-.848.236-.889 0-.741-.288-1.441 2.861-.512 2.312-.485 2.521.377 2.299.727-.183.781-.169.727.196-.04.249-.242.379-.848.562-.97.301-2.195.34-2.437.079l-.054-.04zm6.423-.183c-1.158-1.123-.323-4.35 1.535-5.853.754-.614 1.939-1.084 2.707-1.084.498 0 1.575.457 1.737.731.256.432.175 1.464-.148 1.947-.66.993-2.114 1.633-3.69 1.633h-.929v.758c0 1.476.687 1.725 2.464.941.566-.248 1.064-.431 1.105-.392.04.039.094.196.134.353.041.235-.175.392-1.117.823-1.024.47-1.32.535-2.276.535-.983 0-1.145-.039-1.481-.365l-.041-.027zm2.801-3.514c.848-.248 1.427-.693 1.683-1.241.216-.458.216-.536-.067-.876-.431-.522-.862-.535-1.522-.013-.511.405-1.373 1.751-1.373 2.143 0 .209.606.196 1.279-.013zm59.722 3.802c-.215-.196-.081-1.045.687-3.972 1.037-3.972 1.589-6.324 1.589-6.703 0-.274-.067-.3-.552-.222-.498.079-.552.053-.552-.261 0-.353.404-.523 1.979-.797.822-.131 1.051-.039 1.051.431 0 .222-.525 2.483-1.185 5.043-.66 2.561-1.199 4.874-1.199 5.135v.484l.727-.079c.687-.078.728-.065.674.235-.041.249-.243.379-.916.562-.889.261-2.087.34-2.276.17l-.027-.026zm5.993-.079c-.189-.287-.081-.901.592-3.305.364-1.241.62-2.378.593-2.509-.068-.248-.108-.261-.795-.117-.363.078-.444.052-.444-.196 0-.34.687-.64 1.925-.862.889-.144 1.266-.066 1.266.261 0 .117-.323 1.437-.713 2.926-.391 1.49-.674 2.783-.606 2.862.067.091.377.117.808.065.673-.078.713-.065.659.235-.04.249-.242.379-.929.562-1.023.301-2.154.34-2.316.092l-.04-.014zm5.871-.065c-.054-.131-.014-.601.094-1.032.364-1.437 1.131-4.756 1.131-4.821 0-.039-.215-.065-.484-.065-.687 0-.553-.405.255-.784.485-.222.768-.51 1.158-1.189.458-.771.593-.889.984-.889h.444l-.216.902c-.121.496-.215.94-.215 1.006 0 .052.35.104.794.104.835 0 .862.013.701.536-.081.287-.202.327-.916.327h-.821l-.539 2.417c-.296 1.332-.498 2.521-.444 2.652.08.183.202.209.619.091.727-.182.768-.169.768.209 0 .288-.135.379-.93.575-1.225.314-2.222.314-2.356 0l-.027-.039zm6.558-.078c-.391-.301-.471-.471-.525-1.281-.121-1.803.794-3.841 2.154-4.782 1.508-1.032 3.151-1.162 4.067-.339.431.392.471.496.391 1.149-.149 1.425-1.657 2.457-3.731 2.548-1.292.066-1.427.209-1.171 1.215.283 1.098.781 1.215 2.37.536 1.05-.444 1.293-.444 1.293 0 0 .457-1.899 1.202-3.273 1.267-1.01.053-1.171.026-1.575-.3v-.013zm3.366-3.841c.997-.458 1.428-1.464.862-2.026-.713-.705-2.02.223-2.68 1.895l-.228.614.713-.091a5.94 5.94 0 0 0 1.347-.379l-.014-.013zm38.015 4.115c0-.026.283-1.137.633-2.469.35-1.333.647-2.705.647-3.058v-.627l-.633.092c-.566.078-.633.065-.633-.196 0-.34.282-.484 1.575-.784 1.118-.261 1.455-.157 1.455.444v.34l.565-.34c.997-.601 1.603-.718 2.316-.431.35.144.62.3.62.34 0 .052-.148.496-.35.98-.297.744-.418.901-.714.901s-.364-.078-.364-.483c0-.98-.929-1.059-1.629-.131-.525.706-.795 1.476-1.239 3.488-.188.915-.39 1.699-.444 1.738-.095.092-1.764.301-1.764.222l-.041-.026zm18.341-.17c-.121-.3.027-1.189.633-3.723l.525-2.156-.444-.039c-.525-.053-.62-.523-.121-.667.565-.156 1.212-.744 1.521-1.385.35-.705.485-.823 1.01-.823.35 0 .377.053.283.471-.054.261-.148.718-.202 1.006l-.094.535h.74c.754 0 .862.118.647.641-.068.169-.31.235-.849.235-.875 0-.74-.288-1.44 2.861-.512 2.313-.485 2.522.377 2.3.727-.183.781-.17.727.196-.041.248-.243.378-.849.561-1.05.327-2.275.34-2.41.04l-.054-.053zm6.423-.143c-1.198-1.085-.363-4.338 1.509-5.854.754-.614 1.939-1.084 2.706-1.084.499 0 1.576.457 1.737.732.256.431.175 1.463-.148 1.959-.673 1.006-2.114 1.633-3.703 1.633h-.943l.081.889c.121 1.398.687 1.594 2.424.81.566-.248 1.064-.431 1.104-.392.041.039.095.196.135.353.054.235-.175.392-1.118.823-1.01.47-1.319.536-2.235.536-.929 0-1.118-.04-1.481-.366l-.068-.039zm3.34-3.737c1.118-.497 1.616-1.646.916-2.13-.458-.313-.795-.261-1.401.222-.511.405-1.373 1.751-1.373 2.156 0 .235 1.09.092 1.845-.248h.013zm4.834 3.998c0-.065.297-1.228.647-2.587.363-1.359.633-2.678.606-2.927-.041-.418-.081-.444-.633-.418-.445.013-.593-.039-.66-.248-.054-.222.081-.327.741-.549a13.29 13.29 0 0 1 1.414-.379c.619-.104.605-.117.996.732.013.013.431-.17.943-.405 1.104-.497 1.279-.523 1.952-.144l.512.275-.337.927c-.283.784-.404.941-.7.941-.296 0-.364-.078-.364-.47 0-1.255-1.319-1.006-2.033.379-.175.339-.539 1.541-.794 2.665-.256 1.123-.499 2.051-.526 2.077-.134.105-1.723.196-1.723.105l-.041.026zm7.959 0c0-.065.256-1.019.579-2.117.337-1.202.579-2.391.592-2.992l.027-1.006-.565.053c-.445.039-.593-.014-.647-.223-.067-.222.068-.313.728-.496 1.44-.405 1.777-.431 2.06-.17a.885.885 0 0 1 .256.575c0 .183.027.34.067.34.027 0 .498-.196 1.05-.431 1.28-.549 2.976-.837 3.488-.588.323.156.35.235.256.901-.067.392-.323 1.503-.579 2.456-.256.954-.485 1.96-.512 2.235-.04.496-.04.496.62.483.457-.013.7.052.754.196.121.3-.027.392-1.024.653-1.131.301-2.181.301-2.302 0-.054-.13.188-1.372.538-2.783.7-2.822.741-3.148.404-3.253-.35-.118-1.562.418-2.289 1.006-.606.483-.673.64-1.05 2.051-.216.85-.445 1.843-.512 2.221-.067.379-.202.719-.296.745-.485.131-1.697.196-1.697.092l.054.052zm10.907-.105c-.054-.13.229-1.45.633-2.952.404-1.49.7-2.796.647-2.914-.054-.144-.202-.157-.606-.052a7.761 7.761 0 0 1-.566.143c-.013 0-.04-.143-.04-.326 0-.275.148-.366.835-.549 1.885-.509 2.464-.418 2.275.34-.04.196-.377 1.437-.727 2.77-.35 1.332-.606 2.521-.552 2.639.067.157.269.196.822.117.673-.078.713-.065.673.236-.108.614-3.151 1.149-3.38.601l-.014-.053zm6.006 0c-.107-.248.027-.927.647-3.423.686-2.757.686-2.508.107-2.508-.7 0-.579-.392.229-.771.472-.222.754-.51 1.131-1.15.418-.692.593-.862.943-.901.485-.053.485-.013.148 1.528l-.094.471h.835c.7 0 .821.039.74.222a1.4 1.4 0 0 0-.094.431c0 .157-.215.209-.848.209h-.849l-.525 2.417c-.283 1.333-.471 2.522-.417 2.652.081.196.202.209.633.105.727-.183.767-.17.767.209 0 .3-.134.379-.929.575-1.212.313-2.222.313-2.356 0l-.068-.066zm6.545-.104c-.445-.353-.458-.392-.458-1.777 0-1.346.027-1.463.606-2.509.714-1.28 1.508-1.972 2.814-2.404 2.263-.757 3.879.536 2.882 2.3-.566 1.006-2.06 1.724-3.595 1.724-.916 0-.983.027-1.078.379-.134.484.041 1.202.35 1.529.364.379.983.314 2.101-.209.835-.379 1.01-.418 1.131-.248.283.405.148.562-.915 1.019-.822.366-1.347.483-2.195.522-1.024.053-1.172.027-1.589-.3l-.054-.026zm3.474-3.868c1.077-.535 1.441-1.607.687-2.051-.283-.17-.498-.196-.835-.091-.552.157-1.36 1.097-1.683 1.973l-.256.679.74-.091c.404-.053 1.018-.236 1.367-.419h-.02zM.013 95.612c.027-.14.192-.274.364-.304.471-.079.875-.458 1.199-1.106.417-.862 1.737-6.846 1.777-8.087.027-1.058.027-1.071-.485-1.359-.983-.562-.713-.653 2.034-.653 2.181 0 2.545.039 2.545.222 0 .131-.202.261-.485.313-1.01.183-1.4 1.085-2.357 5.527-.888 4.155-.888 4.077-.484 4.442.309.275.471.301 1.71.249 1.67-.079 2.276-.327 2.855-1.202.457-.68.484-.693.808-.51.188.105.175.248-.041.823a7.105 7.105 0 0 1-.619 1.281l-.364.574-4.255.04c-3.986.026-4.255.013-4.202-.223v-.027zm80.425.043c0-.112.27-.321.606-.466.418-.183.701-.458.943-.91.458-.842 1.831-6.953 1.858-8.244.027-.974.014-1.006-.484-1.291-1.064-.614-.822-.653 4.026-.653 4.444 0 4.538.008 4.444.284-.054.143-.189.718-.296 1.254-.162.823-.243.98-.539 1.019-.283.039-.35-.026-.35-.34 0-.954-.62-1.228-2.855-1.228h-1.535l-.431 1.829a136.79 136.79 0 0 1-.512 2.078c-.067.222.068.248 1.333.248 1.589 0 2.061-.157 2.518-.823.418-.601.957-.64.835-.079l-.363 1.712c-.216 1.045-.337 1.32-.539 1.32-.161 0-.296-.157-.363-.432-.054-.235-.256-.509-.458-.601-.377-.183-2.882-.274-3.057-.104-.108.091-.579 2.156-.781 3.449-.094.614-.067.693.296.915.323.196.687.222 1.805.183 1.656-.079 2.248-.314 2.93-1.189.296-.379.579-.601.704-.549.31.104.275.366-.194 1.372-.7 1.502-.31 1.398-5.184 1.398-3.569 0-4.269-.039-4.269-.209l-.088.057zm80.784.003c0-.114.242-.28.525-.366 1.01-.31 1.346-1.128 2.343-5.772.862-3.998.848-4.638-.162-4.929-.175-.052-.296-.169-.256-.261.054-.117 1.293-.176 4.485-.204 4.336-.039 4.417-.039 4.309.236-.054.156-.189.718-.296 1.254-.162.823-.243.98-.539 1.019-.296.039-.35-.026-.35-.405 0-.915-.768-1.202-2.936-1.137l-1.252.039-.445 1.856c-.242 1.019-.444 1.946-.444 2.038 0 .261 2.424.235 3.003-.039.242-.118.539-.405.646-.654.122-.274.324-.444.499-.444.377 0 .377-.104-.041 1.829-.283 1.359-.39 1.62-.633 1.62-.175 0-.282-.104-.282-.261 0-.666-1.482-1.176-2.855-.967l-.606.092-.323 1.607c-.566 2.822-.539 3.083.323 3.397.956.352.404.483-2.141.522-2.088.04-2.492.013-2.492-.17l-.08.1zm-93.28-3.086c-.714-.292-1.333-1.193-1.333-1.929 0-1.14 1.117-2.159 2.37-2.155 1.495.005 2.41.825 2.41 2.147.014 1.686-1.697 2.653-3.434 1.947l-.013-.01zm80.945.068c-.27-.109-.701-.437-.943-.732-.364-.435-.444-.672-.431-1.28.027-1.317.929-2.13 2.384-2.13.727 0 .969.072 1.454.431 1.104.797 1.279 2.13.404 3.07-.727.79-1.831 1.037-2.841.641h-.027zm-95.076-5.102c-.31-.311-.337-.279 1.467-2.135l.609-.627.905.183c.498.102.906.227.906.279 0 .097-3.407 2.585-3.537 2.585-.041 0-.202-.127-.364-.284l.014-.001zm80.893 0l-.354-.256 1.198-1.236c.66-.68 1.253-1.236 1.334-1.236.39 0 1.75.352 1.723.444-.04.094-3.003 2.244-3.38 2.456-.094.047-.323-.03-.511-.17l-.01-.002zm105.704.002l-.384-.261 1.244-1.235c.683-.679 1.3-1.234 1.37-1.234.323 0 1.75.345 1.737.418 0 .078-3.003 2.264-3.394 2.476-.094.052-.35-.02-.556-.164h-.017zm-226.931-.737c-.646-.582-.016-1.706.956-1.706.679 0 1.031.32 1.031.934 0 .958-1.246 1.443-1.988.771l.001.001zm107.309.102c-.391-.266-.368-1.153.04-1.522.654-.588 1.907-.196 1.907.601 0 .863-1.199 1.437-1.939.941l-.008-.02zm105.606-.102c-.66-.593-.013-1.706.983-1.706.997 0 1.428 1.006.7 1.657-.494.441-1.238.464-1.696.049h.013zm-139.32-4.102c-.243-.243-.189-.331.961-1.459l1.226-1.203.909.196c.498.105.902.223.902.275-.014.144-3.205 2.352-3.488 2.417-.148.039-.377-.052-.511-.196l.001-.03z"/><path d="M139.945 74.613l.372-.864c.629-1.564 1.279-2.757 2.222-4.068.996-1.387 3.191-3.431 4.103-3.821 1.122-.481 2.515-.65 4.242-.515 1.481.118 6.028.788 7.864 1.163 1.398.282 3.445.309 4.407.056 1.855-.486 2.953-1.428 3.475-2.976.401-1.189.397-2.274-.01-2.992-.547-.967-.454-1.228.875-2.365.655-.575 1.192-1.098 1.194-1.163 0-.392-.916-1.921-1.145-1.934-.148 0-.431-.13-.633-.274l-.377-.274.781-.366c1.077-.497 1.872-1.268 1.872-1.816 0-.235-.229-.81-.512-1.281-.539-.901-.673-1.764-.377-2.273.189-.34.539-.483 2.209-.915 1.4-.365 1.912-.744 2.114-1.554.161-.693.08-1.137-.377-1.973-.377-.68-2.828-4.064-3.528-4.887-.957-1.11-2.128-3.031-2.465-4.063-.336-1.019-.35-1.084-.094-2.391.525-2.783.215-5.082-1.279-9.564-1.118-3.345-1.414-4.155-1.751-4.782-.633-1.123-.552-1.385.741-2.338.619-.458 1.185-.941 1.266-1.085.39-.653-.054-1.92-.782-2.273-.471-.222-.727-.066-1.198.718-.364.601-.512.706-.889.706-.633 0-.74-.235-.336-.719.457-.575.431-.666-.31-.757-.552-.066-.835-.262-2.034-1.359-1.589-1.464-2.666-2.143-4.793-3.031-.983-.405-1.32-.601-.97-.549.31.039 1.387.117 2.41.17 2.95.13 3.663-.222 4.35-2.143.458-1.307.687-1.908-.391-2.822L156.342 0h88.213v74.613h-104.61z" fill="#e2011c"/><path d="M64.722 74.613c-.639-.06-1.194-.086-1.233-.121-.068-.06.655-.48 3.967-2.3 1.064-.585 1.5-.898 1.352-.97-.121-.058-1.047-.149-2.061-.204-1.505-.079-1.941-.058-2.383.127-.3.124-1.492.449-2.65.723-2.882.68-3.838 1.148-4.767 2.3l-.35.444H0V0h112.315l-2.176 1.28c-1.198.539-2.591 1.285-3.094 1.66-1.708 1.267-4.009 4.157-4.583 5.755-.215.588-.404.806-1.05 1.206-.997.609-2.182 1.769-3.165 3.091-1.333 1.795-3.878 5.84-4.376 6.961-.781 1.741-.714 3.067.431 8.268.498 2.29 1.037 4.617 1.198 5.17.162.553.337 1.49.391 2.081.094 1.059.175 1.287.862 2.585.188.355.336.757.336.896 0 .138.135.331.31.431a.67.67 0 0 1 .31.54c0 .248.363.721 1.158 1.509 1.818 1.803 3.137 3.493 3.137 4.028 0 .439-.713.552-1.871.296-1.347-.3-2.451-.946-4.148-2.435-.727-.634-1.306-1.058-1.306-.946 0 .112.485.702 1.091 1.307 1.198 1.209 1.387 1.539 1.131 1.976-.229.385-.781.497-1.535.31-.876-.216-1.374.085-1.239.728.081.405.067.444-.189.366-.485-.17-1.562-.366-2.518-.458-.889-.078-.956-.117-1.481-.784-.404-.509-.727-.744-1.145-.849-1.575-.392-5.507-1.019-8.133-1.28-4.633-.458-5.75-.497-7.972-.248-1.71.182-2.168.3-3.098.718-1.656.758-4.524 3.136-4.524 3.75 0 .287.633.196 1.346-.209 2.182-1.215 9.683-2.94 13.359-3.071 1.818-.065 1.724.014-.471.379-.606.105-2.034.432-3.178.745-1.145.314-3.125.784-4.39 1.058-1.266.262-2.707.614-3.178.771l-.876.288 1.347.013c6.895.065 14.732 2.038 17.937 4.507 1.373 1.059 1.872 1.189 3.891.993 2.774-.261 6.356-1.45 7.932-2.639.687-.51 1.239-.719 1.239-.444 0 .47-.902 2.992-1.293 3.606-.431.705-.458.797-.229.954.135.091.216.209.162.248-.054.052.054.131.242.183.525.157.391.3-.444.483-.808.196-1.455.523-1.455.745 0 .078.108.144.243.144.404 0 .108.261-.431.365-.364.079-.431.131-.269.223.161.091.161.13.013.13-.108 0-.202.144-.202.327 0 .222-.161.379-.485.509-.794.327-.579.497.512.405.552-.052.889-.052.754 0-.135.04-1.023.405-1.979.81-.97.392-2.222.876-2.788 1.059-.646.209-1.05.418-1.091.575-.053.248.243.235.997-.026.135-.053.256-.027.256.039 0 .065-1.657.927-3.677 1.92-2.033.993-3.918 2.012-4.214 2.261-.297.261-.66.47-.835.47-.162 0-.377.17-.485.366-.31.614-.256.692.485.575 1.09-.17 1.602-.157 1.67.039.04.104-.068.183-.243.183a.747.747 0 0 0-.498.209c-.108.117-.377.235-.606.248-.283.039-.539.209-.754.51-.175.248-.458.496-.633.535-.175.039.071.053.552.013 7.15-.483 8.484-.718 11.369-2.038 2.459-1.123 5.01-2.809 6.828-4.481.525-.484 1.01-.876 1.077-.876.246 0 .112.797-.252 1.516-.633 1.228-1.952 2.352-4.673 3.985-1.373.823-2.854 1.607-3.293 1.725-1.366.391-3.569.81-5.885 1.11-7.532.98-10.415 1.725-13.27 3.436-.482.275-.983.497-1.117.471-.135-.013-.498.156-.795.392-.848.666-.229.548 1.549-.275 1.831-.849 2.68-.98 1.239-.196-1.764.967-3.097 1.581-4.417 1.581h-7.023l.085-.148zm-9.356-8.322c.285-.109 1.231-.588 2.101-1.064.871-.475 1.904-.998 2.298-1.159l2.465-1.006c2.015-.82 4.975-1.594 5.144-1.345.06.086.502.183.983.213.669.041.786.081.511.169-.196.062-.358.17-.358.241 0 .259 1.488.183 2.114-.111.247-.118.802-.248 1.234-.301.538-.065.786-.156.786-.3 0-.17.138-.196.622-.118.67.105 2.106-.143 5.979-1.019 2.62-.601 4.606-1.202 6.35-1.92l1.261-.523-1.261-.732c-3.077-1.777-6.168-2.874-12.951-4.586-1.181-.3-2.218-.614-2.305-.692-.105-.092-.054-.105.159-.039.677.222 1.193.261 1.193.091 0-.209-.512-.379-1.519-.509-.92-.118-1.514-.366-.875-.366.989 0-.711-.575-2.616-.863-1.409-.222-1.49-.274-.902-.535.512-.222 1.064-1.072.92-1.411-.121-.301-.269-.262-1.037.196-1.468.888-2.814 2.351-3.568 3.867-.431.862-.283.941 1.939 1.032 1.831.066 1.858.079 1.387.301a4.987 4.987 0 0 1-1.172.326c-1.293.17-2.006.732-1.36 1.059.189.091.121.169-.35.379-.525.222-.552.274-.31.391.162.079.62.118 1.024.092.565-.039.821.013 1.09.222l.351.274-.701.392c-.39.222-.821.614-.969.863-.148.248-.674.849-1.185 1.332-.499.484-.916.98-.916 1.111 0 .118-.727.758-1.629 1.398-2.411 1.738-3.461 2.704-3.461 3.162 0 .248-.135.457-.377.601-.754.444-1.145.953-.727.953.094 0 .404-.091.686-.195l-.048.129zm18.601-1.678c.595-.072 1.286-.239 1.532-.371l.45-.24-.768-.345-.767-.345-.765.28c-.422.154-1.005.361-1.296.461-1.174.401-1.326.94-.226.792a131.98 131.98 0 0 1 1.84-.223v-.009zm-26.923-6.53c3.541-3.345 6.043-5.33 9.217-7.316 1.078-.675 1.84-1.065 1.878-.963.102.274.565.196 1.317-.235.864-.497 1.296-1.006 2.375-2.757 1.118-1.829 1.543-2.287 3.158-3.41.767-.523 1.872-1.32 2.478-1.751.875-.627 1.077-.732 1.01-.483-.054.182-.014.313.107.313.364 0 2.074-.666 2.128-.823.094-.261-1.63-.523-2.909-.444-.983.052-1.319.157-2.545.744-2.855 1.398-4.928 2.901-8.874 6.468-2.841 2.561-5.077 4.285-6.208 4.769-.364.156-.646.496-1.091 1.306-.862 1.594-2.424 3.881-3.891 5.736-1.387 1.751-1.684 2.352-.606 1.228a139.07 139.07 0 0 1 2.504-2.43l-.048.048zm35.459 15.71c4.255-.8 4.726-.86 7.712-.977 3.353-.134 3.781-.212 5.798-1.068.647-.274.9-.324.99-.196.156.226 1.252-.313 3.39-1.666.875-.552 2.11-1.26 2.747-1.571.96-.471 1.252-.549 1.715-.471.493.083.64.026 1.269-.47 1.745-1.389 3.234-2.03 4.722-2.034.445 0 .597.057.597.228 0 .147.087.202.238.149.445-.156.243.013-.897.784-1.319.876-1.198 1.15.148.301 1.293-.81 1.307-.81 1.307-.484 0 .183-.499.654-1.401 1.333-2.06 1.542-3.514 2.822-5.723 5.03l-1.979 1.921H77.969l4.531-.823.003.014zm.04-29.23c.154-.036.404-.036.556 0 .154.037.027.066-.277.066-.307 0-.431-.029-.279-.066z" fill="#003189"/><path d="M156.719 39.105c-.695-.097-.337-.33.505-.33.843 0 1.287-.292 1.287-.846 0-.262-.054-.303-.323-.226-.229.065-.391.01-.552-.187-.135-.183-.485-.314-.997-.375-.902-.109-2.37-.899-2.114-1.137.094-.081.566-.178 1.037-.213.835-.063.889-.091 1.05-.551.135-.344.31-.51.606-.575.243-.05.606-.239.822-.422.229-.183.942-.653 1.589-1.032 1.104-.654 1.791-1.346 1.548-1.568-.256-.235-2.639-.484-3.77-.405-1.307.091-3.555.523-4.485.849-.956.327-.686.039.647-.666 1.791-.967 5.238-1.855 7.137-1.855.741 0 3.218.522 3.515.744.579.431-.054 1.947-1.118 2.705l-.445.313.728.706-.377.274c-.202.144-.485.275-.62.275s-.485.196-.767.444c-.431.379-.485.496-.364.797.094.222.094.444-.027.64-.108.183-.135.588-.067 1.058.134.954-.054 1.294-.835 1.49-.566.143-2.666.17-3.582.039l-.028.054z" fill="#7f7f7f"/><g fill="#373c42"><path d="M319.521 80.804h8.675v-43.32h-8.675v15.479c-3.131-2.825-6.719-4.237-10.894-4.237-8.999 0-16.307 6.709-16.307 16.48 0 9.594 7.698 16.424 16.504 16.424 4.371 0 7.632-1.414 10.697-4.123v3.297zm-9.13-24.897c5.478 0 9.521 3.707 9.521 9.182 0 5.709-4.175 9.359-9.521 9.359-5.416 0-9.329-3.933-9.329-9.29 0-5.122 3.587-9.237 9.328-9.237l.001-.014zm52.191 24.897h8.675V49.549h-8.675v3.414c-3.131-2.825-6.72-4.237-10.894-4.237-9.001 0-16.308 6.709-16.308 16.48 0 9.594 7.699 16.424 16.504 16.424 4.377 0 7.635-1.414 10.706-4.123v3.297h-.008zm-9.13-24.897c5.476 0 9.52 3.707 9.52 9.182 0 5.709-4.174 9.359-9.52 9.359-5.416 0-9.33-3.933-9.33-9.29 0-5.122 3.588-9.237 9.328-9.237l.002-.014zm27.598-6.358h-4.434v6.71h4.436v24.545h8.685V56.259h5.158v-6.71h-5.144V38.012h-8.672v11.537h-.029zm44.21 31.255h8.676V49.549h-8.676v3.414c-3.13-2.825-6.717-4.237-10.892-4.237-9.002 0-16.307 6.709-16.307 16.48 0 9.594 7.697 16.424 16.503 16.424 4.371 0 7.632-1.414 10.697-4.123v3.297h-.001zm-9.13-24.897c5.48 0 9.523 3.707 9.523 9.182 0 5.709-4.175 9.359-9.523 9.359-5.414 0-9.328-3.933-9.328-9.29 0-5.122 3.587-9.237 9.328-9.237v-.014zm31.319 16.715c-2.74 0-5.023 1.943-5.023 4.474 0 2.472 2.283 4.534 5.023 4.534 2.805 0 4.956-2.062 4.956-4.534s-2.217-4.474-4.956-4.474zm47.767-23.073h-8.676v3.414c-3.262-2.766-6.652-4.237-10.959-4.237-8.807 0-16.186 6.356-16.186 16.009 0 9.358 7.299 16.07 16.631 16.07 4.497 0 7.621-1.355 10.503-3.886 0 2.943-.067 5.062-2.154 6.828-1.563 1.294-4.175 2.052-7.38 2.052-3.663 0-6.262-.823-8.026-2.705h-9.588c2.344 6.533 8.403 9.891 17.937 9.891 5.279 0 9.453-1.124 12.578-3.476 3.972-3.057 5.278-7.12 5.278-13.183V49.542l.042.007zm-17.681 6.358c5.741 0 9.459 3.884 9.459 8.945 0 5.298-3.98 8.771-9.328 8.771-5.414 0-9.525-3.649-9.525-8.829 0-4.827 3.653-8.887 9.393-8.887h.001zm42.737-7.181c-9.458 0-17.936 7.003-17.936 16.48 0 9.183 7.958 16.424 18.001 16.424 10.567 0 18.327-7.419 18.327-16.482 0-9.241-8.281-16.423-18.392-16.423v.001zm.131 7.416c5.675 0 9.523 3.766 9.523 9.064 0 5.475-4.174 9.005-9.523 9.005-5.61 0-9.328-3.767-9.328-9.063 0-5.181 3.913-9.006 9.328-9.006zm25.287 7.711c0 2.589-.131 4.061.326 6.591 1.369 7.299 6.523 11.125 14.872 11.125 4.826 0 8.413-1.175 11.154-3.945 3.662-3.648 4.053-7.885 4.053-13.654V49.549h-8.672v16.658c0 5.297-1.886 8.182-6.518 8.182-4.565 0-6.517-2.944-6.517-8.536V49.548h-8.673v14.306l-.025-.001zm50.261 16.951h5.61l14.741-31.255h-8.807l-8.739 18.422-8.74-18.422h-8.874l14.799 31.255h.01zM623.575 74.61c1.1 0 2.02.345 2.761 1.037.767.662 1.151 1.481 1.151 2.456 0 .967-.383 1.795-1.15 2.483-.763.67-1.683 1.006-2.761 1.006-1.068 0-1.988-.336-2.76-1.006-.736-.697-1.104-1.529-1.104-2.496 0-.967.372-1.785 1.117-2.456.772-.697 1.693-1.045 2.761-1.045l-.015.021zm36.395-24.295l-.69 2.283h-5.599l-4.219 15.125c-1.867 6.667-3.746 11.824-5.638 15.469-2.684 5.144-5.573 8.697-8.667 10.659-2.352 1.5-4.704 2.25-7.056 2.25-1.526 0-2.828-.416-3.905-1.247-.79-.576-1.185-1.326-1.185-2.25 0-.737.332-1.383.996-1.937.638-.531 1.432-.797 2.384-.797.691 0 1.279.196 1.764.588.467.392.7.842.7 1.351 0 .505-.269.975-.808 1.411-.404.322-.606.562-.606.718 0 .209.09.371.269.484.234.157.593.235 1.078.235 1.104 0 2.267-.314 3.487-.941 1.203-.627 2.276-1.563 3.219-2.809.951-1.228 1.845-3.005 2.68-5.33.359-.967 1.319-4.164 2.881-9.59l6.665-23.412h-6.67l.539-2.287c2.118 0 3.6-.126 4.443-.378.844-.279 1.612-.787 2.303-1.525.718-.763 1.639-2.17 2.761-4.22 1.508-2.77 2.953-4.917 4.336-6.441 1.894-2.053 3.876-3.588 5.946-4.603 2.092-1.037 4.058-1.555 5.899-1.555 1.939 0 3.496.449 4.672 1.348 1.176.877 1.764 1.835 1.764 2.875 0 .806-.291 1.486-.875 2.04-.592.552-1.347.827-2.262.827-.796 0-1.449-.209-1.961-.627-.485-.418-.727-.914-.727-1.489 0-.366.166-.815.498-1.346.332-.557.498-.928.498-1.11 0-.323-.115-.564-.346-.726-.332-.233-.817-.35-1.454-.35-1.611 0-3.057.462-4.336 1.385-1.715 1.224-3.25 3.14-4.605 5.749-.692 1.359-1.958 4.738-3.798 10.139h5.629l-.004.034z"/></g></g></svg>