<?xml version="1.0" encoding="UTF-8" standalone="no"?>
<svg
   xmlns:dc="http://purl.org/dc/elements/1.1/"
   xmlns:cc="http://creativecommons.org/ns#"
   xmlns:rdf="http://www.w3.org/1999/02/22-rdf-syntax-ns#"
   xmlns:svg="http://www.w3.org/2000/svg"
   xmlns="http://www.w3.org/2000/svg"
   xmlns:sodipodi="http://sodipodi.sourceforge.net/DTD/sodipodi-0.dtd"
   xmlns:inkscape="http://www.inkscape.org/namespaces/inkscape"
   version="1.1"
   id="svg3588"
   viewBox="0 0 200.78897 200.78899"
   height="56.66711mm"
   width="56.667107mm"
   inkscape:version="0.91 r13725"
   sodipodi:docname="le.taxi.vert.svg">
  <sodipodi:namedview
     pagecolor="#ffffff"
     bordercolor="#666666"
     borderopacity="1"
     objecttolerance="10"
     gridtolerance="10"
     guidetolerance="10"
     inkscape:pageopacity="0"
     inkscape:pageshadow="2"
     inkscape:window-width="980"
     inkscape:window-height="755"
     id="namedview3400"
     showgrid="false"
     fit-margin-top="2.006105"
     fit-margin-left="5.4"
     fit-margin-right="5.4"
     fit-margin-bottom="2.006105"
     inkscape:zoom="1.2649238"
     inkscape:cx="100.39448"
     inkscape:cy="100.39445"
     inkscape:window-x="-1"
     inkscape:window-y="-1"
     inkscape:window-maximized="1"
     inkscape:current-layer="svg3588" />
  <defs
     id="defs3590" />
  <metadata
     id="metadata3593">
    <rdf:RDF>
      <cc:Work
         rdf:about="">
        <dc:format>image/svg+xml</dc:format>
        <dc:type
           rdf:resource="http://purl.org/dc/dcmitype/StillImage" />
        <dc:title></dc:title>
      </cc:Work>
    </rdf:RDF>
  </metadata>
  <g
     transform="translate(-85.31975,-131.9677)"
     id="layer1">
    <g
       id="g3563"
       transform="matrix(1.25,0,0,-1.25,-340.46639,761.30845)">
      <path
         id="path3377"
         style="fill:#ffffff;fill-opacity:1;fill-rule:nonzero;stroke:none"
         d="m 466.535,452.198 c 0,-25.18 -20.412,-45.59 -45.59,-45.59 -25.178,0 -45.59,20.41 -45.59,45.59 0,25.178 20.412,45.588 45.59,45.588 25.178,0 45.59,-20.41 45.59,-45.588"
         inkscape:connector-curvature="0" />
      <path
         id="path3379"
         style="fill:#e71c2c;fill-opacity:1;fill-rule:nonzero;stroke:none"
         d="m 445.475,461.62 c 0,2.357 -0.571,3.863 -2.351,3.863 -4.708,0 -9.414,-10.441 -11.39,-19.377 7.344,0.383 13.741,7.621 13.741,15.514"
         inkscape:connector-curvature="0" />
      <path
         id="path3381"
         style="fill:#e71c2c;fill-opacity:1;fill-rule:nonzero;stroke:none"
         d="m 420.947,497.786 c -0.51,0 -1.004,-0.065 -1.508,-0.075 l -13.101,-59.478 c -0.282,-1.215 -0.373,-2.162 -0.373,-3.002 0,-2.639 1.223,-3.486 3.85,-3.486 2.839,0 5.484,2.15 7.193,5.293 0,0.189 -0.039,0.347 -0.039,0.543 0,10.82 6.12,33.478 25.405,33.478 8.367,0 10.34,-4.316 10.34,-9.027 0,-10.906 -10.34,-19.19 -21.635,-19.846 -0.095,-0.941 -0.184,-1.973 -0.184,-2.822 0,-5.928 2.537,-7.807 5.832,-7.807 3.568,0 8.08,2.36 11.091,4.987 -1.974,-10.727 -8.74,-13.926 -16.269,-13.926 -6.742,0 -11.726,2.621 -13.67,8.685 -5.17,-7.422 -11.513,-8.685 -15.399,-8.685 -5.642,0 -10.057,3.388 -10.057,11.297 0,1.779 0.274,3.855 0.745,6.107 l 12.154,54.953 c -17.466,-6.377 -29.967,-23.095 -29.967,-42.779 0,-25.184 20.413,-45.59 45.592,-45.59 25.174,0 45.587,20.406 45.587,45.59 0,25.174 -20.413,45.59 -45.587,45.59"
         inkscape:connector-curvature="0" />
      <path
         id="path3383"
         style="fill:#1b458f;fill-opacity:1;fill-rule:nonzero;stroke:none"
         d="m 391.935,395.792 c -0.77,0.769 -1.711,1.158 -2.798,1.158 l -29.253,0 c -1.087,0 -2.024,-0.389 -2.792,-1.158 -0.765,-0.758 -1.156,-1.7 -1.156,-2.791 0,-1.094 0.391,-2.036 1.157,-2.793 0.765,-0.768 1.703,-1.157 2.791,-1.157 l 10.681,0 0,-36.574 c 0,-1.088 0.387,-2.025 1.15,-2.791 0.764,-0.767 1.705,-1.158 2.797,-1.158 1.086,0 2.026,0.389 2.794,1.158 0.766,0.77 1.153,1.707 1.153,2.791 l 0,36.574 10.678,0 c 1.09,0 2.03,0.389 2.798,1.159 0.765,0.767 1.152,1.705 1.152,2.791 0,1.084 -0.387,2.021 -1.152,2.791"
         inkscape:connector-curvature="0" />
      <path
         id="path3385"
         style="fill:#1b458f;fill-opacity:1;fill-rule:nonzero;stroke:none"
         d="m 426.873,354.042 -15.653,40.259 -0.005,0.01 -0.003,0.01 c -0.713,1.719 -2.006,2.629 -3.735,2.629 -1.174,0 -2.771,-0.453 -3.727,-2.613 l -0.007,-0.016 -0.008,-0.02 -15.586,-40.095 c -0.256,-0.567 -0.385,-1.149 -0.385,-1.729 0,-1.088 0.383,-2.025 1.139,-2.787 0.75,-0.771 1.685,-1.162 2.78,-1.162 1.093,0 2.03,0.391 2.792,1.158 0.388,0.385 0.683,0.805 0.877,1.252 l 0.008,0.016 0.007,0.015 5.214,13.327 13.793,0 5.183,-13.325 0.006,-0.021 0.011,-0.022 c 0.2,-0.439 0.491,-0.857 0.87,-1.236 0.742,-0.773 1.675,-1.164 2.769,-1.164 1.09,0 2.029,0.391 2.795,1.16 0.765,0.76 1.154,1.701 1.154,2.789 0,0.545 -0.099,1.07 -0.289,1.565 m -24.479,17.296 5.083,13.108 5.078,-13.108 -10.161,0"
         inkscape:connector-curvature="0" />
      <path
         id="path3387"
         style="fill:#1b458f;fill-opacity:1;fill-rule:nonzero;stroke:none"
         d="m 469.703,354.919 -0.004,0.005 -0.002,0.004 -13.871,17.807 13.93,17.934 0.012,0.013 0.011,0.016 c 0.471,0.668 0.709,1.443 0.709,2.303 0,1.084 -0.381,2.021 -1.131,2.785 -0.763,0.775 -1.699,1.164 -2.787,1.164 -1.158,0 -2.107,-0.399 -2.822,-1.188 l -0.019,-0.021 -0.02,-0.026 -12.902,-16.537 -12.903,16.537 -0.013,0.018 -0.018,0.018 c -0.691,0.795 -1.646,1.199 -2.834,1.199 -1.086,0 -2.023,-0.389 -2.793,-1.156 -0.767,-0.764 -1.156,-1.706 -1.156,-2.793 0,-0.854 0.238,-1.629 0.709,-2.301 l 0.012,-0.016 0.015,-0.015 13.957,-17.934 -13.869,-17.807 c -0.562,-0.716 -0.851,-1.552 -0.851,-2.478 0,-1.094 0.39,-2.031 1.16,-2.783 0.763,-0.756 1.701,-1.139 2.791,-1.139 1.084,0 2.021,0.391 2.791,1.158 l 0.035,0.035 0.033,0.041 12.932,16.537 12.699,-16.332 c 0.742,-0.943 1.812,-1.439 3.096,-1.439 1.089,0 2.027,0.385 2.783,1.144 0.754,0.754 1.138,1.69 1.138,2.778 0,0.924 -0.275,1.754 -0.818,2.469"
         inkscape:connector-curvature="0" />
      <path
         id="path3389"
         style="fill:#1b458f;fill-opacity:1;fill-rule:nonzero;stroke:none"
         d="m 484.797,395.794 c -0.768,0.767 -1.707,1.156 -2.793,1.156 -1.088,0 -2.029,-0.389 -2.797,-1.156 -0.766,-0.77 -1.152,-1.709 -1.152,-2.793 l 0,-40.524 c 0,-1.086 0.388,-2.023 1.152,-2.791 0.76,-0.767 1.701,-1.158 2.797,-1.158 1.092,0 2.033,0.391 2.795,1.16 0.765,0.764 1.154,1.701 1.154,2.789 l 0,40.524 c 0,1.086 -0.389,2.025 -1.156,2.793"
         inkscape:connector-curvature="0" />
    </g>
  </g>
</svg>
