<svg xmlns="http://www.w3.org/2000/svg" viewBox="0 0 885.8 695.7">
<path d="M513 433c33-169-67-324-177-368-84 127-25 418 238 418 155 0 257-137 261-184-155-36-308 96-322 134" fill="#3db94d"></path>
<path d="M128 245c-1-1-3-3-7-3-11 0-29 15-43 30-11 13-31 38-37 68h12l8-23h43l-5 23h13l17-84c1-3 2-8-1-11zm-60 60c16-28 41-47 49-50l-10 50H68" fill="#e65c1c"></path>
<path d="M365 475c22-8 33-25 33-51 0-18-4-31-14-41-13-13-35-19-68-19H214v234h109c29 0 51-8 66-22 11-12 17-27 17-45 0-28-15-49-41-56zm-115-15v-64h64c20 0 33 4 40 11 5 5 7 11 7 21 0 21-12 32-37 32h-74zm118 69c0 17-6 36-49 36h-69v-73h67c20 0 34 4 42 12 6 6 9 14 9 25M453 364h-3v234h36V364h-33M737 390c-21-21-50-32-86-32-90 0-122 66-122 123 0 36 13 69 35 90 21 22 50 33 87 33 36 0 65-11 86-33 22-21 35-54 35-90s-13-69-35-91zm-86 181c-23 0-43-8-58-22a95 95 0 01-25-68c0-28 9-52 25-68 15-15 35-23 58-23 22 0 42 8 57 23 16 16 25 40 25 68 0 54-33 90-82 90M197 269h-2l-1 3v2c-3-3-8-6-16-6-19 0-34 15-38 38-2 11-1 21 3 28 3 6 10 10 20 10 7 0 13-2 17-5-3 12-7 18-17 18-4 0-6 0-8-2l-1-7 1-4h-19l-1 3c0 5-2 13 4 19 4 5 11 7 22 7 5 0 22 0 31-14 4-6 5-13 9-30l8-44 3-12 1-4h-16zm-38 38c1-9 6-23 18-23 4 0 8 2 9 4 2 3 3 6 2 15-3 12-5 15-8 19s-7 5-12 5c-4 0-6 0-8-2-2-4-3-10-1-18M242 347a35 35 0 0034-26l2-4h-19l-1 2c-2 8-7 12-14 12-4 0-6-1-8-3-3-3-3-9-2-15h45v-3c2-8 5-25-3-35-4-5-11-8-20-8-8 0-14 2-20 6-13 9-18 23-20 35-2 13-1 24 5 31 4 5 11 8 21 8zm21-50h-26c4-10 11-14 17-14 4 0 6 1 7 3 2 2 3 6 2 11M300 345h2l1-3 7-40c3-12 11-18 18-18 3 0 5 1 7 4 1 1 2 4 1 9l-9 44-1 4h19l1-3 9-47c1-8 0-15-4-20-6-7-15-7-18-7-6 0-12 1-17 5l1-4h-19v3l-2 8-11 61-1 4h16M401 267c-15 0-33 11-39 40-3 17 0 25 3 29 6 10 17 11 22 11 15 0 29-11 33-28l1-4h-19v3c-1 3-4 12-14 12-2 0-4 0-6-2-1-2-3-8-1-21 3-16 9-24 18-24 3 0 4 1 5 2 2 2 2 7 2 9l-1 4h19v-3c1-4 1-11-3-18-5-9-16-10-20-10M466 267c-8 0-15 2-20 6-14 9-18 23-20 35-3 13-1 24 4 31 5 5 12 8 21 8a35 35 0 0035-26l1-4h-18l-1 2c-2 8-7 12-14 12-4 0-7-1-9-3-2-3-3-9-2-15h45l1-3c1-8 5-25-3-35-4-5-11-8-20-8zm7 30h-26c3-10 11-14 17-14 3 0 5 1 7 3s2 6 2 11M132 243c-1-2-4-4-9-4-13 0-33 17-45 31-12 13-32 38-38 69l-1 4h19l1-2 6-21h37l-4 20-1 4h19l1-3 17-84c1-3 2-9-2-14zm-57 59c13-20 30-35 39-41l-8 41H75" fill="#fff"></path>
<path d="M149 347c-1 8 1 14 12 14 16 0 19-13 23-32-7 11-19 11-23 11-6 0-14-1-17-8-5-7-4-16-3-26 5-23 19-35 35-35 12 0 16 7 17 11l2-10h12l-3 13-8 43c-4 17-5 24-9 29-7 11-20 13-28 13-25 0-24-13-22-23h12zm32-23c3-4 6-7 8-20 2-9 1-14-2-17-2-4-7-6-12-6-15 0-20 16-22 25-2 11-1 25 13 25 7 0 11-3 15-7M229 309c-3 15 0 25 13 25 8 0 15-4 18-14h11c-1 3-2 9-8 15-3 3-11 9-23 9-20 0-27-14-22-36 2-14 7-25 18-32 7-5 15-6 18-6 28 0 22 28 20 39h-45zm35-9c1-6 3-20-12-20-7 0-18 5-21 20h33M298 280l1-8h12l-2 11c2-2 8-12 22-12 6 0 23 2 18 23l-9 48h-11l8-44c1-5 1-9-1-12-3-4-6-5-10-5-9 0-18 7-21 21l-7 40h-12l12-62M407 294c0-3 2-14-10-14-16 0-20 21-21 26-3 14-2 28 11 28 9 0 14-9 16-15h12c-4 13-15 25-30 25-4 0-14-1-19-9-3-5-5-13-2-27 5-29 23-38 35-38 4 0 13 1 18 9 3 6 2 12 2 15h-12M439 309c-3 15 0 25 13 25 7 0 14-4 17-14h12c-1 3-3 9-8 15-4 3-11 9-23 9-20 0-27-14-23-36 3-14 8-25 19-32 7-5 14-6 18-6 28 0 22 28 20 39h-45zm34-9c2-6 3-20-11-20-8 0-18 5-21 20h32M215 367h99c57 0 79 19 79 57 0 29-15 45-42 51v1c34 4 50 28 50 55 0 34-23 63-80 63H215V367zm30 201h72c41 0 52-17 52-39 0-26-17-40-53-40h-71v79zm0-105h77c26 0 41-11 41-35 0-21-10-35-51-35h-67v70M451 594h30V367h-30v227zM649 361c88 0 117 66 117 120s-29 119-117 119-118-65-118-119 30-120 118-120zm0 213c50 0 86-37 86-93s-36-94-86-94c-51 0-86 38-86 94s35 93 86 93" fill="#e65917"></path>
<path d="M149 347c-1 8 1 14 12 14 16 0 19-13 23-32-7 11-19 11-23 11-6 0-14-1-17-8-5-7-4-16-3-26 5-23 19-35 35-35 12 0 16 7 17 11l2-10h12l-3 13-8 43c-4 17-5 24-9 29-7 11-20 13-28 13-25 0-24-13-22-23h12zm32-23c3-4 6-7 8-20 2-9 1-14-2-17-2-4-7-6-12-6-15 0-20 16-22 25-2 11-1 25 13 25 7 0 11-3 15-7M229 309c-3 15 0 25 13 25 8 0 15-4 18-14h11c-1 3-2 9-8 15-3 3-11 9-23 9-20 0-27-14-22-36 2-14 7-25 18-32 7-5 15-6 18-6 28 0 22 28 20 39h-45zm35-9c1-6 3-20-12-20-7 0-18 5-21 20h33M298 280l1-8h12l-2 11c2-2 8-12 22-12 6 0 23 2 18 23l-9 48h-11l8-44c1-5 1-9-1-12-3-4-6-5-10-5-9 0-18 7-21 21l-7 40h-12l12-62M407 294c0-3 2-14-10-14-16 0-20 21-21 26-3 14-2 28 11 28 9 0 14-9 16-15h12c-4 13-15 25-30 25-4 0-14-1-19-9-3-5-5-13-2-27 5-29 23-38 35-38 4 0 13 1 18 9 3 6 2 12 2 15h-12M439 309c-3 15 0 25 13 25 7 0 14-4 17-14h12c-1 3-3 9-8 15-4 3-11 9-23 9-20 0-27-14-23-36 3-14 8-25 19-32 7-5 14-6 18-6 28 0 22 28 20 39h-45zm34-9c2-6 3-20-11-20-8 0-18 5-21 20h32M128 245c-1-1-3-3-7-3-11 0-29 15-43 30-11 13-31 38-37 68h12l8-23h43l-5 23h13l17-84c1-3 2-8-1-11zm-60 60c16-28 41-47 49-50l-10 50H68" fill="#e65917"></path>
</svg>
