<svg version="1.1" id="Calque_1" xmlns="http://www.w3.org/2000/svg" x="0" y="0" viewBox="0 0 382.7 382.7" xml:space="preserve"><style>.st0,.st1{fill:#fff}.st1{stroke:#3c3c3b;stroke-width:2;stroke-miterlimit:10}.st2{fill:#373c42}</style><circle class="st0" cx="191.3" cy="191.3" r="189.9"/><circle class="st1" cx="191.3" cy="191.3" r="175.4"/><path class="st2" d="M73.1 300v-27h5.2v8.6A9 9 0 0185 279a10.5 10.5 0 0110.8 10.7 11 11 0 01-2.5 7.2 9.8 9.8 0 01-8 3.5 9.8 9.8 0 01-7.4-3v2.6H73zm11.1-16.5c-2.2 0-3.9.8-5 2.5-.8 1-1.2 2.3-1.2 3.7 0 2.3.9 4 2.6 5.2 1 .8 2.3 1.1 3.8 1.1 2.3 0 4-.9 5.2-2.6.7-1 1-2.2 1-3.6a6 6 0 00-2.6-5.2 6.6 6.6 0 00-3.8-1.1zM122 292h-16.7a5 5 0 003.6 3.6c.7.3 1.5.4 2.4.4a6 6 0 004.7-2h5.6c-.3 1-.8 1.9-1.7 2.8a11.1 11.1 0 01-8.5 3.7c-3.4 0-6.3-1.1-8.5-3.3-2.1-2-3.1-4.4-3.1-7.2 0-3.1 1.1-5.7 3.4-7.8 2.2-2 4.8-3 7.9-3 3.4 0 6.2 1.2 8.3 3.5a10.6 10.6 0 012.6 9.3zm-16.8-4.2H117c-.6-2.4-2.3-3.8-5-4h-1c-3 0-4.9 1.1-5.8 3.6l-.1.4zm23 12.2v-15.8h-2.6v-4.4h2.6V273h5.1v6.8h3.1v4.4h-3V300H128zm34.2-20.2V300h-4.7v-2.6a9.2 9.2 0 01-7.2 3c-3.3 0-6-1-8.1-3.3-1.8-2-2.7-4.3-2.7-7.1 0-3.4 1.2-6.1 3.6-8.2a11 11 0 017.4-2.5 8.5 8.5 0 017 3.2v-2.7h4.7zm-11.2 4c-2.3 0-4 .8-5.2 2.5-.7 1-1 2.3-1 3.8 0 2.2.8 3.9 2.6 5 1 .6 2.3 1 3.7 1 2 0 3.6-.7 4.7-2 1-1.1 1.4-2.5 1.5-4 0-2.4-.8-4.1-2.6-5.3-1-.7-2.3-1-3.7-1zm19.7 12.5c-1.1 0-2 1-2 2.1 0 1 .9 2 2 2 1.2 0 2.2-.9 2.2-2s-1-2-2.2-2zm25.6-16.5h5v16.4c0 3.7-.8 6.4-2.2 8.2-2.1 2.4-5 3.7-9 3.7-4.1 0-7.3-1.3-9.5-3.9-.6-.8-1.2-1.6-1.6-2.6h6c1.2 1.3 2.6 2 4.4 2.2h.9c3.8 0 5.8-2.1 6-6.5a8.8 8.8 0 01-7 3.2 10 10 0 01-8-3.5c-1.7-2-2.6-4.4-2.6-7.3a10 10 0 013.5-7.8c2-1.7 4.3-2.6 7-2.6 3.2 0 5.5 1 7.1 3v-2.5zm-6.4 4c-2.4 0-4 .8-5.2 2.7-.5 1-.8 2.1-.8 3.5 0 2.5 1 4.2 2.9 5.3.9.5 2 .7 3.1.7 2.5 0 4.2-.9 5.3-2.7.6-1 .9-2 .9-3.3 0-2.4-1-4.2-2.7-5.3-1-.6-2-.9-3-1h-.5zm27.7-4.5c3.4 0 6.2 1 8.4 3.3a10 10 0 01-.3 14.8c-2.3 2-5 3-8 3-3.2 0-6-1-8.2-3.1a9.9 9.9 0 01-3.3-7.4c0-3 1.2-5.5 3.5-7.6 2.2-2 4.8-3 8-3zm0 4.4a6 6 0 00-4.8 2.3 5.8 5.8 0 00-1.4 3.8 6.2 6.2 0 006.2 6.2 6 6 0 005-2.3 6 6 0 001.3-3.8c0-2-.8-3.6-2.4-4.8a6.1 6.1 0 00-3.8-1.4zm35.5-4V300h-4.8v-2a8.3 8.3 0 01-4.9 2.4h-1.3c-2.9 0-5-1-6.5-3a10 10 0 01-1.6-5.5V279.8h5.1v9.9c0 2.5.4 4.2 1 5 .7.9 1.7 1.3 3 1.3 2 0 3.2-.6 4-1.8.5-.8.8-2.4.8-4.9v-9.5h5.2zM266 300l-8.7-20.2h5.8l5 13.4 4.8-13.4h5.8l-8.6 20.2H266zm15.6-3.7a2 2 0 00-2 2.1c0 1 1 2 2 2 1.1 0 2-.9 2-2s-.9-2-2-2zm8.8-14h4l-4 18.8c-1.1 4.8-2.6 7.2-4.5 7.2-.5 0-.9-.3-.9-.7l.2-.4.2-.8c0-1-.8-1.7-1.7-1.7-1 0-1.7.8-1.7 1.9 0 1.5 1.6 2.7 3.5 2.7 4 0 7.2-4.5 9.1-12.7l3.3-14.4h5l.2-1.4h-4.8c1.3-7 3-10.2 5.5-10.2.6 0 1 .2 1 .6l-.2.4c-.2.4-.3.6-.3 1 0 1 .7 1.7 1.6 1.7 1 0 2-.8 2-1.8 0-1.6-1.7-2.9-3.9-2.9s-4 1-5.6 3a25.4 25.4 0 00-3.6 8.2h-4.1l-.3 1.4zm18 17.7c2.4-7.7 3.2-9.5 5.2-13 1.5-2.5 2.8-3.8 3.5-3.8.3 0 .5.1.8.6.3.7.7 1 1.6 1 1.3 0 2-.8 2-2.3 0-1.4-.8-2.3-2-2.3-1 0-2.3.7-3.4 2a22.9 22.9 0 00-4.5 6.2l-.6 1.6 2.4-9.7-7 1.1v.8l1.5-.2c1 0 1.5.4 1.5 1.2 0 .6-.3 2.4-.7 3.7l-3.7 13h3.4z"/><path class="st0" d="M72.8 78.3h237.1v72.4H72.8V78.3z"/><path d="M262.1 202.4v-.5c.2-.4.2-.4.8-.3.4 0 .6 0 .8-.3.4-.5 0-.8-.6-.7-.6 0-.6 0-.5-.3.3-1.2.4-1.1-.6-1.3a6 6 0 01-3.2-1.7c-1.3-1.3-1.7-2.6-1.6-4.7 0-1.1.2-1.5.5-2.3 1.2-2.3 3.8-3.5 7.4-3.2l2.1.2.8.2v2.6h-.4c-.3 0-.5-.1-.5-.2 0-.4-.9-1.2-1.6-1.5-.8-.3-2.5-.2-3.4.2-1.9.8-2.8 3-2.2 5.5a5 5 0 001.6 2.7c.8.7 1.6 1 2.9 1 1.3 0 2.2-.4 2.7-1.4.4-.7.6-.8 1-.5v1.3l-.3 1.3-.7.2c-.4.1-1.2.3-2 .3-1.1.1-1.2.1-1.2.4 0 .3 0 .4.3.4.5 0 1 .3 1.1.8.2.5-.3 1.3-.8 1.6-.4.2-2 .3-2.4.1zm-91.7-.6c-1.3-.4-2.5-1-3.9-1.8l-1.2-.8-1.8-.1c-2-.1-2.8-.3-4-1.2-3-2-3.1-6.9-.3-9.3a8.4 8.4 0 018.6-.8c3.6 1.8 4 7 .7 9.8-.5.5-1 .8-1.1.8-.3 0 3.3 1.8 4.4 2.2a6 6 0 003.5.1c.7-.2.9-.2 1 .2 0 .3 0 .4-.8.7-1.1.5-3.6.6-5 .2h-.1zm-4.5-4.3c2.6-1.3 3-5.2 1-7.6-2-2.3-5.4-2-6.7.6-1.2 2.4.1 6.1 2.5 7 1 .5 2.2.4 3.2 0zm-81 1.4c-.8-.3-1.6-1.1-2.8-3-1.9-3-2.2-3.3-2.7-3.3h-.5v1.5c0 2.9.3 3.9 1.3 4 .3.2.4.3.4.5v.4h-6.3v-.4c0-.2 0-.3.4-.4.3 0 .7-.3.9-.5.3-.4.3-.6.3-5.8 0-5.3 0-5.4-.3-5.8l-.9-.5c-.3-.1-.4-.2-.4-.5s0-.3 3.9-.4c4.1 0 5 0 6.2.5 1 .5 1.9 1.8 1.9 3 0 1.4-1.1 2.9-2.6 3.6l-.8.3 1.7 2.3c2 2.7 2.7 3.4 3.3 3.7.5.3.6.8 0 1-.6 0-2.6 0-3-.2zm-4-7.7c2.1-.6 2.8-3.1 1.3-4.5a3 3 0 00-2.5-.7h-.8v5.3h.7l1.4-.1zm35.6 7.7c-.8-.3-1.6-.8-2-1.2-.8-1-1-1.4-1-5.1 0-3.9 0-4.3-.8-4.6-.3-.2-.5-.3-.5-.5 0-.3.1-.3 2.6-.3 2.7 0 2.7 0 2.7.3 0 .2-.1.3-.3.3l-.7.4-.4.3v3.8c0 3.6 0 3.8.4 4.3.4.9 1.4 1.3 2.6 1.2 1.3 0 2-.5 2.5-1.5.4-.8.4-.8.4-4.2 0-3 0-3.4-.3-3.8-.1-.2-.4-.4-.6-.4-.3 0-.4-.2-.4-.4s.1-.2 2-.2c2 0 2.1 0 2.1.2s-.1.3-.3.4c-.8.1-.8.4-.9 4.4v3.8l-.5.8c-.6 1-1.5 1.7-2.6 2-1 .2-3.2.2-4 0zm60.2 0c-.9-.3-1.7-.8-2.1-1.3-.8-.8-.9-1.5-.9-5 0-3.9 0-4.3-.8-4.6-.4-.2-.6-.3-.6-.5 0-.3.1-.3 2.6-.3 2.6 0 2.7 0 2.7.3 0 .2-.2.3-.4.3s-.5.3-.6.5c-.3.4-.4.6-.4 3.6 0 3.8 0 4.6.8 5.2 1.2 1.2 3.9.9 4.6-.5.5-1 .6-2 .6-5-.1-3.1-.2-3.5-1-3.7-.3 0-.4-.2-.4-.3 0-.3.1-.3 2-.3s2.2 0 2.2.3c0 .1-.2.3-.5.4l-.6.4-.2 4v3.8l-.6.8c-.5 1-1.4 1.7-2.5 2-1 .2-3.3.2-4 0zm48.8 0c-.7-.2-1.4-1-2.5-2.8-1.5-2.2-1.6-2.4-2-2.4-.4 0-.4 0-.4 1.7 0 2.1.2 2.7 1 2.8.3.1.4.2.4.5v.3h-5.2v-.3c0-.3 0-.4.4-.5 1-.1 1-.5 1-5.3l-.1-4.3-.4-.4-.7-.4c-.1 0-.2 0-.2-.2 0-.3.1-.3 1.1-.4a46.6 46.6 0 017.1.3c1 .5 1.6 1.4 1.6 2.6 0 1.2-.7 2.2-2 2.8l-.6.5 1.5 2c1.5 2 2.3 2.8 2.6 2.8.3 0 .3.7 0 .8-.4.1-2.1 0-2.6-.1zm-2.9-6.5c.6-.3 1.2-1 1.3-1.6.2-.7-.2-1.6-.7-2-.6-.5-1.1-.7-2-.6h-.6v4.4h.8l1.2-.2zm68.7 6.5a6 6 0 01-1-.3l-.2-1.3-.2-1.4h.5l.4.1c0 .4 1 1.5 1.6 1.7 1.6.7 3.5 0 3.5-1.2 0-.8-.5-1.3-2-2.1-2-1.2-2.8-1.8-3.2-2.6-.5-.7-.5-1.9-.2-2.7.2-.6 1.2-1.4 2-1.8.8-.3 3.4-.3 4.4 0l.8.3v2.5h-.4c-.4 0-.5-.1-.5-.4-.2-.5-1-1.3-1.7-1.4-1.9-.5-3.4 1.2-2.2 2.5.2.2 1.2 1 2.2 1.5 2 1.2 2.7 1.9 3 2.7.5 1.7-.4 3.2-2.3 3.8-1 .4-3.2.4-4.5.1zm-202-.3c0-.3 0-.3.3-.3l.7-.4c.3-.3.3-.5.3-4.7 0-3 0-4.5-.2-4.7-.2-.4-.6-.7-1-.7 0 0-.2 0-.2-.3v-.4h9.3v3H98c-.3 0-.5-.2-.6-.6-.3-.8-.8-1-2.7-1l-1.6-.1v4l1.2-.1c1.4-.1 2-.4 2.2-1 0-.2.1-.3.4-.3h.4v3.7H97c-.3 0-.4-.1-.4-.4 0-.6-.5-.8-2-.9h-1.4v2c0 2.3 0 2.3 1.8 2.3 1.7 0 2.6-.4 3-1.3.3-.5.8-.7 1-.3.1.3-.3 2-.7 2.5l-.2.4h-8.9v-.4zm11.8 0c0-.2.1-.3.4-.4.8-.1.9-.3 1-4.8 0-4.6 0-5-1-5.4-.3-.2-.4-.3-.4-.6v-.3h3.5c3.8.1 4 .2 5.1 1a3 3 0 01.6 3.8c-.6 1.1-1.8 1.7-3.6 1.9h-1l-.2-.5-.3-.5h.6c.7-.2 1.5-.6 2-1 .2-.4.3-.7.2-1.2 0-1.4-.8-2.2-2.3-2.3h-.9v4.6c.1 5 .2 5.2 1 5.4.3 0 .5.1.5.4v.3H101v-.3h.1zm25.6 0c0-.2 0-.3.3-.3.2 0 .5-.1.6-.3l.4-.3v-4.3c.1-4.8 0-5.2-.8-5.5-.3 0-.5-.2-.5-.4s.2-.2 2.3-.3c4.5 0 5.5 0 6.2.3 1 .5 1.4 1 1.5 2v1.2c-.2.5-1 1.2-1.7 1.5l-.8.3.7.2a3 3 0 012.2 3.3c-.2 1.3-.8 2-2.2 2.6-.7.3-1 .3-4.5.3h-3.7v-.3zm6.8-1c.8-.5 1-1.2 1-2.2-.1-1.4-1.3-2.3-3-2.3h-1v2.1c0 2 .1 2.1.5 2.4.5.4 1.8.3 2.4 0zm-.7-5.8c1-.4 1.5-1 1.4-1.9-.1-1-1.1-1.7-2.7-1.7h-1v3.8h.8c.5 0 1.2-.1 1.5-.3zm6.4 6.8c0-.2 0-.3.4-.3.2 0 .5-.3.7-.5.3-.4.3-.5.3-4.7 0-3.4 0-4.3-.2-4.6-.3-.4-.6-.6-1-.7-.1 0-.2 0-.2-.3s0-.3 2.7-.3c2.8 0 2.8 0 2.8.3 0 .2 0 .3-.3.3-.2 0-.5.1-.7.3l-.4.4v4.4l-.1 4.4.4.2c.3.2.6.2 1.6.1 1.4 0 2.1-.4 2.5-1.2.3-.5.6-.7 1-.4.2 0 .1.3-.1 1.2-.2.6-.4 1.2-.6 1.4l-.2.3h-8.6v-.4.1zm10.8 0c0-.2 0-.3.4-.4.9-.1 1-.5 1-5.2 0-3.8 0-4.1-.4-4.6-.1-.2-.4-.5-.7-.5-.2 0-.3-.2-.3-.4 0-.3 0-.3 2.6-.3s2.6 0 2.6.3c0 .2-.1.4-.4.4-.2 0-.5.3-.6.5-.3.3-.3.8-.3 4.6 0 4.7 0 5.1.9 5.3.3 0 .4.1.4.4v.3H150v-.3zm36.8 0c0-.2.1-.3.5-.4.8-.1.9-.5.9-5.2 0-4 0-4.2-.4-4.6-.2-.3-.5-.5-.7-.5-.2 0-.3-.2-.3-.4v-.4h9.1v1.5c0 1.5 0 1.5-.4 1.5-.3 0-.4-.1-.4-.5-.2-.8-.9-1.1-2.7-1.2h-1.6v.6l-.2 2v1.3h1.4c1.4-.2 2-.4 2.1-1 .1-.2.2-.3.5-.3h.4v3.6h-.4c-.3 0-.4 0-.4-.2 0-.7-.8-1-2.3-1h-1.3v2c.1 2.3.1 2.3 2 2.3 1.6 0 2.4-.4 2.9-1.2.2-.5.4-.6.6-.6l.5.1a7 7 0 01-.9 2.7c-.1.2-1 .2-4.6.2h-4.3v-.3zm17 0c0-.2.1-.3.5-.5.2 0 .6-.3.8-.6.3-.3.3-.5.3-5.6 0-5.9 0-6-1.1-6.3-.4-.1-.6-.2-.6-.5v-.3h10.8v3.4h-.4c-.4 0-.5 0-.5-.3 0-.5-.6-1.2-1.2-1.4a9 9 0 00-2.3-.3h-1.7v4.7h1.2c1.7 0 2.3-.2 2.7-.9.2-.4.3-.5.7-.5h.5v4.2h-.5c-.4-.1-.6-.2-.6-.4-.3-.8-1.2-1.2-3-1.2h-1v2.5c0 2.8.2 3.2 1.1 3.5.4.1.5.2.5.5v.3h-6.3v-.3zm24.6 0c0-.2.1-.3.3-.3.5 0 1-.9 2.2-3.5 1.6-3.6 3-7.2 3-7.4 0-.2.3-.3.8-.3h.8l2 4.9c2.3 5.2 2.7 6 3.2 6.2.2 0 .4.3.4.5 0 .3 0 .3-2.7.3h-2.6v-.4c0-.2.1-.3.5-.4.6 0 .7-.5.2-1.9l-.5-1.2h-3.6l-.4 1c-.4 1.3-.4 2 0 2.2.3 0 .4.1.4.3v.4h-4v-.4zm7.1-4.8c0-.3-1.1-3-1.2-3l-.3.6-.7 1.5-.4 1h1.3l1.3-.1zm6.7 4.8c0-.2 0-.3.4-.4.8-.1.8-.3 1-4.9 0-4.7 0-5-1-5.3-.3-.1-.5-.3-.5-.4 0-.3.2-.3 1.8-.3h1.7l1 1.2a180 180 0 005.7 6.1l.3.5v-3.2c0-3.4-.2-3.8-1-4-.2 0-.4-.2-.4-.3 0-.2.2-.3 2.1-.3 2 0 2 0 2 .3 0 .2 0 .3-.3.3-.1 0-.4.2-.6.5-.3.3-.3.5-.4 5.5v5.1h-.7c-.6 0-.7 0-1.2-.5l-7.2-8v3.3c0 4 .2 4.4.9 4.5.3.1.4.2.4.4v.4h-4.1v-.4zm27 0c0-.2 0-.3.2-.3.3 0 .8-.7 1.3-1.5l3.6-8.5.4-1.2 1.4.1 2 4.8 2.4 5.2c.3.6.8 1.1 1 1.1.2 0 .3.2.3.4v.3h-5.3v-.3c0-.3.1-.4.3-.4.7 0 .8-.5.3-2l-.4-1.2H273l-.3 1c-.6 1.7-.6 2.2.2 2.2.2 0 .2.1.2.4v.3h-4v-.3zm6.5-6.2l-.6-1.6c0-.2-.4.4-.8 1.3a21 21 0 00-.7 1.6l1.3.1h1.3l-.5-1.4zm7 6.2c0-.2.1-.3.4-.3.2 0 .5-.1.6-.3.3-.3.3-.6.4-4.6v-4.7c-.2-.3-.8-.8-1.1-.8-.2 0-.3-.1-.3-.3 0-.3 0-.3 2.6-.3 2.5 0 2.6 0 2.6.3 0 .1-.1.3-.4.4-.3.1-.5.4-.6.6-.2.5-.4 4.9-.2 7.2 0 1.6.1 2 .4 2.3l.6.3c.2 0 .2 0 .2.3v.4h-5.2v-.4zm17.3 0c0-.2 0-.3.4-.3.2 0 .5-.1.7-.4.3-.3.3-.5.3-4.7 0-3 0-4.5-.2-4.7-.2-.4-.6-.6-1-.6l-.2-.4v-.3h9.2v3l-.4-.1c-.3 0-.4-.2-.5-.6-.3-.8-.9-1-2.7-1l-1.6-.1v4h1c1.3 0 2-.3 2.2-.9.2-.3.4-.4.6-.4h.4v3.6h-.4c-.3 0-.4 0-.4-.3 0-.6-.5-.9-2-1H304v2c0 2.3 0 2.4 1.8 2.4 1.7 0 2.6-.4 3-1.4.3-.5.8-.6 1-.2.1.2-.3 1.9-.6 2.4l-.3.4H300v-.4zM93.4 186l-.4-.3 1-1.2c.4-.7 1-1.3 1-1.3.6 0 2.2.3 2.2.4 0 .2-3.1 2.7-3.3 2.7l-.5-.3zm-19.6-9.6h234.9v1.2H73.8v-1.2zm89.4-2.9c-1.2-.4-2-1.4-1.7-2.5.2-.8.6-1.3 1.5-1.6l.7-.3-.5-.3c-.2 0-.4-.3-.4-.5s1.1-1.2 1.4-1.2l-.2-.6c-.8-1.2-.2-3 1.3-3.6.8-.4 1-.4 3.9-.2 1.6 0 1.7 0 1.6.4l-.1.4h-1.2v.9c.2 1.7-1.1 3-3.4 3-1.2 0-1.7.2-1.3.5l1.7.5c2.6.8 3 1.2 3 2.4-.2 1.2-1.3 2.3-2.9 2.7-.9.3-2.6.3-3.3 0h-.1zm3.4-.8c1.3-.6 1.8-1.7 1.1-2.2-.4-.4-2.4-1-3-.9-1 .2-2 1.4-1.8 2.2.2 1.2 2.1 1.6 3.7.9zm.4-6.3c1-.5 1.3-2 .7-2.7-.8-1-2.5 0-2.5 1.7 0 .5 0 .6.4 1 .6.3.8.3 1.5 0zm5.9 3.2c-.7-.1-1-.5-1.1-1.2-.2-1.9 1.5-4.6 3.4-5.5 1-.4 3-.5 4.3 0 .2 0 0 .4-.2 1.4-.6 2-1 3.8-.8 4.2.2.2.3.2.7 0l.6.1c.2.3 0 .4-.8.7-1.2.4-1.7.3-2-.2v-.5l-.7.4c-1 .5-2.5.8-3.4.6zm2.7-1.2c.4-.2.9-.5 1-.7.2-.3.8-2.4 1-3.6.2-.5.2-.5-.4-.6-1-.3-2 .4-2.9 1.9-.9 1.5-1 2.9-.5 3.2.4.3.6.2 1.8-.2zm73 1.2c-.7-.2-1-.4-1.1-1-.3-1 .3-2.8 1.5-4.2 1.3-1.6 2.8-2.1 5-1.8a5 5 0 011.2.3l-.4 2c-.3 1-.6 2.2-.6 2.7v1l.7-.1c.5 0 .6 0 .6.3 0 .2-.1.3-.9.5-1.2.4-1.8.3-1.8-.2l-.1-.4-1 .4c-.7.3-2.2.6-2.5.6l-.6-.1zm2.6-1.2l1-.6c.2-.3.9-2.2 1.2-3.7 0-.5 0-.5-.5-.6-.5-.2-.7-.2-1.2 0-1 .5-2 1.9-2.4 3.6-.5 1.7 0 2 1.9 1.3zm-167.3.8l.6-2.8c.8-2.8.8-3 0-2.8-.5 0-.5 0-.5-.2 0-.3.1-.4.9-.6l1.4-.2c.5 0 .6 0 .6.4 0 .3-.2 1.5-.6 2.8a14 14 0 00-.5 2.6c0 .2.2.2.8.1.6 0 .7 0 .6.3 0 .2-.2.3-.9.5l-1.6.3c-.6 0-.7 0-.8-.3zm6 .1l-.4-.2 1.2-4.8c.6-2.6 1.2-5 1.1-5.1 0-.4 0-.5-.7-.3-.3 0-.3 0-.3-.3 0-.4.5-.6 2-.7.9 0 1 0 1 .3l-.6 2.5-.5 2.4h.6c1.7-.8 3.2-.7 3.8 0 .5.7.2 2.5-.6 4-.4.7-1.7 2-2.4 2.2-.9.4-3.7.4-4.2 0zm3.8-.9c.8-.5 1.7-2.1 2-3.6.2-1.5-1-1.8-2.6-.7a2 2 0 00-.8 1c-.3.6-.9 2.8-.9 3.2 0 .6 1.5.7 2.4.1zm6 .7c-.5-.4-.5-.5-.5-1.4 0-2.3 1.5-4.4 3.5-5 1-.3 2-.2 2.6.2.3.3.4.5.4 1 0 1.5-1.5 2.6-3.5 2.7l-1.2.2c-.2.3-.2 1 0 1.4.4.7 1 .7 2.3 0 .8-.3 1-.4 1-.2.4.4.2.5-1 1-1 .5-1.3.5-2.2.5-.9 0-1 0-1.4-.4zm2.7-3.3c1.3-.3 2.2-1.6 1.5-2.2-.4-.4-.8-.4-1.3 0-.5.3-1.2 1.4-1.4 2 0 .3 0 .3.3.3l1-.1zm5.2 3.7a111 111 0 011.2-5.3v-.6h-.6c-.5.1-.6.1-.6-.2 0-.3.5-.5 1.8-.8.8-.2 1.2 0 1.2.5v.3l.5-.3c1-.6 1.6-.7 2.3-.4.3.1.5.3.5.4-.4 1.3-.6 1.8-1 1.8-.3 0-.3-.1-.3-.5 0-1-1-1-1.7 0-.4.6-.9 2-1.3 4 0 .5-.2 1-.3 1l-1.6.1h-.1zm7.8-.1c-.2-.2-.1-.7.8-4.3l.3-1.5h-.5l-.5-.1c0-.2.3-.6.5-.6.4 0 1.1-.7 1.4-1.3.4-.7.5-.8 1-.8.4 0 .4 0 .3.4l-.2 1-.1.5h.7c.7 0 .9.2.6.7 0 .1-.3.2-.8.2-.8 0-.7-.3-1.4 2.8-.5 2.2-.5 2.4.4 2.2.7-.2.7-.2.7.2 0 .2-.2.4-.8.5-1 .3-2.1.4-2.4.1zm6.2-.2c-1.1-1-.3-4.2 1.5-5.7.7-.6 1.8-1 2.6-1 .5 0 1.5.4 1.7.7.2.4.1 1.4-.2 1.9-.6 1-2 1.5-3.5 1.5h-1v.8c0 1.4.7 1.7 2.4.9a4 4 0 011.1-.4l.1.4c0 .2-.1.3-1 .8a4 4 0 01-2.2.5c-1 0-1.2 0-1.5-.4zm2.7-3.4c.8-.2 1.4-.7 1.6-1.2.2-.4.2-.5 0-.9-.5-.5-.9-.5-1.5 0a5 5 0 00-1.3 2.1c0 .2.5.2 1.2 0zm58 3.7c-.3-.2-.2-1 .6-3.9 1-3.8 1.5-6.1 1.5-6.5 0-.2 0-.3-.5-.2-.5 0-.6 0-.6-.2 0-.4.4-.5 2-.8.8-.1 1 0 1 .4l-1.2 4.9-1.1 5v.4h.7c.7-.1.7 0 .6.2 0 .2-.2.4-.9.5-.8.3-2 .4-2.2.2zm5.7 0c-.1-.4 0-1 .6-3.3l.6-2.4c0-.3-.1-.3-.8-.1-.3 0-.4 0-.4-.2 0-.4.6-.7 1.8-.9 1-.1 1.3 0 1.3.3l-.7 2.8c-.4 1.5-.7 2.7-.6 2.8 0 0 .4.1.8 0 .6 0 .7 0 .6.3 0 .2-.2.4-.9.5-1 .3-2 .4-2.2.1zm5.7-.2l.1-1 1.1-4.6-.5-.1c-.6 0-.5-.4.3-.8.5-.2.7-.4 1.1-1.1.4-.8.6-.9 1-.9h.4l-.2.9-.2 1h.7c.8 0 .9 0 .7.6 0 .3-.2.3-.9.3h-.8l-.5 2.4a14 14 0 00-.4 2.5c0 .2.2.2.6.1.7-.2.7-.1.7.2 0 .3-.1.4-.9.6-1.2.3-2.1.3-2.3 0zm6.4 0c-.4-.3-.5-.5-.5-1.3-.1-1.7.7-3.7 2-4.6 1.5-1 3.1-1.1 4-.3.4.3.5.4.4 1-.2 1.4-1.6 2.4-3.6 2.5-1.3.1-1.4.2-1.2 1.2.3 1 .8 1.2 2.3.5 1-.4 1.3-.4 1.3 0 0 .5-1.9 1.2-3.2 1.3-1 0-1.1 0-1.5-.3zm3.3-3.8c1-.4 1.3-1.4.8-2-.7-.6-2 .3-2.6 2l-.2.5h.7l1.3-.4zm36.8 4a95.8 95.8 0 011.3-5.3v-.6h-.6c-.6.1-.7.1-.7-.1 0-.4.3-.5 1.6-.8 1-.2 1.4-.1 1.4.4v.4l.5-.4c1-.5 1.6-.7 2.3-.4l.6.3-.4 1c-.3.7-.4.9-.7.9s-.3-.1-.3-.5c0-1-.9-1-1.6-.1-.5.6-.8 1.4-1.2 3.3l-.4 1.7-1.7.3zm17.8-.1c-.1-.3 0-1.2.6-3.6l.5-2.1h-.4c-.5-.1-.6-.6-.1-.7.5-.2 1.2-.7 1.5-1.4.3-.6.4-.8 1-.8.3 0 .3 0 .2.5l-.2 1v.5h.6c.8 0 .9.1.7.6-.1.2-.3.2-.8.2-.9 0-.8-.2-1.4 2.8-.5 2.3-.5 2.5.3 2.2.7-.1.8-.1.7.2 0 .3-.2.4-.8.6-1 .3-2.2.3-2.3 0zm6.2-.2c-1.1-1-.3-4.2 1.5-5.6.7-.7 1.9-1.1 2.6-1.1.5 0 1.5.4 1.7.7.2.4.2 1.4-.1 2-.7.9-2.1 1.5-3.6 1.5h-1l.1.9c.2 1.3.7 1.5 2.4.7a4 4 0 011-.3l.2.3c0 .2-.2.4-1.1.8a4 4 0 01-2.2.5c-.9 0-1 0-1.4-.3zm3.3-3.6c1-.5 1.5-1.6.9-2-.5-.4-.8-.3-1.4.2-.5.3-1.3 1.7-1.3 2 0 .3 1 .1 1.8-.2zm4.7 3.9a83 83 0 011.2-5.4c0-.4-.1-.4-.6-.4s-.6 0-.7-.2c0-.2.1-.3.7-.6l1.4-.3c.6-.1.6-.1 1 .7l.9-.4c1-.5 1.2-.5 1.9-.1l.5.2-.3 1c-.3.7-.4.8-.7.8-.3 0-.4 0-.4-.4 0-1.2-1.2-1-2 .4-.1.3-.5 1.4-.7 2.5l-.5 2-1.7.1zm7.7 0l.5-2c.4-1.2.6-2.4.6-3v-1l-.5.1c-.4 0-.6 0-.6-.2-.1-.2 0-.3.7-.5 1.4-.4 1.7-.4 2-.2l.2.6v.3l1.1-.4c1.2-.5 2.9-.8 3.4-.6.3.2.3.3.2 1l-.5 2.3-.5 2.2c0 .4 0 .4.6.4.4 0 .6 0 .7.2.1.3 0 .4-1 .7-1 .2-2.1.2-2.2 0l.5-2.7c.7-2.8.7-3.1.4-3.2-.4-.1-1.5.4-2.2 1-.6.5-.7.6-1 2a49.2 49.2 0 00-.8 2.8c-.5.2-1.7.2-1.7.1zm10.6-.1l.6-2.9.6-2.8c0-.2-.2-.2-.6 0h-.5v-.2c0-.3 0-.4.7-.6 1.9-.5 2.4-.4 2.2.4l-.7 2.6c-.3 1.3-.6 2.5-.5 2.6 0 .2.2.2.8.1.6 0 .7 0 .6.2 0 .6-3 1.2-3.2.6zm5.8 0c-.1-.3 0-1 .6-3.3.7-2.7.7-2.5.1-2.5-.7 0-.6-.3.2-.7.5-.2.8-.5 1.1-1.1.4-.7.6-.9 1-1 .4 0 .4 0 0 1.6v.4h.8c.7 0 .8 0 .7.3v.4c0 .1-.3.2-.9.2h-.8l-.5 2.3c-.3 1.3-.5 2.5-.4 2.6 0 .2.2.2.6 0 .7-.1.7 0 .7.3s-.1.3-.9.5c-1.1.3-2.1.3-2.3 0zm6.3-.1c-.4-.4-.4-.4-.4-1.7 0-1.3 0-1.5.6-2.5.7-1.2 1.4-1.9 2.7-2.3 2.2-.7 3.8.5 2.8 2.2-.5 1-2 1.7-3.5 1.7-.9 0-1 0-1 .4-.2.4 0 1.1.3 1.4.4.4 1 .3 2-.2.9-.3 1-.4 1.1-.2.3.4.2.6-.8 1-.8.3-1.3.5-2.2.5-1 0-1.1 0-1.5-.3zm3.4-3.8c1-.5 1.4-1.5.7-2a.9.9 0 00-.8 0c-.6.1-1.4 1-1.7 1.9l-.2.6h.7l1.3-.5zm-233.2 3.7c0-.1.1-.3.3-.3.5 0 .9-.4 1.2-1 .4-1 1.6-6.7 1.7-8 0-1 0-1-.5-1.2-1-.6-.7-.7 2-.7 2.1 0 2.5 0 2.5.3l-.5.3c-1 .1-1.4 1-2.3 5.3-.9 4-.9 4-.5 4.3.3.3.5.3 1.7.3 1.6-.1 2.2-.3 2.8-1.2.4-.7.4-.7.7-.5.2.1.2.3 0 .8a7 7 0 01-.6 1.3l-.4.5h-4c-4 0-4.2 0-4.2-.2zm78 0s.2-.3.5-.4c.5-.2.7-.5 1-.9.4-.8 1.7-6.7 1.8-8 0-1 0-1-.5-1.3-1-.5-.8-.6 3.9-.6 4.3 0 4.4 0 4.3.3l-.3 1.2c-.1.8-.2 1-.5 1s-.3 0-.3-.3c0-1-.6-1.2-2.8-1.2h-1.5l-.4 1.8-.5 2c0 .2 0 .2 1.3.2 1.5 0 2-.1 2.4-.8.4-.6 1-.6.8 0l-.3 1.6c-.2 1-.4 1.3-.6 1.3-.1 0-.3-.2-.3-.4a1 1 0 00-.5-.6c-.3-.2-2.8-.3-3-.1l-.7 3.3c0 .6 0 .7.3 1l1.8.1c1.6 0 2.1-.3 2.8-1.1.3-.4.6-.6.7-.6.3.1.3.4-.2 1.4-.7 1.4-.3 1.3-5 1.3-3.5 0-4.2 0-4.2-.2zm78.3 0l.5-.3c1-.3 1.3-1.1 2.3-5.6.8-3.9.8-4.5-.2-4.8-.1 0-.3-.2-.2-.3l4.3-.1c4.2 0 4.3 0 4.2.2l-.3 1.2c-.1.8-.2 1-.5 1s-.3 0-.3-.4c0-.9-.8-1.2-2.9-1.1h-1.2l-.4 1.8-.5 2c0 .3 2.4.3 3 0l.6-.6c.1-.3.3-.5.5-.5.3 0 .3 0 0 1.8-.4 1.3-.5 1.6-.7 1.6-.2 0-.3-.1-.3-.3 0-.6-1.4-1.1-2.7-1l-.6.2-.3 1.5c-.6 2.8-.6 3 .3 3.3 1 .4.4.5-2.1.5l-2.4-.1zm-90.5-3a2.3 2.3 0 01-1.3-1.8c0-1.1 1.1-2.1 2.3-2.1 1.5 0 2.4.8 2.4 2 0 1.7-1.7 2.6-3.3 2zm78.5.1l-.9-.7c-.3-.4-.4-.7-.4-1.2 0-1.3 1-2.1 2.3-2.1.7 0 1 0 1.4.4 1.1.8 1.3 2 .4 3-.7.8-1.8 1-2.7.6zm-92.2-5c-.3-.2-.3-.2 1.5-2l.5-.6 1 .2.8.2-3.4 2.5-.4-.2zm78.5 0l-.4-.2 1.2-1.2c.6-.7 1.2-1.2 1.3-1.2l1.7.4-3.3 2.4-.5-.1zm102.5 0l-.4-.2 1.3-1.2c.6-.7 1.2-1.2 1.3-1.2l1.7.4-3.3 2.4-.6-.1zm-220-.6c-.7-.6-.1-1.7.8-1.7.7 0 1 .3 1 1 0 .8-1.2 1.3-1.9.7zm104 0c-.4-.2-.4-1 0-1.4.7-.6 1.9-.2 1.9.5 0 .9-1.2 1.4-1.9 1zm102.4 0c-.6-.6 0-1.7 1-1.7s1.3 1 .6 1.6c-.4.4-1.2.5-1.6 0zm-135.1-4c-.2-.3-.2-.4 1-1.5l1.1-1.1.9.2c.5 0 .9.2.9.2 0 .2-3.1 2.3-3.4 2.4-.2 0-.4 0-.5-.2z" fill="#020203"/><path d="M208.5 150.7l.3-.9a15 15 0 016.1-7.7c1.2-.4 2.5-.6 4.2-.4 1.4 0 5.8.7 7.6 1 1.4.4 3.4.4 4.3.1 1.8-.4 2.8-1.3 3.4-2.9.3-1.1.3-2.2 0-2.8-.6-1-.5-1.2.8-2.3a8 8 0 001.2-1.2c0-.3-1-1.8-1.2-1.8l-.6-.3-.3-.3.7-.3c1-.5 1.8-1.3 1.8-1.8 0-.2-.2-.8-.5-1.2-.5-1-.6-1.7-.3-2.2.1-.4.5-.5 2.1-1 1.4-.3 1.9-.6 2-1.4.2-.7.1-1.1-.3-2l-3.4-4.7c-1-1-2-3-2.4-4-.4-1-.4-1-.1-2.2.5-2.7.2-5-1.3-9.3-1-3.3-1.3-4-1.7-4.7-.6-1-.5-1.3.8-2.2l1.2-1c.4-.7 0-2-.8-2.3-.4-.2-.7 0-1.1.7-.4.6-.5.7-.9.7-.6 0-.7-.2-.3-.7.4-.6.4-.7-.3-.7-.6-.1-.8-.3-2-1.4-1.5-1.4-2.6-2-4.6-2.9l-1-.5 2.4.1c2.8.2 3.5-.2 4.2-2 .4-1.3.7-1.9-.4-2.8l-3.7-3.1h85.5v72.3H208.5z" fill="#e1071d"/><path d="M135.5 150.7l-1.2-.2 3.9-2.2c1-.6 1.4-.9 1.3-1l-2-.1h-2.3c-.3.2-1.5.5-2.6.8-2.8.7-3.7 1.1-4.6 2.2l-.4.5H72.8V78.3h108.9l-2.1 1.2-3 1.6a16 16 0 00-4.5 5.6c-.2.6-.4.8-1 1.2-1 .6-2.1 1.7-3 3a61.8 61.8 0 00-4.3 6.7c-.8 1.7-.7 3 .4 8a138.3 138.3 0 003 10.9c.2.1.3.3.3.5 0 .3.4.7 1.2 1.5 1.7 1.7 3 3.4 3 3.9 0 .4-.7.5-1.8.3-1.3-.3-2.4-1-4-2.4l-1.3-.9 1 1.3c1.2 1.1 1.4 1.5 1.1 1.9-.2.4-.7.5-1.4.3-.9-.2-1.4 0-1.2.7 0 .4 0 .4-.2.3l-2.5-.4c-.8 0-.9-.1-1.4-.8-.4-.4-.7-.7-1.1-.8a73.6 73.6 0 00-15.6-1.5c-1.7.2-2.1.3-3 .7-1.6.8-4.4 3-4.4 3.7 0 .3.6.2 1.3-.2 2.1-1.2 9.4-2.9 13-3 1.7 0 1.6 0-.5.4a111.6 111.6 0 01-10.4 2.5l-.9.3h1.3c6.7 0 14.3 2 17.4 4.3 1.4 1 1.9 1.2 3.8 1a18 18 0 007.7-2.6c.7-.5 1.2-.7 1.2-.4 0 .5-.9 3-1.3 3.5-.4.7-.4.8-.2 1l.2.2.2.2c.5.1.4.3-.4.4-.8.2-1.4.5-1.4.8h.2c.4 0 .1.3-.4.4-.4.1-.4.2-.3.3.2 0 .2 0 0 0l-.2.4c0 .2-.1.4-.4.5-.8.3-.6.5.5.4h.7l-2 .8a62 62 0 01-3.7 1.6c0 .2.3.2 1 0a42.2 42.2 0 01-3.3 1.9 41.4 41.4 0 00-5.4 3c-.3.5-.2.6.5.5 1-.2 1.5-.2 1.6 0 0 .1 0 .2-.2.2l-.5.2a1 1 0 01-.6.3c-.3 0-.5.2-.7.4l-.7.6h.6c7-.5 8.2-.7 11-2a26.6 26.6 0 007.7-5.2c.2 0 0 .8-.3 1.5-.6 1.2-1.9 2.2-4.5 3.8l-3.2 1.7c-1.3.4-3.5.8-5.7 1a30.9 30.9 0 00-14 3.9s-.4.1-.7.4c-.8.6-.2.5 1.5-.3 1.8-.8 2.6-1 1.2-.2-1.7 1-3 1.5-4.3 1.5h-6.8v-.1zm-9-8.1l2-1 2.2-1.2 2.4-1c2-.7 4.8-1.5 5-1.2l1 .2c.6 0 .7 0 .4.1-.2 0-.3.2-.3.3 0 .2 1.4.1 2-.2a5 5 0 011.2-.2c.6-.1.8-.2.8-.3a23.3 23.3 0 006.4-1.1 39 39 0 006.2-1.9l1.2-.5-1.2-.7c-3-1.7-6-2.8-12.6-4.5l-2.2-.6c-.1-.1 0-.1.1 0 .7.1 1.2.2 1.2 0s-.5-.4-1.5-.5c-.9 0-1.5-.3-.9-.3 1 0-.6-.6-2.5-.9-1.4-.2-1.4-.2-.9-.5.5-.2 1-1 1-1.4-.2-.2-.3-.2-1 .2a9.6 9.6 0 00-3.5 3.8c-.5.8-.3.9 1.8 1 1.8 0 1.8 0 1.4.3a5 5 0 01-1.2.3c-1.2.2-1.9.7-1.3 1 .2.1.1.2-.3.4-.5.2-.6.3-.3.4h1c.5 0 .8 0 1 .3l.4.3-.7.3a3 3 0 00-1 .9c0 .2-.6.8-1 1.3-.6.4-1 1-1 1 0 .2-.7.8-1.6 1.4-2.3 1.7-3.3 2.6-3.3 3 0 .3-.2.5-.4.7-.7.4-1.1.9-.7.9l.7-.2zm18-1.6l1.5-.4.4-.2-.7-.4-.8-.3-.7.3-1.3.4c-1.1.4-1.3 1-.2.8l1.8-.2zm-26.1-6.4a53.6 53.6 0 0110.7-8c.1.3.6.2 1.3-.2.8-.5 1.3-1 2.3-2.7 1-1.8 1.5-2.2 3-3.3a151.1 151.1 0 003.5-2.2v.3c.4 0 2-.6 2.1-.8.1-.2-1.6-.5-2.8-.4-1 0-1.3.1-2.5.7a34.7 34.7 0 00-8.6 6.3c-2.7 2.5-5 4.1-6 4.6-.4.2-.6.5-1 1.3-1 1.5-2.4 3.7-3.8 5.5-1.4 1.7-1.7 2.3-.6 1.2l2.4-2.3zm34.4 15.3c4-.8 4.5-.9 7.4-1 3.3-.1 3.7-.2 5.7-1 .6-.3.8-.3 1-.2 0 .2 1.1-.3 3.2-1.6l2.7-1.5c.9-.5 1.2-.6 1.6-.5.5 0 .6 0 1.3-.5 1.6-1.3 3.1-2 4.5-2 .5 0 .6.1.6.3 0 .1.1.2.2.1.5-.1.3 0-.8.8-1.3.8-1.2 1.1.1.3s1.3-.8 1.3-.5c0 .2-.5.6-1.4 1.3-2 1.5-3.4 2.7-5.5 4.9l-2 1.8h-24.4l4.4-.8zm0-28.4h.3-.3z" fill="#223a7a"/><path d="M224.7 116.2c-.6 0-.3-.3.5-.3.9 0 1.3-.3 1.3-.8 0-.3 0-.3-.3-.2-.2 0-.4 0-.6-.2-.1-.2-.4-.3-1-.4-.8 0-2.2-.8-2-1 .1-.2.6-.2 1-.3.8 0 .9 0 1-.5.2-.3.3-.5.6-.6.3 0 .6-.2.8-.4l1.6-1c1-.6 1.7-1.3 1.5-1.5-.3-.2-2.6-.5-3.7-.4a23 23 0 00-4.3.8c-1 .3-.7 0 .6-.6 1.7-1 5-1.8 7-1.8.6 0 3 .5 3.3.7.6.4 0 1.9-1 2.6l-.5.3.7.7-.3.3-.7.2-.7.5c-.4.3-.5.4-.3.7v.7c-.2.1-.2.5-.1 1 .1 1 0 1.2-.8 1.4-.6.2-2.6.2-3.5 0v.1z" fill="#7f8080"/><g><path class="st2" d="M269.3 257.6c-1.2 0-2.2 1-2.2 2.1 0 1 1 2 2.1 2 1.3 0 2.3-1 2.3-2 0-1.1-1-2-2.2-2zM128.9 255.3h3c-.5 1-1 2-1.5 2.5a10.3 10.3 0 01-8.3 3.8c-2 0-3.8-.4-5.5-1.3-1.7-1-3-2.2-4-3.8-.9-1.6-1.4-3.4-1.4-5.4 0-1.9.5-3.6 1.5-5.2s2.2-2.9 3.8-3.8a11 11 0 015.5-1.4c2.2 0 4.3.6 6 1.8 1.8 1.1 3.1 2.7 4 4.8h-3.1a7.8 7.8 0 00-7-4c-2.2-.1-4 .7-5.6 2.2a7.8 7.8 0 00-2.3 5.7c0 2.2.8 4.1 2.3 5.7a7.8 7.8 0 005.7 2.3c1.5 0 2.7-.3 3.7-1 1-.5 2.1-1.5 3.2-2.9zm30.8-14.1v20H157v-3.5c-1 1.4-2.1 2.4-3.3 3a11.3 11.3 0 01-9.8-.4 9.8 9.8 0 01-5.2-9.1c-.1-2 .3-3.7 1.3-5.3a10 10 0 013.8-3.8c1.6-1 3.3-1.4 5.3-1.4 1.8 0 3.3.3 4.5 1 1.3.6 2.4 1.6 3.4 3v-3.5h2.8zm-10.6 2a7.8 7.8 0 00-7.8 8c0 2.2.8 4 2.4 5.6a7.7 7.7 0 005.6 2.4c2.2 0 4-.8 5.5-2.4a8 8 0 002.2-5.7 7.7 7.7 0 00-8-8zm19 18v-20h2.6v2.3c.8-1 1.6-1.7 2.5-2.2.8-.4 1.9-.6 3.2-.6 1.5 0 2.8.3 3.8 1 1 .5 2 1.5 2.7 2.8a8 8 0 013-2.9c1-.6 2.4-.9 4-.9 1.3 0 2.5.3 3.6.8a7 7 0 012.7 2.2c1 1.3 1.5 3.2 1.5 5.6v12H195v-11.7c0-2-.4-3.6-1.2-4.6-.4-.5-1-1-1.7-1.3-.8-.3-1.5-.5-2.4-.5-1 0-1.8.2-2.7.7a5 5 0 00-2 1.7c-.5 1-.8 2.3-.8 4v11.6h-2.7v-11.6c0-2.1-.4-3.6-1.3-4.6a5.2 5.2 0 00-4-1.8 5 5 0 00-4 1.7 7 7 0 00-1.5 4.7v11.6H168zm38 0v-20h2.6v20H206zm0-22.4v-4.6h2.6v4.6H206zm10.9 22.4v-20h2.7v2.6c1.7-2 3.8-3.1 6.5-3.1 1.4 0 2.7.3 3.8.8a7.6 7.6 0 014.3 5.1c.3 1 .4 2.4.4 4v10.6H232v-10.5a13 13 0 00-.3-3.3c-.2-.8-.6-1.5-1.1-2.2a5.8 5.8 0 00-4.8-2c-1 0-2 .2-3 .7a5.2 5.2 0 00-2.9 3.7 13 13 0 00-.2 2.6v11H217zm35.8-20.5c2 0 3.7.5 5.3 1.4 1.6.9 2.8 2.1 3.7 3.7a11 11 0 011.3 5.4c0 3-1 5.6-2.9 7.5-2 2-4.4 3-7.3 3-2 0-3.8-.5-5.5-1.4a10 10 0 01-3.8-3.7c-1-1.6-1.4-3.4-1.4-5.4a10.2 10.2 0 0110.6-10.5zm-.2 2.5c-2.2 0-4 .8-5.4 2.3a8 8 0 00-2.2 5.8 7.6 7.6 0 007.9 8c2.1-.1 4-.8 5.4-2.3a8 8 0 002-5.7 8 8 0 00-2.1-5.8 7.4 7.4 0 00-5.6-2.3z"/></g><path class="st1" d="M18.2 219.8h346.2"/></svg>