<?xml version="1.0" encoding="UTF-8" standalone="no"?>
<svg
   xmlns:dc="http://purl.org/dc/elements/1.1/"
   xmlns:cc="http://creativecommons.org/ns#"
   xmlns:rdf="http://www.w3.org/1999/02/22-rdf-syntax-ns#"
   xmlns:svg="http://www.w3.org/2000/svg"
   xmlns="http://www.w3.org/2000/svg"
   xmlns:sodipodi="http://sodipodi.sourceforge.net/DTD/sodipodi-0.dtd"
   xmlns:inkscape="http://www.inkscape.org/namespaces/inkscape"
   version="1.1"
   id="Calque_1"
   x="0px"
   y="0px"
   viewBox="0 0 73.458892 73.458885"
   xml:space="preserve"
   sodipodi:docname="cour-de-cassation.svg"
   width="73.458885"
   height="73.458885"
   inkscape:version="1.0.2 (e86c870879, 2021-01-15)"><metadata
   id="metadata47"><rdf:RDF><cc:Work
       rdf:about=""><dc:format>image/svg+xml</dc:format><dc:type
         rdf:resource="http://purl.org/dc/dcmitype/StillImage" /><dc:title></dc:title></cc:Work></rdf:RDF></metadata><defs
   id="defs45">
	
	
	

		
		
		
		
		
		
		
		
		
		
		
		
		
		
		
	</defs><sodipodi:namedview
   pagecolor="#ffffff"
   bordercolor="#666666"
   borderopacity="1"
   objecttolerance="10"
   gridtolerance="10"
   guidetolerance="10"
   inkscape:pageopacity="0"
   inkscape:pageshadow="2"
   inkscape:window-width="1920"
   inkscape:window-height="1009"
   id="namedview43"
   showgrid="false"
   fit-margin-top="0"
   fit-margin-left="0"
   fit-margin-right="0"
   fit-margin-bottom="0"
   inkscape:zoom="5.627085"
   inkscape:cx="90.562606"
   inkscape:cy="33.729443"
   inkscape:window-x="0"
   inkscape:window-y="0"
   inkscape:window-maximized="1"
   inkscape:current-layer="Calque_1" />
<style
   type="text/css"
   id="style2">
	.st0{fill:none;}
	.st1{fill:#A6192E;}
	.st2{fill:#25282A;}
</style>
<path
   class="st0"
   d="M 5.4692082,11.729443 H 69.469208 v 50 H 5.4692082 Z"
   id="path4" /><path
   class="st1"
   d="m 31.779439,49.663557 c 0.2,0.2 0.9,1.2 1.2,1.5 m 34.7,-2.3 c 0,0 -7.3,9.4 -19.3,8.7 V 16.563556 c 0,0 5.1,1.8 8.6,2.800001 1.8,0.6 3.7,0.7 5.6,0.3 0,0 2.1,-2.200001 3.7,-4.000001 l -0.1,-0.8 c 0,0 -1.7,0.7 -5.2,0.2 -3.7,-0.8 -7.4,-1.7 -11,-2.8 l -11.2,8.700001 c 2.1,3.4 3.5,7.3 4,11.3 l -0.5,-11.9 4.6,-3.300001 0.1,40.500001 c -4.3,-0.5 -8.4,-2.1 -11.8,-4.7 -1.3,1.3 -2.7,2.6 -4.3,3.6 4.1,3.5 9.3,5.4 14.7,5.2 13.8,0 22.9,-12.1 22.9,-12.1 z m -34.9,2.1 c 0.7,0.7 1.5,1.4 2.4,2 3.2,-3.2 7.4,-9.4 7.8,-13.6 0.2,-2.4 0.1,-4.8 -0.3,-7.1 l -0.2,6.9 c 0,0 -2.2,3.1 -3.2,4.5 -1,1.4 -3.9,4.6 -3.9,4.6 l 1,-4.5 c -0.6,1.7 -3.1,5.1 -4.6,6 -9.6,-12.4 -1.9,-24.6 0.7,-28.1 -0.4,-0.5 -0.9,-1 -1.4,-1.4 -16.099999,17.3 -5.6,30.8 -2.5,34.1 1.6,-1 3,-2.1 4.2,-3.4 z m 5.6,-36.100001 c -1.1,0.6 -2.1,1.1 -3.1,1.8 0.3,0.3 0.7,0.7 1,1.1 0.8,-0.7 1.7,-1.4 2.7,-2 0,0 -0.5,-0.7 -0.6,-0.9 z m -2.1,7.800001 2.3,-1.8 c -0.6,-1.1 -1.4,-2.1 -2.3,-3.100001 -1.4,1.200001 -2.7,2.500001 -3.8,3.900001 2.1,2.2 3.6,6.4 3.8,11 z m 0,10 v 11 c 1.2,-3.1 1.1,-7.1 0,-11 z m -7.7,21.6 c -8.8,5.2 -18.7999994,-0.5 -18.7999994,-0.5 l -3.6,5 c 0,0 9.8999994,7.8 24.6999994,-2.2 -0.8,-0.7 -1.6,-1.5 -2.3,-2.3 z m -23.5999994,-34.1 0.5,0.4 c 6.8000004,-3.700001 17.1999994,-8.200001 25.6999994,-0.4 1.3,-1.3 2.6,-2.400001 4.1,-3.500001 -1.9,-1.6 -4.1,-2.9 -6.4,-3.7 -8.5,-3.0999998 -17.799999,0.1 -23.8999994,7.200001 z"
   id="path6" />
</svg>
