<svg width="1326" height="484" viewBox="0 0 1326 484" fill="none" xmlns="http://www.w3.org/2000/svg">
<path d="M206.48 238.105C201.58 238.095 196.72 238.825 192.04 240.275C168.74 247.315 154.14 270.375 157.75 294.445C161.35 318.515 182.07 336.285 206.41 336.195C211.31 336.185 216.18 335.425 220.85 333.955C244.02 326.825 258.49 303.825 254.9 279.855C251.31 255.885 230.73 238.135 206.49 238.115" fill="#80829B"/>
<path d="M192.93 259.205C197.52 273.685 192.9 289.495 181.24 299.225C169.58 308.955 153.2 310.675 139.77 303.575C126.35 296.475 118.55 281.965 120.03 266.855C121.51 251.745 131.99 239.025 146.54 234.675C166.11 228.815 186.76 239.745 192.93 259.215V259.205Z" fill="#000638"/>
<path d="M299.1 376.745C305.06 396.135 294.17 416.685 274.78 422.645C255.39 428.605 234.84 417.725 228.87 398.345C222.9 378.955 233.77 358.405 253.16 352.425C272.56 346.485 293.1 357.365 299.1 376.745Z" fill="#000638"/>
<path d="M72.0999 322.425C69.5599 322.435 67.0399 322.815 64.6199 323.545C51.9799 327.445 44.4699 340.425 47.4099 353.325C50.3499 366.225 62.7299 374.685 75.8199 372.715C88.8999 370.755 98.2599 359.035 97.2899 345.845C96.3099 332.645 85.3299 322.435 72.0999 322.425Z" fill="#000638"/>
<path d="M306.06 277.085C304.19 277.105 302.32 277.385 300.52 277.905C291.75 280.715 286.31 289.485 287.68 298.595C289.06 307.705 296.84 314.475 306.05 314.565C307.93 314.575 309.8 314.305 311.59 313.745C320.36 310.935 325.8 302.165 324.43 293.055C323.05 283.945 315.27 277.175 306.06 277.085Z" fill="#CCCDD7"/>
<path d="M104.72 132.005C100.56 132.005 96.43 132.615 92.45 133.805C71.41 140.165 58.85 161.675 63.63 183.125C68.41 204.575 88.93 218.705 110.68 215.525C132.42 212.345 148.03 192.925 146.47 171.005C144.91 149.085 126.7 132.085 104.73 132.015" fill="#80829B"/>
<path d="M271.65 59.285C263.88 59.275 256.16 60.465 248.75 62.805C211.95 74.135 188.96 110.675 194.69 148.755C200.42 186.835 233.14 214.995 271.65 214.995C313.71 213.695 347.12 179.225 347.12 137.145C347.12 95.065 313.7 60.595 271.65 59.295" fill="#CCCDD7"/>
<path d="M347.89 103.125C330.69 103.155 316.56 116.705 315.8 133.885C315.04 151.065 327.94 165.805 345.07 167.345C362.2 168.885 377.51 156.675 379.83 139.635C382.15 122.595 370.65 106.745 353.73 103.655C351.81 103.295 349.85 103.115 347.89 103.135" fill="#000638"/>
<path d="M472.3 140.365H501.44C520.86 140.365 532.72 150.325 532.72 166.725C532.72 183.125 520.86 192.965 501.44 192.965H490.21V228.655H472.3V140.365ZM490.21 155.245V178.075H502.19C509.76 178.075 514.3 173.665 514.3 166.475C514.3 159.785 509.76 155.245 502.19 155.245H490.21Z" fill="black"/>
<path d="M545.33 134.055H561.35V228.655H545.33V134.055Z" fill="black"/>
<path d="M576.99 211.495C576.99 201.905 584.43 194.715 598.05 192.445L617.47 189.165V187.525C617.47 180.845 612.42 176.555 605.11 176.555C598.93 176.555 594.14 179.455 590.73 184.125L579 175.165C584.68 167.345 594.01 162.555 605.61 162.555C624.03 162.555 633.49 173.525 633.49 187.525V228.645H617.47V222.465C613.43 227.385 605.87 230.535 598.42 230.535C585.68 230.535 576.98 223.215 576.98 211.495H576.99ZM601.71 217.805C609.03 217.805 614.32 214.395 617.48 209.355V200.395L602.34 202.915C595.66 204.045 592.88 206.825 592.88 210.735C592.88 215.025 596.29 217.795 601.71 217.795V217.805Z" fill="black"/>
<path d="M655.82 179.465H643.96V165.085H655.82V149.195H671.96V165.085H691.38V179.465H671.96V205.445C671.96 212.505 675.74 215.285 682.05 215.285C686.47 215.285 689.37 214.785 691.51 213.895V227.895C688.36 229.285 684.57 229.915 679.28 229.915C663.39 229.915 655.82 220.955 655.82 205.445V179.465Z" fill="black"/>
<path d="M735.28 231.175C712.7 231.175 699.96 215.405 699.96 196.865C699.96 178.325 711.82 162.555 732.63 162.555C750.29 162.555 761.89 174.535 761.89 191.185C761.89 194.715 761.39 197.995 760.88 200.145H716.36C717.87 212.005 725.19 216.795 735.15 216.795C742.09 216.795 748.14 213.765 751.55 209.225L763.03 218.305C757.1 226.255 747.26 231.175 735.28 231.175ZM716.86 188.545H746.12C745.87 182.115 741.2 175.675 732.25 175.675C724.05 175.675 718.63 180.215 716.86 188.545Z" fill="black"/>
<path d="M781.57 165.085V158.405C781.57 144.905 790.53 134.065 806.42 134.065C812.22 134.065 817.14 135.455 821.18 137.595L814.37 150.965C812.48 149.575 809.95 148.445 806.68 148.445C801.26 148.445 797.72 152.225 797.72 158.035V165.095H817.14V179.475H797.72V228.665H781.58V179.475H769.72V165.095H781.58L781.57 165.085Z" fill="black"/>
<path d="M890.8 196.865C890.8 215.915 876.67 231.175 855.99 231.175C835.31 231.175 821.18 215.915 821.18 196.865C821.18 177.815 835.31 162.555 855.99 162.555C876.67 162.555 890.8 177.815 890.8 196.865ZM874.15 196.865C874.15 185.765 866.46 177.695 856.24 177.695C846.02 177.695 837.82 185.765 837.82 196.865C837.82 207.965 845.64 216.035 856.24 216.035C866.84 216.035 874.15 207.835 874.15 196.865Z" fill="black"/>
<path d="M905.43 165.085H921.45V171.395C925.61 167.105 931.04 163.825 938.22 163.825C940.36 163.825 942.26 164.205 943.77 164.705V180.475C941.75 179.975 939.61 179.595 936.71 179.595C928.89 179.595 923.84 183.885 921.45 187.915V228.655H905.43V165.085Z" fill="black"/>
<path d="M956.64 165.085H972.66V169.875C976.95 165.715 982.37 162.555 990.19 162.555C998.01 162.555 1005.33 166.085 1009.49 172.895C1014.03 167.345 1020.08 162.555 1030.81 162.555C1043.93 162.555 1054.27 171.635 1054.27 189.545V228.645H1038.13V190.175C1038.13 182.485 1033.97 177.685 1026.78 177.685C1019.59 177.685 1016.06 182.475 1013.54 186.765C1013.67 187.645 1013.67 188.535 1013.67 189.535V228.635H997.53V190.165C997.53 182.475 993.37 177.675 986.18 177.675C978.99 177.675 975.08 183.095 972.68 187.135V228.635H956.66V165.065L956.64 165.085Z" fill="black"/>
<path d="M1103.33 231.175C1080.75 231.175 1068.01 215.405 1068.01 196.865C1068.01 178.325 1079.87 162.555 1100.68 162.555C1118.34 162.555 1129.94 174.535 1129.94 191.185C1129.94 194.715 1129.44 197.995 1128.93 200.145H1084.41C1085.92 212.005 1093.24 216.795 1103.2 216.795C1110.14 216.795 1116.19 213.765 1119.6 209.225L1131.08 218.305C1125.15 226.255 1115.31 231.175 1103.33 231.175ZM1084.91 188.545H1114.17C1113.92 182.115 1109.25 175.675 1100.3 175.675C1092.1 175.675 1086.68 180.215 1084.91 188.545Z" fill="black"/>
<path d="M496.65 313.915C505.23 313.915 511.41 316.565 516.33 321.485V285.415H532.47V380.015H516.33V374.975C511.41 379.895 505.23 382.545 496.65 382.545C476.6 382.545 464.36 366.775 464.36 348.235C464.36 329.695 476.59 313.925 496.65 313.925V313.915ZM498.92 367.395C506.11 367.395 512.04 364.365 516.33 358.565V337.885C512.04 332.085 506.11 329.055 498.92 329.055C488.07 329.055 481.14 337.125 481.14 348.225C481.14 359.325 488.08 367.395 498.92 367.395Z" fill="black"/>
<path d="M582.41 382.535C559.83 382.535 547.09 366.765 547.09 348.225C547.09 329.685 558.95 313.915 579.76 313.915C597.42 313.915 609.02 325.895 609.02 342.545C609.02 346.075 608.52 349.355 608.01 351.505H563.49C565 363.365 572.32 368.155 582.28 368.155C589.22 368.155 595.27 365.125 598.68 360.585L610.16 369.665C604.23 377.615 594.39 382.535 582.41 382.535ZM564 339.905H593.26C593.01 333.475 588.34 327.035 579.39 327.035C571.19 327.035 565.77 331.575 564 339.905Z" fill="black"/>
<path d="M658.72 285.415H674.74V380.015H658.72V285.415Z" fill="black"/>
<path d="M687.6 328.045L698.95 291.715H717.11L702.48 328.045H687.6Z" fill="black"/>
<path d="M727.58 294.875C727.58 289.195 732.37 284.405 738.05 284.405C743.73 284.405 748.39 289.195 748.39 294.875C748.39 300.555 743.72 305.345 738.05 305.345C732.38 305.345 727.58 300.555 727.58 294.875ZM729.98 316.445H746V380.015H729.98V316.445Z" fill="black"/>
<path d="M765.17 316.445H781.19V321.485C785.6 317.195 791.53 313.915 799.98 313.915C813.73 313.915 824.7 323.375 824.7 342.165V380.005H808.56V342.795C808.56 334.345 803.77 329.045 795.95 329.045C788.13 329.045 783.59 334.465 781.19 338.505V380.005H765.17V316.435V316.445Z" fill="black"/>
<path d="M887.77 360.085L900.26 369.675C894.33 377.495 885 382.545 873.39 382.545C851.44 382.545 838.33 366.775 838.33 348.235C838.33 329.695 851.45 313.925 873.39 313.925C884.99 313.925 894.33 318.965 900.26 326.795L887.77 336.385C884.74 331.965 879.7 329.065 873.14 329.065C862.67 329.065 854.98 337.135 854.98 348.235C854.98 359.335 862.67 367.405 873.4 367.405C879.71 367.405 884.75 364.505 887.78 360.085H887.77Z" fill="black"/>
<path d="M912.24 285.415H928.26V380.015H912.24V285.415Z" fill="black"/>
<path d="M989.3 316.445H1005.44V351.765C1005.44 370.815 994.34 382.545 975.67 382.545C957 382.545 946.03 370.815 946.03 351.765V316.445H962.17V352.515C962.17 361.725 966.96 367.395 975.79 367.395C984.62 367.395 989.29 361.715 989.29 352.515V316.445H989.3Z" fill="black"/>
<path d="M1027.77 361.215C1031.68 366.135 1036.35 369.665 1042.4 369.665C1047.57 369.665 1050.22 366.635 1050.22 362.855C1050.22 351.755 1019.82 355.915 1019.82 333.595C1019.82 322.365 1029.28 313.915 1042.52 313.915C1052.23 313.915 1061.06 318.585 1065.6 324.765L1055.01 334.095C1051.73 330.055 1047.57 326.775 1042.65 326.775C1037.73 326.775 1035.21 329.545 1035.21 332.825C1035.21 343.675 1065.61 339.885 1065.61 361.835C1065.36 375.205 1054.64 382.515 1042.65 382.515C1031.3 382.515 1023.23 377.975 1017.17 370.785L1027.76 361.195L1027.77 361.215Z" fill="black"/>
<path d="M1077.97 294.875C1077.97 289.195 1082.76 284.405 1088.44 284.405C1094.12 284.405 1098.78 289.195 1098.78 294.875C1098.78 300.555 1094.11 305.345 1088.44 305.345C1082.77 305.345 1077.97 300.555 1077.97 294.875ZM1080.37 316.445H1096.39V380.015H1080.37V316.445Z" fill="black"/>
<path d="M1180.64 348.225C1180.64 367.265 1166.51 382.535 1145.83 382.535C1125.15 382.535 1111.02 367.275 1111.02 348.225C1111.02 329.175 1125.15 313.915 1145.83 313.915C1166.51 313.915 1180.64 329.175 1180.64 348.225ZM1163.99 348.225C1163.99 337.125 1156.3 329.055 1146.08 329.055C1135.86 329.055 1127.66 337.125 1127.66 348.225C1127.66 359.325 1135.48 367.395 1146.08 367.395C1156.68 367.395 1163.99 359.195 1163.99 348.225Z" fill="black"/>
<path d="M1195.27 316.445H1211.29V321.485C1215.7 317.195 1221.63 313.915 1230.08 313.915C1243.83 313.915 1254.8 323.375 1254.8 342.165V380.005H1238.66V342.795C1238.66 334.345 1233.87 329.045 1226.05 329.045C1218.23 329.045 1213.69 334.465 1211.29 338.505V380.005H1195.27V316.435V316.445Z" fill="black"/>
</svg>
