<?xml version="1.0" encoding="UTF-8"?>
<svg width="126px" height="126px" viewBox="0 0 126 126" version="1.1" xmlns="http://www.w3.org/2000/svg" xmlns:xlink="http://www.w3.org/1999/xlink">
    <defs>
        <circle id="path-1" cx="63.1458814" cy="63.0906288" r="62.6544134"></circle>
        <circle id="path-3" cx="63.4170167" cy="63.5543817" r="62.6544134"></circle>
        <rect id="path-5" x="0.290860987" y="0.131821245" width="5.87369071" height="5.22201322"></rect>
        <rect id="path-7" x="0.290860987" y="0.131821245" width="5.87369071" height="5.22201322"></rect>
        <rect id="path-9" x="0.290860987" y="0.131821245" width="5.87369071" height="5.22201322"></rect>
        <rect id="path-11" x="0.290860987" y="0.131821245" width="5.87369071" height="5.22201322"></rect>
        <circle id="path-13" cx="62.8012834" cy="62.6622172" r="62.6544134"></circle>
        <circle id="path-15" cx="62.8012834" cy="62.6622172" r="62.6544134"></circle>
    </defs>
    <g id="logo-beta-gouv" stroke="none" stroke-width="1" fill="none" fill-rule="evenodd">
        <mask id="mask-2" fill="white">
            <use xlink:href="#path-1"></use>
        </mask>
        <use id="background" fill="#FFFFFF" xlink:href="#path-1"></use>
        <g id="g5012" mask="url(#mask-2)">
            <g transform="translate(-0.271135, -0.463753)">
                <mask id="mask-4" fill="white">
                    <use xlink:href="#path-3"></use>
                </mask>
                <g id="Mask" stroke="none" fill="none"></g>
                <g id="g5012" stroke="none" stroke-width="1" fill="none" fill-rule="evenodd" mask="url(#mask-4)">
                    <g transform="translate(0.000000, 0.000000)">
                        <g id="g4184-Clipped" stroke-width="1" fill="none" transform="translate(14.994135, 91.000000)">
                            <g id="g4184" transform="translate(0.605072, 0.575338)" fill-rule="nonzero">
                                <path d="M23.4833768,10.0231548 C23.4833768,10.0231548 49.734607,9.36239096 63.0064749,2.9667794 C71.9395202,-1.3379863 79.7083838,-1.18654812 83.4593315,5.77840175 C85.3857774,9.35552411 78.5337342,18.0202261 63.4779785,18.9724785 C48.4222206,19.9247309 23.4833768,10.0231548 23.4833768,10.0231548 Z" id="path3860-7" fill="#000000" opacity="0.16700003"></path>
                                <path d="M12.6719142,4.90328409 C4.46521331,16.0760664 -0.0628509712,22.3979362 0.118407504,22.2569566 C7.48888979,16.52436 30.8740713,43.8838664 46.4047721,44.1803844 C64.8662193,44.5328565 102.654584,31.6051955 96.1680877,22.8337927 L82.9477986,4.95657787 C82.9477986,4.95657787 69.4645353,19.7061127 37.231253,7.47475393 C37.231253,7.4839991 20.9047373,3.4910845 12.6719142,4.90328409 Z" id="path3862-5" fill="#EEEEEE"></path>
                            </g>
                        </g>
                        <circle id="path4972" fill="#DDDDDD" cx="58.1180407" cy="53.7641958" r="3.67611877"></circle>
                        <ellipse id="path4972-3" fill="#DDDDDD" cx="67.3222207" cy="24.2677456" rx="5.46441821" ry="5.56081248"></ellipse>
                        <circle id="path4972-5" fill="#DDDDDD" cx="71.7893974" cy="79.2754344" r="2.48043943"></circle>
                        <circle id="path4972-5-6" fill="#DDDDDD" cx="53.92351" cy="91.3577006" r="1.48342611"></circle>
                        <g id="path5154-Clipped" stroke-width="1" fill="none" transform="translate(60.596184, 26.147091)">
                            <mask id="mask-6" fill="white">
                                <use xlink:href="#path-5"></use>
                            </mask>
                            <g id="rect5164"></g>
                            <ellipse id="path5154" stroke-opacity="0.70238097" stroke="#FFFFFF" stroke-width="0.576326038" mask="url(#mask-6)" cx="7.80471107" cy="-1.5773817" rx="2.84231171" ry="3.44327221"></ellipse>
                        </g>
                        <g id="path5154-1-Clipped" stroke-width="1" fill="none" transform="translate(60.596184, 26.147091)">
                            <mask id="mask-8" fill="white">
                                <use xlink:href="#path-7"></use>
                            </mask>
                            <g id="rect5164-6"></g>
                            <circle id="path5154-1" stroke-opacity="0.70238097" stroke="#FFFFFF" stroke-width="0.5" mask="url(#mask-8)" cx="-2.36486959" cy="28.1167679" r="2.15292762"></circle>
                        </g>
                        <g id="path5154-1-9-Clipped" stroke-width="1" fill="none" transform="translate(60.596184, 26.147091)">
                            <mask id="mask-10" fill="white">
                                <use xlink:href="#path-9"></use>
                            </mask>
                            <g id="rect5164-6-7"></g>
                            <circle id="path5154-1-9" stroke-opacity="0.70238097" stroke="#FFFFFF" stroke-width="0.5" mask="url(#mask-10)" cx="-7.08708935" cy="64.9151163" r="1.20029191"></circle>
                        </g>
                        <g id="path5154-1-2-Clipped" stroke-width="1" fill="none" transform="translate(60.596184, 26.147091)">
                            <mask id="mask-12" fill="white">
                                <use xlink:href="#path-11"></use>
                            </mask>
                            <g id="rect5164-6-0"></g>
                            <circle id="path5154-1-2" stroke-opacity="0.70238097" stroke="#FFFFFF" stroke-width="0.5" mask="url(#mask-12)" cx="11.2608233" cy="53.1542689" r="1.54670492"></circle>
                        </g>
                        <g id="g5644-Clipped" stroke-width="1" fill="none" transform="translate(0.615733, 0.892165)">
                            <mask id="mask-14" fill="white">
                                <use xlink:href="#path-13"></use>
                            </mask>
                            <g id="circle5672"></g>
                            <g id="g5644" mask="url(#mask-14)" fill="#003195">
                                <g transform="translate(-92.811855, 2.525493)">
                                    <path d="M137.225373,0.27699919 C141.051798,-0.482078663 143.071058,2.60769111 143.011728,6.43938749 C143.011728,6.43938749 143.802454,52.4318158 140.9266,61.3650863 C138.334068,69.4182793 116.059728,99.2323387 111.659865,105.076951 C99.5946332,93.2822528 92.7915275,77.1231186 92.7876224,60.2505169 C92.793652,32.6603148 110.832141,8.31544338 137.225373,0.27699919 L137.225373,0.27699919 Z" id="path4039-3-6" fill-rule="evenodd"></path>
                                    <polygon id="path5051" fill-rule="nonzero" points="137.272723 0.161211666 0.0313296801 0.27699919 0.0313296801 105.522208 111.668979 105.068961"></polygon>
                                </g>
                            </g>
                        </g>
                        <g id="g5640-Clipped" stroke-width="1" fill="none" transform="translate(0.615733, 0.892165)">
                            <mask id="mask-16" fill="white">
                                <use xlink:href="#path-15"></use>
                            </mask>
                            <g id="circle5668"></g>
                            <g id="g5640" mask="url(#mask-16)" fill="#FF0000">
                                <g transform="translate(75.133406, 2.525493)">
                                    <path d="M6.03491406,0.25554513 C2.16029693,-0.310742928 0.18922885,2.58623705 0.248555829,6.41793658 C0.248555829,6.41793658 -0.542166446,52.4103555 2.33368779,61.3436322 C4.92621963,69.3968221 27.2005628,99.2108878 31.6004255,105.055497 C43.6656541,93.2607987 50.468763,77.1016645 50.4726681,60.2290629 C50.4666385,32.6388576 32.4281494,8.29398932 6.03491406,0.25554513 Z" id="path4039-3" fill-rule="evenodd"></path>
                                    <polygon id="path5051-7" fill-rule="nonzero" points="4.92063198 0.139757606 144.090559 0.255541973 144.090559 105.500753 31.6159542 105.04702"></polygon>
                                </g>
                            </g>
                        </g>
                    </g>
                </g>
            </g>
        </g>
    </g>
</svg>