<svg id="Calque_1" data-name="Calque 1" xmlns="http://www.w3.org/2000/svg" viewBox="0 0 324.65 74.19"><defs><style>.cls-1{fill:#0f477a;}.cls-2{fill:#00457c;}.cls-3{fill:#6f90a7;}</style></defs><title>logo RENATER-2</title><path class="cls-1" d="M90.11,67.9H85V31.28h14.9c8.3,0,15.22.87,15.22,10.06,0,7.45-3.54,9.86-9.3,10.52l11.58,16h-6.29L99.89,52.17H93.81V47.88h8c5.71,0,8.14-.87,8.14-6.49,0-5.21-3-5.82-8-5.82H90.11Z" transform="translate(-4.3 -14.08)"/><path class="cls-2" d="M90.11,67.9H85V31.28h14.9c8.3,0,15.22.87,15.22,10.06,0,7.45-3.54,9.86-9.3,10.52l11.58,16h-6.29L99.89,52.17H93.81V47.88h8c5.71,0,8.14-.87,8.14-6.49,0-5.21-3-5.82-8-5.82H90.11Z" transform="translate(-4.3 -14.08)"/><path class="cls-1" d="M132,46.9h17.12v4.29H132Zm-3.7,16.71h23V67.9H123.25V31.28h27.53v4.29H128.32Z" transform="translate(-4.3 -14.08)"/><path class="cls-2" d="M132,46.9h17.12v4.29H132Zm-3.7,16.71h23V67.9H123.25V31.28h27.53v4.29H128.32Z" transform="translate(-4.3 -14.08)"/><polygon class="cls-1" points="153.88 53.82 153.88 17.2 159.75 17.2 178.77 46.26 178.77 17.2 183.84 17.2 183.84 53.82 178.13 53.82 158.95 24.81 158.95 53.82 153.88 53.82"/><polygon class="cls-2" points="153.88 53.82 153.88 17.2 159.75 17.2 178.77 46.26 178.77 17.2 183.84 17.2 183.84 53.82 178.13 53.82 158.95 24.81 158.95 53.82 153.88 53.82"/><path class="cls-1" d="M216.36,52.78c-2-5.57-4.23-11-6.61-16.6A207.33,207.33,0,0,0,198,67.9h-5.29a318.25,318.25,0,0,1,14.38-36.62h5.65A336.86,336.86,0,0,1,227,67.9h-5.6c-1.11-3.58-2.27-7.21-3.54-10.83H205.05l1.37-4.29Z" transform="translate(-4.3 -14.08)"/><path class="cls-2" d="M216.36,52.78c-2-5.57-4.23-11-6.61-16.6A207.33,207.33,0,0,0,198,67.9h-5.29a318.25,318.25,0,0,1,14.38-36.62h5.65A336.86,336.86,0,0,1,227,67.9h-5.6c-1.11-3.58-2.27-7.21-3.54-10.83H205.05l1.37-4.29Z" transform="translate(-4.3 -14.08)"/><path class="cls-1" d="M235.8,39.24h5.08V67.9H235.8Zm-12.73-8h30.54v4.39H223.07Z" transform="translate(-4.3 -14.08)"/><path class="cls-2" d="M235.8,39.24h5.08V67.9H235.8Zm-12.73-8h30.54v4.39H223.07Z" transform="translate(-4.3 -14.08)"/><path class="cls-1" d="M267.67,46.9h17.12v4.29H267.67ZM264,63.61h23V67.9H258.89V31.28h27.54v4.29H264Z" transform="translate(-4.3 -14.08)"/><path class="cls-2" d="M267.67,46.9h17.12v4.29H267.67ZM264,63.61h23V67.9H258.89V31.28h27.54v4.29H264Z" transform="translate(-4.3 -14.08)"/><path class="cls-1" d="M299.16,67.9h-5.07V31.28H309c8.3,0,15.22.87,15.22,10.06,0,7.45-3.54,9.86-9.3,10.52l11.57,16h-6.29L308.94,52.17h-6.08V47.88h8c5.71,0,8.14-.87,8.14-6.49,0-5.21-3-5.82-8-5.82H299.16Z" transform="translate(-4.3 -14.08)"/><path class="cls-2" d="M299.16,67.9h-5.07V31.28H309c8.3,0,15.22.87,15.22,10.06,0,7.45-3.54,9.86-9.3,10.52l11.57,16h-6.29L308.94,52.17h-6.08V47.88h8c5.71,0,8.14-.87,8.14-6.49,0-5.21-3-5.82-8-5.82H299.16Z" transform="translate(-4.3 -14.08)"/><path class="cls-3" d="M92.78,77.41a5.78,5.78,0,0,0-2.56-.51c-3,0-4.66,2.2-4.66,5.17s1.63,5.17,4.66,5.17a5.47,5.47,0,0,0,2.56-.52l.07,1a5.92,5.92,0,0,1-2.63.52c-3.63,0-5.8-2.49-5.8-6.2s2.24-6.21,5.8-6.21a7.28,7.28,0,0,1,2.63.45Z" transform="translate(-4.3 -14.08)"/><path class="cls-3" d="M99.29,82.07c0,2.54,1.21,5.17,3.91,5.17s3.92-2.63,3.92-5.17-1.22-5.17-3.92-5.17-3.91,2.62-3.91,5.17m3.91-6.21c3.46,0,5.09,3,5.06,6.21,0,3.67-1.75,6.2-5.06,6.2s-5-2.53-5-6.2c0-3.25,1.6-6.21,5-6.21" transform="translate(-4.3 -14.08)"/><polygon class="cls-3" points="108.92 61.99 110.35 61.99 116.19 72.54 116.22 72.54 116.22 61.99 117.36 61.99 117.36 73.98 115.83 73.98 110.08 63.64 110.05 63.64 110.05 73.98 108.92 73.98 108.92 61.99"/><polygon class="cls-3" points="122.69 61.99 124.13 61.99 129.97 72.54 130 72.54 130 61.99 131.14 61.99 131.14 73.98 129.61 73.98 123.86 63.64 123.83 63.64 123.83 73.98 122.69 73.98 122.69 61.99"/><polygon class="cls-3" points="136.62 61.99 142.25 61.99 142.25 63.02 137.75 63.02 137.75 67.3 142.02 67.3 142.02 68.33 137.75 68.33 137.75 72.95 142.45 72.95 142.45 73.98 136.62 73.98 136.62 61.99"/><path class="cls-3" d="M159.83,77.41a5.79,5.79,0,0,0-2.57-.51c-3,0-4.65,2.2-4.65,5.17s1.62,5.17,4.65,5.17a5.51,5.51,0,0,0,2.57-.52l.07,1a5.94,5.94,0,0,1-2.64.52c-3.62,0-5.79-2.49-5.79-6.2s2.24-6.21,5.79-6.21a7.29,7.29,0,0,1,2.64.45Z" transform="translate(-4.3 -14.08)"/><polygon class="cls-3" points="163.57 63.02 160.18 63.02 160.18 61.99 168.09 61.99 168.09 63.02 164.7 63.02 164.7 73.98 163.57 73.98 163.57 63.02"/><polygon class="cls-3" points="172.46 61.99 178.09 61.99 178.09 63.02 173.59 63.02 173.59 67.3 177.86 67.3 177.86 68.33 173.59 68.33 173.59 72.95 178.28 72.95 178.28 73.98 172.46 73.98 172.46 61.99"/><path class="cls-3" d="M196,83.87c0,3.54-2.48,4.4-4.16,4.4s-4.17-.86-4.17-4.4v-7.8h1.14v7.8c0,2,1,3.37,3,3.37s3-1.41,3-3.37v-7.8H196Z" transform="translate(-4.3 -14.08)"/><path class="cls-3" d="M202.73,81.38h1.2c1.34,0,2.87-.53,2.87-2.2,0-2-1.33-2.08-2.9-2.08h-1.17Zm-1.13-5.31h3c2,0,3.37.91,3.37,3.11A2.77,2.77,0,0,1,205.38,82v0c.92.12,1.12.64,1.48,1.44l2,4.64h-1.25l-1.66-4c-.66-1.55-1.15-1.6-2.24-1.6h-.94v5.65H201.6Z" transform="translate(-4.3 -14.08)"/><path class="cls-3" d="M221.93,87h.94c3.25,0,5.38-1.37,5.38-5s-2.09-4.88-4.66-4.88h-1.66Zm-1.14-11h2.85c4.12,0,5.75,2.47,5.75,6,0,4.35-2.79,6-6.59,6h-2Z" transform="translate(-4.3 -14.08)"/><polygon class="cls-3" points="230.37 61.99 236 61.99 236 63.02 231.51 63.02 231.51 67.3 235.77 67.3 235.77 68.33 231.51 68.33 231.51 72.95 236.2 72.95 236.2 73.98 230.37 73.98 230.37 61.99"/><path class="cls-3" d="M252.76,86.53a4.33,4.33,0,0,0,2.53.71,2.34,2.34,0,0,0,2.59-2.46c0-2.35-5.27-2.64-5.27-5.79,0-1.92,1.61-3.13,3.64-3.13a6.62,6.62,0,0,1,2.26.4l-.19,1.08a4.52,4.52,0,0,0-2.09-.44c-1.18,0-2.48.51-2.48,2.06,0,2.4,5.27,2.42,5.27,5.92,0,2.43-2,3.39-3.77,3.39a6.28,6.28,0,0,1-2.61-.52Z" transform="translate(-4.3 -14.08)"/><path class="cls-3" d="M268.17,77.21l-2.5,6.61h5Zm-.56-1.14h1.28l4.56,12h-1.18L271,84.85h-5.79L264,88.06h-1.1Z" transform="translate(-4.3 -14.08)"/><polygon class="cls-3" points="276.94 73.98 275.73 73.98 271.45 61.99 272.65 61.99 276.35 72.8 280.19 61.99 281.31 61.99 276.94 73.98"/><path class="cls-3" d="M290.53,82.07c0,2.54,1.21,5.17,3.91,5.17s3.92-2.63,3.92-5.17-1.22-5.17-3.92-5.17-3.91,2.62-3.91,5.17m3.91-6.21c3.46,0,5.09,3,5.06,6.21,0,3.67-1.75,6.2-5.06,6.2s-5-2.53-5.05-6.2c0-3.25,1.6-6.21,5.05-6.21" transform="translate(-4.3 -14.08)"/><rect class="cls-3" x="300.15" y="61.99" width="1.14" height="11.99"/><path class="cls-3" d="M312.22,81.38h1.2c1.34,0,2.87-.53,2.87-2.2,0-2-1.33-2.08-2.9-2.08h-1.17Zm-1.13-5.31h3c2,0,3.38.91,3.38,3.11A2.78,2.78,0,0,1,314.87,82v0c.92.12,1.12.64,1.49,1.44l1.95,4.64h-1.25l-1.66-4c-.66-1.55-1.15-1.6-2.24-1.6h-.94v5.65h-1.13Z" transform="translate(-4.3 -14.08)"/><path class="cls-3" d="M322.69,86.53a4.39,4.39,0,0,0,2.54.71,2.33,2.33,0,0,0,2.58-2.46c0-2.35-5.27-2.64-5.27-5.79,0-1.92,1.62-3.13,3.64-3.13a6.62,6.62,0,0,1,2.26.4l-.18,1.08a4.55,4.55,0,0,0-2.09-.44c-1.19,0-2.49.51-2.49,2.06,0,2.4,5.27,2.42,5.27,5.92,0,2.43-2,3.39-3.77,3.39a6.23,6.23,0,0,1-2.6-.52Z" transform="translate(-4.3 -14.08)"/><path class="cls-3" d="M20,23.23l.59,5.33-13.87-1L4.3,31.48l12.29,6.57.73,3.65,3.4,5.72-2.55,1.34,1.46,2.92L15.13,66,26.32,70.3l.63.31,4,2,8-3,.39-.11C40.47,68.22,63.43,39.48,20,23.23" transform="translate(-4.3 -14.08)"/><path class="cls-1" d="M32.47,22.56S68.25,37.93,41,69.16l5.86-1.66,10.65,2.43,8.37-6.81-4.72-2.56V57.64l.13-10.46-5,1.46,1.08-4,6.88-5.84,3.64-9.73L61.26,27.1,50.2,22.48l-10-8.4-1.8.32,0,.1-2.16.43L35,19.8Z" transform="translate(-4.3 -14.08)"/><path class="cls-2" d="M32.47,22.56S68.25,37.93,41,69.16l5.86-1.66,10.65,2.43,8.37-6.81-4.72-2.56V57.64l.13-10.46-5,1.46,1.08-4,6.88-5.84,3.64-9.73L61.26,27.1,50.2,22.48l-10-8.4-1.8.32,0,.1-2.16.43L35,19.8Z" transform="translate(-4.3 -14.08)"/></svg>