<?xml version="1.0" encoding="UTF-8" standalone="no"?>
<!-- Created with Inkscape (http://www.inkscape.org/) -->
<svg xmlns:dc="http://purl.org/dc/elements/1.1/" xmlns:cc="http://creativecommons.org/ns#" xmlns:rdf="http://www.w3.org/1999/02/22-rdf-syntax-ns#" xmlns:svg="http://www.w3.org/2000/svg" xmlns="http://www.w3.org/2000/svg" xmlns:sodipodi="http://sodipodi.sourceforge.net/DTD/sodipodi-0.dtd" xmlns:inkscape="http://www.inkscape.org/namespaces/inkscape" width="279.99899" height="204.37177" viewBox="0 0 279.99899 204.37175" id="svg6535" version="1.1" inkscape:version="0.91 r13725" sodipodi:docname="logo-openfisca.svg">
  <defs id="defs6537"/>
  <sodipodi:namedview id="base" pagecolor="#ffffff" bordercolor="#666666" borderopacity="1.0" inkscape:pageopacity="0" inkscape:pageshadow="2" inkscape:zoom="5.8990195" inkscape:cx="162.20645" inkscape:cy="94.57921" inkscape:document-units="px" inkscape:current-layer="layer1" showgrid="false" inkscape:window-width="3200" inkscape:window-height="1634" inkscape:window-x="0" inkscape:window-y="55" inkscape:window-maximized="1" fit-margin-top="0" fit-margin-left="0" fit-margin-right="0" fit-margin-bottom="0" units="px"/>
  <metadata id="metadata6540">
    <rdf:RDF>
      <cc:Work rdf:about="">
        <dc:format>image/svg+xml</dc:format>
        <dc:type rdf:resource="http://purl.org/dc/dcmitype/StillImage"/>
        <dc:title/>
        <cc:license rdf:resource="http://creativecommons.org/licenses/by-sa/3.0/"/>
      </cc:Work>
      <cc:License rdf:about="http://creativecommons.org/licenses/by-sa/3.0/">
        <cc:permits rdf:resource="http://creativecommons.org/ns#Reproduction"/>
        <cc:permits rdf:resource="http://creativecommons.org/ns#Distribution"/>
        <cc:requires rdf:resource="http://creativecommons.org/ns#Notice"/>
        <cc:requires rdf:resource="http://creativecommons.org/ns#Attribution"/>
        <cc:permits rdf:resource="http://creativecommons.org/ns#DerivativeWorks"/>
        <cc:requires rdf:resource="http://creativecommons.org/ns#ShareAlike"/>
      </cc:License>
    </rdf:RDF>
  </metadata>
  <g inkscape:label="Layer 1" inkscape:groupmode="layer" id="layer1" transform="translate(-145.7148,-95.890629)">
    <g id="g6488" transform="matrix(1.2610695,0,0,1.2610695,-142.85234,-295.97815)">
      <path d="m 295.98239,471.54195 -14.47875,0.0713 -0.1825,-56.635 -24.51875,0.0987 0,56.13375 -16.99,0 0,-56.13375 -10.60375,0 -0.0488,-12.80625 10.6525,0.12125 0,-6.9525 c 0,-8.03875 2.37125,-13.41 5.23625,-17.61625 3.19875,-4.695 12.27625,-9.72625 22.65,-10.14125 8.3575,-0.335 11.4275,1.655 20.9925,4.485 l -3.5425,12.91625 c -12.91625,-3.26625 -17.91625,-5.2075 -23.2075,-2.93 -5.3825,2.315 -5.13875,11.51875 -5.13875,14.04375 l 0.0138,5.97 39.045,-0.10625 0.12125,69.48125 z" style="fill:#971640;fill-opacity:1;fill-rule:nonzero;stroke:none" id="path3986" inkscape:connector-curvature="0"/>
      <path d="m 295.98239,471.54195 -14.47875,0.0713 -0.1825,-56.635 -24.51875,0.0987 0,56.13375 -16.99,0 0,-56.13375 -10.60375,0 -0.0488,-12.80625 10.6525,0.12125 0,-6.9525 c 0,-8.03875 2.37125,-13.41 5.23625,-17.61625 3.19875,-4.695 12.27625,-9.72625 22.65,-10.14125 8.3575,-0.335 11.4275,1.655 20.9925,4.485 l -3.5425,12.91625 c -12.91625,-3.26625 -17.91625,-5.2075 -23.2075,-2.93 -5.3825,2.315 -5.13875,11.51875 -5.13875,14.04375 l 0.0138,5.97 39.045,-0.10625 0.12125,69.48125 z" style="fill:none;stroke:#ffffff;stroke-width:0.66249996;stroke-linecap:butt;stroke-linejoin:miter;stroke-miterlimit:4;stroke-dasharray:none;stroke-opacity:1" id="path3990" inkscape:connector-curvature="0"/>
      <path d="m 346.53227,450.2467 c 0,7.24125 -2.2175,12.75625 -6.65625,16.54375 -4.43875,3.79 -11.0775,5.68375 -19.91625,5.68375 -4.53125,0 -8.39375,-0.34875 -11.58875,-1.0425 -3.1925,-0.695 -6.1825,-1.715 -8.9675,-3.0625 l 2.78375,-14.97125 c 3.155,1.68375 3.92875,2.15375 7.88375,3.29 3.95625,1.13625 7.4375,1.705 10.445,1.705 6.165,0 9.2475,-2.02125 9.2475,-6.0625 0,-1.515 -0.4075,-2.74625 -1.225,-3.695 -0.81625,-0.94625 -2.22875,-2.02 -4.2325,-3.21875 -2.00625,-1.2 -4.68,-2.59875 -8.0225,-4.19875 -4.79125,-2.27375 -8.31,-4.3775 -10.5575,-6.31375 -2.2475,-1.9375 -3.88125,-4.1575 -4.9025,-6.6625 -1.02125,-2.50375 -1.53125,-5.58875 -1.53125,-9.25 0,-6.27125 2.14375,-11.12375 6.43375,-14.55375 4.29,-3.43125 10.37,-5.1475 18.245,-5.1475 7.50125,0 14.79875,1.85375 21.89375,5.55625 l -5.12625,13.8925 c -3.11875,-1.51625 -6.035,-2.7575 -8.74625,-3.725 -2.71125,-0.96875 -5.4775,-1.4525 -8.3,-1.4525 -5.01375,0 -7.52125,1.53625 -7.52125,4.60875 0,1.7275 0.80875,3.22 2.4225,4.4825 1.61625,1.26375 5.15375,3.1375 10.61375,5.62 4.865,2.23375 8.43125,4.31625 10.6975,6.25125 2.26375,1.9375 3.93625,4.1675 5.01375,6.69375 1.075,2.525 1.61375,5.535 1.61375,9.02875" style="fill:#971640;fill-opacity:1;fill-rule:nonzero;stroke:none" id="path3994" inkscape:connector-curvature="0"/>
      <path d="m 346.53227,450.2467 c 0,7.24125 -2.2175,12.75625 -6.65625,16.54375 -4.43875,3.79 -11.0775,5.68375 -19.91625,5.68375 -4.53125,0 -8.39375,-0.34875 -11.58875,-1.0425 -3.1925,-0.695 -6.1825,-1.715 -8.9675,-3.0625 l 2.78375,-14.97125 c 3.155,1.68375 3.92875,2.15375 7.88375,3.29 3.95625,1.13625 7.4375,1.705 10.445,1.705 6.165,0 9.2475,-2.02125 9.2475,-6.0625 0,-1.515 -0.4075,-2.74625 -1.225,-3.695 -0.81625,-0.94625 -2.22875,-2.02 -4.2325,-3.21875 -2.00625,-1.2 -4.68,-2.59875 -8.0225,-4.19875 -4.79125,-2.27375 -8.31,-4.3775 -10.5575,-6.31375 -2.2475,-1.9375 -3.88125,-4.1575 -4.9025,-6.6625 -1.02125,-2.50375 -1.53125,-5.58875 -1.53125,-9.25 0,-6.27125 2.14375,-11.12375 6.43375,-14.55375 4.29,-3.43125 10.37,-5.1475 18.245,-5.1475 7.50125,0 14.79875,1.85375 21.89375,5.55625 l -5.12625,13.8925 c -3.11875,-1.51625 -6.035,-2.7575 -8.74625,-3.725 -2.71125,-0.96875 -5.4775,-1.4525 -8.3,-1.4525 -5.01375,0 -7.52125,1.53625 -7.52125,4.60875 0,1.7275 0.80875,3.22 2.4225,4.4825 1.61625,1.26375 5.15375,3.1375 10.61375,5.62 4.865,2.23375 8.43125,4.31625 10.6975,6.25125 2.26375,1.9375 3.93625,4.1675 5.01375,6.69375 1.075,2.525 1.61375,5.535 1.61375,9.02875 z" style="fill:none;stroke:#ffffff;stroke-width:0.66249996;stroke-linecap:butt;stroke-linejoin:miter;stroke-miterlimit:4;stroke-dasharray:none;stroke-opacity:1" id="path3998" inkscape:connector-curvature="0"/>
      <path d="m 375.28477,472.47395 c -19.3875,0 -29.0825,-12.06125 -29.0825,-36.18125 0,-11.99625 2.6375,-21.1625 7.91125,-27.5 5.27375,-6.33375 12.8325,-9.5025 22.67375,-9.5025 7.20625,0 13.66625,1.60125 20.38125,4.8 l -5.015,14.90125 c -3.6675,-1.22 -6.15625,-2.22 -8.4575,-2.99875 -2.30375,-0.78 -4.605,-1.1675 -6.90875,-1.1675 -8.83875,0 -13.2575,7.11375 -13.2575,21.34125 0,13.8075 4.41875,20.71125 13.2575,20.71125 3.2675,0 6.29375,-0.495 9.08125,-1.48375 2.785,-0.98875 5.57125,-2.53625 9.9,-5.305 l 4.01375,14.2375 c -4.29375,2.6425 -11.0825,6.25375 -13.885,7.01 -2.805,0.7575 -6.3425,1.1375 -10.6125,1.1375" style="fill:#971640;fill-opacity:1;fill-rule:nonzero;stroke:none" id="path4002" inkscape:connector-curvature="0"/>
      <path d="m 375.28477,472.47395 c -19.3875,0 -29.0825,-12.06125 -29.0825,-36.18125 0,-11.99625 2.6375,-21.1625 7.91125,-27.5 5.27375,-6.33375 12.8325,-9.5025 22.67375,-9.5025 7.20625,0 13.66625,1.60125 20.38125,4.8 l -5.015,14.90125 c -3.6675,-1.22 -6.15625,-2.22 -8.4575,-2.99875 -2.30375,-0.78 -4.605,-1.1675 -6.90875,-1.1675 -8.83875,0 -13.2575,7.11375 -13.2575,21.34125 0,13.8075 4.41875,20.71125 13.2575,20.71125 3.2675,0 6.29375,-0.495 9.08125,-1.48375 2.785,-0.98875 5.57125,-2.53625 9.9,-5.305 l 4.01375,14.2375 c -4.29375,2.6425 -11.0825,6.25375 -13.885,7.01 -2.805,0.7575 -6.3425,1.1375 -10.6125,1.1375 z" style="fill:none;stroke:#ffffff;stroke-width:0.66249996;stroke-linecap:butt;stroke-linejoin:miter;stroke-miterlimit:4;stroke-dasharray:none;stroke-opacity:1" id="path4006" inkscape:connector-curvature="0"/>
      <path d="m 433.64902,438.50295 -6.575,0.2525 c -4.93875,0.16875 -8.615,1.17875 -11.03,3.03 -2.41375,1.85375 -3.62,4.67375 -3.62,8.46125 0,5.43125 2.7475,8.14625 8.24375,8.14625 3.9375,0 7.08375,-1.285 9.44375,-3.85125 2.35875,-2.56875 3.5375,-5.9775 3.5375,-10.23 l 0,-5.80875 z m 1.29125,32.7075 0.435,-9.5975 -0.44625,0 c -2.86,4.08375 -5.80125,6.915 -8.82875,8.4925 -3.0275,1.57875 -6.97375,2.36875 -11.83875,2.36875 -5.98,0 -10.68875,-1.93625 -14.12125,-5.81125 -3.43625,-3.87125 -5.155,-9.385 -5.155,-16.5425 0,-7.4925 2.31375,-13.0175 6.93625,-16.57375 4.625,-3.5575 11.5975,-5.52625 20.92,-5.905 l 10.8075,-0.3775 0,-3.095 c 0,-7.155 -3.2325,-10.73375 -9.695,-10.73375 -4.97625,0 -10.825,1.70375 -21.8525,7.10125 l -5.62625,-13.00625 c 11.4725,-6.23875 19.42125,-8.365 28.1475,-8.365 8.3575,0 14.76375,2.0625 19.22125,6.1875 4.4575,4.12625 6.685,10.3975 6.685,18.81625 l 0,47.04125 -15.58875,0 z" style="fill:#971640;fill-opacity:1;fill-rule:nonzero;stroke:none" id="path4010" inkscape:connector-curvature="0"/>
      <path d="m 433.64902,438.50295 -6.575,0.2525 c -4.93875,0.16875 -8.615,1.17875 -11.03,3.03 -2.41375,1.85375 -3.62,4.67375 -3.62,8.46125 0,5.43125 2.7475,8.14625 8.24375,8.14625 3.9375,0 7.08375,-1.285 9.44375,-3.85125 2.35875,-2.56875 3.5375,-5.9775 3.5375,-10.23 l 0,-5.80875 z m 1.29125,32.7075 0.435,-9.5975 -0.44625,0 c -2.86,4.08375 -5.80125,6.915 -8.82875,8.4925 -3.0275,1.57875 -6.97375,2.36875 -11.83875,2.36875 -5.98,0 -10.68875,-1.93625 -14.12125,-5.81125 -3.43625,-3.87125 -5.155,-9.385 -5.155,-16.5425 0,-7.4925 2.31375,-13.0175 6.93625,-16.57375 4.625,-3.5575 11.5975,-5.52625 20.92,-5.905 l 10.8075,-0.3775 0,-3.095 c 0,-7.155 -3.2325,-10.73375 -9.695,-10.73375 -4.97625,0 -10.825,1.70375 -21.8525,7.10125 l -5.62625,-13.00625 c 11.4725,-6.23875 19.42125,-8.365 28.1475,-8.365 8.3575,0 14.76375,2.0625 19.22125,6.1875 4.4575,4.12625 6.685,10.3975 6.685,18.81625 l 0,47.04125 -15.58875,0 z" style="fill:none;stroke:#ffffff;stroke-width:0.66249996;stroke-linecap:butt;stroke-linejoin:miter;stroke-miterlimit:4;stroke-dasharray:none;stroke-opacity:1" id="path4014" inkscape:connector-curvature="0"/>
      <path d="m 247.88364,339.27195 c 0,5.34375 0.91,9.38375 2.73375,12.11875 1.82125,2.73625 4.78875,4.105 8.90125,4.105 4.07875,0 7.0125,-1.35875 8.80125,-4.08 1.78875,-2.72 2.68375,-6.76625 2.68375,-12.14375 0,-5.34125 -0.90375,-9.35 -2.70875,-12.0225 -1.805,-2.67125 -4.76375,-4.00625 -8.8775,-4.00625 -4.07875,0 -7.02,1.3275 -8.825,3.9825 -1.805,2.65625 -2.70875,6.67125 -2.70875,12.04625 m 38.765,0 c 0,8.7875 -2.40625,15.66 -7.22,20.61625 -4.81375,4.9575 -11.51875,7.435 -20.11125,7.435 -5.3825,0 -10.13,-1.13375 -14.2425,-3.40375 -4.11125,-2.2675 -7.27125,-5.5275 -9.4775,-9.77625 -2.20625,-4.24875 -3.31,-9.205 -3.31,-14.87125 0,-8.81875 2.39,-15.675 7.17125,-20.5675 4.78125,-4.8925 11.5,-7.33875 20.16,-7.33875 5.3825,0 10.13,1.12625 14.2425,3.38 4.11375,2.2525 7.27125,5.4875 9.47875,9.705 2.20625,4.21625 3.30875,9.1575 3.30875,14.82125" style="fill:#971640;fill-opacity:1;fill-rule:nonzero;stroke:none" id="path4018" inkscape:connector-curvature="0"/>
      <path d="m 247.88364,339.27195 c 0,5.34375 0.91,9.38375 2.73375,12.11875 1.82125,2.73625 4.78875,4.105 8.90125,4.105 4.07875,0 7.0125,-1.35875 8.80125,-4.08 1.78875,-2.72 2.68375,-6.76625 2.68375,-12.14375 0,-5.34125 -0.90375,-9.35 -2.70875,-12.0225 -1.805,-2.67125 -4.76375,-4.00625 -8.8775,-4.00625 -4.07875,0 -7.02,1.3275 -8.825,3.9825 -1.805,2.65625 -2.70875,6.67125 -2.70875,12.04625 z m 38.765,0 c 0,8.7875 -2.40625,15.66 -7.22,20.61625 -4.81375,4.9575 -11.51875,7.435 -20.11125,7.435 -5.3825,0 -10.13,-1.13375 -14.2425,-3.40375 -4.11125,-2.2675 -7.27125,-5.5275 -9.4775,-9.77625 -2.20625,-4.24875 -3.31,-9.205 -3.31,-14.87125 0,-8.81875 2.39,-15.675 7.17125,-20.5675 4.78125,-4.8925 11.5,-7.33875 20.16,-7.33875 5.3825,0 10.13,1.12625 14.2425,3.38 4.11375,2.2525 7.27125,5.4875 9.47875,9.705 2.20625,4.21625 3.30875,9.1575 3.30875,14.82125 z" style="fill:none;stroke:#ffffff;stroke-width:1.245;stroke-linecap:butt;stroke-linejoin:miter;stroke-miterlimit:4;stroke-dasharray:none;stroke-opacity:1" id="path4022" inkscape:connector-curvature="0"/>
      <path d="m 318.4189,324.39045 c -2.2725,0 -4.47125,1.0875 -6.59375,3.26 -2.12375,2.1725 -3.82875,5.06875 -5.115,8.69125 -1.28875,3.62125 -1.93125,7.62 -1.93125,11.99625 0,2.5775 0.6175,4.63625 1.855,6.18125 1.23625,1.545 2.9425,2.3175 5.11625,2.3175 2.23875,0 4.3775,-1.11 6.41875,-3.33125 2.03875,-2.22125 3.68625,-5.27 4.93875,-9.14875 1.255,-3.87875 1.88125,-7.70125 1.88125,-11.46875 0,-5.66375 -2.19,-8.4975 -6.57,-8.4975 m 6.06875,-11.78 c 4.88125,0 8.73375,1.73 11.55875,5.19 2.82625,3.46125 4.2375,8.2975 4.2375,14.50875 0,6.1475 -1.145,12.06375 -3.43375,17.74375 -2.29125,5.6825 -5.425,10.1875 -9.4025,13.52 -3.98,3.33 -8.36,4.99625 -13.14,4.99625 -2.775,0 -5.165,-0.59625 -7.17125,-1.78625 -2.00625,-1.19 -3.8625,-3.2175 -5.56625,-6.08375 l -0.40125,0 c -0.40125,5.11875 -1.12125,9.865 -2.1575,14.24375 l -3.61,16.415 -15.09625,0 17.15125,-77.73375 11.535,0 -0.8525,8.2075 0.45125,0 c 4.61375,-6.14625 9.9125,-9.22125 15.8975,-9.22125" style="fill:#971640;fill-opacity:1;fill-rule:nonzero;stroke:none" id="path4026" inkscape:connector-curvature="0"/>
      <path d="m 318.4189,324.39045 c -2.2725,0 -4.47125,1.0875 -6.59375,3.26 -2.12375,2.1725 -3.82875,5.06875 -5.115,8.69125 -1.28875,3.62125 -1.93125,7.62 -1.93125,11.99625 0,2.5775 0.6175,4.63625 1.855,6.18125 1.23625,1.545 2.9425,2.3175 5.11625,2.3175 2.23875,0 4.3775,-1.11 6.41875,-3.33125 2.03875,-2.22125 3.68625,-5.27 4.93875,-9.14875 1.255,-3.87875 1.88125,-7.70125 1.88125,-11.46875 0,-5.66375 -2.19,-8.4975 -6.57,-8.4975 z m 6.06875,-11.78 c 4.88125,0 8.73375,1.73 11.55875,5.19 2.82625,3.46125 4.2375,8.2975 4.2375,14.50875 0,6.1475 -1.145,12.06375 -3.43375,17.74375 -2.29125,5.6825 -5.425,10.1875 -9.4025,13.52 -3.98,3.33 -8.36,4.99625 -13.14,4.99625 -2.775,0 -5.165,-0.59625 -7.17125,-1.78625 -2.00625,-1.19 -3.8625,-3.2175 -5.56625,-6.08375 l -0.40125,0 c -0.40125,5.11875 -1.12125,9.865 -2.1575,14.24375 l -3.61,16.415 -15.09625,0 17.15125,-77.73375 11.535,0 -0.8525,8.2075 0.45125,0 c 4.61375,-6.14625 9.9125,-9.22125 15.8975,-9.22125 z" style="fill:none;stroke:#ffffff;stroke-width:1.245;stroke-linecap:butt;stroke-linejoin:miter;stroke-miterlimit:4;stroke-dasharray:none;stroke-opacity:1" id="path4030" inkscape:connector-curvature="0"/>
      <path d="m 369.78914,323.08795 c -3.24375,0 -5.78375,0.98875 -7.6225,2.96875 -1.83875,1.98 -2.89125,4.7875 -3.15875,8.425 l 21.46375,0 c -0.0687,-3.6375 -1.05375,-6.445 -2.95875,-8.425 -1.90625,-1.98 -4.48125,-2.96875 -7.72375,-2.96875 m 2.1575,45.48125 c -9.02875,0 -16.08375,-2.3975 -21.165,-7.19375 -5.08125,-4.79625 -7.6225,-11.5875 -7.6225,-20.375 0,-9.045 2.34875,-16.0375 7.04625,-20.97875 4.69875,-4.94 11.19125,-7.41125 19.48375,-7.41125 7.9225,0 14.09125,2.1725 18.505,6.5175 4.41375,4.34625 6.62,10.34875 6.62,18.01 l 0,7.145 -36.15875,0 c 0.1675,4.185 1.45375,7.4525 3.8625,9.8025 2.405,2.34875 5.785,3.52375 10.13,3.52375 3.37625,0 6.57,-0.3375 9.5775,-1.01375 3.00875,-0.675 6.15125,-1.75375 9.42875,-3.235 l 1.615,10.9425 c -2.675,1.2875 -7.14875,2.6975 -10.19,3.325 -3.04375,0.6275 -6.75375,0.94125 -11.1325,0.94125" style="fill:#971640;fill-opacity:1;fill-rule:nonzero;stroke:none" id="path4034" inkscape:connector-curvature="0"/>
      <path d="m 369.78914,323.08795 c -3.24375,0 -5.78375,0.98875 -7.6225,2.96875 -1.83875,1.98 -2.89125,4.7875 -3.15875,8.425 l 21.46375,0 c -0.0687,-3.6375 -1.05375,-6.445 -2.95875,-8.425 -1.90625,-1.98 -4.48125,-2.96875 -7.72375,-2.96875 z m 2.1575,45.48125 c -9.02875,0 -16.08375,-2.3975 -21.165,-7.19375 -5.08125,-4.79625 -7.6225,-11.5875 -7.6225,-20.375 0,-9.045 2.34875,-16.0375 7.04625,-20.97875 4.69875,-4.94 11.19125,-7.41125 19.48375,-7.41125 7.9225,0 14.09125,2.1725 18.505,6.5175 4.41375,4.34625 6.62,10.34875 6.62,18.01 l 0,7.145 -36.15875,0 c 0.1675,4.185 1.45375,7.4525 3.8625,9.8025 2.405,2.34875 5.785,3.52375 10.13,3.52375 3.37625,0 6.57,-0.3375 9.5775,-1.01375 3.00875,-0.675 6.15125,-1.75375 9.42875,-3.235 l 1.615,10.9425 c -2.675,1.2875 -7.14875,2.6975 -10.19,3.325 -3.04375,0.6275 -6.75375,0.94125 -11.1325,0.94125 z" style="fill:none;stroke:#ffffff;stroke-width:1.245;stroke-linecap:butt;stroke-linejoin:miter;stroke-miterlimit:4;stroke-dasharray:none;stroke-opacity:1" id="path4038" inkscape:connector-curvature="0"/>
      <path d="m 448.96889,367.60332 -15.29625,0 0,-31.5275 c 0,-3.895 -0.71875,-6.81625 -2.15625,-8.76375 -1.43625,-1.9475 -3.7275,-2.92125 -6.87125,-2.92125 -4.28,0 -7.37125,1.375 -9.2775,4.1275 -1.905,2.75375 -2.8575,7.315 -2.8575,13.69 l 0,25.395 -15.29625,0 0,-53.97875 13.60875,0 0.1325,6.90375 0.85375,0 c 1.70375,-2.6075 4.0525,-4.57875 7.04375,-5.915 2.9925,-1.33375 6.39375,-2.0025 10.20625,-2.0025 6.51875,0 11.4675,1.6975 14.84375,5.09375 3.3775,3.39625 5.06625,8.29625 5.06625,14.70125 l 0,35.1975 z" style="fill:#971640;fill-opacity:1;fill-rule:nonzero;stroke:none" id="path4042" inkscape:connector-curvature="0"/>
      <path d="m 448.96889,367.60332 -15.29625,0 0,-31.5275 c 0,-3.895 -0.71875,-6.81625 -2.15625,-8.76375 -1.43625,-1.9475 -3.7275,-2.92125 -6.87125,-2.92125 -4.28,0 -7.37125,1.375 -9.2775,4.1275 -1.905,2.75375 -2.8575,7.315 -2.8575,13.69 l 0,25.395 -15.29625,0 0,-53.97875 13.60875,0 0.1325,6.90375 0.85375,0 c 1.70375,-2.6075 4.0525,-4.57875 7.04375,-5.915 2.9925,-1.33375 6.39375,-2.0025 10.20625,-2.0025 6.51875,0 11.4675,1.6975 14.84375,5.09375 3.3775,3.39625 5.06625,8.29625 5.06625,14.70125 l 0,35.1975 z" style="fill:none;stroke:#ffffff;stroke-width:1.245;stroke-linecap:butt;stroke-linejoin:miter;stroke-miterlimit:4;stroke-dasharray:none;stroke-opacity:1" id="path4046" inkscape:connector-curvature="0"/>
      <path d="m 293.75152,399.57358 -14.79375,-3.24875 2.62875,-11.97375 14.79375,3.2475 -2.62875,11.975 z" style="fill:#326c97;fill-opacity:1;fill-rule:nonzero;stroke:none" id="path4050" inkscape:connector-curvature="0"/>
      <path d="m 293.75152,399.57358 -14.79375,-3.24875 2.62875,-11.97375 14.79375,3.2475 -2.62875,11.975 z" style="fill:none;stroke:#ffffff;stroke-width:1.13750005;stroke-linecap:butt;stroke-linejoin:miter;stroke-miterlimit:4;stroke-dasharray:none;stroke-opacity:1" id="path4054" inkscape:connector-curvature="0"/>
    </g>
  </g>
</svg>