<svg xmlns="http://www.w3.org/2000/svg" width="148.6" height="49.5"><defs><clipPath id="a" clipPathUnits="userSpaceOnUse"><path d="M138.7 575.4H19.8v-39.6h119v39.6z"/></clipPath></defs><path d="M30.6 33.4c-3.7 0-5.6-2.4-5.6-6.5v-8.6h2.3v8.5c0 2.8 1.1 4.3 3.3 4.3 2.4 0 3.5-1.4 3.5-4.1v-8.7h2.2V27c0 4.2-2 6.5-5.7 6.5M50.2 20.4h-4.4v4.8h4.4c1.4 0 2.5-.8 2.5-2.4 0-1.5-1-2.4-2.5-2.4zm1.5 6.7l3 6H52l-3-5.8h-3.3V33h-2.1V18.3h6.5c2.5 0 4.7 1.4 4.7 4.4 0 2.4-1.2 3.9-3.2 4.4M66.4 33.4c-2.1 0-4-1-5.3-2.4l1.6-1.6c1 1.1 2.5 1.8 3.9 1.8 2 0 3-.7 3-2.2 0-1.1-.8-1.7-3.3-2.4-3.1-1-4.6-1.7-4.6-4.4 0-2.5 2.1-4.1 4.9-4.1 2 0 3.5.7 4.8 2l-1.6 1.6c-.9-1-2-1.4-3.4-1.4-1.7 0-2.5.8-2.5 1.8s.7 1.5 3.2 2.3c3 .9 4.8 1.8 4.8 4.5 0 2.6-1.7 4.5-5.5 4.5M83.3 33.4c-2.2 0-4-1-5.3-2.4l1.6-1.6c1 1.1 2.5 1.8 3.8 1.8 2.1 0 3.1-.7 3.1-2.2 0-1.1-.9-1.7-3.3-2.4-3.2-1-4.7-1.7-4.7-4.4 0-2.5 2.2-4.1 5-4.1 2 0 3.5.7 4.8 2l-1.6 1.6c-1-1-2-1.4-3.4-1.4-1.8 0-2.5.8-2.5 1.8s.7 1.5 3.2 2.3c3 .9 4.8 1.8 4.8 4.5 0 2.6-1.7 4.5-5.5 4.5M102.4 24.2l-1.2-3.4c-.1.7-.7 2.3-1 3.4L99 27.6h4.5l-1.1-3.4zm3 9l-1.2-3.6h-5.9l-1.2 3.5h-2.3l5.3-14.8h2.3l5.4 14.8h-2.3M116.6 20.5v3.9h4.3v2.1h-4.3v6.6h-2.2V18.3h9.5v2.2h-7.3" fill="#0061aa"/><g clip-path="url(#a)" transform="matrix(1.25 0 0 -1.25 -24.8 719.2)"><path d="M19.8 554H26s1.3-6.8 6-11.7c4.8-4.9 8.6-6.5 8.6-6.5s-7 0-14.4 6.6c-5.5 5-6.3 11.6-6.3 11.6" fill="#0061aa"/><path d="M114.8 575.4s12.6.7 19.3-6.8c4.5-5 4.6-9.2 4.6-9.2l-6.6-.2s-.5 4.7-3.3 8.8c-5.2 7.2-14 7.4-14 7.4" fill="#00a886"/></g></svg>
