<svg xmlns="http://www.w3.org/2000/svg" height="53" width="280"><g font-size="50" fill="#373c42"><path d="M23.92 40.32h6.916V14.832H23.92v2.784c-2.496-2.304-5.356-3.456-8.684-3.456-7.176 0-13 5.472-13 13.44 0 7.824 6.136 13.392 13.156 13.392 3.484 0 6.084-1.152 8.528-3.36v2.688zm-7.28-20.304c4.368 0 7.592 3.024 7.592 7.488 0 4.656-3.328 7.632-7.592 7.632-4.316 0-7.436-3.216-7.436-7.584 0-4.176 2.86-7.536 7.436-7.536zm28.088-5.184h-6.916v34.8h6.916v-12c2.496 2.208 5.044 3.36 8.528 3.36 7.02 0 13.208-5.568 13.208-13.392 0-7.968-5.928-13.44-13.052-13.44-3.328 0-6.188 1.152-8.684 3.456v-2.784zm7.28 5.184c4.576 0 7.488 3.36 7.488 7.536 0 4.368-3.172 7.584-7.488 7.584-4.264 0-7.592-3.024-7.592-7.632 0-4.464 3.172-7.488 7.592-7.488zM71.464 40.32h6.916V14.832h-6.916V40.32zm3.432-36c-2.392 0-4.42 1.68-4.42 3.888 0 2.352 1.872 4.416 4.42 4.416 2.444 0 4.42-1.824 4.42-4.08 0-2.304-1.924-4.224-4.42-4.224zm13.532 29.328c-2.184 0-4.004 1.584-4.004 3.648 0 2.016 1.82 3.696 4.004 3.696 2.236 0 3.952-1.68 3.952-3.696s-1.768-3.648-3.952-3.648zm38.08-18.816h-6.916v2.784c-2.6-2.256-5.304-3.456-8.736-3.456-7.02 0-12.896 5.184-12.896 13.056 0 7.632 5.824 13.104 13.26 13.104 3.588 0 6.084-1.104 8.372-3.168 0 2.4-.052 4.128-1.716 5.568-1.248 1.056-3.328 1.68-5.876 1.68-2.912 0-4.992-.672-6.396-2.208H97.96c1.872 5.328 6.708 8.064 14.3 8.064 4.212 0 7.54-.912 10.036-2.832 3.172-2.496 4.212-5.808 4.212-10.752v-21.84zm-14.092 5.184c4.576 0 7.54 3.168 7.54 7.296 0 4.32-3.172 7.152-7.436 7.152-4.316 0-7.592-2.976-7.592-7.2 0-3.936 2.912-7.248 7.488-7.248zm34.068-5.856c-7.54 0-14.3 5.712-14.3 13.44 0 7.488 6.344 13.392 14.352 13.392 8.424 0 14.612-6.048 14.612-13.44 0-7.536-6.604-13.392-14.664-13.392zm.104 6.048c4.524 0 7.592 3.072 7.592 7.392 0 4.464-3.328 7.344-7.592 7.344-4.472 0-7.436-3.072-7.436-7.392 0-4.224 3.12-7.344 7.436-7.344zm20.16 6.288c0 2.112-.105 3.312.26 5.376 1.09 5.952 5.2 9.072 11.855 9.072 3.848 0 6.708-.96 8.892-3.216 2.912-2.976 3.224-6.432 3.224-11.136v-11.76h-6.92v13.584c0 4.32-1.51 6.672-5.2 6.672-3.64 0-5.2-2.4-5.2-6.96V14.832h-6.92v11.664zm40.068 13.824h4.472l11.752-25.488h-7.02l-6.968 15.024-6.968-15.024h-7.072l11.804 25.488z" font-weight="700" font-family="Century Gothic Std"/><path d="M228.497 35.6q1.228 0 2.056.79.857.766.857 1.873 0 1.108-.857 1.9-.857.763-2.056.763-1.2 0-2.057-.764-.828-.79-.828-1.9 0-1.106.828-1.87.857-.792 2.057-.792zm27.107-18.51l-.514 1.74h-4.17l-3.142 11.523q-2.086 7.62-4.2 11.786-3 5.88-6.455 8.12-2.628 1.71-5.256 1.71-1.714 0-2.913-.95-.886-.66-.886-1.72 0-.85.743-1.48.72-.61 1.78-.61.77 0 1.32.45.52.45.52 1.03 0 .58-.6 1.08-.45.37-.45.55 0 .23.2.37.26.18.8.18 1.23 0 2.6-.72 1.346-.71 2.4-2.134 1.06-1.4 2-4.06.4-1.11 2.14-7.306l4.97-17.85h-4.97l.4-1.74q2.37 0 3.318-.29.94-.313 1.71-1.16.8-.87 2.058-3.213 1.686-3.166 3.23-4.906 2.108-2.34 4.424-3.5 2.34-1.184 4.4-1.184 2.17 0 3.483 1.027 1.32 1.01 1.32 2.19 0 .93-.66 1.56t-1.684.63q-.886 0-1.458-.47-.54-.48-.54-1.138 0-.42.37-1.03.37-.63.37-.84 0-.37-.258-.554-.37-.266-1.09-.266-1.8 0-3.23 1.055-1.91 1.4-3.425 4.38-.77 1.55-2.83 7.72h4.2z" font-style="italic" font-weight="400" font-size="56.25" font-family="Times New Roman"/><path d="M257.547 17.934l9.854-1.476-4.11 12.814q5-7.884 9.09-11.02 2.32-1.794 3.77-1.794.95 0 1.49.527.55.5.55 1.477 0 1.74-.97 3.322-.68 1.186-1.97 1.186-.66 0-1.14-.395-.452-.396-.57-1.213-.06-.5-.26-.66-.22-.21-.54-.21-.48 0-.91.21-.74.37-2.255 2.057-2.37 2.58-5.145 6.69-1.2 1.74-2.058 3.93-1.2 3-1.37 3.61l-.915 3.32h-4.37L261 23.93q.91-2.85.91-4.06 0-.48-.43-.79-.57-.42-1.51-.42-.6 0-2.2.23l-.2-.98z" font-style="italic" font-weight="400" font-size="56.25" font-family="Times New Roman"/></g></svg>