<svg xmlns="http://www.w3.org/2000/svg" xmlns:xlink="http://www.w3.org/1999/xlink" version="1.0" viewBox="0 0 601.3 660.7"><defs><radialGradient xlink:href="#a" id="b" gradientUnits="userSpaceOnUse" gradientTransform="matrix(1.35322 0 0 1.34893 -77.6 -85.7)" cx="221.4" cy="226.3" fx="221.4" fy="226.3" r="300"/><linearGradient id="a"><stop offset="0" stop-color="#fff" stop-opacity=".3"/><stop offset=".2" stop-color="#fff" stop-opacity=".3"/><stop offset=".6" stop-color="#6b6b6b" stop-opacity=".1"/><stop offset="1" stop-opacity=".1"/></linearGradient></defs><g fill-rule="evenodd" stroke="#000" stroke-width="3"><path d="M300 658.5s298.5-112.3 298.5-397.8V2.2H1.5v258.5C1.5 546.2 300 658.5 300 658.5z" fill="#e20909"/><path d="M598.8 2.9L93.4 508.3c87.9 105.8 207.9 151 207.9 151s298.5-112.4 298.5-397.8V2.9h-1z" fill="#2b5df2"/></g><g stroke="#000"><path style="marker:none" d="M298.2 493.7V148.2h11.5v346.1l-11.5-.6z" color="#000" fill="#fff" fill-rule="evenodd" stroke-width="2.3" overflow="visible"/><path style="marker:none" d="M408.7 342.4l111-13.3-1 47-9.5 10-13.2.5C453.6 602 173.9 607.9 110.8 417l-9.4-.6-7.7-12.1-4.4-1.1L77 365c4 1 6 2.5 12.7 5l90 2.2-1.6 35.4-5.5-2.8-2.8 10c60.2 104.4 232.6 86 254.8-26l-13.3-11-2.7-35.4z" color="#000" fill="#fff" fill-rule="evenodd" stroke-width="2.3" overflow="visible"/><path style="marker:none" d="M92 375.5l12.7 2.8-.5 17.1-10-1-2.2-18.9zM113.6 378.3l13.2 1.1-1 16.6-11.1-.6-1.1-17zM137.9 380l10.5.5v16.6l-12.7-1.7 2.2-15.4zM158.3 382.7l12.7 1.7.6 15-15-2.3 1.7-14.4zM425.8 369.5h17.7c1.2-19.8-6.2-26.4-12.7-23.8-11.5 4.5-7.3 15.8-5 23.8zM457.3 367.8l19.3-2.2c2.6-13-2.2-22.2-11.6-22.7-9.4-.4-9.4 14.2-7.7 25zM489.3 364.5H507c1.8-11-1.5-24-12.1-21.6-10.6 2.4-4.9 13.3-5.6 21.6zM410.9 377.8l108.8-2.3-10 11.1-86.7 1.7-12.1-10.5zM94.2 403.7l7.2 13.8 69-2.7 2.9-10-79-1z" color="#000" fill="#fff" fill-rule="evenodd" stroke-width="2.3" overflow="visible"/><path style="marker:none" d="M151.1 414.2c19.2 88.9 240.9 152.2 290.7-26" color="#000" fill="none" stroke-width="2.3" overflow="visible"/><path style="marker:none" d="M475.5 387.2l-14.9-.6C445.8 552.2 192.1 558.5 139 415.9l-12.7 1c25.7 145.6 333.4 178.6 349.2-29.7zM274.7 157.8l12.2 31h42l6-31.5-14.9-3.9v9.4h-8.3l-1-9.4-17.2 1.1 2.8 9.4-6.1.6-3.3-8.3-12.2 1.6z" color="#000" fill="#fff" fill-rule="evenodd" stroke-width="2.3" overflow="visible"/><path style="marker:none" d="M446.8 339L310.3 191l156.4 145.3" color="#000" fill="none" stroke-width="2.3" overflow="visible"/><path style="marker:none" d="M312 190.4l176.2 143.1M301.2 140.3l-.4-13.2c-1.2.4-3.4-.6-5.3-1.1.3-4.4 2.5-8.2 7.6-11.5 3.2 2.9 6 4.2 8 11.7-1.1 1.5-3 1.9-5.3 1.2l.4 13h-5z" color="#000" fill="#fff" fill-rule="evenodd" stroke-width="2.3" overflow="visible"/><path style="marker:none" d="M309.8 149.3c-4.2-.6-8.4.3-12.5 1.2l2.3-3.5c-23.2-9-42.6-2-61.7 5.8 9.5-.9 9.5 2.1 10.5 4.7-9.2-1.7-18.7-4.6-27 1.2-5.7-2.6-7 .2-10.5.4a57.8 57.8 0 00-30-17.2c7.2-1.4 14.4-3 22.6-.8 3.3 3.4 8.5 5.7 13.3 8.6 8-1.2 15-2.7 20-5.5 1-2.8-1.1-4.3-2.4-6.2a121 121 0 0166.4-4.3l10.5 2.3c-2.7.7-1.7 1.8-3.3 2.8-2.7 1.7-3.3 4-.5 6.8 1.2 1.2-.3 2.3 2.3 3.7zM236 144c3.4.3 5.2 2.2 3.4 7.7M149.7 182.7c82 12 246 38.4 329.1 50.3 3.6.5 8.7 2.6 6.1 8.8-1.4 3.3-1 8.2-13.2 5.5-82.8-17.8-242.7-40.5-322.8-56.3-7.9-1.6-3.2-8.9.8-8.3z" color="#000" fill="#fff" fill-rule="evenodd" stroke-width="2.3" overflow="visible"/><path style="marker:none" d="M166 184.9c-29.4 57.7-26 78.9-23 110.2 4.3 45.8 30.3 78.7 54.2 107.8 40.7 49.4 69.4 71.2 94.2 82.5-21.5-58.6-12.2-78.5-1.2-101.6 18.1-38 47.2-68.7 81-90.7 33-21.6 69.4-45.3 92.1-46-2.5-7 0-12.4 4.7-17.3-4-2-8.8-3.6-16-3.5a25.2 25.2 0 00-7.4 18c-9.2 3.7-15 3-21.1 2.7-19-2.3-11.8-6-12.5-9.4-.2-6.5 4.5-11.5 10.5-16-2.5-2.5-5.3-4.7-11-3.1-6.8 5.8-9.5 11.7-12.4 17.6-4.9 6-15.1 5.5-25 5.4-9.2-2-13.3-7-15.3-13.2 1.2-5 4.3-10 7.5-14.9-1.2-3.9-6.1-1.9-10.2-2-7 5.2-9 12-13.3 18-10 0-20-.4-27-5.4 0-5.7 2.7-10.7 6.7-15.3l-14-3.9c-6 5-10.9 10.2-13.7 15.2-18.5 3.7-27.4-2.3-39.1-5.4-4.6-6.7-.7-11.8 5-16.4-3.4-1.2-6-2.8-12.4-2-8.7 4.8-10.2 11-14.1 16.8-7.8 1.6-13.5.3-16-5.5.5-5.2 2-10.4 6.6-15.6-3.8-.8-6.4-1.2-11.3-2a33 33 0 00-8.6 16.9c-14.6 1.7-23.8-1.2-30.1-6.7-.9-6.3 3-9 6.3-13.3l-14.1-2z" color="#000" fill="#fff" fill-rule="evenodd" stroke-width="2.3" overflow="visible"/><g fill="none" stroke-width="3" color="#000"><path d="M99.2 370.6l198.4-181.8-183 181.8M297 189.3L130.7 371.1" style="marker:none" overflow="visible" stroke-width="2.3208900000000003"/></g><path style="marker:none" d="M445 338l21.5-2.7M99.2 369.3l16 .8M284 233.3c-18 24.4-29.6 55.4-38.3 89.1M200.8 331.8c1.6 52.2 36.1 91.2 68 131.3M246.9 354.9c-9.5 45 12.3 88.6 39 121" color="#000" fill="none" stroke-width="2.3" overflow="visible"/><g color="#000" fill-rule="evenodd"><path d="M101.1 205.3c-3.3 4.8-7.9 8.7-19.8 7.3a87.9 87.9 0 00-19.3-9.8c-4.5 7.2-9 7.2-13.5 9.1-6 1.1-10.5 1.6-15.6.2-5.2-1.4-6.8-3-6.8-3 12.4-5.6 25-10.5 28.9-19.4a57.7 57.7 0 002.5-45.7c-2.3.4-3 1.7-3.5 3a12.7 12.7 0 01-7-9.2c1-3.3 3.9-4.6 6.2-6.5l-3.7 2.2c-2-15-1-30-.3-45 .8-3.5 3.8-3 5.8-4.3-3.3 1-6.8 1.7-9 3.8-4.3-1.1-7.2-4-10-7 1.6-2 3.5-3.7 7.2-4.7 2.8-.9 5.7 0 8.5.7l-3.5-1.8c.8-2.7 2-3.8 3.3-5 4.1-1 6.7.8 10 1.3-3.3-1-6.3-1.4-10-3.4-4.5-12.5 2.3-20 7.2-28.3-.1-6.3-1-13 1.5-18 1.9-.5 3.2-.1 4 1 .1 4.2 1.2 11.2 2.6 18.4-.5-6.7-1-15-1.5-18.3.2-3.1 2-4.5 3.7-8.2 5.2-1 7.4-.2 8.3 1.4 8.2 13.7 16.4 27.3 18.6 43.2 11.4 19.5 6.4 44.6 5.2 65.7 1.2 8 1.4 15-4 17.6-.6-2-2.4-4-8.3-6.3 1.4 1.4 2.6 2.8 2 4.1-5.2-1.6-6.1 25.3-6.5 43.4-.2 9.2 4.1 22.6 16.8 21.5z" style="marker:none" fill="#fff" stroke-width="1.1" overflow="visible"/><path d="M99 65.2c-5 3.9-9.7 5.6-14.3 6.6-7 1.3-11-2.2-16.6-3.4 5.7.7 10.8 3 17.1 1.8a29 29 0 0012-8.2l1.8 3.2z" style="marker:none" stroke-width="1.1" overflow="visible"/><path d="M81.8 51.4c2 2.7.7 3.5-.5 4-2.2 1.1-4.5-.5-5.5-1.8-1.2-1.7-.4-3.6.9-3.9 1.5-.3 3.1-.9 5.1 1.7z" style="marker:none" fill="#fff" stroke-width="1.1" overflow="visible"/><path d="M82 52c-.3.5-1.3.9-2 .7-.8-.2-1.1-1-1-1.5.2-.5 1-.7 1.7-.5.7.2 1.4.8 1.2 1.3zM43 86.7c2.4-1 4.9-1.9 6.4-3.8M40 85c5.3-3.5 6-3.5 6-3.4M37.5 82.7c2-1.4 3.4-3.3 6.5-3.7M50 144c1.7-1 2.8-2.6 5.2-3M47.4 140.4c5.1-3.5 6-3 6-3M101.1 138.3c-5.5-4.9-4.9-3.2-4.9-3.1M101.6 132.5c-4.8-.3-5-2.2-5-2.3M101.4 126.6c-4-2.2-4.1-3-4.1-3M88.7 212.7c1-5.4-.3-7-.4-7M84 212.7c-2.1-5.9-1.1-5.9-1.4-7.7M78 210.4c2.5-5.2.8-6.4.8-6.4M74.3 208.4c2.2-6.4.5-6.9.5-6.9M70.8 206.5c1.5-3.6.7-4.9.7-5M68 205.3c.7-4.8-.2-6.1-.2-6.1M57.8 207.8c-.5-5.8.8-8 .9-8M53.2 210.2c-1-6.2.6-8 .6-8M48.3 212c0-7.3.5-7.2.5-7.2M43.7 212.8c-.1-6.2 1-7 1.1-7M37.7 212.8c3.3-4.7 2.4-6.5 2.2-6.6" style="marker:none" fill="#fff" stroke-width="1.1" overflow="visible"/><path d="M82 144.8c-.6 1.3-2.6 2.2-4.6 2-.7 0-2.2 0-1.3-.6.6-1 .3-2.1-1-2.7-.2-.2-.6-.3-1-.4M75.7 146.6c.1 1.4-.4 3-2.5 3.6-1.5.5-3.5-.3-3.6-1.5 0-.4 0-.8.2-1.2" style="marker:none" fill="#fff" stroke-width=".5" overflow="visible"/><path d="M78.3 138.6c.5 1.2.5 2.7-1 3.5-1.3.6-2.6 1.3-4.2 1.1-1.9 0-3.8-.6-4.6-1.9-.6-.8-.7-1.8-2.4-1.7-1.9-.2-3.7-1.1-4.1-2.5-.3-.8-.2-1.6 0-2.4" style="marker:none" fill="#fff" stroke-width=".5" overflow="visible"/><path d="M67.7 139.8c2-.5 2.8-2 2.4-3.4a5.8 5.8 0 00-3.7-4l-.5-.1M69.7 135c1.5.4 3.4.6 4.9 0 1.5-1 2.8-2.4 2.6-3.9M74.4 135.2c-.1 2 2.6 3.3 5.2 3.6 1.9.3 4.3-.1 5-1.5.4-1 .2-2-.2-3M97.2 117.5c.2 4.1-2.8 4.3-5 5 1.2 3.8-1.3 4.4-3.8 4.9" style="marker:none" fill="#fff" stroke-width=".5" overflow="visible"/><path d="M88.7 127.4c-1.3-.8-5.5.4-4.2-3.4-2.7-.1-6.2.5-5.6-2.8M84.3 124c2.6-.7 4.3-1.5 3.9-2.5" style="marker:none" fill="#fff" stroke-width=".5" overflow="visible"/><path d="M92 122.7c-1.7.6-2.8.2-4-1.3-1-1.3-1.6-3-.4-4.6M98.5 105.4c1 3.4-.9 4-3.9 3.6 1.3 4.1-7.5 2.8-9.9-1-1.5-1-5.6.4-4.2-3.2" style="marker:none" fill="#fff" stroke-width=".5" overflow="visible"/><path d="M84.4 107.8c0-1.1.8-2 2.2-2.8-.9-1.1-2.6-1.7-1.7-4M86.6 104.8l5.4-.6M94.6 109.2c-1-1-2-1.2-3-4.9 1.7-.6 1.4-1.5.7-2.6 3-.4 6.2-.8 5.6-3.9M92.4 101.4c-1.3 0-3-1.3-2.2-3.5M102.4 91.2c-1.2 5.3-6.3 3-7.4 1.6M102.5 84.4c-1-.2-2.5.8-3.9-.9-1.6-2-2.8-2.7-2.4-5" style="marker:none" fill="#fff" stroke-width=".5" overflow="visible"/><path d="M101.4 74.2c.1 3-1.6 6-5.2 4.3-2.5-1.1-2.6-3.5-.7-4.5M98.6 83.5c2.8 4.1-3.3 3.7-6 4.3-1.4 7.3-7 5-8 2.4" style="marker:none" fill="#fff" stroke-width=".5" overflow="visible"/><path d="M92.6 87.8c-2-.3-2.7-2-2.6-4.5.5-1.4.4-2.7 2.1-4.2M85.6 83c-3.2-2-.8-4.6-4.2-4.3 4.5 0 4.8-2.6 4-5.5M83.3 78.9C78 79 76 77.5 76.8 75M90 82.7c-2 2-3 .3-4.8.5-.6 2.6-2 3.6-2.7 5 .5.9 1.3 1.6 2.3 2.3M82.8 88.3c-1.8-.6-6.3 1-4.5-2.4" style="marker:none" fill="#fff" stroke-width=".5" overflow="visible"/><path d="M78.7 88c-.3 1.4-.8 3.6-5.1 3.2 2 6.2 4.7 5 8.5 2.5M73.6 91c1.2 1.6-4.5-.2-3.4-2.7M77 79.5c-5.3 6-11.6 3-10.7-1.2" style="marker:none" fill="#fff" stroke-width=".5" overflow="visible"/></g><g fill="#fff" stroke-width="1.1"><path d="M508.6 162.7c-.8-6.6-.8-12.8-2.9-19.1-1.7-5.4-2.3-7.1-5.5-13.1-1-1.3-3-5-4.4-6.8-2.4-3-3.2-4.6-5.8-7-2.1-2.2-4.4-4.7-8-7.2a19.5 19.5 0 00-12.3-2.6c-7.6 2.1-15 7.2-17.7 14.9a27.1 27.1 0 001.5 15.9 38 38 0 0015.7 18.2c3.8 1.7 9 3.9 13.2 3.9a74 74 0 01-3.8-13.9c-.2-1.6.4-4 1.7-4.2 2-.3 4.2 1.2 6.7 3.4 4.7 4.3 9.8 8.6 11.3 15 .3.8.2 1.8.6 2.6" fill-rule="evenodd" transform="matrix(1 0 0 1.1027 -6 -35.4)"/><path d="M516.5 51.7a95.5 95.5 0 00-12.8 16.6 64.5 64.5 0 00-7.2 20.6c-.7 4.6-1.8 9.4 0 17.9 1.7 7.2 4 12.2 6 17.7 2.3 6.3 4 10.8 5.8 16.2a52.1 52.1 0 012.9 22h12.3a52.1 52.1 0 012.8-22l6-16.2c2-5.5 4.2-10.5 6-17.7 1.7-8.5.6-13.3-.1-18-1-5.3-3.3-14-7.2-20.5-3.4-5.7-7.6-11-12.8-16.6l-.8-1-.9 1z" transform="matrix(1 0 0 1.1027 -6 -35.4)"/><path d="M505 171.4a70.4 70.4 0 01-18.7 24.2c-1.4 1 7-.5 10.7-1.3 5-1.1 11.3-6.4 11.2-4.5-.3 3.8-.3 3.8.1 7a76.5 76.5 0 005.3 17.2c.8 1.7 1.6 3.5 3.2 5l.5.5.6-.6c1.5-1.4 2.4-3.2 3.2-4.9a69.8 69.8 0 005.3-17.1c.4-3.3.4-3.3.1-7.1-.1-1.9 6.3 3.4 11.2 4.5 3.8.8 12.1 2.3 10.7 1.3a70.4 70.4 0 01-18.7-24.2H505zM526.1 162.7c.8-6.6.8-12.8 2.9-19.1 1.7-5.4 2.3-7.1 5.5-13.1 1-1.3 3-5 4.4-6.8 2.4-3 3.2-4.6 5.8-7 2.1-2.2 4.4-4.7 8-7.2 4.6-2.5 8.4-3 12.3-2.6 7.6 2.1 15 7.2 17.7 14.9 1.2 5.2.5 10.7-1.5 15.9a38 38 0 01-15.7 18.2c-3.8 1.7-9 3.9-13.2 3.9 2-5 3-9.2 3.8-13.9.2-1.6-.4-4-1.7-4.2-2-.3-4.2 1.2-6.7 3.4-4.7 4.3-9.8 8.6-11.3 15-.3.8-.3 1.8-.6 2.6" fill-rule="evenodd" transform="matrix(1 0 0 1.1027 -6 -35.4)"/><path d="M488 162.3h58.8v9.5H488z" transform="matrix(1 0 0 1.1027 -6 -35.4)"/></g><g fill="#fff" fill-rule="evenodd" stroke-width="3"><path d="M430.7 505c-23.4 35.5-51 32.5-82 .6-30.5 42.8-53.5 26.8-75.2 0-32.5 40.7-56.4 26-78.5 0-28.2 35.7-53.1 25.9-76.9.6-1.8 5.3-7.6 11.3-11.8 15.8 27.4 30.7 60.8 55 88.7 75 89.6 44.7 165.4 24.1 238.8-14.9 24.9-19.2 52-46.6 75.6-74-1.2-2.5.6 3.2 0-.6-27.3 37.6-65.6 23.2-78.7-2.4z"/><path d="M390.2 536.8c-23.4 35.4-51 32.5-82 .6-30.5 42.8-53.5 26.8-75.1 0-32.6 40.7-56.5 26-78.6 0-5.3 6.7-14.4 10.7-19.5 14.4 17.5 16.1 39.2 31.3 56.3 43.5 89.5 44.8 168.5 24.2 241.9-14.8 13-10 27-22.4 40-34.7-2-2.9-6.3-3-7.3-8.4-27.2 37.6-62.6 25.1-75.7-.6z"/><path d="M421.6 573c-23.4 35.5-51 32.5-82 .6-30.4 42.8-53.5 26.8-75.1 0-32.6 40.7-56.4 26-78.6 0-4 5-8.4 5.7-12.2 9a665 665 0 00126.6 76.5s62.8-24.3 130-76.4c-3-3.2-6.7-5.7-8.7-9.6z" style="marker:none" color="#000" overflow="visible"/></g></g></svg>
