<svg xmlns="http://www.w3.org/2000/svg" xmlns:xlink="http://www.w3.org/1999/xlink" version="1.0" viewBox="0 0 600 660"><defs><linearGradient id="b"><stop offset="0" stop-color="#fff" stop-opacity=".3"/><stop offset=".2" stop-color="#fff" stop-opacity=".3"/><stop offset=".6" stop-color="#6b6b6b" stop-opacity=".1"/><stop offset="1" stop-opacity=".1"/></linearGradient><linearGradient id="a"><stop offset="0" stop-color="#fd0000"/><stop offset=".5" stop-color="#e77275" stop-opacity=".7"/><stop offset="1" stop-opacity=".3"/></linearGradient><radialGradient xlink:href="#b" id="c" gradientUnits="userSpaceOnUse" gradientTransform="matrix(1.35322 0 0 1.34893 -77.6 -85.7)" cx="221.4" cy="226.3" fx="221.4" fy="226.3" r="300"/></defs><g fill-rule="evenodd" stroke="#000" stroke-width="3"><path d="M299.4 658.5S598 546.2 598 260.7V2.2H1v258.5c0 285.5 298.5 397.8 298.5 397.8z" fill="#2b5df2"/><path d="M299.4 23.5L47.8 443.7s0 0 0 0c27.5 49.7 64 89.8 100.5 121.4l151.1-252.4 151.1 252.4A449 449 0 00551 443.7L299.4 23.5z" fill="#fcef3c"/></g><g fill="#fff" stroke="#000"><path d="M208 142.5a93.2 93.2 0 01-29-24.4l-35.3 1-3.6 11 32.5 16.8c16-3.3 26-6.2 35.3-4.4zM110.6 208.6a93.2 93.2 0 0114.8-34.8l-11.5-33.5-11.6-.2-6.3 36c7.8 14.4 13.5 23 14.6 32.5zM13 144.4c9.2-.8 25.1 0 37.4 4.8l29.2-20-3-11.3-36.4 3.7c-11.7 11.4-18.5 19.2-27.3 22.8zM172.4 33.9a93.2 93.2 0 01-35 14.4l-15.3 31.9 8 8.2 30-21.2c4.4-15.7 6.4-25.8 12.3-33.3zM49.4 34.8A93.2 93.2 0 0159 71.3l29.6 19.5 9.2-7-17-32.3C65.7 44.9 56 41.6 49.3 34.8z" fill-rule="evenodd" stroke-width="3"/><path d="M90 37.5c-6.6 0-12 3-15.1 11.4-1.5 7.4-2 14.4 1.3 19.5C88.5 88 95 95 103 105.5c2.1-11.3 4.6-20.7 5.5-39.5 1 18.8 3.4 28.2 5.6 39.5 9-12.3 18.3-24.5 26.7-37.1 3.4-5 2.8-12 1.4-19.5-4-10.4-11.2-12.5-20-10.9-4.8 1.3-8.2 3.3-13.6 3.2h0-.2 0c-5.3.1-8.8-1.9-13.6-3.2-1.6-.3-3.2-.5-4.8-.5z" fill-rule="evenodd" stroke-width="3"/><path d="M108.5 66c-.9 18.8-3.4 28.2-5.5 39.5h-.1v.2h11l.1-.5c-2.1-11.2-4.6-20.6-5.5-39.2zM30.8 108.8c-2 6.3-.7 12.3 6.4 17.8 6.7 3.6 13.2 6.2 19 4.5 22.3-6 31-10 43.4-14.6-10.2-5.4-18.4-10.6-36.2-17 18.3 4.7 28 5.1 39.5 6.4-9-12.3-18-24.7-27.6-36.5-3.8-4.7-10.7-6.2-18.2-7-11.1.6-15.3 7-16.3 15.8-.2 5 .7 8.8-1 13.9h0v.2h0c-1.5 5.2-4.5 7.9-7.1 12-.8 1.5-1.4 3-1.9 4.5z" fill-rule="evenodd" stroke-width="3"/><path d="M63.4 99.5c17.8 6.4 26 11.6 36.2 17h-.1l.2.1L103 106l-.4-.1c-11.4-1.3-21-1.7-39.2-6.4zM169.5 162c5.2-4 7.7-9.6 5-18.2-3.3-6.8-7.1-12.7-12.9-14.6-21.6-8-31-9.8-43.8-13.2 5.2 10.3 9 19.3 19.7 34.8-12.2-14.4-19.9-20.3-28.5-28 .3 15.3.4 30.6 1.4 45.7.4 6 5.2 11.3 10.8 16.3 9.5 5.8 16.5 3.1 22.5-3.5 3-4 4.5-7.7 8.8-10.8h0l.2-.2h0c4.1-3.3 8.1-3.8 12.7-5.7 1.5-.8 2.9-1.6 4-2.5z" fill-rule="evenodd" stroke-width="3"/><path d="M137.5 150.8c-10.8-15.5-14.5-24.5-19.7-34.8h.1l-.1-.2-8.8 6.8.2.4c8.6 7.6 16.2 13.5 28.3 27.8zM81.5 186.1c5.5 3.8 11.6 4.3 19-1 5.3-5.3 9.7-10.8 9.7-16.9.8-23-.6-32.5-1.5-45.7-8 8.2-15.4 14.6-26.7 29.7 9.8-16.1 13-25.3 17.5-36-14.4 5.2-28.9 10.2-42.9 16-5.6 2.3-9 8.5-12 15.4-2.5 10.8 2.3 16.7 10.5 20.2 4.7 1.6 8.7 1.8 13 5h.2c4.5 2.9 6.3 6.5 9.5 10.3 1.2 1.1 2.5 2.2 3.7 3z" fill-rule="evenodd" stroke-width="3"/><path d="M82 152.2c11.3-15.1 18.6-21.5 26.7-29.7v.1l.2-.2-9.2-6.2-.3.4c-4.5 10.5-7.7 19.6-17.4 35.6zM174.9 71.5c-2-6.3-6.6-10.5-15.7-10.8-7.4 1-14.3 2.7-18 7.5-14.6 17.9-19.3 26.3-26.6 37.3 11.4-1.6 21.1-2.3 39.3-7.5-17.6 7-25.7 12.3-35.8 18 14.6 4.7 29.1 9.5 43.8 13.4 5.8 1.6 12.3-1.2 18.9-5 8.6-7 8.3-14.5 4-22.3-2.8-4.1-5.9-6.8-7.4-11.9h0l-.1-.2h0c-1.9-5-1-9-1.4-13.9-.2-1.6-.5-3.2-1-4.6z" fill-rule="evenodd" stroke-width="3"/><path d="M153.9 98c-18.2 5.2-27.9 5.9-39.3 7.5v-.2l-.2.1L118 116h.4c10-5.7 18-11 35.5-17.9z" fill-rule="evenodd" stroke-width="3.0098000000000003"/><path d="M134.2 113.3a25 25 0 01-25.4 24.7 25 25 0 01-25.3-24.7 25 25 0 0125.3-24.8 25 25 0 0125.4 24.8h0z" fill-rule="evenodd" stroke-width="3"/><g><path d="M585.9 142.5A93.2 93.2 0 01557 118l-35.4 1-3.6 11 32.6 16.8c16-3.3 26-6.2 35.3-4.4zM488.6 208.6a93.2 93.2 0 0114.7-34.8L492 140.3l-11.6-.2-6.3 36c7.8 14.4 13.5 23 14.6 32.5zM390.9 144.4c9.2-.8 25.2 0 37.5 4.8l29.1-20-3-11.3-36.3 3.7c-11.7 11.4-18.5 19.2-27.3 22.8zM550.4 33.9a93.2 93.2 0 01-35 14.4l-15.3 31.9 8 8.2L538 67.2c4.5-15.7 6.5-25.8 12.4-33.3zM427.3 34.8a93.2 93.2 0 019.7 36.5l29.6 19.5 9.3-7-17.1-32.3c-15-6.6-24.8-9.9-31.5-16.7z" fill-rule="evenodd" stroke-width="3"/><path d="M468 37.5c-6.6 0-12 3-15.2 11.4-1.4 7.4-2 14.4 1.4 19.5 12.2 19.6 18.7 26.7 26.7 37.1 2.2-11.3 4.7-20.7 5.6-39.5.9 18.8 3.4 28.2 5.5 39.5 9.1-12.3 18.3-24.5 26.8-37.1 3.3-5 2.7-12 1.3-19.5-4-10.4-11.2-12.5-20-10.9-4.7 1.3-8.2 3.3-13.5 3.2h0-.2 0c-5.4.1-8.9-1.9-13.6-3.2-1.7-.3-3.3-.5-4.8-.5z" fill-rule="evenodd" stroke-width="3"/><path d="M486.5 66c-1 18.8-3.4 28.2-5.6 39.5 0 0 0 0 0 0v.2h11v-.5c-2-11.2-4.5-20.6-5.4-39.2zM408.8 108.8c-2 6.3-.8 12.3 6.4 17.8 6.7 3.6 13.2 6.2 19 4.5 22.3-6 31-10 43.4-14.6-10.2-5.4-18.5-10.6-36.2-17 18.3 4.7 28 5.1 39.5 6.4-9.1-12.3-18-24.7-27.6-36.5-3.9-4.7-10.7-6.2-18.3-7-11 .6-15.2 7-16.2 15.8-.2 5 .7 8.8-1 13.9h0v.2h0c-1.5 5.2-4.5 7.9-7.1 12-.8 1.5-1.5 3-2 4.5z" fill-rule="evenodd" stroke-width="3"/><path d="M441.4 99.5c17.7 6.4 26 11.6 36.2 17h-.2l.3.1L481 106l-.5-.1c-11.3-1.3-21-1.7-39.1-6.4zM547.4 162c5.3-4 7.8-9.6 5.1-18.2-3.4-6.8-7.2-12.7-13-14.6-21.6-8-31-9.8-43.8-13.2 5.3 10.3 9 19.3 19.8 34.8-12.2-14.4-20-20.3-28.6-28 .3 15.3.5 30.6 1.5 45.7.4 6 5.1 11.3 10.8 16.3 9.4 5.8 16.5 3.1 22.4-3.5 3-4 4.5-7.7 8.9-10.8h0l.1-.2h0c4.2-3.3 8.2-3.8 12.8-5.7 1.5-.8 2.8-1.6 4-2.5z" fill-rule="evenodd" stroke-width="3"/><path d="M515.5 150.8c-10.8-15.5-14.5-24.5-19.8-34.8h.2l-.2-.2-8.8 6.8.3.4c8.5 7.6 16.2 13.5 28.3 27.8zM459.5 186.1c5.4 3.8 11.6 4.3 19-1 5.2-5.3 9.7-10.8 9.7-16.9.7-23-.7-32.5-1.5-45.7-8.1 8.2-15.4 14.6-26.7 29.7 9.8-16.1 13-25.3 17.5-36-14.4 5.2-28.9 10.2-43 16-5.5 2.3-9 8.5-12 15.4-2.5 10.8 2.4 16.7 10.5 20.2 4.7 1.6 8.8 1.8 13.1 5h.2c4.5 2.9 6.3 6.5 9.5 10.3 1.2 1.1 2.4 2.2 3.7 3z" fill-rule="evenodd" stroke-width="3"/><path d="M460 152.2c11.3-15.1 18.6-21.5 26.7-29.7v.1l.1-.2-9.2-6.2-.2.4c-4.5 10.5-7.7 19.6-17.4 35.6zM552.8 71.5c-2-6.3-6.6-10.5-15.6-10.8-7.5 1-14.3 2.7-18 7.5-14.6 17.9-19.3 26.3-26.7 37.3 11.5-1.6 21.2-2.3 39.3-7.5-17.6 7-25.6 12.3-35.7 18 14.6 4.7 29 9.5 43.8 13.4 5.8 1.6 12.3-1.2 18.9-5 8.5-7 8.2-14.5 3.9-22.3-2.8-4.1-5.8-6.8-7.4-11.9h0V90h0c-2-5-1-9-1.4-13.9-.2-1.6-.6-3.2-1-4.6z" fill-rule="evenodd" stroke-width="3"/><path d="M531.8 98c-18.1 5.2-27.8 5.9-39.3 7.5l.1-.2-.2.1 3.5 10.5h.5c10-5.7 18-11 35.4-17.9z" fill-rule="evenodd" stroke-width="3.0098000000000003"/><path d="M512.2 113.3a25 25 0 01-25.4 24.7 25 25 0 01-25.4-24.7 25 25 0 0125.4-24.8 25 25 0 0125.4 24.8h0z" fill-rule="evenodd" stroke-width="3"/></g><g><path d="M397 551.5a93.2 93.2 0 01-29-24.4l-35.4 1-3.6 11 32.6 16.8c16-3.3 26-6.2 35.3-4.4zM299.6 617.6a93.2 93.2 0 0114.7-34.8L303 549.3l-11.6-.2-6.3 36c7.8 14.4 13.5 23 14.6 32.5zM201.9 553.4c9.2-.8 25.2 0 37.5 4.8l29.1-20-2.9-11.3-36.4 3.7c-11.7 11.4-18.5 19.2-27.3 22.8zM361.4 442.9a93.2 93.2 0 01-35 14.4l-15.3 31.9 8 8.2 29.9-21.2c4.5-15.7 6.5-25.8 12.4-33.3zM238.3 443.8a93.2 93.2 0 019.8 36.6l29.5 19.4 9.3-7-17.1-32.3c-15-6.6-24.8-9.9-31.5-16.7z" fill-rule="evenodd" stroke-width="3"/><path d="M279 446.5c-6.6 0-12 3-15.2 11.4-1.4 7.4-2 14.5 1.4 19.5 12.2 19.6 18.7 26.7 26.7 37.2 2.2-11.4 4.7-20.8 5.6-39.6.9 18.8 3.4 28.2 5.5 39.6 9.1-12.4 18.4-24.6 26.8-37.2 3.4-5 2.8-12 1.3-19.5-3.9-10.4-11.1-12.5-19.9-10.9-4.8 1.3-8.3 3.3-13.6 3.2h0-.2 0c-5.4.1-8.8-1.9-13.6-3.2-1.7-.3-3.3-.5-4.8-.5z" fill-rule="evenodd" stroke-width="3"/><path d="M297.5 475c-1 18.8-3.4 28.2-5.6 39.6v-.2.3h11v-.5c-2-11.2-4.5-20.6-5.4-39.2zM219.8 517.8c-2 6.3-.7 12.3 6.4 17.8 6.7 3.6 13.2 6.2 19 4.5 22.3-6 31-10 43.4-14.6-10.2-5.4-18.4-10.6-36.2-17 18.3 4.7 28 5.1 39.5 6.4-9-12.3-18-24.7-27.6-36.5-3.8-4.7-10.7-6.2-18.2-7-11.1.6-15.3 7-16.3 15.8-.2 5 .7 8.8-1 13.9h0v.2h0c-1.5 5.2-4.5 7.9-7.1 12-.8 1.5-1.4 3-1.9 4.5z" fill-rule="evenodd" stroke-width="3"/><path d="M252.4 508.5c17.8 6.4 26 11.6 36.2 17h-.1l.2.1L292 515l-.4-.1c-11.4-1.3-21-1.7-39.2-6.4zM358.5 571c5.2-4 7.7-9.6 5-18.2-3.3-6.8-7.2-12.7-12.9-14.6-21.6-8-31-9.8-43.8-13.2 5.2 10.3 9 19.3 19.7 34.8-12.2-14.4-20-20.3-28.6-28 .3 15.3.5 30.6 1.5 45.7.4 6 5.2 11.3 10.8 16.3 9.5 5.8 16.5 3.1 22.4-3.5 3-4 4.6-7.7 8.9-10.8h0l.2-.2h0c4.1-3.3 8.1-3.8 12.7-5.7 1.5-.8 2.8-1.6 4-2.5z" fill-rule="evenodd" stroke-width="3"/><path d="M326.5 559.8c-10.8-15.5-14.5-24.5-19.7-34.8h.1l-.2-.1-8.8 6.7.3.4c8.5 7.6 16.2 13.5 28.3 27.8zM270.5 595.1c5.4 3.8 11.6 4.3 19-1 5.3-5.3 9.7-10.8 9.7-16.9.7-23-.7-32.5-1.5-45.7-8.1 8.2-15.4 14.6-26.7 29.7 9.8-16.1 13-25.3 17.5-36-14.4 5.2-28.9 10.2-43 16-5.5 2.3-9 8.5-12 15.4-2.4 10.8 2.4 16.7 10.6 20.2 4.7 1.6 8.7 1.8 13 5h.2c4.5 2.9 6.3 6.5 9.5 10.3 1.2 1.1 2.4 2.2 3.7 3z" fill-rule="evenodd" stroke-width="3"/><path d="M271 561.2c11.3-15.1 18.6-21.5 26.7-29.7v.1l.2-.2-9.3-6.2-.2.4c-4.5 10.5-7.7 19.6-17.4 35.6zM363.9 480.5c-2-6.3-6.6-10.5-15.7-10.8-7.5 1-14.3 2.7-18 7.5-14.6 17.9-19.3 26.3-26.6 37.3 11.4-1.6 21-2.3 39.2-7.4-17.5 6.8-25.6 12.2-35.7 17.9 14.6 4.7 29.1 9.5 43.8 13.4 5.8 1.6 12.3-1.2 18.9-5 8.6-7 8.3-14.5 3.9-22.3-2.8-4.1-5.8-6.8-7.4-11.9h0v-.2h0c-1.9-5-1-9-1.4-13.9-.2-1.6-.6-3.2-1-4.6z" fill-rule="evenodd" stroke-width="3"/><path d="M342.8 507c-18.1 5.2-27.8 5.9-39.2 7.5v-.2l-.2.1L307 525h.4c10-5.7 18-11 35.4-17.8z" fill-rule="evenodd" stroke-width="3.0098000000000003"/><path d="M323.2 522.3a25 25 0 01-25.4 24.7 25 25 0 01-25.3-24.7 25 25 0 0125.3-24.8 25 25 0 0125.4 24.8h0z" fill-rule="evenodd" stroke-width="3"/></g></g><path d="M300 658.5s298.5-112.3 298.5-397.8V2.2H1.5v258.5C1.5 546.2 300 658.5 300 658.5z" fill="url(#c)" fill-rule="evenodd"/><path d="M300 658.5S1.5 546.2 1.5 260.7V2.2h597v258.5c0 285.5-298.5 397.8-298.5 397.8z" fill="none" stroke="#000" stroke-width="3"/></svg>
