<svg id="Calque_1" data-name="Calque 1" xmlns="http://www.w3.org/2000/svg" viewBox="0 0 214.02 124.89"><defs><style>.cls-1{fill:#433f3b;}.cls-2{fill:#ebe200;}.cls-3{fill:#fff;}.cls-4{fill:#1d1d1b;}</style></defs><title>logo-API-AE-01</title><path class="cls-1" d="M205.51,124.89H8.5A8.69,8.69,0,0,1,0,116.07V20.61H205.51A8.7,8.7,0,0,1,214,29.43v86.64A8.7,8.7,0,0,1,205.51,124.89Z"/><path class="cls-2" d="M70.44,32.61l1.11,9.44-14-7.86L21.29,38.7,19.09,20a8.54,8.54,0,0,1,7.46-9.44L116,.06a8.52,8.52,0,0,1,9.43,7.45l2.12,18Z"/><path class="cls-3" d="M72.83,108.91c-2.21,0-3.34-1.34-3.34-3.9V99.52h1V105c0,2,.76,3,2.36,3s2.23-1,2.23-3V99.52h1V105C76.14,107.55,75.05,108.91,72.83,108.91Z"/><path class="cls-3" d="M82.08,108.76v-4.05c0-1.49-.53-2.17-1.64-2.17-1,0-1.71.65-1.71,2.17v4.05h-1v-6.93h1v.84a2.22,2.22,0,0,1,1.91-1c1.47,0,2.43.85,2.43,2.85v4.22Z"/><path class="cls-3" d="M89.27,108.91a3.87,3.87,0,0,1-2.44-.89l.58-.72a2.89,2.89,0,0,0,1.89.76c1,0,1.4-.39,1.4-1.07s-.41-.88-1.64-1.41-2-1-2-2.13.92-1.76,2.17-1.76a3.45,3.45,0,0,1,2.22.73l-.56.73a2.52,2.52,0,0,0-1.73-.62c-.72,0-1.15.36-1.15.86s.36.82,1.54,1.35,2.07,1,2.07,2.21S90.48,108.91,89.27,108.91Z"/><path class="cls-3" d="M98,105.63H93.37c.09,1.48.79,2.42,1.92,2.42a3.1,3.1,0,0,0,1.92-.66l.46.71a4.09,4.09,0,0,1-2.48.81c-1.27,0-2.81-.93-2.81-3.65,0-2.2,1.21-3.57,2.86-3.57,1.81,0,2.79,1.42,2.79,3.4A3.74,3.74,0,0,1,98,105.63Zm-2.76-3.09c-1,0-1.74.74-1.86,2.29H97.1C97,103.48,96.44,102.54,95.23,102.54Z"/><path class="cls-3" d="M102.77,102.86a2,2,0,0,0-1-.26c-1,0-1.5.78-1.5,2.09v4.07h-1v-6.93h1v.86a2,2,0,0,1,1.71-1,2.62,2.62,0,0,1,1.09.17Z"/><path class="cls-3" d="M106.74,108.76h-.87l-2.48-6.93h1l1.77,5.45.11.33.1-.33,1.77-5.45h1Z"/><path class="cls-3" d="M110.78,100.59a.71.71,0,1,1,0-1.41.71.71,0,0,1,0,1.41Zm-.52,8.17v-6.93h1v6.93Z"/><path class="cls-3" d="M117.08,103.24a2.33,2.33,0,0,0-1.67-.7c-1.08,0-1.91,1-1.91,2.71s.72,2.8,2,2.8a2.18,2.18,0,0,0,1.6-.74l.59.63a2.91,2.91,0,0,1-2.23,1c-1.52,0-2.92-1.17-2.92-3.58,0-2.56,1.54-3.64,3-3.64a3.23,3.23,0,0,1,2.19.81Z"/><path class="cls-3" d="M123.77,105.63h-4.62c.09,1.48.79,2.42,1.92,2.42a3.1,3.1,0,0,0,1.92-.66l.46.71a4.09,4.09,0,0,1-2.48.81c-1.27,0-2.81-.93-2.81-3.65,0-2.2,1.21-3.57,2.86-3.57,1.81,0,2.79,1.42,2.79,3.4A3.74,3.74,0,0,1,123.77,105.63ZM121,102.54c-1,0-1.75.74-1.86,2.29h3.73C122.8,103.48,122.22,102.54,121,102.54Z"/><path class="cls-3" d="M132,108.76v-.84a2.77,2.77,0,0,1-2.09,1c-1.38,0-2.48-1.06-2.48-3.5s1.16-3.73,2.62-3.73a2.45,2.45,0,0,1,2,.93V99.69l1-.56v9.63Zm0-5.18a2.27,2.27,0,0,0-1.88-1c-1.14,0-1.71,1-1.71,2.86s.66,2.65,1.75,2.65a2.38,2.38,0,0,0,1.84-1v-3.47Z"/><path class="cls-3" d="M139.77,105.63h-4.63c.1,1.48.8,2.42,1.93,2.42a3.12,3.12,0,0,0,1.92-.66l.46.71a4.09,4.09,0,0,1-2.48.81c-1.27,0-2.82-.93-2.82-3.65,0-2.2,1.22-3.57,2.87-3.57,1.81,0,2.79,1.42,2.79,3.4A3.74,3.74,0,0,1,139.77,105.63ZM137,102.54c-1,0-1.75.74-1.87,2.29h3.74C138.8,103.48,138.22,102.54,137,102.54Z"/><path class="cls-3" d="M142.79,108.91a3.92,3.92,0,0,1-2.45-.89l.59-.72a2.87,2.87,0,0,0,1.88.76c.95,0,1.4-.39,1.4-1.07s-.41-.88-1.63-1.41c-1.39-.59-2-1-2-2.13s.91-1.76,2.16-1.76a3.45,3.45,0,0,1,2.22.73l-.55.73a2.52,2.52,0,0,0-1.73-.62c-.73,0-1.15.36-1.15.86s.36.82,1.53,1.35,2.07,1,2.07,2.21S144,108.91,142.79,108.91Z"/><path class="cls-3" d="M152.57,108.91c-2.21,0-3.34-1.34-3.34-3.9V99.52h1V105c0,2,.76,3,2.36,3s2.23-1,2.23-3V99.52h1V105C155.88,107.55,154.79,108.91,152.57,108.91Z"/><path class="cls-3" d="M161,102.86a2,2,0,0,0-1-.26c-1,0-1.51.78-1.51,2.09v4.07h-1v-6.93h1v.86a2,2,0,0,1,1.72-1,2.6,2.6,0,0,1,1.08.17Z"/><path class="cls-3" d="M163.86,108.91a3.88,3.88,0,0,1-2.45-.89l.58-.72a2.91,2.91,0,0,0,1.89.76c1,0,1.4-.39,1.4-1.07s-.41-.88-1.64-1.41-2-1-2-2.13.91-1.76,2.16-1.76a3.45,3.45,0,0,1,2.22.73l-.55.73a2.54,2.54,0,0,0-1.73-.62c-.73,0-1.15.36-1.15.86s.35.82,1.53,1.35,2.07,1,2.07,2.21S165.06,108.91,163.86,108.91Z"/><path class="cls-3" d="M169.24,108.91a3.87,3.87,0,0,1-2.44-.89l.58-.72a2.87,2.87,0,0,0,1.89.76c.95,0,1.4-.39,1.4-1.07s-.41-.88-1.64-1.41c-1.39-.59-2-1-2-2.13s.91-1.76,2.17-1.76a3.45,3.45,0,0,1,2.22.73l-.56.73a2.52,2.52,0,0,0-1.73-.62c-.73,0-1.15.36-1.15.86s.36.82,1.53,1.35,2.08,1,2.08,2.21S170.44,108.91,169.24,108.91Z"/><path class="cls-3" d="M176.76,108.76v-.84a2.87,2.87,0,0,1-2.17,1,2,2,0,0,1-2.22-2.22c0-1.56,1.28-2.22,2.66-2.22a3.65,3.65,0,0,1,1.73.4v-.82a1.33,1.33,0,0,0-1.51-1.53,3.62,3.62,0,0,0-1.89.52l-.37-.8a5,5,0,0,1,2.33-.55c1.49,0,2.43.63,2.43,2.24v4.83Zm0-3.1a3.39,3.39,0,0,0-1.79-.4c-1,0-1.62.49-1.62,1.36a1.3,1.3,0,0,0,1.41,1.48,2.45,2.45,0,0,0,2-1v-1.4Z"/><path class="cls-3" d="M181.43,100.07c-.41,0-.72.15-.72.73v1h1.37v.83h-1.37v6.1h-1v-6.1h-.95v-.83h.95v-1a1.49,1.49,0,0,1,1.64-1.7,2.79,2.79,0,0,1,.87.11v.94A1.93,1.93,0,0,0,181.43,100.07Z"/><path class="cls-3" d="M153.83,36.62s20.83-1.13,32,11.23c7.32,8.12,7.57,15.24,7.57,15.24l-11,.25a34,34,0,0,0-5.52-14.42c-8.49-12-23.08-12.3-23.08-12.3"/><path class="cls-3" d="M20.63,69.64H30.68s2.13,11.19,10,19.26S54.87,99.68,54.87,99.68s-11.62.06-23.83-11A33.59,33.59,0,0,1,20.63,69.64"/><path class="cls-3" d="M103.44,64.78H97.2l-1.27,3.74H93.29l6-16.71h2.09l6,16.71h-2.63Zm-.71-2.24-2.38-7.31h0l-2.38,7.31Z"/><path class="cls-3" d="M108.91,56.62h2.35v7.09a2.61,2.61,0,0,0,.67,1.89,2.22,2.22,0,0,0,1.67.67,2.19,2.19,0,0,0,1.66-.67,2.6,2.6,0,0,0,.65-1.89V56.62h2.36v11.9h-2.36V67.25h0a3.74,3.74,0,0,1-3,1.41,4,4,0,0,1-2.63-1.08,3.74,3.74,0,0,1-1.3-3V56.62Z"/><path class="cls-3" d="M121.87,53h2.35v3.62h1.71v1.84h-1.71v6.93c0,.61.26.9.83.88h.88v2.25h-1.22a2.73,2.73,0,0,1-2.84-2.93V58.46h-1.18V56.62h1.18V53Z"/><path class="cls-3" d="M127.77,62.56a10.2,10.2,0,0,1,.31-2.89,4.14,4.14,0,0,1,1-1.67,4.42,4.42,0,0,1,1.35-1.06,5,5,0,0,1,2.2-.47,5.26,5.26,0,0,1,2.25.47,4.19,4.19,0,0,1,1.3,1.07,3.64,3.64,0,0,1,1,1.66,11.28,11.28,0,0,1,.28,2.89,10.91,10.91,0,0,1-.28,2.86,4,4,0,0,1-1,1.71,3.45,3.45,0,0,1-.55.52,2.69,2.69,0,0,1-.76.49,4.66,4.66,0,0,1-2.24.52,4.55,4.55,0,0,1-2.2-.52,4.5,4.5,0,0,1-1.36-1,4.63,4.63,0,0,1-1-1.71A9.92,9.92,0,0,1,127.77,62.56Zm7.31,0a10.25,10.25,0,0,0-.12-1.86,2.16,2.16,0,0,0-.46-1,1.73,1.73,0,0,0-.77-.63,2.51,2.51,0,0,0-1.13-.24,2.57,2.57,0,0,0-1.11.24,2,2,0,0,0-.79.63,2.7,2.7,0,0,0-.44,1,9,9,0,0,0-.14,1.84,8.74,8.74,0,0,0,.14,1.82,2.9,2.9,0,0,0,.44,1,2.77,2.77,0,0,0,.79.61,2.45,2.45,0,0,0,1.11.26,2.39,2.39,0,0,0,1.13-.26,2.22,2.22,0,0,0,.77-.61,2.35,2.35,0,0,0,.46-1A9.79,9.79,0,0,0,135.08,62.58Z"/><path class="cls-3" d="M53.24,83.24a2.82,2.82,0,0,0,.81,2.18,2.71,2.71,0,0,0,2,.76A3.5,3.5,0,0,0,58.6,85l1.7,1.48a5.45,5.45,0,0,1-4.22,1.92,6.14,6.14,0,0,1-1.8-.27,6.57,6.57,0,0,1-1.68-.94,4.66,4.66,0,0,1-1.21-1.86,7.39,7.39,0,0,1-.51-3,8.45,8.45,0,0,1,.44-2.93,5.17,5.17,0,0,1,1.13-1.88,4.23,4.23,0,0,1,1.57-1,4.91,4.91,0,0,1,5.09,1,5,5,0,0,1,1.43,3.69v2Zm4.95-2a3.08,3.08,0,0,0-.74-2.11,2.57,2.57,0,0,0-3.48,0,3.23,3.23,0,0,0-.73,2.11Z"/><path class="cls-3" d="M63.4,76.39h2.35v1.26h0a3.77,3.77,0,0,1,3-1.41,4,4,0,0,1,2.66,1,4.12,4.12,0,0,1,1.25,3.1v7.91H70.4v-7.1a2.55,2.55,0,0,0-.66-1.9,2.19,2.19,0,0,0-1.66-.67,2.24,2.24,0,0,0-1.67.67,2.55,2.55,0,0,0-.66,1.9v7.1H63.4Z"/><path class="cls-3" d="M76.35,72.77H78.7v3.62h1.71v1.83H78.7v6.94c0,.6.26.89.83.88h.88v2.25H79.19a2.77,2.77,0,0,1-2-.78,2.8,2.8,0,0,1-.81-2.16V78.22H75.17V76.39h1.18V72.77Z"/><path class="cls-3" d="M82.83,76.39h2.36v1.26h0a3.89,3.89,0,0,1,5.5-.5L89,79.22a2.46,2.46,0,0,0-1.55-.6,2.2,2.2,0,0,0-1.55.6,2.34,2.34,0,0,0-.74,1.89v7.18H82.84V76.39Z"/><path class="cls-3" d="M93.46,83.24a2.82,2.82,0,0,0,.81,2.18,2.68,2.68,0,0,0,2,.76A3.52,3.52,0,0,0,98.82,85l1.7,1.48a5.45,5.45,0,0,1-4.22,1.92,6.09,6.09,0,0,1-1.8-.27,4.18,4.18,0,0,1-.86-.4,4.47,4.47,0,0,1-.82-.54,4.66,4.66,0,0,1-1.21-1.86,7.39,7.39,0,0,1-.51-3,8.45,8.45,0,0,1,.44-2.93,5.17,5.17,0,0,1,1.13-1.88,4.23,4.23,0,0,1,1.57-1,4.84,4.84,0,0,1,1.69-.31,4.78,4.78,0,0,1,3.39,1.34,5,5,0,0,1,1.44,3.69v2Zm5-2a3.08,3.08,0,0,0-.74-2.11,2.57,2.57,0,0,0-3.48,0,3.23,3.23,0,0,0-.73,2.11Z"/><path class="cls-3" d="M103.61,76.39H106v1.24a4,4,0,0,1,3-1.39,3.62,3.62,0,0,1,3.14,1.56,3.07,3.07,0,0,1,.67,1.48,19.61,19.61,0,0,1,.16,3.07,19.38,19.38,0,0,1-.16,3,3.3,3.3,0,0,1-.67,1.5,3.48,3.48,0,0,1-1.27,1.1,3.89,3.89,0,0,1-1.87.45,3.24,3.24,0,0,1-1.62-.4,5,5,0,0,1-1.4-1V93.1h-2.36V76.39ZM108.28,86a2.41,2.41,0,0,0,1.32-.32,1.9,1.9,0,0,0,.69-.85,4.4,4.4,0,0,0,.3-1.2c0-.43,0-.87,0-1.32s0-.94,0-1.39a4.14,4.14,0,0,0-.3-1.2,1.75,1.75,0,0,0-.69-.85,2.58,2.58,0,0,0-1.32-.29A2.09,2.09,0,0,0,107,79a1.91,1.91,0,0,0-.72.87A4.77,4.77,0,0,0,106,81c0,.45-.07.9-.07,1.35s0,.84.07,1.26a4.77,4.77,0,0,0,.28,1.21,2,2,0,0,0,.72.88A2.09,2.09,0,0,0,108.28,86Z"/><path class="cls-3" d="M116,76.39h2.35v1.26h.05a3.89,3.89,0,0,1,5.5-.5l-1.71,2.07a2.46,2.46,0,0,0-1.55-.6,2.2,2.2,0,0,0-1.55.6,2.34,2.34,0,0,0-.74,1.89v7.18H116V76.39Z"/><path class="cls-3" d="M126.62,83.24a2.82,2.82,0,0,0,.81,2.18,2.68,2.68,0,0,0,2,.76A3.52,3.52,0,0,0,132,85l1.7,1.48a5.45,5.45,0,0,1-4.22,1.92,6.09,6.09,0,0,1-1.8-.27,6.57,6.57,0,0,1-1.68-.94,4.66,4.66,0,0,1-1.21-1.86,7.39,7.39,0,0,1-.51-3,8.45,8.45,0,0,1,.44-2.93,5.17,5.17,0,0,1,1.13-1.88,4.23,4.23,0,0,1,1.57-1,4.84,4.84,0,0,1,1.69-.31,4.78,4.78,0,0,1,3.39,1.34,5,5,0,0,1,1.44,3.69v2Zm4.95-2a3.08,3.08,0,0,0-.74-2.11,2.57,2.57,0,0,0-3.48,0,3.23,3.23,0,0,0-.73,2.11Z"/><path class="cls-3" d="M136.77,76.39h2.35v1.26h0a3.75,3.75,0,0,1,3-1.41,4,4,0,0,1,2.66,1,4.09,4.09,0,0,1,1.26,3.1v7.91h-2.36v-7.1a2.55,2.55,0,0,0-.65-1.9,2.19,2.19,0,0,0-1.66-.67,2.22,2.22,0,0,0-1.67.67,2.55,2.55,0,0,0-.67,1.9v7.1h-2.35Z"/><path class="cls-3" d="M151.36,83.24a2.82,2.82,0,0,0,.81,2.18,2.68,2.68,0,0,0,2,.76A3.52,3.52,0,0,0,156.72,85l1.7,1.48a5.45,5.45,0,0,1-4.22,1.92,6.09,6.09,0,0,1-1.8-.27,4.18,4.18,0,0,1-.86-.4,4.47,4.47,0,0,1-.82-.54,4.66,4.66,0,0,1-1.21-1.86,7.39,7.39,0,0,1-.51-3,8.45,8.45,0,0,1,.44-2.93,5.17,5.17,0,0,1,1.13-1.88,4.23,4.23,0,0,1,1.57-1,4.84,4.84,0,0,1,1.69-.31,4.78,4.78,0,0,1,3.39,1.34,5,5,0,0,1,1.44,3.69v2Zm4.95-2a3.08,3.08,0,0,0-.74-2.11,2.57,2.57,0,0,0-3.48,0,3.23,3.23,0,0,0-.73,2.11Z"/><path class="cls-3" d="M161.51,76.39h2.35v7.09a2.58,2.58,0,0,0,.67,1.88,2.23,2.23,0,0,0,1.67.68,2.19,2.19,0,0,0,1.66-.68,2.58,2.58,0,0,0,.65-1.88V76.39h2.35V88.28h-2.35V87h0a3.75,3.75,0,0,1-3,1.41,3.91,3.91,0,0,1-2.63-1.07,3.76,3.76,0,0,1-1.3-3Z"/><path class="cls-3" d="M174.33,76.39h2.35v1.26h0a3.89,3.89,0,0,1,5.5-.5l-1.71,2.07a2.46,2.46,0,0,0-1.55-.6,2.2,2.2,0,0,0-1.55.6,2.34,2.34,0,0,0-.74,1.89v7.18h-2.35V76.39Z"/><path class="cls-4" d="M36.88,30.81a5,5,0,0,1-3.86-1c-1.54-1.2-1.74-2.74-2.06-5.36s-.49-4.17.71-5.71a5,5,0,0,1,3.51-1.89,4.87,4.87,0,0,1,5.56,3.72L38,20.91a2.37,2.37,0,0,0-4.16-.75c-.43.64-.52,1.34-.2,4s.57,3.28,1.14,3.79a2.25,2.25,0,0,0,1.81.51,2.29,2.29,0,0,0,2.08-2.23l2.71-.33A4.88,4.88,0,0,1,36.88,30.81Z"/><path class="cls-4" d="M52.32,27.46a5.45,5.45,0,0,1-7.35.9c-1.54-1.21-1.74-2.75-2.06-5.37s-.49-4.17.71-5.7a5.43,5.43,0,0,1,7.35-.9c1.53,1.2,1.76,2.74,2.08,5.36S53.52,25.93,52.32,27.46Zm-3.09-9.15a2.25,2.25,0,0,0-1.81-.53,2.37,2.37,0,0,0-1.65.95c-.43.64-.5,1.31-.18,3.93s.55,3.24,1.12,3.76a2.32,2.32,0,0,0,1.83.54,2.25,2.25,0,0,0,1.62-1c.43-.64.53-1.3.21-3.92S49.8,18.82,49.23,18.31Z"/><path class="cls-4" d="M64.93,27.27l-6.46-7.76,1,8.43-2.68.32L55.14,14.53l2.39-.29L64,22l-1-8.41,2.68-.33L67.32,27Z"/><path class="cls-4" d="M78.83,25.58l-6.47-7.76,1,8.42-2.68.33L69,12.84l2.39-.29,6.46,7.74-1-8.4,2.67-.33,1.68,13.73Z"/><path class="cls-4" d="M84.61,24.87,82.93,11.15,92,10l.29,2.39-6.36.78.39,3.22,5.42-.66L92,18.16l-5.42.66L87,22.16l6.36-.78.29,2.39Z"/><path class="cls-4" d="M101.08,23a5,5,0,0,1-3.86-1c-1.53-1.2-1.74-2.75-2.06-5.37s-.49-4.17.72-5.7A5,5,0,0,1,99.38,9a4.87,4.87,0,0,1,5.56,3.73l-2.74.33A2.37,2.37,0,0,0,98,12.34c-.43.64-.52,1.33-.2,4s.58,3.27,1.15,3.79a2.21,2.21,0,0,0,1.8.5,2.29,2.29,0,0,0,2.08-2.23l2.72-.33A4.88,4.88,0,0,1,101.08,23Z"/><path class="cls-4" d="M112.28,10l1.38,11.33-2.68.33L109.6,10.32l-3.59.44-.29-2.39,9.85-1.2.29,2.39Z"/></svg>