<svg id="Calque_1" data-name="Calque 1" xmlns="http://www.w3.org/2000/svg" viewBox="0 0 214.02 124.48"><defs><style>.cls-1{fill:#433f3b;}.cls-2{fill:#ebe200;}.cls-3{fill:#1d1d1b;}.cls-4{fill:#fff;}</style></defs><title>logo-API-PAJEMPLOI-01</title><path class="cls-1" d="M205.51,124.48H8.5A8.69,8.69,0,0,1,0,115.66V20.2H205.51A8.7,8.7,0,0,1,214,29v86.64A8.7,8.7,0,0,1,205.51,124.48Z"/><path class="cls-2" d="M70.44,32.61l1.11,9.44-14-7.86L21.29,38.7,19.09,20a8.54,8.54,0,0,1,7.46-9.44L116,.06a8.52,8.52,0,0,1,9.43,7.45l2.12,18Z"/><path class="cls-3" d="M36.88,30.81a5,5,0,0,1-3.86-1c-1.54-1.2-1.74-2.74-2.06-5.36s-.49-4.17.71-5.71a5,5,0,0,1,3.51-1.89,4.87,4.87,0,0,1,5.56,3.72L38,20.91a2.37,2.37,0,0,0-4.16-.75c-.43.64-.52,1.34-.2,4s.57,3.28,1.14,3.79a2.25,2.25,0,0,0,1.81.51,2.29,2.29,0,0,0,2.08-2.23l2.71-.33A4.88,4.88,0,0,1,36.88,30.81Z"/><path class="cls-3" d="M52.32,27.46a5.45,5.45,0,0,1-7.35.9c-1.54-1.21-1.74-2.75-2.06-5.37s-.49-4.17.71-5.7a5.43,5.43,0,0,1,7.35-.9c1.53,1.2,1.76,2.74,2.08,5.36S53.52,25.93,52.32,27.46Zm-3.09-9.15a2.25,2.25,0,0,0-1.81-.53,2.37,2.37,0,0,0-1.65.95c-.43.64-.5,1.31-.18,3.93s.55,3.24,1.12,3.76a2.32,2.32,0,0,0,1.83.54,2.25,2.25,0,0,0,1.62-1c.43-.64.53-1.3.21-3.92S49.8,18.82,49.23,18.31Z"/><path class="cls-3" d="M64.93,27.27l-6.46-7.76,1,8.43-2.68.32L55.14,14.53l2.39-.29L64,22l-1-8.41,2.68-.33L67.32,27Z"/><path class="cls-3" d="M78.83,25.58l-6.47-7.76,1,8.42-2.68.33L69,12.84l2.39-.29,6.46,7.74-1-8.4,2.67-.33,1.68,13.73Z"/><path class="cls-3" d="M84.61,24.87,82.93,11.15,92,10l.29,2.39-6.36.78.39,3.22,5.42-.66L92,18.16l-5.42.66L87,22.16l6.36-.78.29,2.39Z"/><path class="cls-3" d="M101.08,23a5,5,0,0,1-3.86-1c-1.53-1.2-1.74-2.75-2.06-5.37s-.49-4.17.72-5.7A5,5,0,0,1,99.38,9a4.87,4.87,0,0,1,5.56,3.73l-2.74.33A2.37,2.37,0,0,0,98,12.34c-.43.64-.52,1.33-.2,4s.58,3.27,1.15,3.79a2.21,2.21,0,0,0,1.8.5,2.29,2.29,0,0,0,2.08-2.23l2.72-.33A4.88,4.88,0,0,1,101.08,23Z"/><path class="cls-3" d="M112.28,10l1.38,11.33-2.68.33L109.6,10.32l-3.59.44-.29-2.39,9.85-1.2.29,2.39Z"/><path class="cls-4" d="M149.14,39S170,37.9,181.21,50.29c7.34,8.14,7.59,15.28,7.59,15.28l-11,.25a34.17,34.17,0,0,0-5.54-14.46C163.77,39.32,149.14,39,149.14,39"/><path class="cls-4" d="M56.93,71.24H51.79v7.33H48.9V58.92h8.23c3.62,0,6.31,2.07,6.31,6.14S60.75,71.24,56.93,71.24Zm.14-9.54H51.79v6.76h5.28a3.06,3.06,0,0,0,3.37-3.4A3.09,3.09,0,0,0,57.07,61.7Z"/><path class="cls-4" d="M73.88,78.57V77.11a5.8,5.8,0,0,1-4,1.77c-2.39,0-5.11-1.35-5.11-5,0-3.29,2.52-4.78,5.86-4.78a8,8,0,0,1,3.29.57V68.6c0-1.6-1-2.5-2.78-2.5a7.42,7.42,0,0,0-3.85.93l-1.12-2.19a9.16,9.16,0,0,1,5.05-1.32c3.29,0,5.54,1.6,5.54,4.94V78.57Zm0-6.29a7.33,7.33,0,0,0-3.37-.65c-1.85,0-3,.85-3,2.19s.93,2.44,2.83,2.44a4.62,4.62,0,0,0,3.57-1.88Z"/><path class="cls-4" d="M77.52,84l-1-2.18c2.7-.76,3.09-1.32,3.09-3.85V63.83h2.89V77.89C82.52,81.6,81.59,83.14,77.52,84Zm3.57-22.06a1.87,1.87,0,1,1,1.85-1.85A1.87,1.87,0,0,1,81.09,61.92Z"/><path class="cls-4" d="M97.42,72.22H87.68c.31,2.84,1.91,4,3.71,4a5.11,5.11,0,0,0,3.2-1.18l1.71,1.86a6.86,6.86,0,0,1-5.08,1.94c-3.45,0-6.37-2.78-6.37-7.67s2.64-7.69,6.45-7.69c4.19,0,6.21,3.4,6.21,7.38A12.6,12.6,0,0,1,97.42,72.22Zm-6.31-6.09c-1.94,0-3.12,1.35-3.37,3.71h6.85C94.45,67.81,93.49,66.13,91.11,66.13Z"/><path class="cls-4" d="M116.84,78.57V70.23c0-3-.92-4-2.83-4s-2.84,1.37-2.84,3.76v8.62h-2.89V70.23c0-3-.92-4-2.83-4s-2.84,1.37-2.84,3.76v8.62H99.72V63.83h2.89v1.4a4.67,4.67,0,0,1,7.55.45,5.15,5.15,0,0,1,4.52-2.16c3.43,0,5.06,2.25,5.06,6.6v8.45Z"/><path class="cls-4" d="M129.08,78.88a5.23,5.23,0,0,1-3.71-1.69V82.5L122.51,84V63.83h2.86v1.4a5.62,5.62,0,0,1,3.84-1.71c3.18,0,5.68,2.3,5.68,7.92C134.89,76.49,132.13,78.88,129.08,78.88Zm-.4-12.69a4.52,4.52,0,0,0-3.34,1.88v6.2a4.72,4.72,0,0,0,3.45,1.94c2.08,0,3.21-1.57,3.21-4.69C132,67.81,130.82,66.19,128.68,66.19Z"/><path class="cls-4" d="M137.27,78.57V59.62l2.89-1.52V78.57Z"/><path class="cls-4" d="M149,78.88c-3.7,0-6.48-3.06-6.48-7.67,0-4.83,2.86-7.69,6.57-7.69s6.57,3,6.57,7.61C155.63,76,152.76,78.88,149,78.88Zm0-12.61c-2.19,0-3.53,1.94-3.53,4.86,0,3.23,1.48,5,3.67,5s3.63-2.21,3.63-4.91C152.71,68.21,151.27,66.27,148.94,66.27Z"/><path class="cls-4" d="M159.41,61.92a1.87,1.87,0,1,1,1.85-1.85A1.87,1.87,0,0,1,159.41,61.92ZM158,78.57V63.83h2.89V78.57Z"/><path class="cls-4" d="M22.37,73.61H32.45s2.13,11.23,10,19.31S56.7,103.73,56.7,103.73s-11.65.06-23.89-11A33.64,33.64,0,0,1,22.37,73.61"/><path class="cls-4" d="M69.56,105.67c-2.21,0-3.35-1.34-3.35-3.9V96.26h1v5.48c0,2,.77,3,2.37,3s2.24-1,2.24-3V96.26h1v5.48C72.88,104.31,71.79,105.67,69.56,105.67Z"/><path class="cls-4" d="M78.84,105.53v-4.07c0-1.49-.53-2.17-1.64-2.17s-1.72.65-1.72,2.17v4.07h-1v-7h1v.84a2.23,2.23,0,0,1,1.92-1c1.47,0,2.43.86,2.43,2.86v4.24Z"/><path class="cls-4" d="M86.05,105.67a4,4,0,0,1-2.45-.88l.58-.73a2.88,2.88,0,0,0,1.9.77c1,0,1.4-.4,1.4-1.08s-.41-.89-1.64-1.41c-1.39-.6-2-1-2-2.14s.91-1.77,2.17-1.77a3.4,3.4,0,0,1,2.22.74l-.55.73A2.51,2.51,0,0,0,86,99.28c-.73,0-1.15.35-1.15.86s.36.82,1.54,1.35,2.08,1,2.08,2.22S87.26,105.67,86.05,105.67Z"/><path class="cls-4" d="M94.79,102.39H90.15c.1,1.48.8,2.42,1.94,2.42a3.14,3.14,0,0,0,1.92-.66l.46.72a4.16,4.16,0,0,1-2.49.8c-1.27,0-2.82-.93-2.82-3.65,0-2.21,1.22-3.59,2.87-3.59,1.82,0,2.8,1.43,2.8,3.42A3.74,3.74,0,0,1,94.79,102.39ZM92,99.29c-1,0-1.75.74-1.87,2.29H93.9C93.82,100.23,93.24,99.29,92,99.29Z"/><path class="cls-4" d="M99.58,99.61a2,2,0,0,0-1-.26c-1,0-1.51.77-1.51,2.1v4.08H96v-7h1v.86a2,2,0,0,1,1.73-1,2.77,2.77,0,0,1,1.08.17Z"/><path class="cls-4" d="M103.56,105.53h-.87l-2.49-7h1.06L103,104l.11.34.11-.34L105,98.58h1Z"/><path class="cls-4" d="M107.61,97.33a.71.71,0,1,1,.69-.7A.71.71,0,0,1,107.61,97.33Zm-.51,8.2v-7h1v7Z"/><path class="cls-4" d="M113.93,100a2.33,2.33,0,0,0-1.67-.7c-1.09,0-1.92,1-1.92,2.71s.73,2.81,2,2.81a2.18,2.18,0,0,0,1.6-.74l.6.64a3,3,0,0,1-2.24,1c-1.52,0-2.93-1.16-2.93-3.58,0-2.57,1.54-3.66,3-3.66a3.26,3.26,0,0,1,2.2.82Z"/><path class="cls-4" d="M120.64,102.39H116c.09,1.48.8,2.42,1.94,2.42a3.14,3.14,0,0,0,1.92-.66l.46.72a4.18,4.18,0,0,1-2.49.8c-1.27,0-2.82-.93-2.82-3.65,0-2.21,1.22-3.59,2.87-3.59,1.82,0,2.8,1.43,2.8,3.42A3.74,3.74,0,0,1,120.64,102.39Zm-2.77-3.1c-1,0-1.75.74-1.87,2.29h3.75C119.67,100.23,119.09,99.29,117.87,99.29Z"/><path class="cls-4" d="M128.88,105.53v-.85a2.77,2.77,0,0,1-2.09,1c-1.39,0-2.49-1.06-2.49-3.51s1.16-3.73,2.62-3.73a2.47,2.47,0,0,1,2,.93V96.43l1-.56v9.66Zm0-5.19a2.25,2.25,0,0,0-1.88-1c-1.15,0-1.72,1-1.72,2.86s.66,2.66,1.76,2.66a2.38,2.38,0,0,0,1.84-1Z"/><path class="cls-4" d="M136.68,102.39H132c.09,1.48.8,2.42,1.94,2.42a3.14,3.14,0,0,0,1.92-.66l.46.72a4.18,4.18,0,0,1-2.49.8c-1.27,0-2.82-.93-2.82-3.65,0-2.21,1.22-3.59,2.87-3.59,1.82,0,2.8,1.43,2.8,3.42A3.74,3.74,0,0,1,136.68,102.39Zm-2.77-3.1c-1,0-1.75.74-1.87,2.29h3.75C135.71,100.23,135.13,99.29,133.91,99.29Z"/><path class="cls-4" d="M139.71,105.67a3.93,3.93,0,0,1-2.45-.88l.58-.73a2.85,2.85,0,0,0,1.89.77c1,0,1.4-.4,1.4-1.08s-.4-.89-1.64-1.41c-1.39-.6-2-1-2-2.14s.92-1.77,2.17-1.77a3.41,3.41,0,0,1,2.23.74l-.56.73a2.47,2.47,0,0,0-1.73-.62c-.73,0-1.15.35-1.15.86s.35.82,1.53,1.35,2.08,1,2.08,2.22S140.91,105.67,139.71,105.67Z"/><path class="cls-4" d="M149.51,105.67c-2.21,0-3.35-1.34-3.35-3.9V96.26h1v5.48c0,2,.77,3,2.37,3s2.23-1,2.23-3V96.26h1v5.48C152.84,104.31,151.74,105.67,149.51,105.67Z"/><path class="cls-4" d="M158,99.61a1.92,1.92,0,0,0-1-.26c-1,0-1.51.77-1.51,2.1v4.08h-1v-7h1v.86a2,2,0,0,1,1.72-1,2.8,2.8,0,0,1,1.09.17Z"/><path class="cls-4" d="M160.83,105.67a4,4,0,0,1-2.45-.88l.58-.73a2.88,2.88,0,0,0,1.9.77c.95,0,1.4-.4,1.4-1.08s-.41-.89-1.64-1.41c-1.39-.6-2-1-2-2.14s.92-1.77,2.18-1.77a3.4,3.4,0,0,1,2.22.74l-.56.73a2.47,2.47,0,0,0-1.73-.62c-.73,0-1.15.35-1.15.86s.36.82,1.53,1.35,2.08,1,2.08,2.22S162,105.67,160.83,105.67Z"/><path class="cls-4" d="M166.23,105.67a4,4,0,0,1-2.45-.88l.58-.73a2.88,2.88,0,0,0,1.9.77c1,0,1.4-.4,1.4-1.08s-.41-.89-1.64-1.41c-1.39-.6-2-1-2-2.14s.91-1.77,2.17-1.77a3.4,3.4,0,0,1,2.22.74l-.56.73a2.47,2.47,0,0,0-1.73-.62c-.73,0-1.15.35-1.15.86s.36.82,1.53,1.35c1.32.6,2.08,1,2.08,2.22S167.44,105.67,166.23,105.67Z"/><path class="cls-4" d="M173.76,105.53v-.85a2.85,2.85,0,0,1-2.17,1,2,2,0,0,1-2.22-2.22c0-1.56,1.28-2.23,2.66-2.23a3.77,3.77,0,0,1,1.73.4v-.82a1.34,1.34,0,0,0-1.51-1.54,3.65,3.65,0,0,0-1.89.53L170,99a4.86,4.86,0,0,1,2.33-.56c1.5,0,2.44.63,2.44,2.25v4.85Zm0-3.12A3.38,3.38,0,0,0,172,102c-1,0-1.63.49-1.63,1.36a1.31,1.31,0,0,0,1.42,1.49,2.44,2.44,0,0,0,2-1.05Z"/><path class="cls-4" d="M178.45,96.82c-.41,0-.72.14-.72.72v1h1.37v.83h-1.37v6.12h-1V99.41h-1v-.83h1v-1a1.49,1.49,0,0,1,1.64-1.71,2.74,2.74,0,0,1,.87.12V97A1.9,1.9,0,0,0,178.45,96.82Z"/></svg>