<svg width="217" height="127" viewBox="0 0 217 127" fill="none" xmlns="http://www.w3.org/2000/svg">
<rect x="1" y="1" width="215" height="125" rx="10" fill="white"/>
<path d="M1 56H216V116C216 121.523 211.523 126 206 126H11C5.47716 126 1 121.523 1 116V56Z" fill="#F66775"/>
<path fill-rule="evenodd" clip-rule="evenodd" d="M21 25.6266C21 28.0222 22.9689 29.9641 25.3978 29.9641C27.8267 29.9641 29.7956 28.0222 29.7956 25.6266C29.7956 23.231 27.8267 21.2891 25.3978 21.2891C22.9689 21.2891 21 23.231 21 25.6266Z" fill="#1ECAD3"/>
<path fill-rule="evenodd" clip-rule="evenodd" d="M29.7617 29.9648H38.4922C38.4922 34.7561 34.5834 38.6407 29.7617 38.6407V29.9648Z" fill="#90B3E6"/>
<path fill-rule="evenodd" clip-rule="evenodd" d="M38.4922 21.2891V29.9641H29.7617C29.7617 25.1728 33.6705 21.2891 38.4922 21.2891Z" fill="#0071CE"/>
<path fill-rule="evenodd" clip-rule="evenodd" d="M29.7617 29.9648H21.0312C21.0312 34.7561 24.94 38.6407 29.7617 38.6407V29.9648Z" fill="#D0DDF4"/>
<path fill-rule="evenodd" clip-rule="evenodd" d="M74.8913 26.8365C76.4307 26.8365 77.8213 27.1546 78.69 27.7178V29.9215H78.5902C77.7964 29.1131 76.5546 28.6975 74.9412 28.6975C73.4517 28.6975 72.4833 29.3828 72.4833 30.4109C72.4833 31.2438 73.1042 31.6357 75.0409 31.7333C78.2178 31.9046 79.3848 32.9573 79.3848 35.2101C79.3848 37.4138 77.6227 38.7853 74.7924 38.7853C72.8557 38.7853 71.3413 38.3688 70.3737 37.5851V35.3331H70.4726C71.4161 36.3857 72.8557 36.9243 74.7176 36.9243C76.3069 36.9243 77.2994 36.2628 77.2994 35.2101C77.2994 34.2796 76.6543 33.8394 74.5688 33.7164C71.5158 33.5205 70.3987 32.5662 70.3987 30.4847C70.3987 28.3056 72.1858 26.8365 74.8913 26.8365ZM85.9876 26.8365C87.5269 26.8365 88.9175 27.1546 89.7862 27.7178V29.9215H89.6864C88.8926 29.1131 87.6508 28.6975 86.0374 28.6975C84.5479 28.6975 83.5796 29.3828 83.5796 30.4109C83.5796 31.2438 84.2005 31.6357 86.1372 31.7333C89.3141 31.9046 90.4811 32.9573 90.4811 35.2101C90.4811 37.4138 88.7189 38.7853 85.8886 38.7853C83.9519 38.7853 82.4383 38.3688 81.4699 37.5851V35.3331H81.5689C82.5123 36.3857 83.9519 36.9243 85.8138 36.9243C87.4031 36.9243 88.3956 36.2628 88.3956 35.2101C88.3956 34.2796 87.7505 33.8394 85.665 33.7164C82.6112 33.5205 81.4949 32.5662 81.4949 30.4847C81.4949 28.3056 83.282 26.8365 85.9876 26.8365ZM98.3501 26.8364C100.386 26.8364 101.974 27.6202 102.844 28.9179H102.893L102.967 27.0815H104.755V38.5401H102.967L102.893 36.7283H102.844C101.974 38.0015 100.386 38.7852 98.3501 38.7852C94.9738 38.7852 92.5408 36.2873 92.5408 32.8104C92.5408 29.3336 94.9738 26.8364 98.3501 26.8364ZM46.3933 21.4174V31.9883C46.3933 34.4442 48.4193 36.4424 50.9093 36.4424C53.3994 36.4424 55.4253 34.4442 55.4253 31.9883V21.4269H57.7835V31.9883C57.7835 35.7269 54.6999 38.7682 50.9093 38.7682C47.1188 38.7682 44.0352 35.7269 44.0352 31.9883V21.4174H46.3933ZM66.8745 26.8367C67.6434 26.8367 68.2393 27.0319 68.6366 27.277V29.3585H68.5377C68.0407 29.0158 67.4206 28.8199 66.7249 28.8199C64.4906 28.8199 63.4233 30.3374 63.4233 33.3248V38.5404H61.3137V27.0811H63.1008L63.1507 28.9174H63.1997C63.8954 27.5467 65.1115 26.8367 66.8745 26.8367ZM113.169 21.4004C114.138 21.4004 114.957 21.5717 115.453 21.8168V23.7754H115.354C114.858 23.4573 114.138 23.2614 113.468 23.2614C112.152 23.2614 111.407 24.0451 111.407 25.5142V27.326H115.131V29.1378H111.407V38.5403H109.272V29.1378H107.137V27.326H109.272V25.465C109.272 22.8695 110.662 21.4004 113.169 21.4004ZM98.6976 28.6974C96.3145 28.6974 94.6762 30.3862 94.6762 32.8104C94.6762 35.2346 96.3145 36.9242 98.6976 36.9242C101.056 36.9242 102.719 35.2346 102.719 32.8104C102.719 30.3862 101.056 28.6974 98.6976 28.6974Z" fill="#1A428A"/>
<g opacity="0.8">
<path d="M53.6 112.21C52.928 112.21 52.2887 112.093 51.682 111.86C51.0847 111.627 50.5527 111.291 50.086 110.852C49.6287 110.404 49.2647 109.863 48.994 109.228C48.7233 108.584 48.588 107.856 48.588 107.044C48.588 106.232 48.728 105.509 49.008 104.874C49.288 104.23 49.6567 103.689 50.114 103.25C50.5807 102.802 51.1127 102.461 51.71 102.228C52.3167 101.985 52.942 101.864 53.586 101.864C54.2207 101.864 54.7853 101.953 55.28 102.13C55.784 102.298 56.2227 102.531 56.596 102.83C56.9693 103.119 57.2773 103.46 57.52 103.852C57.7627 104.235 57.94 104.645 58.052 105.084L56.47 105.616C56.3953 105.317 56.2787 105.037 56.12 104.776C55.9707 104.505 55.7747 104.272 55.532 104.076C55.2987 103.88 55.0187 103.726 54.692 103.614C54.3747 103.502 54.006 103.446 53.586 103.446C53.1753 103.446 52.774 103.521 52.382 103.67C51.99 103.819 51.64 104.043 51.332 104.342C51.024 104.641 50.7767 105.014 50.59 105.462C50.4033 105.91 50.31 106.437 50.31 107.044C50.31 107.623 50.3987 108.136 50.576 108.584C50.7627 109.023 51.01 109.391 51.318 109.69C51.626 109.989 51.976 110.217 52.368 110.376C52.7693 110.525 53.18 110.6 53.6 110.6C54.02 110.6 54.3933 110.539 54.72 110.418C55.0467 110.297 55.3313 110.133 55.574 109.928C55.8167 109.723 56.0173 109.489 56.176 109.228C56.344 108.967 56.47 108.696 56.554 108.416L58.094 108.92C57.982 109.34 57.8047 109.751 57.562 110.152C57.3193 110.544 57.0067 110.894 56.624 111.202C56.2507 111.501 55.812 111.743 55.308 111.93C54.804 112.117 54.2347 112.21 53.6 112.21ZM62.4093 110.754C62.6613 110.754 62.8993 110.707 63.1233 110.614C63.3566 110.521 63.5619 110.385 63.7393 110.208C63.9166 110.021 64.0566 109.793 64.1593 109.522C64.2619 109.251 64.3133 108.939 64.3133 108.584C64.3133 108.229 64.2619 107.921 64.1593 107.66C64.0566 107.389 63.9166 107.165 63.7393 106.988C63.5619 106.801 63.3566 106.666 63.1233 106.582C62.8993 106.489 62.6613 106.442 62.4093 106.442C62.1573 106.442 61.9146 106.489 61.6813 106.582C61.4573 106.666 61.2566 106.801 61.0793 106.988C60.9113 107.165 60.7713 107.389 60.6593 107.66C60.5566 107.921 60.5053 108.229 60.5053 108.584C60.5053 108.939 60.5566 109.251 60.6593 109.522C60.7713 109.793 60.9113 110.021 61.0793 110.208C61.2566 110.385 61.4573 110.521 61.6813 110.614C61.9146 110.707 62.1573 110.754 62.4093 110.754ZM62.4093 104.972C62.9226 104.972 63.3939 105.065 63.8233 105.252C64.2619 105.429 64.6353 105.681 64.9433 106.008C65.2606 106.325 65.5079 106.703 65.6853 107.142C65.8626 107.581 65.9513 108.061 65.9513 108.584C65.9513 109.107 65.8626 109.592 65.6853 110.04C65.5079 110.479 65.2606 110.861 64.9433 111.188C64.6353 111.505 64.2619 111.757 63.8233 111.944C63.3939 112.121 62.9226 112.21 62.4093 112.21C61.9053 112.21 61.4339 112.121 60.9953 111.944C60.5659 111.757 60.1926 111.505 59.8753 111.188C59.5673 110.861 59.3246 110.479 59.1473 110.04C58.9699 109.592 58.8813 109.107 58.8813 108.584C58.8813 108.061 58.9699 107.581 59.1473 107.142C59.3246 106.703 59.5673 106.325 59.8753 106.008C60.1926 105.681 60.5659 105.429 60.9953 105.252C61.4339 105.065 61.9053 104.972 62.4093 104.972ZM69.1447 112H67.5207V105.182H69.1027V106.092C69.3267 105.7 69.6207 105.42 69.9847 105.252C70.358 105.075 70.736 104.986 71.1187 104.986C71.5387 104.986 71.9027 105.056 72.2107 105.196C72.5187 105.336 72.7707 105.532 72.9667 105.784C73.172 106.027 73.326 106.311 73.4287 106.638C73.5314 106.965 73.5827 107.315 73.5827 107.688V112H71.9587V107.968C71.9587 107.548 71.8514 107.193 71.6367 106.904C71.4314 106.605 71.072 106.456 70.5587 106.456C70.092 106.456 69.7374 106.615 69.4947 106.932C69.2614 107.24 69.1447 107.618 69.1447 108.066V112ZM77.1838 112H75.5598V105.182H77.1418V106.092C77.3658 105.7 77.6598 105.42 78.0238 105.252C78.3971 105.075 78.7751 104.986 79.1578 104.986C79.5778 104.986 79.9418 105.056 80.2498 105.196C80.5578 105.336 80.8098 105.532 81.0058 105.784C81.2111 106.027 81.3651 106.311 81.4678 106.638C81.5704 106.965 81.6218 107.315 81.6218 107.688V112H79.9978V107.968C79.9978 107.548 79.8904 107.193 79.6758 106.904C79.4704 106.605 79.1111 106.456 78.5978 106.456C78.1311 106.456 77.7764 106.615 77.5338 106.932C77.3004 107.24 77.1838 107.618 77.1838 108.066V112ZM88.0788 107.842C88.0695 107.646 88.0275 107.459 87.9528 107.282C87.8875 107.095 87.7848 106.932 87.6448 106.792C87.5048 106.652 87.3322 106.54 87.1268 106.456C86.9215 106.372 86.6788 106.33 86.3988 106.33C86.1468 106.33 85.9182 106.377 85.7128 106.47C85.5168 106.554 85.3488 106.671 85.2088 106.82C85.0688 106.96 84.9568 107.119 84.8728 107.296C84.7982 107.473 84.7515 107.655 84.7328 107.842H88.0788ZM89.6328 110.054C89.5395 110.353 89.4042 110.633 89.2268 110.894C89.0495 111.155 88.8302 111.384 88.5688 111.58C88.3075 111.776 88.0088 111.93 87.6728 112.042C87.3368 112.154 86.9635 112.21 86.5528 112.21C86.0955 112.21 85.6522 112.131 85.2228 111.972C84.8028 111.804 84.4342 111.566 84.1168 111.258C83.7995 110.941 83.5428 110.558 83.3468 110.11C83.1602 109.653 83.0668 109.135 83.0668 108.556C83.0668 108.015 83.1555 107.525 83.3328 107.086C83.5195 106.647 83.7668 106.274 84.0748 105.966C84.3828 105.649 84.7375 105.406 85.1388 105.238C85.5402 105.061 85.9555 104.972 86.3848 104.972C86.9075 104.972 87.3742 105.056 87.7848 105.224C88.2048 105.392 88.5548 105.63 88.8348 105.938C89.1242 106.246 89.3435 106.619 89.4928 107.058C89.6422 107.487 89.7168 107.973 89.7168 108.514C89.7168 108.645 89.7122 108.761 89.7028 108.864C89.6935 108.957 89.6842 109.013 89.6748 109.032H84.6908C84.7002 109.293 84.7562 109.531 84.8588 109.746C84.9615 109.961 85.0968 110.147 85.2648 110.306C85.4328 110.465 85.6242 110.591 85.8388 110.684C86.0628 110.768 86.3008 110.81 86.5528 110.81C87.0475 110.81 87.4255 110.698 87.6868 110.474C87.9575 110.241 88.1488 109.956 88.2608 109.62L89.6328 110.054ZM94.2368 106.47C93.9848 106.47 93.7468 106.517 93.5228 106.61C93.2988 106.703 93.0981 106.839 92.9208 107.016C92.7528 107.193 92.6174 107.413 92.5148 107.674C92.4121 107.935 92.3608 108.239 92.3608 108.584C92.3608 108.929 92.4121 109.237 92.5148 109.508C92.6174 109.769 92.7528 109.993 92.9208 110.18C93.0981 110.357 93.3034 110.493 93.5368 110.586C93.7701 110.679 94.0128 110.726 94.2648 110.726C94.5354 110.726 94.7688 110.684 94.9648 110.6C95.1608 110.516 95.3241 110.413 95.4548 110.292C95.5948 110.161 95.7068 110.026 95.7908 109.886C95.8748 109.737 95.9354 109.597 95.9728 109.466L97.4008 109.984C97.3168 110.245 97.1908 110.511 97.0228 110.782C96.8548 111.043 96.6401 111.281 96.3788 111.496C96.1268 111.711 95.8234 111.883 95.4688 112.014C95.1141 112.145 94.7128 112.21 94.2648 112.21C93.7608 112.21 93.2941 112.121 92.8648 111.944C92.4354 111.757 92.0621 111.501 91.7448 111.174C91.4368 110.847 91.1894 110.465 91.0028 110.026C90.8254 109.578 90.7368 109.097 90.7368 108.584C90.7368 108.061 90.8254 107.581 91.0028 107.142C91.1801 106.694 91.4274 106.311 91.7448 105.994C92.0621 105.667 92.4308 105.415 92.8508 105.238C93.2801 105.061 93.7374 104.972 94.2228 104.972C94.6801 104.972 95.0861 105.037 95.4408 105.168C95.7954 105.299 96.1034 105.471 96.3648 105.686C96.6261 105.891 96.8361 106.129 96.9948 106.4C97.1628 106.671 97.2794 106.941 97.3448 107.212L95.8888 107.744C95.8514 107.595 95.7908 107.445 95.7068 107.296C95.6321 107.137 95.5248 106.997 95.3848 106.876C95.2541 106.755 95.0954 106.657 94.9088 106.582C94.7221 106.507 94.4981 106.47 94.2368 106.47ZM100.901 105.182H102.315V106.624H100.901V109.788C100.901 110.087 100.971 110.306 101.111 110.446C101.251 110.577 101.47 110.642 101.769 110.642C101.881 110.642 101.993 110.637 102.105 110.628C102.217 110.609 102.292 110.595 102.329 110.586V111.93C102.282 111.949 102.18 111.977 102.021 112.014C101.862 112.061 101.634 112.084 101.335 112.084C100.7 112.084 100.201 111.907 99.837 111.552C99.473 111.197 99.291 110.698 99.291 110.054V106.624H98.031V105.182H98.381C98.745 105.182 99.011 105.079 99.179 104.874C99.347 104.669 99.431 104.417 99.431 104.118V103.096H100.901V105.182Z" fill="#212529"/>
<path d="M25.1953 104.068C24.9058 104.068 24.6711 104.302 24.6711 104.592C24.6711 104.881 24.9058 105.116 25.1953 105.116V104.068ZM35.3509 104.962C35.5556 104.758 35.5556 104.426 35.3509 104.221L32.015 100.885C31.8103 100.68 31.4784 100.68 31.2737 100.885C31.0689 101.09 31.0689 101.422 31.2737 101.627L34.2389 104.592L31.2737 107.557C31.0689 107.762 31.0689 108.094 31.2737 108.298C31.4784 108.503 31.8103 108.503 32.015 108.298L35.3509 104.962ZM25.1953 105.116H34.9803V104.068H25.1953V105.116Z" fill="#212529"/>
<path d="M34.9803 111.407C35.2698 111.407 35.5045 111.172 35.5045 110.883C35.5045 110.593 35.2698 110.359 34.9803 110.359V111.407ZM24.8247 110.512C24.6199 110.717 24.6199 111.049 24.8247 111.253L28.1606 114.589C28.3653 114.794 28.6972 114.794 28.9019 114.589C29.1066 114.385 29.1066 114.053 28.9019 113.848L25.9366 110.883L28.9019 107.918C29.1066 107.713 29.1066 107.381 28.9019 107.176C28.6972 106.971 28.3653 106.971 28.1606 107.176L24.8247 110.512ZM34.9803 110.359H25.1953V111.407H34.9803V110.359Z" fill="#212529"/>
</g>
<path d="M31.08 82.04H24.8L23.3 86H21.2L26.84 71.82H29.1L34.74 86H32.62L31.08 82.04ZM25.5 80.22H30.38L27.92 73.86L25.5 80.22ZM42.3775 84.84C42.1108 85.3467 41.7108 85.72 41.1775 85.96C40.6442 86.1867 40.0975 86.3 39.5375 86.3C38.9775 86.3 38.4708 86.2 38.0175 86C37.5775 85.8 37.2042 85.5267 36.8975 85.18C36.5908 84.8333 36.3508 84.4267 36.1775 83.96C36.0175 83.4933 35.9375 82.9867 35.9375 82.44V76.38H37.8175V82.16C37.8175 82.4933 37.8575 82.8133 37.9375 83.12C38.0175 83.4133 38.1442 83.6733 38.3175 83.9C38.4908 84.1267 38.7108 84.3067 38.9775 84.44C39.2575 84.5733 39.5975 84.64 39.9975 84.64C40.7575 84.64 41.3242 84.4133 41.6975 83.96C42.0842 83.5067 42.2775 82.9133 42.2775 82.18V76.38H44.1575V84.22C44.1575 84.6067 44.1642 84.96 44.1775 85.28C44.2042 85.5867 44.2308 85.8267 44.2575 86H42.4575C42.4308 85.8933 42.4108 85.7267 42.3975 85.5C42.3842 85.26 42.3775 85.04 42.3775 84.84ZM49.8856 76.38H51.9656V78.08H49.8856V83.08C49.8856 83.52 49.9856 83.8533 50.1856 84.08C50.3856 84.2933 50.7323 84.4 51.2256 84.4C51.3456 84.4 51.479 84.3933 51.6256 84.38C51.7723 84.3667 51.8856 84.3467 51.9656 84.32V85.92C51.8856 85.9467 51.7323 85.98 51.5056 86.02C51.279 86.0733 51.0056 86.1 50.6856 86.1C49.859 86.1 49.2056 85.8667 48.7256 85.4C48.2456 84.92 48.0056 84.24 48.0056 83.36V78.08H46.1656V76.38H46.6856C47.2056 76.38 47.579 76.24 47.8056 75.96C48.0456 75.68 48.1656 75.3267 48.1656 74.9V73.34H49.8856V76.38ZM58.4973 84.62C58.8973 84.62 59.2773 84.5467 59.6373 84.4C59.9973 84.2533 60.3173 84.0333 60.5973 83.74C60.8773 83.4467 61.0973 83.0867 61.2573 82.66C61.4173 82.2333 61.4973 81.74 61.4973 81.18C61.4973 80.62 61.4173 80.1333 61.2573 79.72C61.0973 79.2933 60.8773 78.9333 60.5973 78.64C60.3173 78.3467 59.9973 78.1267 59.6373 77.98C59.2773 77.8333 58.8973 77.76 58.4973 77.76C58.0973 77.76 57.7173 77.8333 57.3573 77.98C56.9973 78.1267 56.6773 78.3467 56.3973 78.64C56.1173 78.9333 55.8973 79.2933 55.7373 79.72C55.5773 80.1333 55.4973 80.62 55.4973 81.18C55.4973 81.74 55.5773 82.2333 55.7373 82.66C55.8973 83.0867 56.1173 83.4467 56.3973 83.74C56.6773 84.0333 56.9973 84.2533 57.3573 84.4C57.7173 84.5467 58.0973 84.62 58.4973 84.62ZM58.4973 76.08C59.2173 76.08 59.8773 76.2133 60.4773 76.48C61.0773 76.7333 61.5973 77.0867 62.0373 77.54C62.4773 77.9933 62.8173 78.5333 63.0573 79.16C63.2973 79.7733 63.4173 80.4467 63.4173 81.18C63.4173 81.9133 63.2973 82.5933 63.0573 83.22C62.8173 83.8467 62.4773 84.3867 62.0373 84.84C61.5973 85.2933 61.0773 85.6533 60.4773 85.92C59.8773 86.1733 59.2173 86.3 58.4973 86.3C57.7773 86.3 57.1173 86.1733 56.5173 85.92C55.9173 85.6533 55.3973 85.2933 54.9573 84.84C54.5173 84.3867 54.1773 83.8467 53.9373 83.22C53.6973 82.5933 53.5773 81.9133 53.5773 81.18C53.5773 80.4467 53.6973 79.7733 53.9373 79.16C54.1773 78.5333 54.5173 77.9933 54.9573 77.54C55.3973 77.0867 55.9173 76.7333 56.5173 76.48C57.1173 76.2133 57.7773 76.08 58.4973 76.08ZM77.3027 80.2C77.276 79.5067 77.0427 78.9267 76.6027 78.46C76.1627 77.98 75.516 77.74 74.6627 77.74C74.2627 77.74 73.9027 77.8133 73.5827 77.96C73.276 78.0933 73.0093 78.2733 72.7827 78.5C72.5693 78.7267 72.396 78.9933 72.2627 79.3C72.1427 79.5933 72.0693 79.8933 72.0427 80.2H77.3027ZM79.2027 83.26C79.0693 83.6867 78.8693 84.0867 78.6027 84.46C78.3493 84.82 78.036 85.14 77.6627 85.42C77.3027 85.6867 76.8893 85.9 76.4227 86.06C75.956 86.22 75.4427 86.3 74.8827 86.3C74.2427 86.3 73.6293 86.1867 73.0427 85.96C72.456 85.7333 71.936 85.4 71.4827 84.96C71.0427 84.52 70.6893 83.98 70.4227 83.34C70.1693 82.7 70.0427 81.9733 70.0427 81.16C70.0427 80.4 70.1693 79.7133 70.4227 79.1C70.676 78.4733 71.0093 77.94 71.4227 77.5C71.8493 77.0467 72.3427 76.7 72.9027 76.46C73.4627 76.2067 74.0427 76.08 74.6427 76.08C75.3893 76.08 76.0493 76.2067 76.6227 76.46C77.196 76.7 77.676 77.04 78.0627 77.48C78.4493 77.92 78.7427 78.4533 78.9427 79.08C79.156 79.6933 79.2627 80.3733 79.2627 81.12C79.2627 81.24 79.256 81.3533 79.2427 81.46C79.2427 81.5667 79.236 81.6533 79.2227 81.72H71.9827C71.996 82.1467 72.076 82.54 72.2227 82.9C72.3693 83.26 72.5693 83.5733 72.8227 83.84C73.0893 84.0933 73.396 84.2933 73.7427 84.44C74.1027 84.5733 74.4827 84.64 74.8827 84.64C75.6693 84.64 76.2693 84.4533 76.6827 84.08C77.096 83.7067 77.396 83.2467 77.5827 82.7L79.2027 83.26ZM83.5425 86H81.6625V76.38H83.5025V77.76C83.8492 77.16 84.2892 76.7333 84.8225 76.48C85.3558 76.2267 85.9025 76.1 86.4625 76.1C87.0358 76.1 87.5358 76.2 87.9625 76.4C88.4025 76.5867 88.7625 76.8533 89.0425 77.2C89.3358 77.5333 89.5492 77.9333 89.6825 78.4C89.8292 78.8667 89.9025 79.3667 89.9025 79.9V86H88.0225V80.22C88.0225 79.8867 87.9825 79.5733 87.9025 79.28C87.8358 78.9867 87.7092 78.7333 87.5225 78.52C87.3492 78.2933 87.1225 78.12 86.8425 78C86.5625 77.8667 86.2092 77.8 85.7825 77.8C85.0492 77.8 84.4892 78.06 84.1025 78.58C83.7292 79.0867 83.5425 79.7067 83.5425 80.44V86ZM95.413 76.38H97.493V78.08H95.413V83.08C95.413 83.52 95.513 83.8533 95.713 84.08C95.913 84.2933 96.2596 84.4 96.753 84.4C96.873 84.4 97.0063 84.3933 97.153 84.38C97.2996 84.3667 97.413 84.3467 97.493 84.32V85.92C97.413 85.9467 97.2596 85.98 97.033 86.02C96.8063 86.0733 96.533 86.1 96.213 86.1C95.3863 86.1 94.733 85.8667 94.253 85.4C93.773 84.92 93.533 84.24 93.533 83.36V78.08H91.693V76.38H92.213C92.733 76.38 93.1063 76.24 93.333 75.96C93.573 75.68 93.693 75.3267 93.693 74.9V73.34H95.413V76.38ZM105.147 78.28C104.867 78.24 104.594 78.22 104.327 78.22C103.527 78.22 102.887 78.4467 102.407 78.9C101.927 79.3533 101.687 80.1133 101.687 81.18V86H99.807V76.38H101.647V78.06C101.82 77.6867 102.02 77.3867 102.247 77.16C102.487 76.92 102.734 76.7333 102.987 76.6C103.24 76.4533 103.5 76.3533 103.767 76.3C104.034 76.2467 104.287 76.22 104.527 76.22C104.66 76.22 104.78 76.2267 104.887 76.24C105.007 76.2533 105.094 76.2667 105.147 76.28V78.28ZM113.533 80.2C113.506 79.5067 113.273 78.9267 112.833 78.46C112.393 77.98 111.746 77.74 110.893 77.74C110.493 77.74 110.133 77.8133 109.813 77.96C109.506 78.0933 109.24 78.2733 109.013 78.5C108.8 78.7267 108.626 78.9933 108.493 79.3C108.373 79.5933 108.3 79.8933 108.273 80.2H113.533ZM115.433 83.26C115.3 83.6867 115.1 84.0867 114.833 84.46C114.58 84.82 114.266 85.14 113.893 85.42C113.533 85.6867 113.12 85.9 112.653 86.06C112.186 86.22 111.673 86.3 111.113 86.3C110.473 86.3 109.86 86.1867 109.273 85.96C108.686 85.7333 108.166 85.4 107.713 84.96C107.273 84.52 106.92 83.98 106.653 83.34C106.4 82.7 106.273 81.9733 106.273 81.16C106.273 80.4 106.4 79.7133 106.653 79.1C106.906 78.4733 107.24 77.94 107.653 77.5C108.08 77.0467 108.573 76.7 109.133 76.46C109.693 76.2067 110.273 76.08 110.873 76.08C111.62 76.08 112.28 76.2067 112.853 76.46C113.426 76.7 113.906 77.04 114.293 77.48C114.68 77.92 114.973 78.4533 115.173 79.08C115.386 79.6933 115.493 80.3733 115.493 81.12C115.493 81.24 115.486 81.3533 115.473 81.46C115.473 81.5667 115.466 81.6533 115.453 81.72H108.213C108.226 82.1467 108.306 82.54 108.453 82.9C108.6 83.26 108.8 83.5733 109.053 83.84C109.32 84.0933 109.626 84.2933 109.973 84.44C110.333 84.5733 110.713 84.64 111.113 84.64C111.9 84.64 112.5 84.4533 112.913 84.08C113.326 83.7067 113.626 83.2467 113.813 82.7L115.433 83.26ZM117.893 89.8V76.38H119.713V77.88C119.98 77.4 120.386 76.9933 120.933 76.66C121.48 76.3267 122.146 76.16 122.933 76.16C123.653 76.16 124.286 76.2933 124.833 76.56C125.393 76.8133 125.853 77.1667 126.213 77.62C126.586 78.0733 126.866 78.6067 127.053 79.22C127.253 79.82 127.353 80.4733 127.353 81.18C127.353 81.9 127.253 82.5667 127.053 83.18C126.853 83.7933 126.56 84.3333 126.173 84.8C125.786 85.2533 125.313 85.6133 124.753 85.88C124.206 86.1333 123.58 86.26 122.873 86.26C122.126 86.26 121.486 86.1067 120.953 85.8C120.42 85.4933 120.02 85.1267 119.753 84.7V89.8H117.893ZM125.433 81.18C125.433 80.7 125.366 80.2533 125.233 79.84C125.1 79.4267 124.913 79.0733 124.673 78.78C124.433 78.4733 124.133 78.24 123.773 78.08C123.426 77.9067 123.033 77.82 122.593 77.82C122.166 77.82 121.773 77.9067 121.413 78.08C121.066 78.24 120.766 78.4733 120.513 78.78C120.273 79.0733 120.08 79.4267 119.933 79.84C119.8 80.2533 119.733 80.7 119.733 81.18C119.733 81.6733 119.8 82.1333 119.933 82.56C120.08 82.9733 120.273 83.3333 120.513 83.64C120.766 83.9333 121.066 84.1667 121.413 84.34C121.773 84.5 122.166 84.58 122.593 84.58C123.033 84.58 123.426 84.5 123.773 84.34C124.12 84.1667 124.413 83.9333 124.653 83.64C124.906 83.3333 125.1 82.9733 125.233 82.56C125.366 82.1333 125.433 81.6733 125.433 81.18ZM135.088 78.28C134.808 78.24 134.535 78.22 134.268 78.22C133.468 78.22 132.828 78.4467 132.348 78.9C131.868 79.3533 131.628 80.1133 131.628 81.18V86H129.748V76.38H131.588V78.06C131.762 77.6867 131.962 77.3867 132.188 77.16C132.428 76.92 132.675 76.7333 132.928 76.6C133.182 76.4533 133.442 76.3533 133.708 76.3C133.975 76.2467 134.228 76.22 134.468 76.22C134.602 76.22 134.722 76.2267 134.828 76.24C134.948 76.2533 135.035 76.2667 135.088 76.28V78.28ZM143.475 80.2C143.448 79.5067 143.215 78.9267 142.775 78.46C142.335 77.98 141.688 77.74 140.835 77.74C140.435 77.74 140.075 77.8133 139.755 77.96C139.448 78.0933 139.181 78.2733 138.955 78.5C138.741 78.7267 138.568 78.9933 138.435 79.3C138.315 79.5933 138.241 79.8933 138.215 80.2H143.475ZM145.375 83.26C145.241 83.6867 145.041 84.0867 144.775 84.46C144.521 84.82 144.208 85.14 143.835 85.42C143.475 85.6867 143.061 85.9 142.595 86.06C142.128 86.22 141.615 86.3 141.055 86.3C140.415 86.3 139.801 86.1867 139.215 85.96C138.628 85.7333 138.108 85.4 137.655 84.96C137.215 84.52 136.861 83.98 136.595 83.34C136.341 82.7 136.215 81.9733 136.215 81.16C136.215 80.4 136.341 79.7133 136.595 79.1C136.848 78.4733 137.181 77.94 137.595 77.5C138.021 77.0467 138.515 76.7 139.075 76.46C139.635 76.2067 140.215 76.08 140.815 76.08C141.561 76.08 142.221 76.2067 142.795 76.46C143.368 76.7 143.848 77.04 144.235 77.48C144.621 77.92 144.915 78.4533 145.115 79.08C145.328 79.6933 145.435 80.3733 145.435 81.12C145.435 81.24 145.428 81.3533 145.415 81.46C145.415 81.5667 145.408 81.6533 145.395 81.72H138.155C138.168 82.1467 138.248 82.54 138.395 82.9C138.541 83.26 138.741 83.5733 138.995 83.84C139.261 84.0933 139.568 84.2933 139.915 84.44C140.275 84.5733 140.655 84.64 141.055 84.64C141.841 84.64 142.441 84.4533 142.855 84.08C143.268 83.7067 143.568 83.2467 143.755 82.7L145.375 83.26ZM149.714 86H147.834V76.38H149.674V77.76C150.021 77.16 150.461 76.7333 150.994 76.48C151.528 76.2267 152.074 76.1 152.634 76.1C153.208 76.1 153.708 76.2 154.134 76.4C154.574 76.5867 154.934 76.8533 155.214 77.2C155.508 77.5333 155.721 77.9333 155.854 78.4C156.001 78.8667 156.074 79.3667 156.074 79.9V86H154.194V80.22C154.194 79.8867 154.154 79.5733 154.074 79.28C154.008 78.9867 153.881 78.7333 153.694 78.52C153.521 78.2933 153.294 78.12 153.014 78C152.734 77.8667 152.381 77.8 151.954 77.8C151.221 77.8 150.661 78.06 150.274 78.58C149.901 79.0867 149.714 79.7067 149.714 80.44V86ZM165.545 80.2C165.518 79.5067 165.285 78.9267 164.845 78.46C164.405 77.98 163.758 77.74 162.905 77.74C162.505 77.74 162.145 77.8133 161.825 77.96C161.518 78.0933 161.252 78.2733 161.025 78.5C160.812 78.7267 160.638 78.9933 160.505 79.3C160.385 79.5933 160.312 79.8933 160.285 80.2H165.545ZM167.445 83.26C167.312 83.6867 167.112 84.0867 166.845 84.46C166.592 84.82 166.278 85.14 165.905 85.42C165.545 85.6867 165.132 85.9 164.665 86.06C164.198 86.22 163.685 86.3 163.125 86.3C162.485 86.3 161.872 86.1867 161.285 85.96C160.698 85.7333 160.178 85.4 159.725 84.96C159.285 84.52 158.932 83.98 158.665 83.34C158.412 82.7 158.285 81.9733 158.285 81.16C158.285 80.4 158.412 79.7133 158.665 79.1C158.918 78.4733 159.252 77.94 159.665 77.5C160.092 77.0467 160.585 76.7 161.145 76.46C161.705 76.2067 162.285 76.08 162.885 76.08C163.632 76.08 164.292 76.2067 164.865 76.46C165.438 76.7 165.918 77.04 166.305 77.48C166.692 77.92 166.985 78.4533 167.185 79.08C167.398 79.6933 167.505 80.3733 167.505 81.12C167.505 81.24 167.498 81.3533 167.485 81.46C167.485 81.5667 167.478 81.6533 167.465 81.72H160.225C160.238 82.1467 160.318 82.54 160.465 82.9C160.612 83.26 160.812 83.5733 161.065 83.84C161.332 84.0933 161.638 84.2933 161.985 84.44C162.345 84.5733 162.725 84.64 163.125 84.64C163.912 84.64 164.512 84.4533 164.925 84.08C165.338 83.7067 165.638 83.2467 165.825 82.7L167.445 83.26ZM175.952 84.84C175.685 85.3467 175.285 85.72 174.752 85.96C174.218 86.1867 173.672 86.3 173.112 86.3C172.552 86.3 172.045 86.2 171.592 86C171.152 85.8 170.778 85.5267 170.472 85.18C170.165 84.8333 169.925 84.4267 169.752 83.96C169.592 83.4933 169.512 82.9867 169.512 82.44V76.38H171.392V82.16C171.392 82.4933 171.432 82.8133 171.512 83.12C171.592 83.4133 171.718 83.6733 171.892 83.9C172.065 84.1267 172.285 84.3067 172.552 84.44C172.832 84.5733 173.172 84.64 173.572 84.64C174.332 84.64 174.898 84.4133 175.272 83.96C175.658 83.5067 175.852 82.9133 175.852 82.18V76.38H177.732V84.22C177.732 84.6067 177.738 84.96 177.752 85.28C177.778 85.5867 177.805 85.8267 177.832 86H176.032C176.005 85.8933 175.985 85.7267 175.972 85.5C175.958 85.26 175.952 85.04 175.952 84.84ZM186.28 78.28C186 78.24 185.727 78.22 185.46 78.22C184.66 78.22 184.02 78.4467 183.54 78.9C183.06 79.3533 182.82 80.1133 182.82 81.18V86H180.94V76.38H182.78V78.06C182.953 77.6867 183.153 77.3867 183.38 77.16C183.62 76.92 183.867 76.7333 184.12 76.6C184.373 76.4533 184.633 76.3533 184.9 76.3C185.167 76.2467 185.42 76.22 185.66 76.22C185.793 76.22 185.913 76.2267 186.02 76.24C186.14 76.2533 186.227 76.2667 186.28 76.28V78.28Z" fill="#212529"/>
<path d="M11 1.5H206V0.5H11V1.5ZM215.5 11V116H216.5V11H215.5ZM206 125.5H11V126.5H206V125.5ZM1.5 116V11H0.5V116H1.5ZM11 125.5C5.7533 125.5 1.5 121.247 1.5 116H0.5C0.5 121.799 5.20102 126.5 11 126.5V125.5ZM215.5 116C215.5 121.247 211.247 125.5 206 125.5V126.5C211.799 126.5 216.5 121.799 216.5 116H215.5ZM206 1.5C211.247 1.5 215.5 5.7533 215.5 11H216.5C216.5 5.20101 211.799 0.5 206 0.5V1.5ZM11 0.5C5.20101 0.5 0.5 5.20101 0.5 11H1.5C1.5 5.75329 5.75329 1.5 11 1.5V0.5Z" fill="#D0DDF4"/>
</svg>
