<svg id="Calque_1" data-name="Calque 1" xmlns="http://www.w3.org/2000/svg" viewBox="0 0 214.02 124.61"><defs><style>.cls-1{fill:#433f3b;}.cls-2{fill:#ebe200;}.cls-3{fill:#1d1d1b;}.cls-4{fill:#fff;}</style></defs><title>logo-API-CESU-01</title><path class="cls-1" d="M205.51,124.61H8.5A8.69,8.69,0,0,1,0,115.79V20.34H205.51A8.69,8.69,0,0,1,214,29.15v86.64A8.7,8.7,0,0,1,205.51,124.61Z" transform="translate(0 0)"/><path class="cls-2" d="M68.21,32.61l1.11,9.44-14-7.86L19.07,38.7,16.87,20a8.53,8.53,0,0,1,7.45-9.44L113.77.06a8.53,8.53,0,0,1,9.44,7.45l2.11,18Z" transform="translate(0 0)"/><path class="cls-3" d="M34.65,30.81a5,5,0,0,1-3.86-1c-1.53-1.2-1.74-2.74-2.06-5.36s-.49-4.17.72-5.71A5,5,0,0,1,33,16.85a4.86,4.86,0,0,1,5.56,3.72l-2.74.34a2.37,2.37,0,0,0-4.16-.75c-.43.64-.52,1.34-.2,4s.58,3.28,1.15,3.79a2.22,2.22,0,0,0,1.8.51,2.29,2.29,0,0,0,2.08-2.23l2.72-.33A4.88,4.88,0,0,1,34.65,30.81Z" transform="translate(0 0)"/><path class="cls-3" d="M50.09,27.46a5.45,5.45,0,0,1-7.35.9C41.21,27.15,41,25.61,40.68,23s-.49-4.17.72-5.7a5.41,5.41,0,0,1,7.34-.9c1.54,1.2,1.76,2.74,2.08,5.36S51.29,25.93,50.09,27.46ZM47,18.31a2.24,2.24,0,0,0-1.81-.53,2.33,2.33,0,0,0-1.64.95c-.43.64-.51,1.31-.19,3.93s.55,3.24,1.13,3.76A2.38,2.38,0,0,0,47.94,26c.43-.64.52-1.3.2-3.92S47.57,18.82,47,18.31Z" transform="translate(0 0)"/><path class="cls-3" d="M62.7,27.27l-6.46-7.76,1,8.43-2.69.32L52.91,14.53l2.39-.29L61.77,22l-1-8.41,2.68-.33L65.09,27Z" transform="translate(0 0)"/><path class="cls-3" d="M76.6,25.58l-6.46-7.76,1,8.42-2.68.33L66.81,12.84l2.39-.29,6.46,7.74-1-8.4,2.68-.33L79,25.29Z" transform="translate(0 0)"/><path class="cls-3" d="M82.38,24.87,80.7,11.15l9-1.11L90,12.43l-6.36.78.39,3.22,5.42-.66.29,2.39-5.42.66.41,3.34,6.36-.78.29,2.39Z" transform="translate(0 0)"/><path class="cls-3" d="M98.86,23A5,5,0,0,1,95,22c-1.54-1.2-1.75-2.75-2.07-5.37s-.49-4.17.72-5.7A5,5,0,0,1,97.15,9a4.88,4.88,0,0,1,5.57,3.73l-2.74.33a2.28,2.28,0,0,0-2.53-1.67,2.23,2.23,0,0,0-1.63.93c-.43.64-.53,1.33-.21,4s.58,3.27,1.15,3.79a2.21,2.21,0,0,0,1.8.5,2.29,2.29,0,0,0,2.08-2.23l2.72-.33A4.88,4.88,0,0,1,98.86,23Z" transform="translate(0 0)"/><path class="cls-3" d="M110.05,10l1.38,11.33-2.68.33-1.38-11.34-3.59.44-.29-2.39,9.85-1.2.29,2.39Z" transform="translate(0 0)"/><path class="cls-4" d="M97.42,39s21-1.14,32.22,11.31c7.37,8.18,7.62,15.35,7.62,15.35l-11,.25a34.13,34.13,0,0,0-5.56-14.52C112.11,39.3,97.42,39,97.42,39" transform="translate(0 0)"/><path class="cls-4" d="M60.8,79c-5.11,0-8.35-4.2-8.35-10.18s3.24-10.18,8.35-10.18a7.07,7.07,0,0,1,6.71,3.69L64.89,64a4.28,4.28,0,0,0-4.09-2.37c-3.44,0-5.3,2.79-5.3,7.22s1.86,7.22,5.3,7.22a4.68,4.68,0,0,0,4.34-2.46l2.46,1.64A7.53,7.53,0,0,1,60.8,79Z" transform="translate(0 0)"/><path class="cls-4" d="M82,72.36H72.18c.32,2.84,1.92,4.06,3.73,4.06a5.13,5.13,0,0,0,3.21-1.19l1.72,1.86a6.82,6.82,0,0,1-5.1,2c-3.47,0-6.4-2.79-6.4-7.7s2.65-7.73,6.48-7.73C80,63.61,82.06,67,82.06,71A12.83,12.83,0,0,1,82,72.36Zm-6.34-6.13c-1.95,0-3.13,1.36-3.39,3.73h6.88C79,67.93,78,66.23,75.63,66.23Z" transform="translate(0 0)"/><path class="cls-4" d="M89.07,79a10.13,10.13,0,0,1-5.67-1.89L84.73,75A7.76,7.76,0,0,0,89,76.42c1.84,0,2.71-.6,2.71-1.64s-1.29-1.66-3.44-2.48C85.12,71.06,84,70,84,67.64c0-2.65,2.09-4,5-4a8.83,8.83,0,0,1,5,1.64l-1.27,2.23a6.45,6.45,0,0,0-3.84-1.27c-1.41,0-2,.56-2,1.35s.51,1.27,2.74,2.14c3.3,1.27,5,2.18,5,5C94.63,77.94,92,79,89.07,79Z" transform="translate(0 0)"/><path class="cls-4" d="M105.85,78.73V77.32A4.53,4.53,0,0,1,102.13,79c-3.44,0-5.28-2.26-5.28-6.63V63.92h2.91V72.3c0,3,1.13,4.06,3,4.06s3-1.38,3-3.78V63.92h2.9V78.73Z" transform="translate(0 0)"/><path class="cls-4" d="M28.2,73.74H38.33S40.47,85,48.41,93.14,62.7,104,62.7,104s-11.71.06-24-11.07A33.8,33.8,0,0,1,28.2,73.74" transform="translate(0 0)"/><path class="cls-4" d="M75.61,106c-2.22,0-3.36-1.34-3.36-3.92V96.5h1V102c0,2,.78,3,2.39,3s2.24-1,2.24-3V96.5h1V102C79,104.59,77.85,106,75.61,106Z" transform="translate(0 0)"/><path class="cls-4" d="M84.93,105.82v-4.09c0-1.5-.53-2.18-1.65-2.18-1,0-1.73.65-1.73,2.18v4.09h-1v-7h1v.85a2.28,2.28,0,0,1,1.93-1c1.48,0,2.45.86,2.45,2.87v4.26Z" transform="translate(0 0)"/><path class="cls-4" d="M92.18,106a3.91,3.91,0,0,1-2.46-.89l.58-.73a2.88,2.88,0,0,0,1.91.77c1,0,1.4-.4,1.4-1.08s-.41-.89-1.64-1.42c-1.4-.6-2-1-2-2.14s.92-1.78,2.19-1.78a3.43,3.43,0,0,1,2.23.74l-.56.73a2.54,2.54,0,0,0-1.74-.62c-.73,0-1.16.36-1.16.86s.36.83,1.54,1.36,2.09,1,2.09,2.23S93.39,106,92.18,106Z" transform="translate(0 0)"/><path class="cls-4" d="M101,102.66H96.3c.09,1.49.8,2.44,1.94,2.44a3.1,3.1,0,0,0,1.93-.67l.47.72a4.15,4.15,0,0,1-2.5.81c-1.28,0-2.84-.93-2.84-3.67,0-2.22,1.23-3.6,2.89-3.6,1.82,0,2.81,1.43,2.81,3.43A2.61,2.61,0,0,1,101,102.66Zm-2.77-3.11c-1,0-1.76.75-1.88,2.3h3.76C100,100.49,99.4,99.55,98.18,99.55Z" transform="translate(0 0)"/><path class="cls-4" d="M105.77,99.87a2,2,0,0,0-1-.27c-1,0-1.52.79-1.52,2.12v4.1h-1v-7h1v.87a2.05,2.05,0,0,1,1.73-1,2.62,2.62,0,0,1,1.09.17Z" transform="translate(0 0)"/><path class="cls-4" d="M109.77,105.82h-.88l-2.5-7h1.07l1.78,5.5.11.33.1-.33,1.78-5.5h1Z" transform="translate(0 0)"/><path class="cls-4" d="M113.84,97.58a.71.71,0,1,1,.69-.7A.71.71,0,0,1,113.84,97.58Zm-.52,8.24v-7h1v7Z" transform="translate(0 0)"/><path class="cls-4" d="M120.18,100.26a2.28,2.28,0,0,0-1.67-.71c-1.1,0-1.93,1-1.93,2.73s.73,2.82,2,2.82a2.17,2.17,0,0,0,1.61-.75l.59.64a2.93,2.93,0,0,1-2.24,1c-1.53,0-2.94-1.17-2.94-3.6s1.54-3.67,3-3.67a3.22,3.22,0,0,1,2.21.82Z" transform="translate(0 0)"/><path class="cls-4" d="M126.92,102.66h-4.65c.09,1.49.8,2.44,1.94,2.44a3.1,3.1,0,0,0,1.93-.67l.46.72a4.13,4.13,0,0,1-2.5.81c-1.27,0-2.83-.93-2.83-3.67,0-2.22,1.22-3.6,2.89-3.6,1.82,0,2.8,1.43,2.8,3.43A2.7,2.7,0,0,1,126.92,102.66Zm-2.78-3.11c-1,0-1.75.75-1.87,2.3H126C126,100.49,125.37,99.55,124.14,99.55Z" transform="translate(0 0)"/><path class="cls-4" d="M135.21,105.82V105a2.79,2.79,0,0,1-2.11,1c-1.39,0-2.5-1.06-2.5-3.52s1.17-3.75,2.64-3.75a2.49,2.49,0,0,1,2,.93V96.68l1-.56v9.7Zm0-5.22a2.31,2.31,0,0,0-1.89-1c-1.16,0-1.73,1-1.73,2.87s.66,2.68,1.77,2.68a2.4,2.4,0,0,0,1.85-1Z" transform="translate(0 0)"/><path class="cls-4" d="M143,102.66h-4.66c.1,1.49.8,2.44,1.94,2.44a3.06,3.06,0,0,0,1.93-.67l.47.72a4.15,4.15,0,0,1-2.5.81c-1.28,0-2.83-.93-2.83-3.67,0-2.22,1.22-3.6,2.88-3.6,1.83,0,2.81,1.43,2.81,3.43A3.74,3.74,0,0,1,143,102.66Zm-2.78-3.11c-1,0-1.76.75-1.88,2.3h3.77C142.07,100.49,141.48,99.55,140.26,99.55Z" transform="translate(0 0)"/><path class="cls-4" d="M146.08,106a3.93,3.93,0,0,1-2.46-.89l.59-.73a2.86,2.86,0,0,0,1.9.77c1,0,1.41-.4,1.41-1.08s-.42-.89-1.65-1.42c-1.4-.6-2-1-2-2.14s.92-1.78,2.18-1.78a3.41,3.41,0,0,1,2.23.74l-.56.73a2.53,2.53,0,0,0-1.74-.62c-.73,0-1.16.36-1.16.86s.36.83,1.55,1.36,2.09,1,2.09,2.23S147.29,106,146.08,106Z" transform="translate(0 0)"/><path class="cls-4" d="M155.94,106c-2.23,0-3.37-1.34-3.37-3.92V96.5h1V102c0,2,.77,3,2.38,3s2.24-1,2.24-3V96.5h1V102C159.27,104.59,158.17,106,155.94,106Z" transform="translate(0 0)"/><path class="cls-4" d="M164.44,99.87a1.94,1.94,0,0,0-1-.27c-1,0-1.52.79-1.52,2.12v4.1h-1v-7h1v.87a2,2,0,0,1,1.73-1,2.62,2.62,0,0,1,1.09.17Z" transform="translate(0 0)"/><path class="cls-4" d="M167.3,106a3.93,3.93,0,0,1-2.46-.89l.59-.73a2.88,2.88,0,0,0,1.9.77c1,0,1.41-.4,1.41-1.08s-.41-.89-1.65-1.42c-1.4-.6-2-1-2-2.14s.92-1.78,2.18-1.78a3.41,3.41,0,0,1,2.23.74l-.55.73a2.57,2.57,0,0,0-1.75-.62c-.73,0-1.15.36-1.15.86s.35.83,1.54,1.36,2.09,1,2.09,2.23S168.51,106,167.3,106Z" transform="translate(0 0)"/><path class="cls-4" d="M172.73,106a3.91,3.91,0,0,1-2.46-.89l.58-.73a2.88,2.88,0,0,0,1.91.77c1,0,1.41-.4,1.41-1.08s-.42-.89-1.65-1.42c-1.4-.6-2-1-2-2.14s.92-1.78,2.19-1.78a3.43,3.43,0,0,1,2.23.74l-.56.73a2.54,2.54,0,0,0-1.74-.62c-.73,0-1.16.36-1.16.86s.36.83,1.54,1.36,2.09,1,2.09,2.23S173.94,106,172.73,106Z" transform="translate(0 0)"/><path class="cls-4" d="M180.3,105.82V105a2.88,2.88,0,0,1-2.18,1,2.05,2.05,0,0,1-2.24-2.23c0-1.57,1.29-2.24,2.67-2.24a3.87,3.87,0,0,1,1.75.4v-.82a1.35,1.35,0,0,0-1.52-1.55,3.58,3.58,0,0,0-1.9.54l-.37-.82a5,5,0,0,1,2.34-.55c1.5,0,2.45.63,2.45,2.26v4.87Zm0-3.13a3.43,3.43,0,0,0-1.8-.4c-1,0-1.63.49-1.63,1.37a1.31,1.31,0,0,0,1.42,1.49,2.47,2.47,0,0,0,2-1.05Z" transform="translate(0 0)"/><path class="cls-4" d="M185,97.06c-.41,0-.71.15-.71.73v1h1.37v.84h-1.37v6.15h-1V99.67h-1v-.84h1v-1a1.49,1.49,0,0,1,1.65-1.71,2.48,2.48,0,0,1,.87.12v.94A2,2,0,0,0,185,97.06Z" transform="translate(0 0)"/></svg>