<svg width="535" height="612" fill="none" xmlns="http://www.w3.org/2000/svg"><path d="M271 0h-1v31h1V0zm22 0h-1v31h1V0z" fill="#737F86"/><path d="M336 506.4h-92.2l4-43.2H332l4 43.2z" fill="#8D8F8F"/><path d="M364 504.3H212.2c-5.5 0-10 4.6-10 10v1.7h171.6v-1.6c0-5.5-4.5-10-10-10z" fill="#AEB0B0"/><path d="M90.3 467.3h398.8c8.6 0 15.7-7 15.7-15.7v-269c0-8.6-7-15.7-15.7-15.7H90.3c-8.6 0-15.7 7-15.7 15.8v268.9c0 8.7 7 15.7 15.7 15.7z" fill="#DCDCDC"/><path d="M488.4 181.5h-401V406h401V181.5z" fill="#C9D3DF"/><path d="M212 195.7H94.8v63.7H212v-63.7zm0 68.7H94.8V328H212v-63.7zm0 68.7H94.8v63.7H212v-63.7zm174.2-137.4h-34.1v127.8h34.1V195.7zm90.3 0h-79.8v30.6h79.8v-30.6zm0 39.7h-79.8v159.1h79.8V235.4zm-90.3 97.7h-34.1v63.7h34.1v-63.7z" fill="#fff"/><path d="M74.6 422.1v33a12.3 12.3 0 0012.3 12.2h405.6c6.8 0 12.3-5.4 12.3-12.3v-32.9H74.6z" fill="#AEB0B0"/><path d="M342 72.3H224.6v154H342v-154z" fill="#0048B3"/><path d="M342 311H224.6v84H342v-84zM229.9 80.5a1.8 1.8 0 000-3.7 1.8 1.8 0 000 3.7zM338 78.6c0 .9-.6 1.8-1.8 1.8-1.1 0-1.8-.7-1.8-1.8 0-1.2.7-1.9 1.8-1.9 1.2 0 1.8 1 1.8 1.9z" fill="#fff"/><path d="M276.4 56s0 .2.2.2c.9 2.3 2.3 4.3 4.3 4.8 1.2.2 4.1.7 5.7-1.9 1.4-2.2-.9-5.2-1.1-5.7l-2.5-3c-1-1-2-2.2-2.3-4.7h4.6c-.3.2.2 1.4.9 2.5l2.2 3.4c.5.7.7 1.4 1.2 2l.7 2.6c0 1.6-.3 3.2-1.2 4.8a6.4 6.4 0 01-4 2.7c-1.7.2-3 .2-4.6-.4-2.8-1.2-4.6-4.2-4.1-6.7V56z" fill="#737F86"/><path d="M299 37.2c0-3.8-3-6.8-7-6.8-2.4 0-3.8.9-5.8 3.4-2 2.7-7.8 2.7-9.8-.4a6.8 6.8 0 00-5.7-3c-4 0-6.9 3-6.9 6.8 0 1.6.5 3 1.4 4.1 2.3 3.5 9.1 7.1 16.2 7.1 8.2 0 12.5-3.4 14.3-4.8a8 8 0 003.2-6.4z" fill="#002F75"/><path d="M294.1 36.8c.3 1.1-.6 2-1.8 2.3-1.1.2-2-.7-2.3-1.9-.2-1.1.7-2 1.9-2.2 1.1 0 2.2.9 2.2 1.8z" fill="#fff"/><path d="M289.6 35a3.4 3.4 0 014.8-.7 3.4 3.4 0 01.7 4.8c-1.2 1.3-3.5 1.8-4.8.6-1.6-1.1-2-3.2-.7-4.8zm-21.4 0a3.4 3.4 0 014.7-.7 3.4 3.4 0 01.7 4.8 3.4 3.4 0 01-4.8.6c-1.6-1.1-2-3.2-.6-4.8z" stroke="#fff" stroke-width=".3" stroke-miterlimit="10"/><path d="M273 36.8c.2 1.1-.7 2-1.9 2.3-1.1.2-2-.7-2.3-1.9-.2-1.1.7-2 1.9-2.2 1.1 0 2 .9 2.2 1.8z" fill="#fff"/><path d="M231.2 78.8c-.4.2-.9-1-.4-1.2.2 0 48.5-17.3 52.4-17.3 3.7 0 51.5 17.1 52.2 17.3.7.3.2 1.4-.4 1.2-.7-.2-48.8-17.4-51.8-17.4s-51.5 17.2-52 17.4z" fill="#737F86"/><g clip-path="url(#clip0)"><path d="M110.5 391.6c-4.5.4 1-8-.6-7.6l.6-.9c.3-.5 1-1 .4-1.6s-1.2-.1-1.8.1a15.7 15.7 0 00-6.2 5.2l-.6.7-1.5 1.5-6.5 9.5-1.7 2.6-3.2 5.2a2 2 0 01-.5.3l-1.1-2-8.3-17.4a42.6 42.6 0 00-5.7-9.1 13.5 13.5 0 00-4.1-3.5l-7.6-4a18.6 18.6 0 01-2.6-1.8c-.5-.4-.9-1-1.4-1.3a1.3 1.3 0 01-.5-1.3c.5-3.2.4-3.2 3-5.3a12.8 12.8 0 003.7-4.9l2.6-6a9 9 0 00.6-2.3c.4-3.5.5-7-.6-10.5a11.3 11.3 0 00-7-7.7l-3.3-1.1a9.5 9.5 0 00-4.8-.4 10 10 0 00-6.2 4c-3 3.5-4.2 7.8-4.6 12.4-.3 3.6.2 7 3 9.7a1.5 1.5 0 01.4 1.4l-1 7.1a1.4 1.4 0 01-1 1.3 4.2 4.2 0 00-1.7 1c-.8 1-1.9 1.1-3 1.2l-9 .3c-2.6 0-5.1.4-7.5 1.4a9.2 9.2 0 00-4.3 3.4 42.7 42.7 0 00-5.3 10.8l-4.8 15a142 142 0 00-5 18c-.3 2.4-.8 4.6-1.2 7v4.2l1 3.2c.2.5.4 1.1 0 1.5.5.7 1 1.2 1.2 1.8l1.8 3.5 3.8 6.5.8 1.7 6.9 9.3.7 1.1 3 3.2a3.5 3.5 0 011.2 3c-.5 8.9.5 17.8 1.4 26.7l.8 9 1.1 14c.5 6.6.8 13.2 1 19.8v8.5c0 5 0 10 .3 15 .4 7 .8 14 .9 21l.3 22.2.1 5 .2 1h1.5l-.5 1.6-.3 3c0 1.2.3 1.4 1.5 1.6l9.8 1 15.3 1c1.4 0 2.8.4 4.3.6h3.7l1.6-.7c1-.4 1-1 .1-1.6a24.6 24.6 0 00-3.7-1.8l-10.8-3.7-2.5-.8c-1-.4-1.2-.6-1.2-1.8l.2-9 .1-15.8v-23l.1-36.5.8-31.2.2-5 .6 1c5 12 9.3 24.3 13 36.7a74.4 74.4 0 012.4 11.8c.3 1.8-.2 3.6-.5 5.3-1.2 7-2.9 13.8-4.6 20.7-.8 3-1.2 6-2 9.1l-3.1 12.5-1.3 5.7 1 .7v.4l-1.8 4.5c-.5 1.3-.4 1.5.7 2.2.7.4 1.3.8 2 1 4.9 2 9.8 3.9 14.7 5.5a86 86 0 0010 2.3c2 .4 4.1.2 6.1-.5 1-.3 1.2-1.1.4-1.8a10 10 0 00-2-1.2l-7-3.2A27.2 27.2 0 0170 590l-.8-.7c1-1.7 1.1-3.6 1.6-5.4l6.5-27.4 3.4-16.6c1-5.1.6-10.2-.6-15.3L74.4 502 71 486.5c-1.6-6.3-3.3-12.5-5.4-18.6-1-3-1.8-6.2-2.7-9.3-.2-.6-.3-1.3.2-1.9a.7.7 0 00.2-.3L65 447l2-13.2a288.5 288.5 0 001-8.7c.3-2.6.5-5 .6-7.6l.6-13.8a228 228 0 01.5-5.6l.7.8 7.9 10.8a58.8 58.8 0 004.2 5.7l4.9 4.8.9.7c1.4 1 2.8.9 4-.2 1-.7 1.7-1.5 2.4-2.3A137.8 137.8 0 0099 412l11.4-20.4zm-96 22.8a8.2 8.2 0 01-.5-.7c-.2-.3-.4-.6-.4-.9l.7-2.2c1.7.8 1.8 1.5.9 3.9h-.6c.8 1 .2 2-.2 3.2a9.2 9.2 0 01-1.4-.8 1 1 0 01-.4-.8 4.5 4.5 0 01.7-2.1l1.2.4zm13.3 44.9c-.2.8-.8 1-1.4 1.4l-1-.8-.9-1 1.5-1 1.8 1.4-1.3-2 1.9-1.7 1.4 1.3.1-.2-1.1-1.5 1-1.4c.5.6.8 1 1 1.5a1 1 0 01.2.8 7.9 7.9 0 01-3 3.2h-.2zm76-63.3l-1.3 1.7-2.4-2.3 1.9-3.1.9.7c1.3 1.3 1.3 1.3.9 3l1-1 .7 1.1a1 1 0 01.1.8 8 8 0 01-1.6 2.4c-1.1-1.1-1.1-1.1-.5-2.4l.3-.9zM18 372.4c0-.5-.3-1.1-.1-1.5a4.7 4.7 0 012.8-2.1c.8 1 1.2 2.1.3 3.2v.1l1-.6 1.1 4.5v1.9l.6.7.6 4c0 .6 0 1-.2 1.5-.5.9-1.1 1.6-1.8 2.6l-.8-3.7a2.7 2.7 0 01.3-2.3l1.4-2.9L21 381l-1.6-5.4a1.6 1.6 0 01.3-1.6L21 372l-1.9 1.8-1-1.5a1 1 0 000 .3c.8 1.6.4 3-.5 4.3a6.8 6.8 0 00-.4.8l-1 1.8-1.3-2.8a1.2 1.2 0 010-1 117.7 117.7 0 012.4-4l.8.6zm27.1 58a23.2 23.2 0 014.5.8l-.4 7.4-3.8-.3c-.4 0-.5-.5-.5-.9l.4-4.6a5 5 0 00-.2-2.4 5.4 5.4 0 01-.6.9 1 1 0 00-.3 1 1 1 0 00.2.4 2 2 0 01.3 1.7l-.1 1.7-.1 2-3-.3c-.9-.1-1-.3-1-1.2l.5-5.2.3-1.7c1.3.1 2.6.4 3.8.7zm61.6-32.6a12.2 12.2 0 01-1.7 3c-.7-.5-.8-1-.4-1.5l1.3-1.8.8.2a2.8 2.8 0 010-1.4c0-.4.3-.8.6-1.2a1.5 1.5 0 00.5-1.2l-1.6 2c-1-.5-1.1-1.7-2-2.3-.9-.6-1.7-1.3-2-2.1l-1.7-.3 1 .9-1.8 3.1-1.7-1a28 28 0 014.2-6c2.3 1.9 4.7 3.6 7 5.6l-2.5 4zm-87.5 13.4a2 2 0 01-.7-1.9 22 22 0 00.2-3 11.5 11.5 0 011-4.6l.6-2 .5-.9v5.5h-1.1c1.2.3 1.2 1.2 1.1 2.2v4.9l-1.6-.2.7.5c1 .5 1 .5 1 1.6l-.3 2.8-.2 1.7h-1c1.4.4 1 1.4.9 2.4 0 .6 0 1.3-.2 2 0 .6.1 1.4-.2 1.8-.6.7.2 1.2 0 1.8a1.4 1.4 0 000 .3l-.5 7.9-.2 2.3H19l-.3-4.2v-20a.7.7 0 01.6-.9zM70 378.5l-.2.2 2.1 2.9c.3.3.6.7.6 1a9.9 9.9 0 01-.8 4c-1-.7-1.2-1.9-2.2-2.4l1.5 2.5.3 1.4c-.3 1.3-.8 2.5-1.3 3.8-.8-.7-.8-.7-.8-1.6l-.2-11.5-.3-3.4a2.7 2.7 0 01-2.5.3c-.4-.2-.6-.8-1-1.3l-.3 1.2-2.3-.4-.1-1.5c0-.4 0-.9-.3-1.4l-.4 3.4c.6 1.2.6 3.5-.2 4.4.8.8 1.1 3.8.5 5.4l-6.5-.6a212.8 212.8 0 00-.2-1.5l-.6 1.6-2.5-.4 1.2-6.2 1 1 3.8 4.7 1.2 1.1c.9-1.7.8-3.3 1-4.9.3-1.6.5-3.2.6-4.9l-.3-4.8.7.2 9 4.8 1.8 1.5c1 1 1.1 3.1.3 4.5l-2.6-3.1zm-6.4-44.3l1 1a9.2 9.2 0 012.3 6.1c0 2.1 0 4.3-.2 6.4-.6 3.2-2.2 6.1-3.8 9a15.8 15.8 0 01-5 5.3 7.5 7.5 0 01-5.3 1.3 3.4 3.4 0 01-2-.9 14.6 14.6 0 01-4-6.8c-.6-2.2-.4-4.4-.2-6.5 0-1 .2-1.8.3-2.7 2.4.5 2.4.5 2.5-1.8v-.9a20.7 20.7 0 011.6-6.5 5.2 5.2 0 012.9-2.9c1.5-.7 2.9-.7 4.2.5l2.4 1.8c1.3.8 2 .5 2.7-.8l.6-1.6zm-18.3 20h.1l.2.6c.3 2.6 1.5 4.7 3 6.8 1.8 2.3 4.4 3.4 7.6 2l1.4-.3-.1.8-1.7 8.8-.1 2a2 2 0 01-.3 1 4 4 0 01-1 .8 4 4 0 00-1.4 1.7 2218.2 2218.2 0 01-4.6 9.4l-.6.9v-1.3l-.2-8a4.8 4.8 0 00-1-3 14.8 14.8 0 01-3.1-7.4 10 10 0 010-2.5l1-7.5.8-4.8zm8.3 230.7l.7.2 6.7 2.3c2.2.7 4.3 1.5 6.6 1.8.4 0 .7.2 1 .4 2.7 2.6 6 4.2 9.4 5.7l5.3 2.5c.6.3 1.2.6 1.5 1.3-.2 0-.3.2-.4.3-2 .6-4 .8-6 .5l-3.9-.8c-6.1-1.3-12-3.6-17.8-5.8l-4.4-2c-.9-.5-1-.8-.7-1.7l.9-2 1-2.7zm15-198.6v7.1l.1 1c.7.2.4.6.4 1l-.5 7.6-.6 13.6c0 1.4-.1 2.9-.3 4.3a566.2 566.2 0 01-1.1 10.2c-.5 4.2-1 8.4-1.7 12.7L62.6 456l-.3.3a24.4 24.4 0 010-3.3l-.1-5c-.1-1 .2-1.8 1.3-2l.4-.3v-.2l-1.6.3a8.7 8.7 0 010-1v-4.5c0-1 0-1 1-1.4l-1.1-.4c0-2.2 0-4.4.2-6.5a3.8 3.8 0 01.4-1.2 4.4 4.4 0 01-.4-1.1v-4.4a1.1 1.1 0 01.7-1.2l.1-.2-.8-.2v-6a1 1 0 01.6-.7 4.3 4.3 0 012.7.2l-.4 18.3a.7.7 0 00.3-.6l.5-9.8.1-13.4c0-.6-.2-1.4.3-2a.3.3 0 000-.3c-.5-.5-.3-1.1-.3-1.6 0-3 .2-5.9.3-8.8l.2-1.8v-.5a9.6 9.6 0 01-.2-1.2 998.8 998.8 0 01-.3-7.7c0-1.7.2-2 1.8-1.7l.5.1zM29.4 603.1l2.3.3c4 .8 8 .4 12.1 0a6.6 6.6 0 013 .3c4.4 1.7 8.9 3.2 13.3 4.8l3.2 1.5.7.5a7.2 7.2 0 01-4 .8l-4.3-.6L44 610l-9-.5-5.5-.7c-1-.1-1-.3-1-1.2a8.8 8.8 0 01.9-4.4zm9.7-236.6v.4a29.8 29.8 0 00.7 9.7c.2 1.1.3 2.3.3 3.4 0 1-.3 2-.2 3 0 1-.4 1.8-.2 2.8.2 1.3 0 2.8-.2 4.2a1.6 1.6 0 01-.2.5h-2.3c-.9 0-1-.3-1-1.2v-3.5l.1-.8 2.4-.2-.2-.2H37c-.9-.1-1-.2-1-1v-3.8-1.6l3.1-.5h-3v-5.1l1.6-.5-1.6-.4c-.5-1.2 0-2.4-.4-3.5h-.3v3.8l-4.2-.6-.5-3.6h-.3l.2 3.5-3.3-.4c-.3 0-.5-.5-.6-.7a17.1 17.1 0 01-.4-1.8h-.1v2.4h-3.5a1 1 0 01-.7-.5l-.8-1.8 1.1-.5c2-.6 4-1 6.1-1l9.5-.5h1.2zM109 385l2.3-.7 2.7-1c1.7-.5 3.5-.8 5.4-.8 2.1 0 3 1.6 1.9 3.4a8 8 0 01-1.4 1.9c-2.2 2-4.7 3.6-7.6 4.3-.9.3-1.8.3-2.7.5a2.4 2.4 0 01-1-.1 2.4 2.4 0 01-1-.5l-3.7-3c-1-.9-1-1.2-.3-2.2a14.3 14.3 0 015.8-4.6l1-.2c0 1.3-1.3 1.7-1.4 3zm-70 71.6l.3-.9.2-1.6c.2-.8.3-1 1.2-.8l1.7.2a.9.9 0 01.8 1l.1.8.7-1.5 4.3.5v3c.2-.2.4-.5.4-.8l.1-1.3c0-.4.2-.7.7-.7.9 0 1.8-.3 2.8.2l.2 2.3a9.6 9.6 0 00.5-1.8c0-.3.3-.7.5-.7a10.1 10.1 0 013.7.1l-.5 3.2c0 .2-.4.5-.6.6l-1.3.2-6.4.3a46.8 46.8 0 01-10.8-.8l-2.6-.6a33.4 33.4 0 01.7-5.2c1.2.2 2.3.3 3.3.8.1 1.2-.5 2.3 0 3.5zm3-74l-1.3-5.2a28.6 28.6 0 01-1-8.7l.4-1.7a3.6 3.6 0 012.7-2.4v1c-.4 1.8-.1 3.4.3 5.1a16.2 16.2 0 002.7 5.9l.8 1.3-4.6 4.8zm12-4.6l.7-.7a4.2 4.2 0 001.9-3.6 48 48 0 01.8-5.8 1 1 0 01.2 0l.3.3a6.5 6.5 0 012.5 5.8c-.1 2.5-.4 5-.7 7.5l-.3 2.7H59l-5.2-6.2zM18 433.5l-.4-.4a43.8 43.8 0 01-3-8.3 8 8 0 01-.1-3.2c.6-3.3 1.4-6.6 2.1-9.8l1.4-4.8v26.5zm6.8 8.7c.7 0 1.4.3 2.1.5.7.1.8.5.7 1l-.4 2.7a3.2 3.2 0 000 1.7c.2-.1.3-.3.3-.5l.5-3.5c.1-.5.3-1 1-.8l3 .5-1 6.8c-1.9-.2-3.5-.5-4.6-2.2l-4.4-6.3a7.3 7.3 0 01-.4-.8l.6.1c1.8.4 1.8.4 2 2.2h.1l.5-1.4zm77-37.8c.3-1.6 1.2-2.6 2-3.8a1 1 0 01.6.6 1 1 0 01-.2.8l-.8 1.6-6 9.6c-1.2 2-2.6 3.7-4 5.5a10.6 10.6 0 01-2 1.8 1.9 1.9 0 01-2 .2c0-1 0-1.9.2-2.8a.8.8 0 01.4-.5l1.8-.8.4 1.8.3-.2v-1.3c0-.4 0-.9.2-1.1.7-1 1.6-1.8 2.4-2.6l1 1c-.6-2-.6-2 .7-3.3l.8.7c-.2-1-.4-1.6.2-2.3l1.4-1.7 1 .9c-.2-1-.8-1.7 0-2.4.6-.5.7-1.5 1.6-1.7zm-40.4 42.4l.1.7v9c-.1.2-.2.4-.4.4l-3.9 1.2v-.8l.2-1.6c0-.5.2-1 .4-1.4.3-.6-.3-1-.1-1.5l.2-1.7c0-1 .1-2.1.3-3.1 0-.4.3-1 .6-1l2.6-.2zm1-36.9v-5.5c0-1.2 0-1.2 1.4-1.3l.5-.1v-.1l-1.6-.3a18.8 18.8 0 01.3-5c1 0 1.8-.4 2.7 0l.1 1.3c0 1 .2 2 0 3-.3 1 .1 2 0 3-.2 1.2-.2 2.5-.2 3.8 0 .4-.1.9-.7 1l-2.5.2zm-34.9 56.5a13.3 13.3 0 01-2-4.3c2.3-1.5 4.3-3.2 6-5.5l2.8 3.7-6.8 6.1zM1 424.1a156 156 0 013.2-16l1.8.9a1 1 0 01.5.8l-.7 3.1-2.2-.4v.2l1.3.6c.6.1.7.5.6 1.1l-1 3.9c0 .2-.1.5-.3.7-.5.1-1-.3-1.5 0l1.3.7c0 .9-.2 1.7-.3 2.6-.2 1.5-.3 1.6-1.8 1.8H1zm45.7-45.7l.2.1.2 4.3v7c0 1.5-.2 1.7-1.6 1.5l-1.9-.3v-2.1c0-1.7.6-3.3.5-5 0-.8 0-1.5.2-2.3l.3-.9 2-2.3zM58 439.2v1.5l-.2 3.7v1.5c-.1.2-.4.6-.6.6-1.3.1-2.6 0-3.9-.1l.4-6.5a.7.7 0 01.7-.7h3.6zm-7.7-22.3c.2 2.6 0 5.8-.4 6.8-1 0-1.8-.2-2.7-.3-1.5-.1-1.7-.3-1.6-2l.1-.7a2.6 2.6 0 000-1.8 3.6 3.6 0 01.1-2.2l.8-.1 3.7.2zm-6 28.8l.6-3.5.1-3.5 4.3.3c-.2 2.5-.1 4.9-.6 7.4l-4.3-.7zm4 7.9a19 19 0 01-4.6-.6c.8-.6 1-1.2.4-1.9a.8.8 0 01-.2-.6l.5-4.2 3.6.4a.8.8 0 01.8 1l-.6 6v-.1zm2.3-50.3c.4 2 .3 5.8-.2 6.6l-4.4-.6.6-1.5c-.8-.4-.7-1.1-.6-1.9l.1-1.7.2-1.2 4.3.3zm3.5 35.5a3.4 3.4 0 01-.2-.6l.5-6a.8.8 0 011-.8h1.8c1 0 1.1.2 1.1 1.1l-.2 5.5c0 .5-.3.8-.9.8h-3.1zm-3.6-22.5l-3.2-.2c-1.3 0-1.4-.1-1.4-1.4v-4l.2-.9 4.7.6-.3 6zM63 397.1v-1.2c0-2.8 0-5.5.2-8.3v-.2c0-1 .1-1 1.2-1 1.1 0 1.2 0 1.2 1l.3 8.3v.7c-.1.2-.3.5-.5.5l-2.4.2zm-5.2 50.1a412.2 412.2 0 01-.5 5.8.7.7 0 01-.2.5.7.7 0 01-.5.3h-3.5v-1.4c0-1.3 0-2.7.2-4l.1-.7c.2-.2.4-.6.7-.6a13 13 0 013.7.1zm-12-23.5l3.7.4c.5 0 .7.4.7 1-.2 1.5-.2 3.1-.3 4.7-.1.7-.3.8-1 .7a56.6 56.6 0 01-2.5-.4c-.8-.2-1-.3-1-1.2a81.4 81.4 0 01.5-5.2zm-17.2 11.6l-2-.5c-1-.2-1.1-.3-1-1.4 0-1.8.3-3.7.4-5.5l.3-.9 1.7.3c1.6.3 1.6.3 1.5 1.9l-.6 5.3a4 4 0 01-.3.8zm21.4 3.2a52.2 52.2 0 01.4-7.2 6.2 6.2 0 013.7.4c-.3 2.2-.3 4.5-.8 6.8H50zm-6 7.2l-3-.6c-.5-.1-.7-.5-.6-1l.1-4.8.2-1.2 3.3.6c.2 0 .6.3.5.5 0 .7.2 1.5-.5 2a.7.7 0 00-.3.6.8.8 0 00.3.7c.2.1.3.4.3.7l-.3 2.5zm-10.7-17.3L33 436l-3.5-.7.8-7.6 3.1.6zm4.2.8l2.3.3c.7 0 .8.4.8 1L40 436l-.2 1.4-2.5-.4a.8.8 0 01-.5-.3.8.8 0 01-.2-.7l.8-6.8zm-9.1 13.4l.7-5.8c0-.8.3-.9 1-.8l1.8.4c.6 0 .8.4.8 1l-.4 5a4.6 4.6 0 01-.3.8l-3.6-.6zM54.3 424c-1 .4-1.8 0-2.6-.1s-.9-.2-.9-1l.2-4.6.2-1.3h2.5c.7 0 1 .3 1 1l-.2 5a6.1 6.1 0 01-.2 1zm-8-21.4a7 7 0 011.4-5.8l3.1.3v5.7l-4.4-.2zm-10 42l2.4.5c1 .3 1 .3 1 1.3l-.5 5.2a4.7 4.7 0 01-.2.7l-2.7-.5c-.6-.1-.7-.5-.6-1l.1-2 .5-4.2zM43 453l-2.5-.4a.7.7 0 01-.5-.3.7.7 0 01-.1-.6l.6-6.2 3 .6a.7.7 0 01.5.5 71 71 0 01-.4 4.3 15.3 15.3 0 01-.6 2.1zm10.4-13.8c-.2 2.5-.1 4.9-.6 7.3h-3.2c.2-2.5.2-4.9.6-7.3h3.2zm-21.7-61.5l3.3.3c.4 0 .6.4.6.8v4.6c0 .6-.3.9-.8.9h-2c-.7 0-1-.3-1-.9v-5.7zM51 424.3l2.5.2c.9 0 1 .2 1 1.1 0 1.3 0 2.6-.2 4l-.1 1.4-2.8-.2c-.8 0-1-.2-.9-1 0-.8 0-1.7.2-2.5l.3-3zm-14.3 13.3c1-.4 1.7.1 2.4.2.7 0 1 .4.9 1v5.2a4.2 4.2 0 01-.2.8l-2.8-.6a1 1 0 01-.6-.7c0-2 .2-4 .3-5.9zm-.9 7c-.4 2.3-.2 4.6-.8 7l-2.6-.6c-.6-.1-.8-.4-.7-1l.8-4.4.2-1.6a7.7 7.7 0 013.1.6zm13.2 9l.5-5.8a1 1 0 01.6-.7c.9 0 1.9-.2 2.9.3-.3 2-.1 4.2-.6 6.3h-3.4zm-15-25c.8 0 1.4.2 2 .3 1 .2 1 .3 1 1.3a429 429 0 01-.6 4.7c-.3 1.9-.4 1.9-2.2 1.5-.6-.2-.8-.4-.7-1 0-1.1 0-2.2.2-3.3l.3-3.6zm-15-53.1l.3.6a414.7 414.7 0 011.5 6c0 .5-1.4 3-2 3.5l-.1-.2-1.9-4.7a1.2 1.2 0 010-.9l2.1-4.3zm39.6 71.1V444c0-1.3 0-2.6.2-3.8 0-.5 0-.9.6-.9.7 0 1.5-.2 2.3.2v6.2a.8.8 0 01-.5.6l-2.6.4zm-.2-29.3c0 2.4.2 4.5 0 6.8-.7 0-1.2.2-1.8.3-1 0-1.3-.3-1.3-1.3V418l.2-.9 3 .3zM35 408l3.4.6-.5 6.3-2.8-.4a1 1 0 01-.4-.7l.3-5.8zm-21.2 23l-1-2.3a1 1 0 01.5-1.5l1.1-.7.5 1.1 3.1 8c.5 1.2.4 1.5-1 2l-.3-.4c-.7-.9-1-1.8 0-2.8v-.3l-.3-.1-.7 1.2-1.1-2.4c-.4-.7-.6-1.4 0-2.1l-.8.3zm14.5 19.6l.2-.2 2.5.8v1.4h.1l.5-1.3 3 .7a1 1 0 01.4.7l-.5 4.4c-1.1-.2-2-.3-2.7-1.3l-2.6-4-.9-1.2zm13.2-21.4l.5-6.3 2.7.5a.8.8 0 01.5.6 31.6 31.6 0 01-.3 5.7l-3.4-.5zM26.8 420c1 .2 1.6.4 2.3.4.7.1.9.5.8 1.1l-.2 5.1a.4.4 0 01-.6.4 12.7 12.7 0 01-1-.1c-2-.5-1.9-.3-1.8-2.4l.5-4.5zm11.3 2l2.2.5c.8.2 1 .3.9 1.1 0 1.2-.2 2.3-.3 3.5-.1 2.2-.1 2.2-2.2 1.8-1-.2-1-.2-1-1.1l.1-4.9.3-.9zm-1 6.7l-3-.7c-.3-2 0-5.8.4-6.6l2 .3c.8.2.9.3.9 1.1l-.2 4v1.9zm-5.8-56.8l3.5.5a.7.7 0 01.5.2.7.7 0 01.2.6v3.7a.7.7 0 01-.4.6.7.7 0 01-.3 0 6.8 6.8 0 01-3.3-.4l-.2-5.2zm23.4 59l.3-4c0-2.3.3-2.5 2.5-2.3.6.1.9.3.9.9v4.6c0 .5-.2.8-.7.8h-3zm7 .4c.2 1.5 0 6.6-.3 7.4a5.2 5.2 0 01-2.6 0v-1.3l.2-4.6c0-1.4.3-1.6 1.6-1.6h1.1zm.6-34.3h-3.1a.6.6 0 01-.5-.2.6.6 0 01-.2-.4v-4a.9.9 0 01.6-.7h3.5l-.3 5.3zm-31.7 24l.4-.2 1.6.2c1 .1 1.1.3 1 1.3 0 1.7 0 3.4-.2 5l-.2.5c-.8-.1-1.6-.2-2.4-.5a1 1 0 01-.5-.6c0-2-.1-3.9.3-5.8zm24.2-17.7h2.5a.7.7 0 01.6.2.7.7 0 01.2.6v5.1c0 .4 0 .8-.6.8-.8 0-1.6.2-2.5-.3l-.2-6.4zm7 6.7h-1.9c-1 0-1.1-.1-1.1-1.2a579 579 0 01-.1-5.5c1.1 0 2.1-.2 3.1.1v6.6zm-33 26l-1 6.4-3-1 .6-5.7c0-.2 0-.3.2-.4 1 0 2 .3 3.1.6zm2.3-28.5l2.5.3c.6 0 .8.4.7 1l-.1 3.6-.3 2-2.4-.5a.8.8 0 01-.5-.2.8.8 0 01-.2-.6l.3-5.6zM62.5 391c-1.1 0-2.1.2-3.2.3-.5 0-.8-.2-.8-.7l.2-4.3a.6.6 0 01.5-.6.6.6 0 01.2 0l2.4.3c.3 0 .7.4.7.7v4.3zM31 377.3h-2.4c-.8 0-1-.3-1.2-1.2a41.3 41.3 0 01-.2-2.7v-1.8c1.2-.4 2.2.1 3.2.2.1 0 .4.4.4.7l.2 2v2.8zm34.6 32.6l.1 1.5v3.3c0 2 .3 2-2.1 2h-.4c-.4 0-.7-.3-.7-.7v-5a.8.8 0 01.6-.7l2.5-.4zm-39.1-38.6c.3 1.9.4 3.8.5 5.7h-2.2a1 1 0 01-1-.8l-1-4.4v-.5h3.7zm19 44.7l-3.1-.4a25.8 25.8 0 01.3-6.3l2.3.3a.8.8 0 01.7 1l-.2 5.4zm-7-8l-3.4-.4.4-5.7 3.5.5-.5 5.7zm3.7 8.3h2c1.1 0 1.3.3 1.3 1.4a1.4 1.4 0 01-.5 1.2 1 1 0 00-.2 1.4c.7.8.5 1.7.4 2.7l-2.4-.4c-.8-.2-1-.4-.9-1.3l.2-3.2.1-1.8zm19.7 1v4.7c0 2.3 0 2.3-2.3 2.1a2.2 2.2 0 01-.5-.2 64.5 64.5 0 010-6.6h2.8zm-34.2-39.6H30c1 0 1 .1 1 1v4.7a3.3 3.3 0 01-.2.8L29 384a1 1 0 01-.9-.6 1 1 0 010-.3l-.2-2-.3-3.4zm7 37.3l2.6.3c.5.1.6.5.6 1 0 .9 0 1.8-.2 2.8l-.2 2.2a6.2 6.2 0 01-2.6-.4.8.8 0 01-.5-.7c0-1.6 0-3.3.4-5.2zm7.3-5.9l-.1 2c0 1.2 0 2.3-.2 3.4 0 .8-.2 1-1 .9-.6 0-1.3-.2-2.2-.4l.5-6.3 3 .4zM38 421.5c0-2 .2-4 .5-5.9l2 .2c.6.1 1 .4 1 1.1l-.3 4.3a5.1 5.1 0 01-.2 1l-3-.7zM31 407l.4-5.7 3.4.6c-.1 2 0 3.8-.5 5.7l-3.2-.6zm3 8a1542.3 1542.3 0 00-.3 5.6c-1.3.2-1.8.1-3.2-.4.2-1.9-.1-3.8.4-5.8l3.1.6zm20.4-4.3c0 2 .4 4 .1 6l-3-.2a16.8 16.8 0 01.2-6l2.7.2zm7.3 6l-2 .1c-.7 0-1-.3-1-.9v-4.6a2.2 2.2 0 01.2-.6h2.8a34.6 34.6 0 010 6zm-26.3-26.3l-3.4-.7c-.2 0-.4-.5-.4-.8l.2-3.2a.7.7 0 01.7-.8h2.3a.7.7 0 01.6.4.7.7 0 010 .3v4.8zm-2 46.4l1.7.3a1 1 0 01.9 1.1l-.1 3.3-.3 2.5-1.9-.4c-.8-.1-1-.2-.9-1.1l.4-4.3.2-1.4zm25.2-34c-.2-2-.1-4.2.2-5h3.5a25.6 25.6 0 01-.3 5h-3.4zm-44.4-16.9l2.3 4.5a.8.8 0 010 .6 15.2 15.2 0 01-1.3 3.3c-.4-.5-.8-.8-1-1.2-2.2-2.6-2-1.5-1-4.6l1-2.6zm37.3 24v-4.4c0-2.2 0-2.3 2.3-2l.3.2c.4 2 .2 4.2.3 6.4l-2.9-.1zm3.8 6.8c-.1-2-.4-4-.2-6h2.3c.5 0 .8.2.8.7v5.1l-.3.4-2.6-.2zm-8.8-20.2l.7-4a1 1 0 01.6-.5h3c.3 1.4.1 3.8-.1 4.5h-4.2zm-11.4-.8l-2.7-.3c-.4 0-.8-.2-.8-.7v-4.4c1.1 0 2.2.1 3.3.5a1 1 0 01.5.7l-.3 4.2zM39 402l-3.5-.6c.1-1.8-.1-3.4.4-5h2.3c.8.1 1 .3 1 1.1l-.2 4.4zm-11.4 4.9l2.2.4a.7.7 0 01.6.8 2712.7 2712.7 0 00-.2 5.5l-1.9-.1c-.6 0-1-.4-1-1l.3-5.6zm15.2-4l2.2.2a.7.7 0 01.5.3.7.7 0 01.2.6l-.2 5.3-2.4-.4a.9.9 0 01-.5-.6c0-1.7 0-3.5.2-5.3zm-7.6-6.6l-.3 4.8c-1 .4-2 0-2.9-.2a.8.8 0 01-.5-.6v-4.4h2l1.7.4zM17 389.9l-2.2-4a1.7 1.7 0 01-.1-1.2l1.5-3.8c.7 1.8 1.4 3.3 1.9 5a3.6 3.6 0 010 1.8A15.2 15.2 0 0117 390zm37.8 7.4h2c1 0 1 .1 1 1a75.5 75.5 0 010 3.7 4.7 4.7 0 01-.1.8h-3l.1-5.5zm-27.4 16.4l1.9.3c.9.2 1 .2.9 1.1l-.3 4.5a2.2 2.2 0 01-.1.4 5.4 5.4 0 01-2.4-.4 1 1 0 01-.5-.7l.5-5.2zm24.4-28.4l-.2 2.4a94.2 94.2 0 01-.3 3c0 .4-.2.8-.7.8-1 0-2.1.1-3.2-.2a2 2 0 01.5-1.6 6.3 6.3 0 001-1.4l1.2-2.6c.4-.9.6-1 1.7-.4zm10 39.5v4.1c0 2 0 2.2-2.2 2a2.3 2.3 0 01-.5-.2v-4c0-2.2 0-2.2 2-2l.6.1zm-6.9-33.5l.4-5.2a.7.7 0 01.9-.7l2 .3.1.3-.3 4.6c0 .2-.4.6-.7.6h-2.4zm-19 4.4V393c0-2.3 0-2.3 2.5-2a.8.8 0 01.5 0c.2.2.5.5.5.7 0 1.3.1 2.8-.4 4.3l-3.2-.3zm7-4.6l-2.8-.5.3-5.4c1 0 2-.3 3 .1a4004.5 4004.5 0 01-.6 5.8zm-22.3 34.2l1 .2c1.2.5 1.2.6 1.1 2a135.3 135.3 0 01-.3 4l-.3 1.8c-2-.4-2.1-.5-2-2.3l.3-3 .2-2.7zm4.2 9c-1.9-.3-2-.5-2-2.2a215.4 215.4 0 01.9-5.8c1.9.3 1.9.3 1.8 2l-.5 5.4-.2.5zm2.9-50.5l-1.8-.3a.9.9 0 01-1-.8l-.2-1.9-.6-3.4h2a1 1 0 011 1l.6 5.4zM43 397c2.5-.6 2.8-.4 2.8 2v1.6l-.2 1.9-2.9-.3c0-1.8.2-3.5.3-5.2zm-21.7 1.8l2 .7a1 1 0 01.8 1.2v4a3.4 3.4 0 01-.2.7l-2.2-.8a1 1 0 01-.4-.7v-5zm20.5 9.6c-.3 0-.3.1-.4 0a30.2 30.2 0 01-1.4-.1c-1-.2-1.1-.3-1-1.3l.2-2.8c0-1.6 0-2 2.2-1.6l.7.3-.3 5.5zm10-17.3c0-2 .2-4 .5-6l2.5.3c0 1.5-.2 2.8-.3 4-.2 2-.4 2.2-2.4 2l-.4-.3zm-21.5 15.6l-2.7-.5c.1-2 0-3.7.5-5.6l1.8.2c.4.1.8.3.7.8 0 1.7.1 3.3-.3 5zm24.3-12.5v-.7c0-2 .4-2.3 2.4-2 .6 0 .8.3.8.8v2.2c0 2.2-.2 2.5-2.4 2.2h-.1a.7.7 0 01-.7-.7v-1.8zm-42.5-2.8l2.5 3.2a.8.8 0 01.2.6 16.6 16.6 0 01-1.2 3.4l-2.5-2.4a.8.8 0 01-.3-.7l1.3-4zm11.5 20.8l-1.3-.3a1 1 0 01-.8-1v-5c0-.3 0-.5.2-.7l1.6.5a1 1 0 01.7 1.1c0 1.2 0 2.4-.2 3.6l-.2 1.8zm4-17.8l-2.1-.4a.9.9 0 01-.8-1v-2.6c0-1.8.3-2 2-1.6h.3a.8.8 0 01.7.8v4.8zm-15.1 8.8L9.7 401a.7.7 0 01-.2-.5 21.4 21.4 0 011.2-3.7l2.5 2.5a1.3 1.3 0 01.2 1l-.8 3.2zM6 413.8l.8.3c2.1 1.2 2.1 1.2 1.5 3.4-.6 2.3-.8 2.5-3.2 1.8a2.2 2.2 0 01-.3-.2l1.2-5.3zm20.6-.8c-.5 0-.8 0-1.1-.2-1.2-.3-1.3-.4-1.2-1.6l.2-3.4c0-.5.2-1 .3-1.4a4 4 0 01.6 0c1.4 0 1.5.2 1.5 1.6v3.4l-.3 1.6zm27.4-10h-1.7c-.6 0-.9-.4-.9-1v-4l.1-.9h1.8a.7.7 0 01.5.2.7.7 0 01.2.5v5.1zM23 425.3a2.5 2.5 0 01-.5 0l-.8-.3c-1-.4-1-.5-1-1.6l.3-3.2.2-1.6 1.7.4a.8.8 0 01.6 1l-.5 5.3zm20.4-29v-4c0-.5.3-.8.8-.8l2.6.4-.2 2c-.5 2.7 0 2.5-3 2.4h-.2zm-.8.5l-.3 5.3c-.8 0-1.4 0-2-.2a.7.7 0 01-.7-.7l.3-4.7 2.7.3zm-19.7 37.6h.5c.3 0 .5 0 .8.2.8.3.9.3.8 1.2l-.2 2-.3 3.3c-1.8 0-2.1-.2-2-1.7a122.1 122.1 0 01.4-5zM14.3 377c.5 1 1 1.7 1.3 2.5.2.3.2.7.1 1-.3 1.4-1 2.6-1.6 4a19.6 19.6 0 01-1.4-1.7 1.7 1.7 0 01-.3-1.1 26.4 26.4 0 012-4.7zm13 23a18 18 0 01-2-.4.8.8 0 01-.5-.7v-4.4l2.3.4a1 1 0 01.5.7 13.1 13.1 0 01-.3 4.4zm-15.5-17h.4l1 1.3a1.7 1.7 0 01.3 1.9l-1 2.4-.6 1.8a8.7 8.7 0 01-1.2-1.2 1.9 1.9 0 01-.3-1.3l1.4-5zm13 17l1.8.3a.9.9 0 01.7.4 1 1 0 01.2.8l-.3 4.2-.3.3c-.4 0-1 0-1.4-.2a.8.8 0 01-.7-.7v-5zm-.4 13.1l.7.1.7.2c1 .2 1 .3 1 1.2a72.4 72.4 0 01-.4 3.9 4 4 0 01-.3.9l-2-.4c0-2 .2-3.9.3-5.9zm4-23.8c.4 0 .8 0 1 .2 1.6.4 1.6.4 1.6 2v3.6l-2-.4a.8.8 0 01-.5-.2.8.8 0 01-.1-.6v-4.6zM25.6 426c-1.9 0-2.2-.2-2-1.8 0-1 0-2.2.2-3.3 0-.5.1-1 .3-1.4l1.3.2a.7.7 0 01.7 1 345 345 0 01-.5 5.3zm-4-13.7l1.4.4a.8.8 0 01.6.9l-.2 5.2-1.4-.3c-1-.3-1-.4-1-1.4l.3-3 .2-1.8zM40 391.2l2 .2c.5 0 .7.4.7 1l-.2 3.1a5.6 5.6 0 01-.2 1l-2.6-.4c0-1.7.2-3.2.3-4.9zm32 4.5l-1.7-2.5a.7.7 0 010-.5 25 25 0 011.5-4.3l1.7 2.7a1 1 0 01.2.8l-1.7 3.7zm-44 4.4c0-1.7.2-3.2.3-4.9l1.7.2a1 1 0 01.7.3 1 1 0 01.2.8v2.8l-.2 1.3-2.7-.5zm-16.8 7.2l-2.6-1.9a1 1 0 01-.3-.7 9.8 9.8 0 011-3.3l2.5 2.2a1.2 1.2 0 01.3 1l-.9 2.7zm65.4-11.5l1.5 2.5a1.5 1.5 0 010 1.7l-1 1.8-.6.7a20.5 20.5 0 01-1.4-2.2 2 2 0 01-.1-1.4c.4-1 1-1.9 1.6-3zM7.2 426.3c-.7 0-1.4.2-2 .3-.7 0-1.2-.6-1.3-1.5 0-.6.2-.8 1-.9l4.6-.2a1.9 1.9 0 01.8 0c.3.1.5.3.7.6.1.4-.1.7-.5.8l-2 .6a.7.7 0 01-.9-.2.7.7 0 01-.1-.3l-.3-.2v1zm12.9 7l1 .2c1 .4 1.1.6 1 1.8 0 .7 0 1.4-.2 2.2l-.3 3.3c-2.4-2.3-1.8-4.8-1.5-7.5zm46-52.6h1.4c1 0 1 .1 1 1l.1 2.1c0 2.1 0 2.1-2 2l-.2-.2a10.8 10.8 0 01-.3-5zm8.2 18.3l-1.5-2.5a1 1 0 01-.1-.7 16.6 16.6 0 011.6-3.4c2 2.1 2.2 2.8.9 5.2l-.9 1.4zm0-8.4H74c-.6-.9-1.2-1.7-1.6-2.7a2.6 2.6 0 010-1.3l.3-2.2.4-1.3 2 3.7c.2.3.2.6.1 1l-.9 2.8zm-.6-11.7c2.6 2.3 3.3 5.1 1.7 7.4l-2-3.5a1.2 1.2 0 01-.2-.7l.5-3.2zm-63 54.3c-.5-1.5-1.3-2.7-1.7-4.1l3-1 .5 1.2.7 1.6a.7.7 0 01-.4 1l-2 1.3zm43.4-36.5h-1.8a.7.7 0 01-.8-.8V394c0-2.3.1-2.3 2.5-2.1l.1.1v4.7zM31 389.4l-2.2-.5a.9.9 0 01-.5-.7 14.5 14.5 0 010-3.6c1-.4 1.7 0 2.4.1a.8.8 0 01.5.7l-.2 4zm-18.7 27.9l.9.3c1.1.5 1.2.7 1 1.9a42.8 42.8 0 01-.5 2.7c0 .3-.2.7-.4.8-.7.2-1.3.5-2.2.2l.4-1.8 1.3-.3c-1.2-.5-1.2-.5-1.1-1 .1-1 .4-1.8.6-2.9zm-4.5 17a258 258 0 00-2-4.2l2.7-.9 1.8 4-2.5 1zm57.8-48.5H64c-.8 0-1-.2-1-1a40.3 40.3 0 010-2.4c0-1.8 0-2 1.9-1.7l.4.2.3 4.9zm-41.4 13.6l-2.1-.7a1 1 0 01-.7-.8 1 1 0 010-.3 12.5 12.5 0 011.3-4c1.5.5 1.5.5 1.5 1.8v4zm48.5 1.8l-2.8-4.4c-.5-1-.3-2 0-3.1l1 1c.7.9 1 1.7.2 2.7l-.2.7 1.3-1.2c.6.6 1.1 1.4 1.5 2.2a1 1 0 010 .8l-1 1.3zm27.4.1l-1.9-1.8c-.2-.2-.3-.6-.2-.8a8.6 8.6 0 012-2.7l2.3 2.3-2.2 3zM7.4 434.4l-1.8.6c-.4.1-.8.1-1-.3A23.5 23.5 0 013 431l2.2-.8.5.7 1.7 3.5zM20 392.1c.7 1.3 1.2 2.5.8 3.8a91 91 0 01-1 3.5 4.6 4.6 0 01-.4.7c-1.8-1.8-2-3-.5-4.7.6.5.5 1.5 1.3 1.9l-.5-1.5a3.4 3.4 0 01.3-3.7zM11 433.6c1-.6 1.6-1.2 2.7-1.5l1.2 2.8a1.2 1.2 0 01-.1 1 18.3 18.3 0 01-1.8 1.5l-2-3.8zm-1 5l-2-4 2.4-.8a11.5 11.5 0 012 4l-2.3.9zm70.5-43l-2-4a2 2 0 010-1.2l.6-2.7 2.4 5v.6l-1 2.3zm7.3 21.2c1.1.2 1.3.4 1.3 1l-.1 2.8a32 32 0 01-4.1-3.7.9.9 0 01-.2-.8l.8-1.4.9.6c.8.6 1 1.2.7 2.1a1.4 1.4 0 000 .5h.1l.6-1zm-9-11l-1.4-2a1.2 1.2 0 01-.2-.9l1.8-3.2 1.6 2.6a1 1 0 010 .8c-.5.9-1.1 1.7-1.8 2.6zm-58.5-15.5l-.4-1c-1-2.6-1-2.6.3-5 .2-.4.3-1 1-1.2l.7 4-.1.6-1.5 2.6zM9.1 414.8l-2.3-1.3a.8.8 0 01-.4-.6 9.7 9.7 0 01.8-3.2l2.2 1.4a1 1 0 01.4.8c-.1 1-.4 1.8-.7 3zm5.4 26.3a18.9 18.9 0 012.1 3.2l-2.5 1.6-1.9-3.2 2.3-1.6zM10 410.8l-2-1.4a1 1 0 01-.5-.8 7 7 0 01.8-2.7c2.9 1.4 3.1 2 2 4.7l-.3.2zm9 37.1l-2.3 1.6-2.1-3.2 2.5-1.6 1.8 3.2zm65-50l.3.4 3.7 7.6a.8.8 0 01-.1 1c-.7-.6-1.3-1.2-1.2-2.2a2.8 2.8 0 01-1.6-2.8c-1 0-1.2-1-1.6-1.7-.5-.8.3-1.4.4-2.2zm-15.6-17.7h-1.8a1 1 0 01-.7-.5 11.4 11.4 0 010-3.4h2.5v4zm9.5 27.1l.2.1.5-.3.5-.3.3.3.8 1c.7 1.1.7 1.3-.4 2.4l-4-5.4 1-1.4c.6 1.3 2.3 2 1 3.6zm-68.3 8.4l1.8.9a.8.8 0 01.4 1l-.2.6c-.5 2.6-.6 2.6-3.1 1.4a19 19 0 011.1-4zm0 23.1l-2.2.8-2.2-3.9 2.5-.8 2 4zm18.2-50.5c-1.1.2-1.9 0-2-.4a8.6 8.6 0 01-.5-4l2 .3a.8.8 0 01.5.6v3.5zm-17.7 1l1.2 1.3c.2.3.3.6.3 1a15 15 0 01-1.2 3.9L8.9 394a.9.9 0 01-.2-.7l1.3-4.2zm66.8-6.1c2 3.6 2.3 5.4.9 7l-1-1.7a3 3 0 01-.4-2.5l.5-2.8zm2.1 15.3l-1.7-3a1 1 0 01-.2-.7l.9-2.5h.3l1.8 3.3v.8l-1 2.1zM4.7 420c.7 0 1.4 0 2.1.2.3 0 .7.4.7.6-.2.9-.3 2-.9 2.6-.5.7-1.5.4-2.4.1a12.8 12.8 0 01.5-3.5zm10.6-24.4l1.8 2.5a.6.6 0 010 .4l-.9 3.6c-.6-.9-1.2-1.4-1.6-2.1a1.5 1.5 0 01-.2-1l1-3.4zm61.1-1.2l-1.5-2.4a1.2 1.2 0 01-.2-.9l1-3c2.2 3.2 2.3 3.3.7 6.3zm-68 0l1.4 1.4.2.8a18.7 18.7 0 01-1.2 3.7 11.4 11.4 0 01-1.3-1 1.2 1.2 0 01-.3-.8 22.2 22.2 0 011.2-4zm74.8 17l-1.6-1.9a.8.8 0 010-.7 11.8 11.8 0 011.9-2.7l1 1.2a1.3 1.3 0 01.2 1.4c-.4 1-1 1.8-1.5 2.8zm-2-8.1l1.4 1.8a1 1 0 01.1.8 9.6 9.6 0 01-1.7 2.7l-1.4-1.9a.8.8 0 010-1l1.6-2.4zm-18.5-27.4c.6 0 1.2 0 1.7.2.3 0 .6.3.6.5a17.6 17.6 0 010 3.8 10 10 0 01-1.7-.3 1 1 0 01-.5-.6v-3.6zM17 439l2 3.3-2 1.8-2-3.3 2-1.8zm80.3-39.3a7.9 7.9 0 012 2 .7.7 0 010 .6c-.4.8-1 1.4-1.6 2.3l-2-2.3 1.6-2.6zm-90.5-.2l1.4 1.1.4.6c.1.5-.6 2.9-1 3.5a13.5 13.5 0 01-1.5-1 1 1 0 01-.4-.7l1.1-3.5zm7.2.6l1.8 2.3a.8.8 0 01.2.5l-.8 3-1.6-1.5a1.3 1.3 0 01-.4-1.4l.8-2.9zM5.4 404L7 405a1 1 0 01.4.7 8.2 8.2 0 01-.9 3l-2.3-1.2 1-3.6zm13.6 49l-2-2.9 2.2-1.6 1.9 3-2.1 1.5zm-1.6-8.4c.7-.7 1.1-1.3 2-1.6l.7 1c1 2 1.5 1.7-.6 3.5h-.4l-1.7-3zM7.3 423.6l1-3.3 1 .3c1.7.4 1.8.6 1.4 2.3a.7.7 0 01-.8.7H7.3zm85.4-8.4h-.3a20.5 20.5 0 00-.6-2.4 1.6 1.6 0 01.8-2.1l.8-.4 1.2 1.6a.9.9 0 010 1.2l-2 2.1zm-75.4-17.9l-1.4-2a.8.8 0 01-.2-.6c.3-1.1.8-2.2 1.3-3.2 1.6 1.9 1.8 3.8.3 5.8zm4.1 53.7l-1.9-3 1.8-1.5.4.2.7 1c1.1 1.8 1.1 1.8-1 3.3zM13 404.3l1.8 1.8a.7.7 0 01.2.5c-.3.9-.4 1.8-1 2.7l-1.6-1.2a1 1 0 01-.3-1.3l.9-2.5zm84.4.6c-.7 1-1.2 1.7-2 2.3a18.4 18.4 0 01-1.4-1.5 1 1 0 01-.2-.8 5.2 5.2 0 011.7-2l2 2zm-16.8-8.3l1.8 3a.9.9 0 010 .7l-1.1 2-1.6-2.7a1.3 1.3 0 01-.1-1l1-2zM28.1 455l-2.1 2-2-2.6 2-1.8 2 2.4zm57.2-41.3A19.9 19.9 0 0184 412a1 1 0 010-.8c.4-1 .9-1.8 1.5-2.9l1.2 1.4a1 1 0 010 .7l-1.3 3.3zM11.5 408l2 1.6a1 1 0 01.2.8l-.7 2.3-2-1.4a.8.8 0 01-.3-.7l.8-2.6zm-1.8 35.6a27.4 27.4 0 01-2-3.6l1.3-.5a.8.8 0 01.7 0 .8.8 0 01.5.4l1.3 2.4-1.8 1.3zM12 442a9.3 9.3 0 01-1.5-3l2.4-1 1.4 2.4L12 442zm-1.6-30.3l2 1.4a.8.8 0 01.3.6l-.8 2.5a15.8 15.8 0 01-1.8-1 1 1 0 01-.3-.8c0-.8.3-1.6.6-2.7zm79.3 4.7v-2.8c0-1.2.1-1.4 1.5-1.7l.5 2.7c.3 1.4-.2 2-2 1.8zm-66 37.5l-1.9-2.5 2-1.7 1.9 2.4-1 .9-1 .9zm20.1-72.2v1c-.2 2.3-.2 2-2.6 2H41a.7.7 0 01-.8-.9l.2-4c.7 1.2.4 2.5 1.3 3.5l2-1.6zm53.9 12.7l1.8 1.2c-.8 1-1.4 2.1-2.3 3l-1.6-1 2-3.2zm-74.4 59.9l-1.9 1.4-2-2.5 2-1.5 2 2.6zm0-64c-1.1-2-.7-3.8 1.2-5.5a5 5 0 01-1.3 5.6zm59.5 9l-1.3-2.2c-.8-1.4-.7-2 .6-3.5.4 1 1 2.1 1.3 3.1v.7c0 .6-.3 1.1-.6 2zm-64-6l-1.3-2.4a1 1 0 010-.7c.3-1 .7-1.8 1.2-2.8.8 2 1.7 3.9 0 6zm-1 5.5l1.3 1.6a.8.8 0 01.1.6 11.3 11.3 0 01-1.1 3c-.6-.6-1.3-1-1.2-1.9a9.9 9.9 0 01.9-3.3zM10 444.2l1.8-1.3c.7 1.2 1.4 2.1 1.8 3.3l-1.6.9-2-3zm2.3 3.4l1.8-1a244.4 244.4 0 012 3.2l-1.5 1-2.3-3.2zm74.9-37c.6.4 1.1.8 1 1.4a14.3 14.3 0 01-.8 3.6 10 10 0 01-1.2-1 1.1 1.1 0 01-.2-1l1.2-3zM5 429.5c-.7.6-1.1.7-2.3.8a7.8 7.8 0 01-.8-2.7c2.3-.5 2.2-.7 3 1.6v.3zm11.8 8.8l-2.1 1.9-1.4-2.3 2-1.8 1.5 2.2zM97 409.7a11.8 11.8 0 01-1-1.4 1 1 0 010-.9l1.7-2 1.3 1.6-2 2.7zm-73 48.9l-2.3-2.3 1.9-1.4 1.9 2.5-1.6 1.2zm69.5-57.7a10 10 0 011.9-2.8l1.4 1.2c-.6 1-1 2-1.9 2.7l-1.4-1zM8.7 428.6l-.8-2 3.3-.9.6 1.9-3 1zm14.3 16l1.4 2c.7.9.7 1 0 1.7a6.2 6.2 0 01-.7.5l-1.2-1.8c-.7-1.1-.6-1.4.5-2.4zM21.6 394c-1.4-2.3-1.2-4 .5-5.2.6 1.8.8 3.6-.5 5.2zm-8 29.5c.8 2 .7 3.2-1.5 3.6l-.5-1.5 1.6-1a2 2 0 00-1 .2c-.4 0-.8.1-.8-.3 0-.2.3-.6.5-.7a10 10 0 011.6-.3zM83 404.9l-1.3-1.8a1 1 0 010-.8l1-1.7c1.8 2 1.8 2.3.4 4.3zm19.4-6c1 .5 1.2.9.9 1.4l-1.7 2.9c-1.3-1.2-1.4-1.4-.6-2.6a102.9 102.9 0 001.4-1.8zm-2.5 3.3l.9 1.2a.9.9 0 01.1.6c-.4.9-.8 1.7-1.6 2.3-1.4-1.3-1.4-1.3-.4-2.7l1-1.4zm-24.8 2.2l-1.8-2.4a.7.7 0 010-.7l.9-1.1.3.3 1 1.6c.8 1.2.8 1.2-.4 2.3zm-70.4 23c2-1 2.8-.9 3.3 1v.3l-.7.3c-2 .6-2.1.5-2.6-1.6zm12.3-19.5c-.7-.6-1.4-1-1.3-1.7 0-1 .3-2 .9-2.9.5.6 1.3 1 1.2 1.9l-.8 2.7zm0 46.1l-2-2.7 1.5-1 1.6 2.3.3.6-1.4.8zm76.2-44.7l-1.8-2 1.7-1.6 1.7 2-1.6 1.6zm-74.8 28L20 440c.4 1 .3 1-.7 1.7a1.3 1.3 0 01-.2-.3l-1-1.7c-.7-1.1-.7-1.2.4-2.4zm10 17.5c-.6-.6-1-1-1.3-1.5-.9-1-.8-1.4.4-2.5l1.5 2a.8.8 0 010 1l-.7 1zm-24.8-28l-2 .2-.7-2.2 2.2-.5c.4.9.7 1.6.5 2.5zM16 411c-.7-.4-1.4-.8-1.4-1.6a5.5 5.5 0 01.9-2.5c1.4 1.3 1.8 1.3.5 4.1zm8 38.3l1.4-1.5 1 1.4c.7 1 .7 1.4-.5 2.4l-1.8-2.3zm61.1-35.3l-1 2-1.6-1.7a.8.8 0 010-1.2l.7-.9 2 1.8zm6.5-10.4l1.6-2.4 1.6 1.3-1.8 2.2-1.4-1zM21 456.1l-1.4.9-2-2.5 1.3-.9.5.5 1.6 2zm74.3-47.8c1.5 1.4 1.8 2.2 0 3.5l-1.5-1.9 1.5-1.6zm-74.6 33l1.3 2c.6 1 .6 1-.5 2-.5-.8-1-1.4-1.3-2.2-.5-.8-.5-.9.5-1.8zm62.2-29.5l-1 1.6-1.1-1.4c-.8-1-.8-1.2.4-2.3l1.7 2zm1.8-8.3c1.2 1.5 1.6 2 .4 3.6-1.7-1.7-1.7-1.8-.4-3.6zm-61.2 55.3c-1 .7-1 .8-1.5.4l-1.9-1.8 1.3-.8 2.1 2.2zm69.1-53.6c-.5 1.1-1.4 1.7-2.4 2.3-.4-1 0-2.1 1.3-3.1l1.1.8zM45.3 344a2.9 2.9 0 01.3 2.2 2.9 2.9 0 01-1.2 1.8 5.5 5.5 0 01.9-4zm46.2 67l-.9-2.4c0-.2 0-.5.2-.5a.8.8 0 01.6 0l1.6 1.7-1.5 1.2zm-2.8 1.8h.4a17 17 0 01.1 3.8c-1-.3-1.2-.4-1-1.2 0-.8.3-1.7.5-2.6zm-1.7-3.5c-1.4-.8-1.8-2-.6-3 1.2 1.1 1.5 2.2.6 3zM26 461c-1.3.6-1.7.4-2.8-1 .7-.8.8-.8 1.5-.1L26 461zm63.8-49.3a6.2 6.2 0 010-3.4c.6.6.7 1.4 1 2.2.1.7 0 .9-1 1.2zm-1.3-.7c-1.2-1-1.2-1.6 0-3.4.5 1 .4 2.2 0 3.4zm-38-26.6l1.7-3.2.2.1c-.1 1-.3 1.9-.6 2.8-.1.6-.6.5-1.2.3zM23 393.2c.4-1 .5-1.8 1.3-2.5v3l-1.3-.5z" fill="#000"/><path d="M63.6 334.2l-.7 1.6c-.6 1.3-1.3 1.6-2.6.8a19.6 19.6 0 01-2.4-1.8c-1.4-1.2-2.7-1.2-4.3-.5a5.1 5.1 0 00-2.8 3 20.7 20.7 0 00-1.5 6.5v.8c-.1 2.3-.1 2.3-2.5 1.8l-.4 2.7c-.2 2.2-.4 4.4.2 6.5a14.6 14.6 0 004 6.8 3.4 3.4 0 002 1 7.5 7.5 0 005.2-1.4 15.8 15.8 0 005.2-5.3c1.6-2.9 3.2-5.8 3.7-9 .3-2.1.1-4.2.2-6.4a9.2 9.2 0 00-2.2-6l-1-1.1zm-6.6 17a8.5 8.5 0 011-3.5c.4-.8 1.2-.8 1.7 0l.2.8c.3 1.3.4 2.7.5 4a7.5 7.5 0 01-.5 2.4 1.2 1.2 0 01-1.3.8c-.6 0-.9-.5-1-1a80.8 80.8 0 01-.6-3.5z" fill="#fff"/><path d="M45.3 354.2l-.7 4.8-1.1 7.5a10 10 0 000 2.5 14.8 14.8 0 003 7.4 4.8 4.8 0 011 3.1c0 2.7.2 5.3.3 8v1.2a9.8 9.8 0 00.6-.8l4.6-9.4a4 4 0 011.3-1.7 4 4 0 001-1c.2-.3.4-.6.4-1l.1-1.9 1.7-8.8v-.8l-1.3.4c-3.2 1.3-5.8.2-7.6-2.1a14 14 0 01-3-6.7 5.8 5.8 0 00-.2-.7h-.1zm8.3 230.7l-1.1 2.6-.9 2.1c-.3.9-.2 1.2.7 1.6 1.4.7 2.9 1.5 4.4 2 5.8 2.3 11.7 4.6 17.8 5.9l3.9.8c2 .3 4 0 6-.6l.3-.2c-.2-.7-.8-1-1.4-1.3a182 182 0 00-5.3-2.5 33.9 33.9 0 01-9.4-5.7 2 2 0 00-1-.4c-2.3-.3-4.4-1.1-6.6-1.8l-6.7-2.3-.7-.2zm15-198.6a2.3 2.3 0 00-.5-.1c-1.7-.2-2 0-1.9 1.6a906.7 906.7 0 00.6 9.5l-.3 1.8a522.9 522.9 0 00-.2 8.7c0 .6-.3 1.2.3 1.7a.3.3 0 010 .3c-.6.6-.4 1.4-.4 2v13.4l-.5 9.8a.7.7 0 01-.3.6l.3-18.3a4.3 4.3 0 00-2.7-.2 1 1 0 00-.5.6v6.1l.8.2-.1.2a1.1 1.1 0 00-.7 1.2v4.3c0 .4.2.8.4 1.2a3.8 3.8 0 00-.5 1.2l-.2 6.5 1 .4c-1 .3-1 .3-1 1.4v4.6l.1.9 1.5-.3v.2l-.3.2c-1.2.3-1.4 1-1.4 2l.2 5.1a24.4 24.4 0 000 3.3l.2-.3 2.4-12.3 1.7-12.8a562.2 562.2 0 001.4-14.4l.6-13.6.5-7.6c0-.4.2-.8-.4-1-.2-.1-.1-.7-.1-1V387v-.8zM29.4 603.1a8.8 8.8 0 00-1 4.5c0 .9.1 1 1.1 1.1l5.6.7 8.9.6 11.7.7 4.3.6a7.2 7.2 0 004-.7 4.4 4.4 0 00-.7-.6 34.6 34.6 0 00-3.2-1.4c-4.4-1.7-9-3.2-13.3-4.9a6.6 6.6 0 00-3-.2c-4 .3-8 .7-12.1 0l-2.3-.4zm9.7-236.6H38l-9.4.5c-2.1 0-4.2.4-6.2 1l-1.1.5.8 1.8a1 1 0 00.7.5h3.5v-2.4h.2l.3 1.8c.1.3.4.7.6.7l3.3.5-.1-3.5h.2l.6 3.6 4 .5.2-3.7h.2c.5 1 0 2.3.4 3.5l1.6.3-1.6.5v5h3v.1l-3 .5-.1 1.6v3.7c0 .9 0 1 1 1l1.2.1.3.2-2.4.2-.1.8v3.5c0 .9.2 1.1 1 1.2h2.3l.2-.5c.1-1.4.4-2.9.2-4.2-.1-1 .3-2 .2-2.9l.2-3a15.5 15.5 0 00-.3-3.3 29.8 29.8 0 01-.6-9.7l-.1-.4z" fill="#fff"/><path d="M109 384.9c0-1.3 1.4-1.7 1.4-3a5.7 5.7 0 00-1 .2 14.3 14.3 0 00-5.8 4.6c-.8 1-.7 1.3.3 2.1l3.8 3a2.4 2.4 0 002 .7l2.6-.4c3-.7 5.4-2.4 7.6-4.4a8 8 0 001.4-1.9c1.1-1.8.2-3.4-2-3.4-1.8 0-3.6.3-5.3.9l-2.7 1-2.3.6z" fill="#fff" stroke="#000" stroke-width=".8" stroke-miterlimit="10"/><path d="M70 378.5l2.6 3c.8-1.3.7-3.4-.3-4.4a8.6 8.6 0 00-1.8-1.5l-9-4.8a4.2 4.2 0 00-.7-.2l.3 4.8-.6 5c-.2 1.5-.1 3.1-1 4.8a12 12 0 01-1.2-1l-3.9-4.8-.9-1-1.2 6.2 2.5.4.6-1.7.2 1.6 6.5.6c.6-1.7.3-4.6-.5-5.4.8-.9.8-3.2.2-4.4l.4-3.4c.4.5.2 1 .3 1.4v1.5l2.4.4.3-1.2c.4.5.6 1.1 1 1.2a2.7 2.7 0 002.5-.2l.3 3.3.2 11.6c0 .9 0 .9.8 1.6.5-1.3 1-2.5 1.3-3.8a2.2 2.2 0 00-.3-1.4l-1.5-2.6c1 .5 1.3 1.8 2.2 2.5a9.9 9.9 0 00.8-4c0-.3-.3-.7-.6-1l-2.1-3-.6-.7.3-.1.5.7zm-31 78c-.5-1.2.1-2.3 0-3.5-1-.5-2.1-.6-3.4-.8a33.4 33.4 0 00-.7 5.2l2.7.6c3.5.7 7.2 1 10.8.8l6.4-.3a3.9 3.9 0 001.2-.3c.3 0 .7-.3.7-.5l.5-3.2a10.1 10.1 0 00-3.7-.1c-.2 0-.5.4-.5.7a9.6 9.6 0 01-.6 1.8l-.1-2.4c-1-.4-2-.2-2.9-.2-.4 0-.6.4-.6.8v1.3a1.3 1.3 0 01-.5.8v-3l-4.4-.5-.6 1.5v-.9a.9.9 0 00-.6-.8.9.9 0 00-.3 0l-1.7-.4c-.9 0-1 0-1.2 1l-.3 1.5a7.6 7.6 0 01-.2 1zm3-74l4.6-4.8-.8-1.2a16.2 16.2 0 01-2.6-5.9 9.8 9.8 0 01-.3-5 3.6 3.6 0 000-1.1 3.6 3.6 0 00-2.8 2.4 5.9 5.9 0 00-.3 1.7c-.2 3 .1 5.9.9 8.7l1.3 5.3z" fill="#fff"/><path d="M54 377.9A149.4 149.4 0 0059 384h.3l.4-2.7.7-7.5a6.5 6.5 0 00-2.6-5.8 3 3 0 00-.3-.2 1 1 0 00-.2 0 4.3 4.3 0 00-.3.8 48 48 0 00-.5 5 4.2 4.2 0 01-1.8 3.5l-.9.7zM18 433.4V407l-1.4 4.7-2.1 9.9a8 8 0 00.1 3.2 43.8 43.8 0 003 8.3l.4.3zm6.7 8.8l-.4 1.4h-.2c-.1-1.8-.1-1.8-2-2.2l-.6-.1.5.8 4.4 6.3c1 1.6 2.7 2 4.6 2.2l1-6.8-3-.6c-.7-.1-1 .4-1 .9l-.5 3.4a1 1 0 01-.3.6 3.2 3.2 0 010-1.7c0-1 .2-1.8.4-2.6 0-.6 0-1-.7-1.2-.7 0-1.4-.5-2.2-.4zm77.1-37.8c-.9.2-1 1.2-1.6 1.7-.7.7-.1 1.5 0 2.4l-1-.9-1.3 1.7c-.6.7-.5 1.4-.2 2.3l-.8-.7c-1.4 1.3-1.4 1.3-.7 3.2l-1-1-2.5 2.7c-.2.2-.1.7-.2 1.1v1.3l-.2.2-.4-1.8-1.9.8a.8.8 0 00-.4.5l-.2 2.8a1.9 1.9 0 002.1-.2c.7-.5 1.3-1.1 1.9-1.8 1.4-1.8 2.8-3.6 4-5.5 2.2-3.1 4-6.4 6-9.6l.8-1.5a1 1 0 00.2-.8 1 1 0 00-.5-.7c-.9 1.2-1.9 2.2-2 3.8zm-40.4 42.4c-.9 0-1.8 0-2.6.2-.3 0-.5.6-.6 1l-.3 3a6.6 6.6 0 01-.2 1.8c-.2.5.4 1 .1 1.5a4.8 4.8 0 00-.4 1.4l-.2 1.6v.8l4-1.2.3-.4v-9a4.7 4.7 0 00-.1-.7zm1-36.9c.9 0 1.7-.2 2.5-.3.6 0 .6-.5.7-1 0-1.3 0-2.6.2-3.8 0-1-.4-2 0-3v-3-1.3c-1-.4-1.9 0-2.8.1a18.8 18.8 0 00-.4 5l1.7.2v.1l-.5.1c-1.4.1-1.4.1-1.4 1.4v5.5zm-35 56.5l6.9-6.1-2.9-3.8c-1.6 2.4-3.6 4-6 5.6a13.3 13.3 0 002 4.3zM1 424.1h.9c1.5-.2 1.6-.3 1.8-1.8l.4-2.6-1.4-.6c.5-.5 1 0 1.5-.1l.3-.8 1-3.8c.1-.6 0-1-.7-1.2a12.4 12.4 0 01-1.3-.5l.1-.2 2.2.4.7-3.2a1 1 0 00-.5-.7 16.7 16.7 0 00-1.8-.9 155.9 155.9 0 00-3.2 16zm45.7-45.7l-2.1 2.3a1.8 1.8 0 00-.4 1 11.2 11.2 0 00-.2 2.2c.1 1.7-.3 3.3-.4 5v2l1.9.4c1.4.2 1.7 0 1.7-1.5l-.1-7-.2-4.3h-.2zm-27.4 32.8a.7.7 0 00-.7.5.7.7 0 000 .4v20c0 1.4.3 2.8.4 4.2h.2l.3-2.3.5-7.9a1.5 1.5 0 010-.3c.2-.6-.6-1.1 0-1.8.3-.5.2-1.2.2-1.9l.1-2c.1-.9.6-2-1-2.3h1.1l.3-1.7.2-2.8c.1-1.1 0-1.2-1-1.6a6.2 6.2 0 01-.6-.5zm87.5-13.4l2.5-4c-2.3-2-4.7-3.7-7-5.5-.8.6-3.7 4.5-4.2 5.8l1.7 1 1.9-3-1.1-.8v-.2l1.8.4c.3.8 1.1 1.5 2 2 .7.6.9 1.8 2 2.3l1.5-2a1.5 1.5 0 01-.5 1.3 2.8 2.8 0 00-.6 2.6v.1zm-61.6 32.6a5 5 0 01.2 2.4l-.4 4.6c0 .4 0 .8.6.9l3.8.3c0-2.6.2-5 .3-7.4a23.2 23.2 0 00-4.5-.8zm12.9 8.8h-3.6a.7.7 0 00-.5.2.7.7 0 00-.2.5l-.4 6.5c1.3.2 2.6.2 4 0 .1 0 .4-.3.4-.5v-1.5l.3-3.7v-1.5zm-7.7-22.4c-1.3 0-2.5-.2-3.7-.3l-.8.1a3.6 3.6 0 000 2.3c.2.6.1 1.2 0 1.8-.2.2-.2.4-.2.6 0 1.8 0 2 1.6 2l2.7.4c.4-1 .6-4.2.4-6.9zm-6 29l4.4.6c.5-2.5.4-4.9.6-7.4l-4.3-.3-.1 3.5-.5 3.5zm4 7.8l.5-6a.8.8 0 00-.8-.9l-3.6-.4-.5 4.2a.8.8 0 00.2.6c.6.7.3 1.3-.4 2 1.5.3 3 .5 4.5.5zm-3.2-23.2a20 20 0 00-3.8-.7l-.3 1.7-.5 5.2c0 .9.1 1 1 1.2l3 .3v-2c.1-.6 0-1.2.2-1.7a2 2 0 00-.3-1.7 1 1 0 01-.2-1.1 1 1 0 01.3-.3c.2-.3.5-.6.6-1v.1zm5.5-27l-4.3-.4-.2 1.2v1.8c-.2.7-.3 1.4.5 1.8l-.6 1.5 4.4.6c.5-.8.6-4.6.2-6.6zm3.5 35.4h3.1c.6 0 .8-.3.9-.8l.2-5.5c0-1-.1-1-1-1h-2a.8.8 0 00-.8.4.8.8 0 000 .3 432.6 432.6 0 00-.4 6.6zm-3.6-22.4l.3-6-4.7-.6a5.3 5.3 0 00-.2 1 167.7 167.7 0 000 4c0 1.2 0 1.3 1.4 1.3l3.2.3zM63 397c.9 0 1.7 0 2.4-.2.2 0 .4-.3.5-.5v-.7l-.2-8.3c0-1-.2-1.1-1.3-1-1 0-1.2 0-1.2 1v.2l-.2 8.3v1.2zm-5.2 50.1a13 13 0 00-3.7 0c-.2 0-.5.3-.6.5a1.7 1.7 0 00-.2.7c0 1.4-.2 2.7-.3 4v1.4h3.6a.7.7 0 00.5-.3.7.7 0 00.2-.5l.5-5.8zm-12-23.5a12.4 12.4 0 00-.2 1.5 81.2 81.2 0 00-.1 3.7c0 .9.1 1 1 1.2l2.4.4c.7.2.9 0 1-.7 0-1.6.2-3.2.3-4.7 0-.5-.2-1-.7-1l-3.6-.4zm-17.2 11.6c.2-.3.3-.5.3-.8l.6-5.3c0-1.6 0-1.6-1.5-1.9l-1.7-.3a5.9 5.9 0 00-.3.9l-.5 5.5c0 1.1 0 1.2 1.1 1.5l2 .4zm21.4 3.2h3.3c.5-2.2.5-4.5.8-6.8a6.2 6.2 0 00-3.7-.4 52.2 52.2 0 00-.4 7.2zm-6 7.2l.4-2.5a1.1 1.1 0 00-.4-.8.8.8 0 01-.2-1 .7.7 0 01.3-.2c.6-.6.4-1.3.5-2 0-.2-.3-.5-.5-.6l-3.4-.5-.1 1.1-.2 4.9c0 .5.1.9.7 1l3 .6zm-10.7-17.3l-3.1-.6-.8 7.6 3.5.7.4-7.7zm4.2.8l-.7 6.8a.8.8 0 00.7 1l2.4.4.2-1.4.5-5.5c0-.6-.2-1-.8-1l-2.3-.3zm-9.1 13.4l3.6.6.3-.8.4-5c0-.6-.1-1-.8-1l-1.8-.4c-.7 0-1 0-1 .8l-.7 5.8zm26-18.6v-1l.2-5c0-.7-.2-1-.9-1h-2.5l-.2 1.3-.2 4.6c0 .7 0 .9.9 1 .8.1 1.7.5 2.6 0zm-8-21.4l4.4.3V397l-3-.2a7 7 0 00-1.4 5.7zm-10 42a232.7 232.7 0 01-.6 4.2c0 .7 0 1.3-.2 1.9 0 .6 0 1 .7 1l2.7.6.2-.8.5-5.2c0-1 0-1-1-1.2l-2.4-.5zm6.5 8.4l.6-2 .4-4.4a.7.7 0 00-.4-.5l-3.1-.6-.6 6.2a.7.7 0 00.6.9l2.5.4zm10.4-13.8h-3.2c-.4 2.4-.4 4.8-.6 7.3h3.2c.5-2.4.4-4.8.6-7.3zm-21.7-61.5v3.5l.1 2.2c0 .6.4.9 1 .9h2c.5 0 .8-.3.8-.9v-4.6c0-.4-.2-.8-.6-.8l-3.3-.3zM51 424.3l-.3 3a49.3 49.3 0 00-.2 2.5c0 .8.1 1 .9 1l2.8.2.1-1.4.2-4c0-.9-.2-1-1-1.1l-2.5-.2zm-14.3 13.3l-.3 5.9a1 1 0 00.6.7l2.8.6.2-.8v-5.1c0-.7-.2-1-.9-1.1-.7-.1-1.5-.5-2.4-.2zm-.9 7a7.7 7.7 0 00-3-.6l-.3 1.6-.7 4.4c-.2.6 0 .9.6 1l2.6.5c.6-2.3.4-4.6.8-6.9zm13.2 9h3.4c.5-2 .3-4.2.6-6.2-1-.5-2-.3-3-.2a1 1 0 00-.5.6l-.5 5.9zm-15-25l-.3 3.5-.2 3.3c0 .6.1.8.7 1 1.8.4 2 .4 2.2-1.5l.6-4.7c.1-1 0-1-1-1.3l-2-.4zm-15-53.1l-2.1 4.3a1.2 1.2 0 000 .9l1.8 4.7.2.2c.5-.5 1.8-3 1.9-3.5a2 2 0 000-.8 347.4 347.4 0 00-1.5-5.2 3.7 3.7 0 00-.4-.6zm39.6 71.1l2.6-.4a.8.8 0 00.5-.6v-6.2c-.8-.4-1.6-.2-2.3-.2-.5 0-.6.4-.7.9l-.1 3.8v2.7zm-.2-29.3l-2.9-.3-.2 1v5.2c0 1 .3 1.2 1.3 1.2l1.8-.3c.2-2.3 0-4.4 0-6.8zM35 408l-.3 5.8a1 1 0 00.5.7l2.8.4.5-6.3-3.5-.6zm-21.2 23l.9-.3c-.7.7-.5 1.4-.1 2.1l1 2.4.8-1.2.2.1v.3c-.9 1-.6 2 .1 2.8l.4.5c1.3-.6 1.4-.9 1-2l-3.2-8-.5-1.2-1 .7a1 1 0 00-.6.7 1 1 0 000 .8l1 2.3zm14.5 19.6l.9 1.2 2.7 4c.6 1 1.5 1.1 2.6 1.3l.5-4.4a1 1 0 00-.4-.7l-3-.6-.5 1.3H31v-1.5l-2.5-.7-.2.1zm13.2-21.3l3.4.5c.3-2 .4-3.9.3-5.8a.8.8 0 00-.5-.6l-2.7-.5-.5 6.4zM21 372c-.4.6-.7 1.3-1.2 1.9a1.6 1.6 0 00-.3 1.6l1.6 5.4 2.2-3.2a10 10 0 000-1.8l-1.3-4.5-1 .6zm5.8 48c-.2 1.5-.4 3-.4 4.4-.2 2-.3 1.9 1.8 2.4l1 .2a.4.4 0 00.3-.1.4.4 0 00.2-.4c0-1.7.2-3.3.3-5 0-.7-.2-1-.9-1.1l-2.3-.5zm11.3 2a4.8 4.8 0 00-.3.9 188.1 188.1 0 000 4.8c0 .9 0 .9 1 1 2 .5 2 .5 2.1-1.7l.3-3.4c0-1 0-1-.9-1.2l-2.2-.5z" fill="#fff"/><path d="M19.3 411.2l1.6.2v-4.9c0-1 0-1.9-1.2-2.2H21v-5.5l-.5 1-.7 1.9a11.5 11.5 0 00-.9 4.7 22 22 0 01-.2 3 2 2 0 00.7 1.8zm17.9 17.5v-1.9l.2-4c0-.8 0-.9-.9-1l-2-.4c-.5.9-.7 4.7-.4 6.6l3 .7zm-6-56.8l.3 5.1a6.8 6.8 0 003.3.5.7.7 0 00.7-.4.7.7 0 000-.2V373a.7.7 0 00-.7-.7l-3.5-.5zm23.5 59h3c.5 0 .7-.3.7-.8v-4.6c0-.6-.3-.8-.8-.9-2.3-.2-2.5 0-2.6 2.2l-.3 4zm7 .4l-1.1-.1c-1.4 0-1.6.2-1.6 1.6l-.2 4.6v1.2a5.2 5.2 0 002.6.1c.3-.8.5-5.9.3-7.4zm.6-34.3l.3-5.4H59a.9.9 0 00-.5.7v4a.6.6 0 00.6.7h3.1zm-31.7 24c-.4 1.8-.3 3.8-.3 5.6a1 1 0 00.5.7c.8.3 1.6.4 2.4.5l.2-.4.3-5.1c0-1-.2-1.2-1.1-1.3l-1.6-.2-.4.1zm24.2-17.7l.2 6.4c1 .5 1.7.3 2.5.3.5 0 .7-.4.7-.8a416 416 0 00-.1-5.1.7.7 0 00-.8-.8h-2.5zm7 6.7v-6.6c-1-.3-2-.1-3.1-.1a5.4 5.4 0 00-.1.8l.1 4.7c0 1 .2 1.1 1.2 1.1h1.9zm-33 26c-1.2-.4-2.2-.8-3.2-.7l-.2.4-.5 5.8 3 1 .8-6.6zm2.3-28.5l-.3 5.6a.8.8 0 00.7.8l2.4.5c0-.8.2-1.4.3-2l.1-3.6c0-.6-.1-1-.7-1l-2.5-.3zM62.5 391v-4.3c0-.3-.4-.7-.7-.8a19.7 19.7 0 00-2.4-.2.6.6 0 00-.5.1.6.6 0 00-.2.5l-.2 4.2c0 .6.3.8.8.8l3.2-.3zM31 377.3v-2.7a16.5 16.5 0 00-.2-2c0-.4-.3-.8-.4-.8-1-.1-2-.6-3.2-.2v1.8l.2 2.7c.1 1 .4 1.1 1.2 1.2h2.4zm34.6 32.6l-2.6.4a.8.8 0 00-.5.6 149.8 149.8 0 000 5c0 .5.3.7.7.8h.4c2.4 0 2 0 2.1-2v-3.3-1.5zm-39.1-38.6h-3.7v.5l1 4.4a1 1 0 001 .7h2.2a42.6 42.6 0 00-.5-5.6zm19 44.7l.3-5.5a.8.8 0 00-.7-.9l-2.3-.3a25.8 25.8 0 00-.4 6.3l3.1.4zm-7-8l.5-5.6-3.5-.6-.4 5.7 3.4.6zm3.7 8.3v1.8l-.3 3.2c0 .9.2 1.1 1 1.3l2.3.4c.1-1 .3-1.9-.4-2.7a1 1 0 010-1.1 1 1 0 01.2-.3 1.4 1.4 0 00.5-1.2c0-1-.2-1.3-1.3-1.4h-2zm19.7 1H59v6.6l.5.2c2.3.2 2.3.2 2.3-2.1v-3.4-1.3zm-34.2-39.6l.2 3.3.3 2a1 1 0 001 1l1.7.2.2-.8v-4.6c0-1 0-1-1-1.1h-2.4zm7 37.3c-.4 1.9-.3 3.6-.3 5.2a.9.9 0 00.5.7c.8.3 1.7.5 2.6.4l.2-2.2.2-2.9c0-.5 0-.8-.6-.9l-2.5-.3zm7.3-5.9l-3-.4-.5 6.3 2.2.4c.8 0 1-.1 1-.9l.2-3.4v-2zM38 421.5l3 .7a5.1 5.1 0 00.2-1l.2-4.3c0-.7-.3-1-.9-1-.6-.2-1.2-.2-2-.3a33.7 33.7 0 00-.5 6zM31 407l3.2.6c.6-2 .5-3.7.6-5.7l-3.4-.6-.3 5.7zm3 8l-3.1-.6c-.6 2-.2 4-.4 5.8 1.4.5 2 .6 3.2.4l.3-5.6zm20.4-4.3l-2.7-.3a16.8 16.8 0 00-.2 6l3 .4c.3-2.1 0-4-.1-6.1zm7.3 6a34.6 34.6 0 000-6H59a2.2 2.2 0 00-.2.6v4.6c0 .6.3 1 .9 1l2-.1zm-26.3-26.3v-4.8a.7.7 0 00-.1-.5.7.7 0 00-.5-.2h-2.3a.7.7 0 00-.7.8l-.2 3.2c0 .3.2.8.4.8l3.4.7zm-2 46.4l-.2 1.4-.4 4.3c0 .9 0 1 1 1.1l1.8.4.3-2.5V438a1 1 0 00-.8-1l-1.7-.4zm25.2-34H62c.3-1.7.4-3.4.3-5h-3.5c-.3.8-.4 3-.2 5zm-44.4-16.9l-1 2.6c-1 3-1.3 2 1 4.6.2.4.6.7 1 1.2a15.2 15.2 0 001.4-3.3.8.8 0 000-.6l-2.4-4.5zm37.3 24l3 .2c-.2-2.2 0-4.3-.4-6.4l-.3-.2c-2.2-.3-2.3-.2-2.3 2v4.5zm3.8 6.8l2.6.2.2-.4v-5c0-.6-.1-.9-.7-.9h-2.3c-.2 2.1 0 4 .2 6zm-8.8-20.2h4.2c.2-.7.4-3.1.1-4.5h-3a1 1 0 00-.6.5l-.7 4zm-11.4-.8l.3-4.2a1 1 0 00-.5-.7 10.2 10.2 0 00-3.3-.5v4.4c0 .5.4.6.7.7l2.8.3zm3.9 6.2l.2-4.4c0-.8-.2-1-1-1l-2.3-.2c-.5 1.7-.3 3.3-.4 5.1l3.5.5zm-11.4 5l-.2 5.6c0 .6.3 1 .9 1h1.9l.2-5.4a.7.7 0 00-.6-.8l-2.2-.4zm15.2-4l-.2 5.4a1 1 0 00.5.7l2.3.3.3-5.3a.7.7 0 00-.7-.9l-2.2-.1zm-7.6-6.6l-1.7-.3-2-.1v4.4a.8.8 0 00.5.6c1 .1 1.8.6 3 .2 0-1.6 0-3.1.2-4.8zM17 390a15.2 15.2 0 001-2.2c.2-.6.3-1.2.1-1.9l-1.9-4.9-1.5 3.8c-.1.4 0 .9.1 1.2l2.2 4zm37.8 7.4v5.5h3l.1-.8v-3.6c0-1 0-1-1-1h-2zm-27.4 16.4L27 419a1 1 0 00.5.7 5.4 5.4 0 002.4.4l.1-.4.3-4.5c0-.9 0-1-1-1.1l-1.8-.3zm24.4-28.4c-1.1-.5-1.3-.5-1.7.4l-1.2 2.6-1 1.4a2 2 0 00-.5 1.6c1 .3 2.2.2 3.2.2.5 0 .6-.4.6-.8l.4-3 .2-2.4zm10 39.5a6 6 0 00-.7-.1c-2-.2-2.1-.2-2.1 2v4l.5.2c2.2.2 2.3 0 2.3-2V426v-1.2zm-6.9-33.5h2.4c.3-.1.7-.5.7-.7.2-1.5.2-3 .3-4.6l-.2-.3-2-.3a.7.7 0 00-.8.7l-.4 5.2zm-19 4.4l3.1.3c.5-1.5.4-3 .4-4.3 0-.2-.3-.5-.5-.6a.8.8 0 00-.5-.2c-2.6-.2-2.5-.2-2.6 2.1v2.7zm7-4.6l.6-5.8c-1.1-.4-2-.2-3.1 0l-.3 5.3 2.7.5zm-22.3 34.2l-.2 2.7-.2 3c-.2 1.7 0 2 2 2.3l.2-1.8.4-4c0-1.4 0-1.5-1.3-2l-.9-.2zm4.2 9a2.8 2.8 0 00.2-.6l.5-5.4c0-1.7 0-1.7-1.8-2a4.2 4.2 0 00-.3.9 261.5 261.5 0 00-.5 5c-.2 1.6 0 1.9 2 2zm2.9-50.5l-.6-5.4a1 1 0 00-1-1h-2l.6 3.4c0 .7.2 1.3.3 1.9a.9.9 0 00.9.8l1.8.3zM43 397l-.3 5.2 2.9.3.2-2v-1.5c0-2.4-.3-2.6-2.8-2zm-21.7 1.8v5.1a1 1 0 00.4.7l2.1.8.3-.8v-4a1 1 0 00-.8-1l-2-.8zm20.5 9.6l.3-5.5a5.7 5.7 0 00-.7-.3c-2.1-.4-2.1 0-2.2 1.6 0 1-.2 1.9-.3 2.8 0 1 .1 1.1 1.1 1.3l1.4.2.4-.1zm10-17.3l.3.2c2 .3 2.2.1 2.4-1.8l.3-4-2.5-.5a49.2 49.2 0 00-.6 6.1zm-21.5 15.6c.4-1.8.3-3.4.3-5 0-.6-.3-.8-.7-.9l-1.8-.2c-.4 1.9-.4 3.7-.5 5.6l2.7.5zm24.3-12.5v1.8a.7.7 0 00.7.7h.1c2.2.3 2.4 0 2.4-2.2v-2.2c0-.5-.2-.8-.8-.9-2-.2-2.3.1-2.3 2v.8zm-42.5-2.7a28 28 0 00-1.3 4 .8.8 0 00.3.7 93.5 93.5 0 002.5 2.4 16.6 16.6 0 001.2-3.4.8.8 0 00-.2-.6l-2.5-3.1zm11-13.8l-1.3 3a2.7 2.7 0 00-.3 2.2l.8 3.7c.7-1 1.3-1.7 1.8-2.6.2-.4.3-1 .3-1.4l-.7-4c0-.3-.4-.6-.5-.8zm-5.1-5.4l-.8-.6-2.4 4a1.2 1.2 0 000 1l1.4 2.8c.4-.8.6-1.3 1-1.8 0-.3.2-.6.3-.8.9-1.3 1.3-2.7.5-4.3a1 1 0 010-.3zm5.6 40l.2-1.8.3-3.6a1 1 0 00-.7-1.2l-1.7-.5a2.9 2.9 0 00-.2.7v5a1 1 0 00.8 1l1.3.3zm4-17.9v-4.8a.8.8 0 00-.6-.8h-.3c-1.7-.4-2-.2-2 1.6v2.6a.9.9 0 00.7 1l2.2.4zm-15.1 8.9l.8-3.2a1.3 1.3 0 00-.2-1l-2.5-2.5a21.4 21.4 0 00-1.2 3.7.7.7 0 00.2.5l2.9 2.5zM6 413.8c-.4 2-1 3.6-1.2 5.3l.3.2c2.4.7 2.6.6 3.2-1.8.6-2.3.6-2.2-1.5-3.4l-.8-.3zm20.6-.8l.2-1.6.1-3.4c0-1.4-.1-1.5-1.5-1.7a4 4 0 00-.6 0l-.3 1.5-.2 3.4c0 1.2 0 1.3 1.2 1.6l1.1.2zm27.4-10v-5.2a.7.7 0 00-.7-.7h-1.8a5.4 5.4 0 00-.1 1v4c0 .5.3.9.9.8h1.7zM23 425.3l.5-5.4a.8.8 0 00-.6-1l-1.7-.3-.2 1.6-.3 3.2c0 1 0 1.2 1 1.6.3 0 .5.2.8.3h.5zm20.4-29h.2c3 .1 2.5.3 3-2.3l.2-2.1-2.6-.4c-.6 0-.8.3-.8.8v4zm-.8.5l-2.7-.3c0 1.7-.2 3.2-.3 4.7a.7.7 0 00.7.7l2 .2c0-1.8.2-3.5.3-5.3zm-19.7 37.6a4.6 4.6 0 00-.2.8l-.2 4.2c-.1 1.5.2 1.7 2 1.7l.3-3.3.2-2c0-.9 0-1-.8-1.2a6.9 6.9 0 00-.8-.3 1.6 1.6 0 00-.5 0zM14.3 377a26.4 26.4 0 00-2 4.7c0 .4.2.8.4 1.1l1.4 1.8c.6-1.5 1.3-2.6 1.6-4v-1l-1.4-2.6zm13 23c.4-1.4.5-3 .4-4.4a1 1 0 00-.6-.7l-2.3-.4v4.4a.8.8 0 00.5.7 18.2 18.2 0 002 .4zm-15.5-17l-1.4 5c0 .4 0 .8.3 1.2a8.8 8.8 0 001.2 1.2l.6-1.8 1-2.4a1.7 1.7 0 00-.3-1.9l-1-1.4h-.4zm13 17v5a.8.8 0 00.7.8l1.4.2.3-.3.3-4.2a.9.9 0 00-.9-1.2l-1.8-.3zm-.4 13.1L24 419l2 .4.4-1 .3-3.7c0-1 0-1-1-1.3a6.4 6.4 0 00-.6-.2h-.7zm4-23.8v4.6a.8.8 0 00.6.8l1.9.3v-2-1.5c0-1.6 0-1.6-1.5-2l-1-.2zM25.6 426l.5-5.3a.7.7 0 00-.8-1l-1.3-.2-.2 1.4-.3 3.3c0 1.6.2 1.9 2 1.8zm-4-13.7l-.3 1.8-.2 3c-.1 1 0 1 1 1.4l1.3.3.2-5.2a.8.8 0 00-.6-.9l-1.5-.4zM40 391.2l-.3 4.9 2.6.3a5.6 5.6 0 00.2-.9l.2-3.1c0-.6-.2-1-.8-1l-1.9-.2zm32 4.4l1.7-3.7a1 1 0 00-.2-.8l-1.7-2.7a25 25 0 00-1.5 4.3v.5l1.7 2.4zm-44 4.5l2.7.4.1-1.2v-2.8a1 1 0 00-.8-1.1l-1.7-.2-.3 5zm-16.8 7.2l.9-2.7a1.2 1.2 0 00-.3-1c-.8-.8-1.6-1.5-2.6-2.2a9.8 9.8 0 00-.9 3.3 1 1 0 00.3.7l2.6 2zm65.4-11.5l-1.6 3a2 2 0 000 1.5l1.4 2.2.7-.7 1-1.8a1.5 1.5 0 000-1.7l-1.5-2.5zM7.2 426.3v-1l.3.2a.7.7 0 00.4.5.8.8 0 00.7 0l1.9-.6c.4-.1.7-.4.5-.8a1.3 1.3 0 00-.7-.5 1.8 1.8 0 00-.8 0c-1.5 0-3 0-4.5.2-.9 0-1.1.2-1 .8 0 1 .5 1.6 1.2 1.5l2-.3zm12.9 7c-.3 2.7-.9 5.2 1.5 7.5l.4-3.3.1-2.2c.1-1.2 0-1.4-1-1.8-.3 0-.6 0-1-.2zm46-52.6a10.8 10.8 0 00.3 4.9l.2.1c2 .2 2 .2 2-1.9v-2c0-1-.2-1-1-1.1H66zm8.2 18.3l.9-1.4c1.3-2.4 1.2-3-.9-5.2a16.6 16.6 0 00-1.6 3.4 1 1 0 000 .7l1.6 2.5zm0-8.4l1-2.9a1.4 1.4 0 00-.2-1l-2-3.5-.4 1.2-.4 2.2v1.3l1.7 2.8.3-.1zm-.6-11.7l-.5 3.2c0 .3 0 .5.2.7l2 3.5c1.6-2.3 1-5-1.7-7.4zm-63 54.3l2.1-1.4a.7.7 0 00.4-.9l-.6-1.6-.6-1.3-3 1c.4 1.5 1.2 2.7 1.7 4.2zm43.4-36.5V392H54c-2.4-.3-2.4-.2-2.5 2v1.9a.7.7 0 00.8.8h1.8zM31 389.4l.2-4a.8.8 0 00-.5-.7c-.7-.2-1.4-.5-2.3-.1a14.5 14.5 0 000 3.6.9.9 0 00.4.6c.7.3 1.3.4 2.2.6zm-18.7 27.8l-.6 2.9c0 .5 0 .5 1 1l-1.2.3-.3 1.8c.8.3 1.5 0 2-.3.3 0 .5-.4.6-.7l.4-2.7c.2-1.3.1-1.4-1-2l-.9-.3zm-4.5 17l2.5-1-1.8-4-2.8.9 2.1 4.1zm57.8-48.4l-.3-4.9a2 2 0 00-.4-.2c-2-.2-2-.1-2 1.7l.1 2.4c0 .8.2 1 1 1h1.6zm-41.4 13.6v-4c0-1.3 0-1.3-1.5-1.7a12.5 12.5 0 00-1.3 3.9 1 1 0 00.7 1.1l2.1.7zm48.5 1.8l1-1.3a1 1 0 000-.8 10.2 10.2 0 00-1.5-2.3l-1.3 1.3c.1-.4 0-.6.2-.7.8-1 .5-1.8-.2-2.7a7.2 7.2 0 00-1-1c-.3 1-.5 2.2 0 3.1.8 1.5 1.8 2.8 2.8 4.4zm27.4.1l2.2-3-2.3-2.3a8.6 8.6 0 00-2 2.7c-.1.2 0 .6.2.8l1.9 1.8zM7.4 434.4L5.7 431a6 6 0 00-.5-.7L3 431c.4 1.3 1 2.5 1.6 3.7.2.4.6.4 1 .3l1.8-.6zM20 392.1a3.4 3.4 0 00-.3 3.7l.5 1.5c-.8-.4-.7-1.4-1.3-2-1.4 1.9-1.3 3 .5 4.8a4.7 4.7 0 00.4-.7l1-3.5c.4-1.3 0-2.5-.8-3.8zM11 433.6l2 3.9a18.3 18.3 0 001.8-1.6 1.2 1.2 0 000-1l-1.1-2.8c-1 .3-1.8 1-2.7 1.5zm-1 5l2.4-.9a11.5 11.5 0 00-2-4l-2.3 1 2 4zm93.8-42.6c.4-1.7.4-1.7-1-3l-.8-.7-1.9 3.1 2.4 2.3 1.3-1.7zm-23.3-.4l1-2.3a.8.8 0 000-.6l-2.5-5-.6 2.8a2 2 0 000 1l2 4z" fill="#fff"/><path d="M18 372.4l1.1 1.5 2-1.8v-.1c.9-1.1.5-2.1-.4-3.2a4.7 4.7 0 00-2.7 2.1c-.2.4 0 1 0 1.5zm69.8 44.4l-.6 1.2h-.1a1.4 1.4 0 010-.5c.4-1 0-1.6-.7-2.1l-.9-.6-.8 1.3a.9.9 0 00.2.8 32 32 0 004 3.7l.2-2.7c0-.7-.2-.9-1.3-1zm-9-11l1.8-2.7a1 1 0 000-.8l-1.6-2.6-1.8 3.2a1.2 1.2 0 00.2 1l1.4 1.8zm-58.5-15.5l1.5-2.6v-.7l-.7-4c-.6.3-.7.8-.9 1.2-1.2 2.5-1.2 2.5-.3 5 0 .3.2.5.4 1.1zM9.1 414.8c.3-1.1.6-2 .7-2.9a1 1 0 00-.4-.8l-2.2-1.4a9.7 9.7 0 00-.8 3.2.8.8 0 00.4.6l2.3 1.3zm18.7 44.5h.2a7.9 7.9 0 003-3.2 1 1 0 00-.2-.8c-.2-.5-.6-1-1-1.5l-1 1.4 1 1.5v.2l-1.5-1.3-1.8 1.7 1.3 2zm-13.3-18.2l-2.3 1.6 2 3.2 2.4-1.6a18.8 18.8 0 00-2-3.2zM10 410.8l.2-.2c1.3-2.7 1-3.4-1.9-4.7a7 7 0 00-.8 2.7 1 1 0 00.4.8l2.1 1.4zm9 37.1l-2-3.2-2.4 1.6 2 3.2 2.3-1.6zm65-50c-.2.9-1 1.5-.5 2.3.4.7.6 1.6 1.6 1.7a2.8 2.8 0 001.6 2.8c-.1 1 .5 1.7 1.2 2.3a.8.8 0 000-1 2123.6 2123.6 0 00-3.6-7.7l-.4-.3zm-15.6-17.7v-4h-2.5a11.4 11.4 0 000 3.5 1 1 0 00.7.5h1.8zm9.5 27.1c1.2-1.7-.5-2.3-1.1-3.6l-1 1.4 4 5.4c1-1.1 1-1.3.3-2.4a22.2 22.2 0 00-.7-1 3.2 3.2 0 00-.3-.3l-.6.3-.4.3-.2-.1zm-68.3 8.4a19 19 0 00-1.1 4c2.5 1.1 2.6 1 3.1-1.4l.2-.8a.8.8 0 00-.4-1l-1.8-.8zm0 23.1l-2-3.9-2.4.8 2.2 3.9 2.3-.8zm18.2-50.5v-3.5a.8.8 0 00-.5-.6l-2-.3a8.6 8.6 0 00.5 4c.1.5.9.6 2 .4zm-17.7 1l-1.3 4a.9.9 0 00.2.7c.4.5.8 1 1.4 1.4a15 15 0 001.2-3.8 1.6 1.6 0 00-.3-1 13 13 0 00-1.2-1.4zm66.8-6.1l-.5 2.8a3 3 0 00.4 2.5l1 1.8c1.4-1.7 1.1-3.5-.9-7.1zm2.1 15.3l1-2a1.1 1.1 0 000-1l-1.7-3.2h-.3l-.9 2.5c0 .2 0 .5.2.7l1.7 3zM4.7 420a12.8 12.8 0 00-.5 3.5c.9.3 2 .5 2.4 0 .5-.7.6-1.8.8-2.7 0-.2-.3-.5-.6-.6a18.9 18.9 0 00-2.1-.2zm10.6-24.4l-1 3.4c0 .4.1.7.3 1 .4.7 1 1.2 1.6 2.1l1-3.5a.6.6 0 00-.1-.5l-1.8-2.5zm61.1-1.2c1.6-3 1.5-3.2-.7-6.3l-1 3c0 .3 0 .6.2.9l1.5 2.4zm-68 0a22.2 22.2 0 00-1.2 4 1.2 1.2 0 00.3 1l1.3 1c.5-1.3 1-2.5 1.2-3.8a1.1 1.1 0 00-.2-.8l-1.4-1.4zm74.8 17.1l1.5-2.7a1.3 1.3 0 00-.2-1.4l-1-1.3a11.8 11.8 0 00-2 2.8.8.8 0 00.1.6l1.6 2zm-2-8.2l-1.7 2.4a.8.8 0 000 1l1.5 2a9.6 9.6 0 001.7-2.7 1 1 0 000-.8l-1.5-1.9zm-18.5-27.4v3.6a1 1 0 00.6.6c.5.2 1 .3 1.7.3a17.6 17.6 0 000-3.8c0-.2-.4-.5-.6-.5a12.4 12.4 0 00-1.7-.2zM17 439l-2 1.8 2 3.3 2-1.8-2-3.3zm80.3-39.3l-1.6 2.6 2 2.3 1.6-2.2a.8.8 0 000-.7 7.9 7.9 0 00-2-2zm-90.5-.2l-1.1 3.5a1 1 0 00.4.8l1.5.9c.4-.6 1.1-3 1-3.5a1.3 1.3 0 00-.4-.6l-1.4-1.1zm7.2.6l-.8 2.9a1.3 1.3 0 00.4 1.4l1.6 1.4.8-3a.8.8 0 00-.2-.5L14 400zm-8.6 3.8l-1 3.7 2.2 1a8.2 8.2 0 00.9-2.8 1 1 0 00-.4-.7l-1.7-1.2zm13.6 49l2-1.5-1.8-3-2.3 1.7 2 2.9zm-1.6-8.3l1.7 3 .4-.2c2-1.8 1.7-1.5.6-3.3l-.7-1c-.9.1-1.3.8-2 1.5zm-10.1-21h2.6a.7.7 0 00.8-.5v-.2c.4-1.6.3-1.8-1.4-2.3l-1-.2a698.9 698.9 0 01-1 3.3zm85.4-8.3l1.8-2.1a.8.8 0 00.1-1.2l-1.2-1.6-.8.4a1.6 1.6 0 00-.9 1.5l.1.6.6 2.4h.3zm-75.4-17.9c1.5-2 1.3-4-.3-5.8a18.4 18.4 0 00-1.3 3.2.8.8 0 00.2.6l1.4 2zm4.1 53.7c2.1-1.5 2.1-1.5 1-3.3a35.1 35.1 0 00-.7-1l-.4-.2-1.8 1.6 2 2.9zM13 404.3l-1 2.5a1 1 0 00.4 1.3l1.5 1.2c.7-.8.8-1.8 1-2.7a.7.7 0 00-.1-.5l-1.8-1.8zm84.4.6l-1.9-2a5.2 5.2 0 00-1.7 2 1 1 0 00.2.8l1.3 1.5c1-.6 1.4-1.4 2.1-2.3zm-16.8-8.3l-1 2v1l1.7 2.7 1.1-2a.9.9 0 000-.7l-1.8-3zM28.1 455l-2-2.4-2 1.8L26 457l2-2zm57.2-41.3l1.3-3.3a1 1 0 000-.7 14.4 14.4 0 00-1.2-1.4l-1.6 2.9a1 1 0 00.1.8l1.4 1.7zM11.5 408l-.8 2.7a.8.8 0 00.3.6l2 1.5.7-2.4a1 1 0 00-.2-.8l-2-1.6zm-1.8 35.6l1.8-1.3-1.3-2.4a.8.8 0 00-.5-.5.8.8 0 00-.7.1l-1.3.5a27.4 27.4 0 002 3.6zM12 442l2.3-1.6L13 438l-2.4 1a9.3 9.3 0 001.5 3zm-1.6-30.3l-.7 2.7a1 1 0 00.4.9l1.8.9.8-2.5a.8.8 0 00-.3-.6l-2-1.4zm79.3 4.7c1.8.1 2.3-.4 2-1.8l-.5-2.7c-1.3.3-1.5.5-1.5 1.7v2.8zm-66 37.5l1-1 1-.8-2-2.4-1.9 1.7 1.8 2.5zm20.1-72.2l-2 1.6c-.9-1-.6-2.3-1.3-3.5l-.2 4a.7.7 0 00.8.9c2.5 0 2.5.3 2.6-2.1l.1-1zm53.9 12.7l-2.1 3.1 1.6 1.1c1-.9 1.5-2 2.3-3l-1.8-1.2zm-74.4 59.9l-1.9-2.6-2 1.5 2 2.5 2-1.4zm0-64c1.5-1.6 1.9-3.3 1.2-5.5-2 1.6-2.3 3.5-1.3 5.6zm59.5 9l.7-1.9a1.2 1.2 0 000-.7l-1.4-3c-1.3 1.3-1.4 2-.6 3.4l1.3 2.3zm-64-6c1.6-2 .7-3.9-.1-5.9l-1.2 2.8a1 1 0 000 .7l1.2 2.4zm-1 5.5a9.9 9.9 0 00-1 3.3c0 .8.7 1.3 1.3 2 .5-1 .9-2 1.1-3a.8.8 0 00-.1-.7l-1.3-1.6zM10 444.2l2 2.9 1.6-1c-.4-1.1-1.2-2-1.8-3.2l-1.8 1.3zm2.3 3.4l2.3 3.2 1.6-1a490 490 0 01-2.1-3.2l-1.8 1zm74.9-37l-1.2 3a1.1 1.1 0 00.2 1l1.2 1c.5-1.2.8-2.4.9-3.6 0-.6-.5-1-1.1-1.4zM5 429.5a1.3 1.3 0 000-.3c-1-2.3-.8-2.1-3.1-1.6.1 1 .4 1.9.8 2.7 1.2 0 1.6-.2 2.3-.8zm11.8 8.8a428 428 0 00-1.4-2.2l-2 1.8 1.3 2.3 2-1.9zM97 409.7l2-2.7-1.3-1.7-1.7 2.1a1 1 0 000 .9l1 1.4zm-73 48.9l1.5-1.2-2-2.5-1.8 1.4 2.2 2.3zm69.5-57.7l1.4 1c1-.6 1.3-1.6 2-2.6l-1.5-1.2a10 10 0 00-2 2.8zM8.7 428.6l3.1-1-.6-1.9-3.3 1 .8 2zm14.3 16c-1.1 1-1.2 1.3-.5 2.4l1.2 1.9.6-.6c.8-.8.8-.8.1-1.7l-1.4-2zM21.6 394c1.3-1.6 1-3.4.5-5.2-1.7 1.2-1.8 2.9-.5 5.2zm-8 29.5a10 10 0 00-1.6.3c-.3.1-.6.5-.6.7 0 .4.5.4.8.3a2 2 0 011-.2l-1.5 1 .5 1.5c2.2-.4 2.2-1.5 1.3-3.6zm69.6-18.6c1.4-2 1.4-2.3-.4-4.3l-1 1.7a1 1 0 000 .8l1.4 1.8zm19.3-6c-.5.5-1 1.1-1.3 1.7-.9 1.2-.8 1.4.5 2.6l1.7-2.9c.3-.5 0-.9-1-1.5zm-2.5 3.3l-1 1.4c-1 1.4-1 1.4.4 2.7.8-.6 1.2-1.4 1.6-2.3a.8.8 0 00-.1-.6l-.9-1.2zm-24.8 2.2c1.2-1.1 1.2-1.1.5-2.3l-1-1.6a2.8 2.8 0 00-.4-.3 12.6 12.6 0 00-1 1.1.7.7 0 00.1.7l1.8 2.4zm-70.4 23c.5 2.1.7 2.2 2.6 1.6l.7-.3v-.3c-.5-1.9-1.3-2-3.3-1zm99-31.4a7.9 7.9 0 01-.3 1c-.6 1.2-.6 1.2.5 2.3a8 8 0 001.7-2.4 1 1 0 00-.1-.8 9 9 0 00-.8-1l-1 1zM17 408l.8-2.7c0-.8-.7-1.3-1.2-1.9a5.4 5.4 0 00-1 2.9c0 .7.7 1.1 1.4 1.7zm-2.6 6.5l-1.2-.4a4.5 4.5 0 00-.7 2.1 1 1 0 00.4.8l1.4.8c.4-1.2 1-2.1.2-3.2zm2.6 39.6l1.4-.8a5.4 5.4 0 00-.3-.6l-1.6-2.3-1.6 1 2.1 2.7zm76.2-44.7l1.6-1.6-1.7-2-1.7 1.6 1.8 2zm-74.8 28c-1.1 1.1-1.1 1.3-.5 2.4l1 1.7.3.3c1-.6 1.1-.8.7-1.7l-1.5-2.7z" fill="#fff"/><path d="M14.6 414.5h.6c1-2.4.8-3-1-3.9a22.4 22.4 0 00-.6 2.2c0 .3.2.6.4.9l.5.7zm13.8 40.3l.7-1a.8.8 0 000-1l-1.5-2c-1.2 1-1.3 1.4-.4 2.5l1.2 1.5zm-24.7-28c.2-1 0-1.6-.5-2.5l-2.2.5.6 2.2 2-.2zM16 411c1.3-2.8.8-2.8-.5-4a5.5 5.5 0 00-.9 2.4c0 .8.8 1.2 1.4 1.6zm8.1 38.3l1.8 2.3c1.2-1 1.2-1.4.5-2.4l-1-1.4-1.3 1.5zm61-35.3l-1.9-1.8-.7.8a.8.8 0 00-.2.7.8.8 0 00.2.6l1.6 1.8 1-2.1zm6.5-10.4l1.4 1.1 1.8-2.2-1.5-1.3-1.7 2.4zM21 456.1l-1.6-2a4.5 4.5 0 00-.5-.5l-1.4 1 2.1 2.4 1.4-1zm74.3-47.8l-1.5 1.6 1.4 2c1.9-1.4 1.6-2.2 0-3.6zm-74.6 33c-1 1-1 1-.6 1.9l1.3 2c1.1-.8 1.2-1 .5-1.9-.3-.7-.8-1.3-1.2-2zm62.2-29.5l-1.7-2c-1.2 1-1.2 1.1-.4 2.2l1 1.4 1.1-1.6zm-55.1 47.5L26 458l-1.5 1 1 1 .9.8c.6-.4 1.2-.6 1.4-1.4zm56.9-55.8c-1.3 1.8-1.3 2 .4 3.6 1.2-1.5.8-2-.4-3.6zm-61.2 55.3l-2-2.2-1.4.8 2 1.8c.4.4.5.3 1.4-.4zm69.1-53.6l-1-.8c-1.4 1-1.8 2.1-1.4 3.1 1-.6 1.9-1.2 2.4-2.3zM45.3 344a5.5 5.5 0 00-1 4 2.9 2.9 0 001.4-3 2.9 2.9 0 00-.4-1zm46.2 67l1.5-1.2-1.6-1.7a.8.8 0 00-.6 0l-.2.5.9 2.4zm-2.8 1.8l-.5 2.7c-.1.7 0 .8 1 1.1a17 17 0 000-3.8h-.5zm-1.7-3.4c1-1 .6-2-.6-3-1.2 1-.8 2 .6 3zm19.8-11.6l-.8-.2-1.3 1.8c-.4.6-.3 1 .4 1.4a12.4 12.4 0 001.7-2.9zM26 461l-1.3-1.1c-.7-.7-.8-.7-1.5.2 1 1.3 1.5 1.5 2.8 1zm63.8-49.3c1-.3 1.1-.5 1-1.2-.3-.8-.4-1.6-1-2.2a6.2 6.2 0 000 3.4zm-1.3-.7c.4-1.2.5-2.3 0-3.4-1.2 1.8-1.2 2.3 0 3.4zm-38-26.6c.7.2 1.2.3 1.3-.3l.6-2.8h-.2l-1.6 3zM23 393.2l1.3.4v-3c-.8.8-.9 1.6-1.3 2.6z" fill="#fff"/><path d="M57 351.2l.6 3.4c.1.5.4 1 1 1a1.2 1.2 0 001.3-.7 7.6 7.6 0 00.5-2.4 36.2 36.2 0 00-.5-4 2.4 2.4 0 00-.2-.8c-.5-.8-1.3-.8-1.7 0a8.5 8.5 0 00-1 3.5zm13 27.3l-.5-.7-.3.2.6.7.2-.2z" fill="#000"/><path d="M18 372.2l.2.4m51.6 5.9l.2.3M21.2 372l-.3.4m83 23.5l-.2.4M19.2 411l.3.3m8.1 47.8l.3.4m-13.5-45.3l.4.3" stroke="#000" stroke-width="2" stroke-linecap="round" stroke-linejoin="round"/></g><g clip-path="url(#clip1)"><path d="M446.5 425.2s-14.2.9-12 2.5c1.6 1 1.4 1.3 1.1 1.3-.4 0-.7 0-1 .2-2.7.9-9.8 3.5-2 4 9.3.6 15.4-.6 15.4-.6l-1.5-7.4z" fill="#fff" stroke="#000" stroke-linejoin="bevel"/><path d="M445.8 429.1c.2.4 1 4 1.3 4.3a1.2 1.2 0 001 .2 29.6 29.6 0 009.3-3.2l5.6-2.9a79.3 79.3 0 0012.4-8.2 256.3 256.3 0 008.6-6.9c1.6-1.3 3-2.9 4.5-4.4l2.2-2 .6 1a36.4 36.4 0 011 4c.6 3.3 1 6.5 1 9.8v6.8a40.5 40.5 0 01-.5 5c-.5 3.6-1 7.2-1.8 10.8l-1.5 6-2.3 7.4-2 7-1.6 7.5-2.1 12.3-1.5 9.6c-.5 4.5-.9 9.1-.6 13.7l1.4 20.3 1 11.6c.2 3.6.6 7.2.6 10.9a108.4 108.4 0 01-.2 10.9c-.3 3.8-1 7.5-1.5 11.2-.1.7 0 .9.6 1 1.1.4 2.2 1 3.3 1.3l3.2 1.3c-.7 1.7-1.8 2.9-3.7 3.2a80.2 80.2 0 00-5 1.2 7.6 7.6 0 00-2 .8 3 3 0 00-1 1 3 3 0 00-.4 1.2c-.2 1.2 0 1.6 1.2 2.1a20.7 20.7 0 005.7 1.4l9 1h1.3c1.1 0 2-.4 2.7-1.5a10.8 10.8 0 012.3-2.6v.7a6.2 6.2 0 000 1.2c.3 1.7.5 2 2.1 2 1.9 0 1.9 0 2.5-1.6l2.1-6.9c.3-1.2.5-2.4.6-3.7a2.5 2.5 0 00-.3-1.3 2.5 2.5 0 00-.9-1l.4-.2c.9-.2 1.1-.8 1.2-1.7.1-2 .5-3.9.6-5.8.2-2.2.3-4.3.1-6.5a230 230 0 00-3.7-20.4c-.6-2.7-1.5-5.3-2.2-8l-2-8.4a38.6 38.6 0 01-1-5 99 99 0 01-.4-7.7 40 40 0 01.2-4.8c.1-1.7.4-3.4.7-5a44.8 44.8 0 013-10.1c.9-2.1 1.5-4.3 2.3-6.4a19.7 19.7 0 011.7-3.7l.2.5 1 9 .4 5.3a535.5 535.5 0 003.4 30.7c.5 3.8 1 7.6 1.3 11.4l1.1 11.4c.4 4.3.7 8.7.8 13 .1 2.8-.1 5.5-.2 8.2v.7l4.3 1.9c-1.1 1.4-2.2 2.7-4 3.1a2.4 2.4 0 01-1.2-.2c-1-.4-2.2-.9-3.4-.7-1.3.2-1.8.8-1.6 2.1a6.7 6.7 0 002.7 4.4c2.6 2 5.6 3.2 8.6 4.5 1.3.6 1.6.5 2.5-.6a9.3 9.3 0 011.7-1.8l.3 4.1h3.4c.3 0 .6-.3.7-.6l3.4-6.5a11.4 11.4 0 001.1-4.2c.1-1.3-.2-2.2-1.5-2.7l2.9-1.2c.8-.3 1.2-.9 1.1-1.9 0-2 .2-4 .3-5.9a67 67 0 000-9.9l-.6-6.6c-.3-3.6-1-7-1.8-10.6l-2.6-12c-1-4-2-8.1-2.8-12.2a81.2 81.2 0 01-1.8-11.2c-.2-2.2-.4-4.5-.4-6.8 0-3.6.2-7.3.4-10.9l.8-9.6c.2-1.5.5-3 .5-4.6 0-2.4.4-4.8.5-7.2l.8-8 .4-5.3.3-4.5v-2.8l.4-8.5-.1-6.7a43.4 43.4 0 00-.8-5.3 106.5 106.5 0 00-3.8-14.7c-.7-2.3-1.7-4.5-2.6-6.7a67 67 0 01-1-3l-2.3-6.5a15.9 15.9 0 01-.6-6.6c.1-2 .5-4.1.7-6.2l.5-7.2-.2-5.7c-.1-2.2-1-4.3-1.6-6.3a14.7 14.7 0 00-3.2-5.6 29 29 0 00-3.2-2.8 50.2 50.2 0 00-3.2-2.2 4.1 4.1 0 01-1.7-3.1 37.2 37.2 0 010-4.2c2.8-.3 4.8-1.9 6.5-3.7a19.8 19.8 0 003.1-5l1.2-2 .7 1 .7 1a2.3 2.3 0 003 .7 9.8 9.8 0 003.7-3.4 9.6 9.6 0 001.7-6.7 10.4 10.4 0 00-.7-2.8 2.3 2.3 0 00-.5-.9 2.3 2.3 0 00-2.8-.4 34.1 34.1 0 00-3.6 2 15.8 15.8 0 00-1.3.8c-.1-.2-.3-.3-.3-.5 0-1.6-.7-3-1.6-4.1a8.9 8.9 0 00-4.3-3 7 7 0 00-1.8-.3h-2.5l-1.8-3.7a4.6 4.6 0 00-2-2 16.8 16.8 0 01-2-1.2 3.4 3.4 0 00-3.7-.3c-1.7.8-3 2-3.3 4a4 4 0 00.2 2c.4 1.3 0 2.2-1 3.1-1.9 1.8-3 4.2-4.3 6.4a12.4 12.4 0 01-1.8 2.6 16.6 16.6 0 00-2.3 3c-.8 1.4-.5 2.3.9 3v5.2c.1 2.7 1.7 4.6 3.5 6.5l1.1.6 3.9 1c0 2 .2 3.8-.1 5.7-.2.9-.6 1.2-1.5 1.1-1.6-.1-3.1-.4-4.6-.6a20.5 20.5 0 00-3.3-.3 11.6 11.6 0 01-6.8-2l-5.2-3.4c-2.3-1.7-4.8-3.4-7-5.3l-7-6.1-1.9-1.7-3.5-3.3-4-3.5-4.7-4.5c-3-2.7-5.4-5.8-8-8.7-1.7-1.8-3.2-3.6-4.7-5.4-1.7-2-2.8-4.4-3.8-6.8l-1.5-3c-1 1.2-.8 2.4-1 3.7a6.6 6.6 0 01-.9-.7l-3.7-4.8c-.5-.8-1.4-1.3-1.5-2.3h-.6a7.5 7.5 0 00-.2 5 35.4 35.4 0 006.6 13.4 6.8 6.8 0 011.3 2.7c.5 2.4 1.9 4.4 3.4 6.3 2.6 3.5 5.2 7 8.2 10.3l5.3 5.3 4 4 3.1 2.7 4 3.5 8 6.8c1.8 1.7 3.9 3 5.7 4.4 1.7 1.4 3.7 2.5 5.4 3.8 3 2.2 6.3 4 9.5 6l.5.3c-.1.5-.2 1-.4 1.3a16.8 16.8 0 00-.6 9.7 50 50 0 002.4 7.3 74 74 0 012.7 7.6 1.8 1.8 0 01-.3 1.5c-1.4 2.7-3.2 5.2-5 7.7a61.7 61.7 0 01-8.7 9.8 78.8 78.8 0 01-8 6.4c-3 2-6 4-9.5 5-2.7.8-5.3 1.3-8 2-.5 0-1.8.7-2.5 1l.4 4.9zm1-4.6l1-.3c3-.9 6.2-1.2 9.1-2.4a36.4 36.4 0 005.3-2.5c2.2-1.3 4.2-3 6.3-4.5a63.9 63.9 0 009.7-8.8c2-2.1 3.5-4.6 5.3-6.8 1.5-2 2.6-4 4-6a29 29 0 002.3-4.4l2.4-6 2.9-7.6 3.6-12 1-2.9c.2-1.1.3-2.3.7-3.4a36.6 36.6 0 011.7-4 7 7 0 012.3-2.7 7 7 0 013.5-1.2c.4-.1.9 0 1.3.2a14.9 14.9 0 015.3 5.4 24.2 24.2 0 013 13.4c-.2 4.2-.7 8.4-1.1 12.5-.2 2.2-.5 4.4 0 6.6.5 3.4 1.7 6.6 3 9.8.6 2 1.5 4 2.2 6a165.7 165.7 0 012.4 7.6 82.2 82.2 0 013.1 15.7l.2 3.1v7.3a2.3 2.3 0 01-.5 1.4 2.4 2.4 0 01-1.3.8 2.4 2.4 0 00-.7.2 16 16 0 01-5 2.1c-2.5.7-5 1.5-7.5 2a34.7 34.7 0 01-14.5-.1c-1.8-.4-3.6-.9-5.1-2.2 0-.4 0-.8.2-1.2.2-1.7.6-3.3.7-5 .3-3.7.5-7.5.6-11.3a42.5 42.5 0 00-.7-10c-.5-2.4-1.2-4.7-1.8-7-.2-.5-.5-1 0-1.5a126 126 0 003.3-4.3 242.5 242.5 0 004.6-6.7 74 74 0 003.2-5c1.5-2.9 3.2-5.7 4.5-8.7 1-2.3 2.2-4.6 3.1-6.9 1-2.3 1.8-4.9 2.7-7.3a7.6 7.6 0 00.2-1.2l-.3-.1-.8 2c-1 2.6-1.9 5.2-3 7.7a172 172 0 01-11 20.5c-1.6 2.6-3.6 5-5.5 7.6a53.6 53.6 0 01-8.1 8.6c-2.7 2.4-5.5 4.6-8.3 6.8-2.2 1.8-4.4 3.5-6.8 5-4.2 3-9 5.3-13.6 7.5-1.3.7-2.7 1-4 1.6-1.2.5-2.6.7-3.9.8-1.7-2.7-1-5.4-1.1-8.2zm41.4-34.2l-2.2-6a52.5 52.5 0 01-2.8-7.7 15.2 15.2 0 01-.2-7.3 48.3 48.3 0 011.8-5.7c.8-2 1.8-3.7 2-5.8 0-.4.3-.9-.4-1.3-.8 2.5-1.2 5-2.8 7.3l-3.5-2c-2-1-4.3-2-6.1-3.5l-1.6-1.2-5.6-3.8c-2.6-2-5-4-7.4-6.1l-9.1-7.8a98.7 98.7 0 01-7.6-7.4c-2.5-2.8-5.2-5.5-7.7-8.4-1.8-2.2-3.5-4.6-5.2-7a30.5 30.5 0 01-2.2-3.7 3.7 3.7 0 010-3.6l1.5-2.3a24.3 24.3 0 011.7-1.8l3.8 4.2 6.7 7.5c3.5 3.8 7.4 7.1 11.2 10.6l8.6 7.7 4.3 3.7a146.2 146.2 0 0013.6 9.4 6.8 6.8 0 003.8 1.1c3.1-.2 6 .8 9.2 1.1l-.2 1.1-.7 2.5c-.8 2.6-1.2 5.2-.5 7.8.5 2.3 2.3 3.5 4.3 2.9a6.4 6.4 0 001.5-.9l1.6-1.2a159.4 159.4 0 01-9.8 27.6zm.3-68.4c1.8-3 3.4-6 6-8.4l.5.7 2.1 3.5 2.9 3.7a4.9 4.9 0 01.9 3.2 10.2 10.2 0 01-1.7 5.5l-.7 1.1.6.3a3.7 3.7 0 001.9-.5 3.6 3.6 0 001.3-1.4l1-2.2a1.6 1.6 0 01.6-.9c.8-.3 2 .5 2 1.3a6.5 6.5 0 01-.5 3.6 1.7 1.7 0 01-.8.9c-.4.2-.8.2-1.3.1a.8.8 0 00-1 .4 1.8 1.8 0 00-.3.9l-.4 4a25.5 25.5 0 01-6.8 3.3 3 3 0 01-1.2.2 7.9 7.9 0 01-4.3-1.4 8.8 8.8 0 01-2.8-4.1 12.3 12.3 0 01-.4-6.3c0-.3.2-.6.4-.8a7 7 0 002.3-3.3c.5-1 1-2.3-.3-3.4zm15.9 17.7a25.3 25.3 0 000 3 9.7 9.7 0 00.8 3c.4 1 1.2 1.7 1.8 2.5-3.1.4-4.7 2.6-6 5.2a30 30 0 00-2 5.6c-.5 2-2 3.4-3.7 4.5a3.6 3.6 0 01-1.5.4 1.7 1.7 0 01-1.7-.9 7 7 0 01-.9-5.1l1.4-5.5c.2-.9.1-1.9 1.2-2.4a1.6 1.6 0 00.6-1.1l.2-2.7v-3.9l7.8-3.8 2 1.2zm-85.5-47.4c.2 0 .3.2.4.3l6.1 7.8c.2.2.5.5.7.4.5 0 .3-.5.2-.8a5 5 0 01-.2-.6 4 4 0 01.2-2.8l3.8 7.6-3.8 5.1c-1.8-1.7-2.9-4-4.2-6-1.4-2.2-2.1-4.8-3-7.3a7 7 0 01-.2-3.7zm70 283.5l5.5-.4c1.8-.2 3.5-.7 5.4-1.1a20.7 20.7 0 01-3.8 5.4 2.6 2.6 0 01-.9.5c-3.4 1.6-6 1-9.5-.8 1.9-.7 2.5-2.3 3.4-3.6zm26-.6l3.1-3.4a1 1 0 01.8-.3l5 1-1.3 2a12.3 12.3 0 01-2 2.2 2.4 2.4 0 01-1.8.5 7.7 7.7 0 01-3.9-2z" fill="#000"/><path d="M446.9 424.5c0 2.8-.6 5.5 1 8.1a12.3 12.3 0 004-.8c1.3-.6 2.7-1 4-1.5 4.7-2.3 9.3-4.6 13.6-7.5a147.3 147.3 0 006.8-5l8.3-6.8a53.5 53.5 0 008.1-8.7l5.6-7.6a125.5 125.5 0 0010.9-20.4l3-7.7a49.2 49.2 0 01.8-2h.3a7.6 7.6 0 01-.2 1.2c-.9 2.5-1.7 5-2.7 7.4l-3.1 6.9c-1.3 3-3 5.8-4.5 8.6a242.5 242.5 0 01-7.7 11.7 131.5 131.5 0 01-3.4 4.4c-.5.5-.2 1 0 1.4.6 2.4 1.3 4.6 1.8 7a42.5 42.5 0 01.7 10.1 313 313 0 01-.6 11.3c0 1.6-.5 3.3-.7 5l-.2 1.2c1.5 1.3 3.3 1.7 5.1 2.1a34.7 34.7 0 0014.5.2c2.5-.5 5-1.3 7.5-2 1.7-.5 3.5-1 5-2.1l.7-.3a2.4 2.4 0 001.9-2.1 365.8 365.8 0 00-.3-10.4 82.2 82.2 0 00-3-15.7 192.7 192.7 0 00-2.5-7.5l-2.3-6c-1.1-3.3-2.3-6.5-3-10-.4-2 0-4.3.1-6.5.4-4.1 1-8.3 1.2-12.5a24.2 24.2 0 00-3.1-13.4 14.9 14.9 0 00-5.3-5.4 2.2 2.2 0 00-1.3-.3 7 7 0 00-3.5 1.3 7 7 0 00-2.3 2.8 36.7 36.7 0 00-1.7 3.9l-.8 3.4c-.2 1-.6 2-1 3l-3.5 11.9-2.9 7.5c-.8 2-1.5 4.1-2.4 6.1a29 29 0 01-2.3 4.4c-1.4 2-2.5 4.1-4 6-1.7 2.2-3.3 4.7-5.3 6.8a63.9 63.9 0 01-9.7 8.9c-2 1.5-4.1 3-6.3 4.4a36.6 36.6 0 01-5.2 2.5c-3 1.2-6.2 1.5-9.2 2.4l-.9.3z" fill="#fff"/><path d="M488.2 390.3a159.3 159.3 0 009.8-27.6l-1.6 1.2a6.5 6.5 0 01-1.6.9c-2 .6-3.7-.6-4.2-2.8-.7-2.7-.3-5.3.4-8l.8-2.4.2-1c-3.1-.4-6-1.4-9.2-1.2a6.8 6.8 0 01-3.8-1 101.1 101.1 0 01-13.6-9.5l-4.3-3.7-8.6-7.7c-3.8-3.5-7.7-6.8-11.2-10.6l-6.7-7.5-3.8-4.2-1.6 1.8a20.1 20.1 0 00-1.5 2.3 3.7 3.7 0 00-.1 3.6 30.4 30.4 0 002.2 3.8c1.7 2.3 3.4 4.7 5.2 6.9 2.5 2.9 5.1 5.6 7.7 8.4a98.4 98.4 0 007.6 7.4l9 7.8 7.5 6c1.8 1.4 3.8 2.6 5.6 3.9.6.3 1 .8 1.6 1.2 1.8 1.5 4 2.4 6.1 3.6l3.5 1.9c1.6-2.3 2-4.9 2.8-7.3.7.4.4.9.4 1.3-.2 2-1.3 3.9-2 5.8a48.3 48.3 0 00-1.8 5.7 15.2 15.2 0 00.2 7.3 52.6 52.6 0 002.8 7.7l2.2 6zm.3-68.4c1.3 1 .8 2.4.3 3.5a7 7 0 01-2.3 3.2c-.2.2-.4.5-.4.8a12.3 12.3 0 00.4 6.3 8.8 8.8 0 002.8 4.2 7.9 7.9 0 004.3 1.3c.4 0 .8 0 1.2-.2a25.5 25.5 0 006.8-3.4l.4-4c0-.3.2-.6.4-.8a.8.8 0 011-.4 1.7 1.7 0 002-1 6.5 6.5 0 00.5-3.5c0-.9-1.2-1.7-2-1.4a1.6 1.6 0 00-.7.9l-.8 2.3a3.6 3.6 0 01-1.4 1.3 3.7 3.7 0 01-2 .5 2 2 0 01-.5-.3l.7-1.1a10.2 10.2 0 001.7-5.5 4.9 4.9 0 00-1-3.2l-2.8-3.7-2.1-3.5-.5-.7c-2.6 2.4-4.2 5.4-6 8.4z" fill="#fff"/><path d="M504.4 339.6l-2-1.2-7.8 3.8v3.9l-.3 2.7a1.6 1.6 0 01-.5 1c-1.1.6-1 1.6-1.2 2.5l-1.4 5.5a7 7 0 001 5.1 1.6 1.6 0 001.7 1 3.6 3.6 0 001.4-.5c1.8-1 3.2-2.5 3.8-4.6a30 30 0 012-5.5c1.2-2.6 2.8-4.8 6-5.2-.7-.9-1.5-1.6-1.9-2.5a9.7 9.7 0 01-.8-3 25.4 25.4 0 010-3zm-85.5-47.4a7 7 0 00.2 3.7c.9 2.5 1.6 5 3 7.4 1.3 2 2.4 4.2 4.2 6l3.8-5.2-3.8-7.6a4 4 0 00-.2 2.8c0 .2 0 .4.2.6 0 .3.3.7-.2.8l-.7-.4-6-7.8a3 3 0 00-.5-.3zm70 283.5c-.8 1.3-1.4 3-3.3 3.6 3.5 1.8 6 2.3 9.5.8.3-.1.6-.3.8-.6a20.7 20.7 0 003.9-5.3c-1.9.4-3.6.8-5.4 1-1.7.3-3.5.3-5.4.5zm26-.6a7.7 7.7 0 003.8 2 2.4 2.4 0 001.8-.4 12.3 12.3 0 002-2.3l1.4-2-5.1-1a1.1 1.1 0 00-.8.3l-3.2 3.4z" fill="#fff"/></g><defs><clipPath id="clip0"><path d="M122 327.8H.6V612H122V327.8z" fill="#fff"/></clipPath><clipPath id="clip1"><path d="M534.4 290.3H418v297h116.4v-297z" fill="#fff"/></clipPath></defs></svg>