<?xml version="1.0" encoding="UTF-8" standalone="no"?><!DOCTYPE svg PUBLIC "-//W3C//DTD SVG 1.1//EN" "http://www.w3.org/Graphics/SVG/1.1/DTD/svg11.dtd"><svg width="100%" height="100%" viewBox="0 0 32 32" version="1.1" xmlns="http://www.w3.org/2000/svg" xmlns:xlink="http://www.w3.org/1999/xlink" xml:space="preserve" style="fill-rule:evenodd;clip-rule:evenodd;stroke-linejoin:round;stroke-miterlimit:1.41421;"><path d="M29,0l-26,0c-1.65,0 -3,1.35 -3,3l0,26c0,1.65 1.35,3 3,3l13,0l0,-14l-4,0l0,-4l4,0l0,-2c0,-3.306 2.694,-6 6,-6l4,0l0,4l-4,0c-1.1,0 -2,0.9 -2,2l0,2l6,0l-1,4l-5,0l0,14l9,0c1.65,0 3,-1.35 3,-3l0,-26c0,-1.65 -1.35,-3 -3,-3Z" style="fill:#fff;fill-rule:nonzero;"/></svg>
