<?xml version="1.0" encoding="utf-8"?>
<!-- Generator: Adobe Illustrator 23.0.2, SVG Export Plug-In . SVG Version: 6.00 Build 0)  -->
<svg version="1.1" id="Calque_1" xmlns="http://www.w3.org/2000/svg" xmlns:xlink="http://www.w3.org/1999/xlink" x="0px" y="0px"
	 viewBox="0 0 382.68 382.68" style="enable-background:new 0 0 382.68 382.68;" xml:space="preserve">
<style type="text/css">
	.st0{fill:#FFFFFF;}
	.st1{fill:#FFFFFF;stroke:#3C3C3B;stroke-width:2;stroke-miterlimit:10;}
	.st2{fill:#373C42;}
	.st3{fill:#020203;}
	.st4{fill:#E1071D;}
	.st5{fill:#223A7A;}
	.st6{fill:#7F8080;}
</style>
<circle class="st0" cx="191.34" cy="191.34" r="189.92"/>
<g>
	<circle class="st1" cx="191.34" cy="191.34" r="175.36"/>
	<path class="st2" d="M73.13,299.99V273h5.16v8.62c1.66-1.56,3.57-2.41,5.74-2.56c0.28-0.02,0.59-0.04,0.93-0.04
		c3.26,0,5.94,1.12,8.03,3.36c1.86,2.02,2.79,4.47,2.79,7.34c0,2.75-0.84,5.15-2.52,7.19c-1.97,2.36-4.62,3.54-7.95,3.54
		c-2.51,0-4.6-0.67-6.29-2.01c-0.41-0.33-0.79-0.69-1.16-1.06v2.59H73.13L73.13,299.99z M84.23,283.48c-2.22,0-3.92,0.83-5.08,2.48
		c-0.78,1.07-1.16,2.32-1.16,3.76c0,2.31,0.88,4.05,2.64,5.22c1.06,0.71,2.3,1.06,3.72,1.06c2.33,0,4.06-0.86,5.2-2.59
		c0.7-1.05,1.05-2.26,1.05-3.65c0-2.22-0.85-3.93-2.56-5.15C86.94,283.86,85.67,283.48,84.23,283.48L84.23,283.48z M121.98,292.03
		h-16.65c0.47,1.8,1.66,3.01,3.57,3.62c0.72,0.24,1.51,0.37,2.37,0.37c1.76,0,3.18-0.51,4.27-1.53c0.16-0.15,0.31-0.3,0.47-0.47
		h5.63c-0.31,0.9-0.88,1.84-1.71,2.81c-2.25,2.43-5.1,3.65-8.54,3.65c-3.41,0-6.26-1.1-8.54-3.29c-2.07-2-3.1-4.41-3.1-7.23
		c0-3.07,1.15-5.64,3.45-7.71c2.17-1.97,4.8-2.96,7.88-2.96c3.41,0,6.18,1.14,8.3,3.43c1.86,2.02,2.79,4.5,2.79,7.45
		C122.17,290.83,122.11,291.45,121.98,292.03L121.98,292.03z M105.18,287.76h11.91c-0.59-2.39-2.25-3.71-4.97-3.98
		c-0.32-0.02-0.65-0.04-0.97-0.04c-2.97,0-4.91,1.21-5.82,3.62C105.28,287.48,105.23,287.61,105.18,287.76L105.18,287.76z
		 M128.15,299.99v-15.81h-2.52v-4.42h2.52V273h5.16v6.76h3.1v4.42h-3.1v15.81H128.15z M162.41,279.76v20.23h-4.73v-2.63
		c-1.71,1.83-3.7,2.85-5.98,3.07c-0.36,0.02-0.75,0.04-1.16,0.04c-3.39,0-6.12-1.13-8.19-3.4c-1.76-1.95-2.64-4.32-2.64-7.12
		c0-3.36,1.19-6.06,3.57-8.11c2.02-1.7,4.47-2.56,7.37-2.56c2.82,0,5.06,0.93,6.71,2.78c0.1,0.12,0.21,0.26,0.31,0.4v-2.7H162.41z
		 M151.2,283.74c-2.28,0-4,0.85-5.16,2.56c-0.75,1.07-1.13,2.33-1.13,3.76c0,2.26,0.9,3.93,2.72,5c1.03,0.63,2.25,0.95,3.65,0.95
		c2.04,0,3.61-0.61,4.7-1.83c0.96-1.22,1.47-2.61,1.55-4.16c0-2.31-0.88-4.05-2.64-5.22C153.82,284.09,152.59,283.74,151.2,283.74
		L151.2,283.74z M170.94,296.34c-1.16,0-2.13,0.91-2.13,2.08c0,1.06,0.97,1.97,2.1,1.97c1.2,0,2.21-0.88,2.21-1.97
		C173.12,297.29,172.11,296.34,170.94,296.34L170.94,296.34z M196.51,279.76h4.93v16.4c0,3.7-0.72,6.44-2.17,8.22
		c-2.07,2.46-5.06,3.69-8.96,3.69c-4.11,0-7.27-1.29-9.47-3.87c-0.65-0.77-1.19-1.63-1.59-2.56h5.86c1.24,1.29,2.73,2,4.46,2.12
		c0.28,0.02,0.6,0.04,0.93,0.04c3.83,0,5.83-2.15,6.01-6.46c-1.66,1.83-3.57,2.85-5.74,3.07c-0.41,0.05-0.85,0.07-1.32,0.07
		c-3.31,0-5.98-1.16-7.99-3.47c-1.71-1.97-2.56-4.39-2.56-7.27c0-3.24,1.15-5.87,3.45-7.89c1.97-1.7,4.35-2.56,7.14-2.56
		c3.1,0,5.45,1.01,7.02,3.03L196.51,279.76L196.51,279.76z M190.07,283.74c-2.35,0-4.06,0.91-5.12,2.74c-0.57,1-0.85,2.16-0.85,3.47
		c0,2.51,0.96,4.29,2.87,5.33c0.91,0.49,1.97,0.73,3.18,0.73c2.43,0,4.19-0.9,5.28-2.7c0.57-0.95,0.85-2.07,0.85-3.36
		c0-2.39-0.91-4.14-2.72-5.26c-0.88-0.56-1.89-0.88-3.03-0.95H190.07L190.07,283.74z M217.82,279.28c3.36,0,6.16,1.11,8.38,3.32
		c2.07,2.05,3.1,4.52,3.1,7.41c0,2.85-1.14,5.31-3.41,7.38c-2.25,2.05-4.93,3.07-8.03,3.07c-3.18,0-5.9-1.06-8.15-3.18
		c-2.17-2.07-3.26-4.54-3.26-7.41c0-2.95,1.14-5.45,3.41-7.52C212.09,280.31,214.74,279.28,217.82,279.28L217.82,279.28z
		 M217.85,283.74c-1.94,0-3.54,0.74-4.81,2.23c-0.93,1.12-1.4,2.4-1.4,3.83c0,2.07,0.81,3.73,2.44,4.97
		c1.11,0.83,2.38,1.24,3.8,1.24c1.99,0,3.61-0.77,4.85-2.3c0.9-1.12,1.36-2.4,1.36-3.83c0-1.97-0.79-3.58-2.37-4.82
		C220.6,284.18,219.3,283.74,217.85,283.74z M253.28,279.76v20.23h-4.77v-1.94c-1.5,1.39-3.13,2.17-4.89,2.34l-1.28,0.07
		c-2.9,0-5.08-1-6.56-2.99c-0.98-1.36-1.51-3.21-1.59-5.55c-0.03-0.39-0.04-0.83-0.04-1.31v-10.85h5.16v9.9
		c0,2.56,0.35,4.25,1.05,5.08c0.67,0.85,1.68,1.28,3.03,1.28c1.84,0,3.14-0.62,3.92-1.86c0.54-0.78,0.82-2.4,0.82-4.86v-9.53H253.28
		L253.28,279.76z M265.97,299.99l-8.65-20.23h5.74l4.97,13.4l4.89-13.4h5.82l-8.65,20.23H265.97z M281.63,296.34
		c-1.1,0-2.01,0.91-2.01,2.08c0,1.06,0.91,1.97,1.97,1.97c1.13,0,2.08-0.88,2.08-1.97C283.67,297.29,282.72,296.34,281.63,296.34z
		 M290.36,282.23h4.02l-4.06,18.82c-1.06,4.86-2.52,7.29-4.42,7.29c-0.53,0-0.88-0.31-0.88-0.75c0-0.13,0.04-0.22,0.18-0.44
		c0.18-0.31,0.22-0.49,0.22-0.75c0-0.97-0.79-1.72-1.77-1.72c-0.93,0-1.63,0.84-1.63,1.9c0,1.5,1.55,2.69,3.49,2.69
		c4.02,0,7.16-4.42,9.1-12.68l3.31-14.36h4.9l0.27-1.41h-4.82c1.33-7.07,3.05-10.21,5.52-10.21c0.62,0,0.97,0.22,0.97,0.57
		c0,0.09-0.04,0.22-0.18,0.44c-0.22,0.35-0.27,0.57-0.27,0.93c0,1.06,0.66,1.77,1.63,1.77c1.02,0,1.9-0.84,1.9-1.81
		c0-1.63-1.63-2.87-3.84-2.87c-2.17,0-3.93,0.97-5.57,3.05c-1.33,1.77-2.25,3.8-3.62,8.13h-4.15L290.36,282.23L290.36,282.23z
		 M308.38,299.99c2.43-7.73,3.18-9.54,5.21-12.94c1.55-2.52,2.78-3.89,3.53-3.89c0.31,0,0.53,0.18,0.75,0.62
		c0.35,0.75,0.71,0.97,1.59,0.97c1.33,0,2.08-0.8,2.08-2.21c0-1.41-0.84-2.3-2.08-2.3c-1.02,0-2.25,0.66-3.4,1.9
		c-1.86,1.86-3.71,4.55-4.42,6.27l-0.66,1.63l2.47-9.72l-0.13-0.09c-3.23,0.57-3.71,0.66-6.94,1.19v0.75
		c0.97-0.18,1.15-0.22,1.5-0.22c0.97,0,1.55,0.44,1.55,1.24c0,0.57-0.35,2.39-0.71,3.71l-3.76,13.08H308.38L308.38,299.99z"/>
	<g>
		<path class="st0" d="M72.75,78.3h237.19v72.36H72.75V78.3z"/>
		<path class="st3" d="M262.15,202.36c-0.13-0.05-0.14-0.18-0.03-0.46c0.14-0.36,0.2-0.39,0.74-0.32c0.48,0.06,0.63,0.02,0.82-0.24
			c0.39-0.5,0.09-0.86-0.63-0.74c-0.55,0.09-0.55,0.09-0.44-0.29c0.33-1.19,0.35-1.13-0.63-1.31c-1.2-0.22-2.31-0.81-3.17-1.68
			c-1.31-1.31-1.75-2.63-1.62-4.75c0.07-1.08,0.16-1.5,0.54-2.25c1.15-2.3,3.79-3.47,7.34-3.26c0.77,0.05,1.74,0.16,2.17,0.26
			l0.77,0.18l0.08,2.56h-0.47c-0.27,0-0.47-0.08-0.47-0.18c0-0.37-0.95-1.2-1.62-1.43c-0.86-0.3-2.53-0.23-3.38,0.14
			c-1.92,0.84-2.8,3-2.21,5.49c0.27,1.14,0.72,1.91,1.57,2.71c0.81,0.75,1.63,1.05,2.86,1.05c1.29,0,2.19-0.47,2.77-1.45
			c0.39-0.66,0.52-0.75,0.9-0.53c0.17,0.1,0.17,0.33,0.01,1.38l-0.2,1.27l-0.71,0.22c-0.39,0.11-1.28,0.25-1.97,0.3
			c-1.21,0.08-1.28,0.1-1.28,0.41c0,0.24,0.09,0.33,0.35,0.33c0.51,0,0.99,0.35,1.11,0.82c0.13,0.55-0.3,1.34-0.86,1.61
			c-0.4,0.19-2,0.27-2.4,0.11L262.15,202.36L262.15,202.36z M170.4,201.77c-1.33-0.35-2.48-0.89-3.87-1.8l-1.19-0.79l-1.84-0.09
			c-2.05-0.1-2.77-0.3-4.09-1.18c-2.93-1.94-3.03-6.87-0.2-9.26c2.14-1.81,5.89-2.18,8.58-0.86c3.64,1.79,4.04,7.07,0.72,9.83
			c-0.51,0.43-1.01,0.78-1.11,0.78c-0.31,0,3.32,1.79,4.38,2.16c1.18,0.41,2.53,0.46,3.54,0.14c0.73-0.23,0.86-0.2,0.98,0.22
			c0.08,0.25-0.05,0.35-0.78,0.66c-1.16,0.49-3.59,0.58-5.05,0.19L170.4,201.77z M165.88,197.47c2.59-1.22,3.08-5.12,0.97-7.6
			c-1.96-2.31-5.39-1.96-6.69,0.68c-1.16,2.38,0.17,6.07,2.55,7.04c0.97,0.39,2.19,0.35,3.19-0.12
			C165.89,197.47,165.88,197.47,165.88,197.47z M84.83,198.91c-0.71-0.28-1.48-1.15-2.71-3.03c-1.89-2.9-2.24-3.32-2.77-3.32h-0.46
			l0,1.57c0.01,2.86,0.33,3.83,1.32,4.06c0.27,0.06,0.37,0.18,0.37,0.43v0.35h-6.32v-0.32c0-0.24,0.12-0.35,0.48-0.46
			c0.27-0.06,0.63-0.3,0.81-0.52c0.32-0.38,0.32-0.52,0.32-5.79c0-5.27-0.01-5.41-0.32-5.79c-0.18-0.22-0.54-0.44-0.81-0.52
			c-0.35-0.09-0.48-0.2-0.48-0.43c0-0.3,0.02-0.3,3.92-0.39c4.15-0.09,5.06-0.03,6.23,0.49c1.02,0.44,1.87,1.8,1.88,2.98
			c0,1.36-1.11,2.88-2.58,3.54l-0.77,0.34l1.7,2.29c2,2.71,2.62,3.43,3.21,3.71c0.55,0.25,0.6,0.82,0.09,0.94
			c-0.63,0.15-2.65,0.09-3.12-0.1L84.83,198.91L84.83,198.91z M80.97,191.16c2.07-0.52,2.76-3.11,1.2-4.46
			c-0.74-0.63-1.52-0.87-2.51-0.74l-0.76,0.1v5.26h0.73C80.03,191.32,80.65,191.25,80.97,191.16
			C80.97,191.16,80.97,191.16,80.97,191.16z M116.5,198.91c-0.84-0.27-1.64-0.76-2.06-1.25c-0.77-0.91-0.85-1.38-0.86-5.08
			c-0.01-3.86-0.09-4.28-0.87-4.61c-0.31-0.13-0.5-0.31-0.5-0.49c0-0.27,0.1-0.28,2.62-0.28c2.62,0,2.62,0,2.62,0.31
			c0,0.21-0.09,0.31-0.28,0.31c-0.15,0-0.45,0.16-0.66,0.36l-0.37,0.36v3.78c0,3.56,0.02,3.81,0.32,4.33
			c0.47,0.81,1.41,1.23,2.61,1.16c1.29-0.07,2-0.48,2.51-1.49c0.39-0.77,0.41-0.81,0.41-4.19c0-3.03-0.03-3.46-0.27-3.79
			c-0.16-0.21-0.44-0.42-0.65-0.46c-0.25-0.05-0.39-0.19-0.39-0.35c0-0.24,0.14-0.26,2.08-0.26c1.93,0,2.08,0.02,2.08,0.26
			c0,0.16-0.14,0.3-0.38,0.35c-0.72,0.15-0.77,0.46-0.85,4.47l-0.08,3.76l-0.47,0.81c-0.55,0.96-1.44,1.64-2.57,1.94
			c-0.97,0.25-3.23,0.27-4,0.01C116.47,198.89,116.5,198.91,116.5,198.91z M176.65,198.91c-0.85-0.27-1.64-0.76-2.08-1.27
			c-0.73-0.86-0.83-1.5-0.84-5.13c-0.01-3.78-0.1-4.21-0.88-4.54c-0.33-0.13-0.51-0.31-0.51-0.49c-0.01-0.27,0.09-0.28,2.61-0.28
			c2.59,0,2.61,0,2.61,0.3c0,0.2-0.12,0.32-0.34,0.35c-0.18,0.03-0.48,0.22-0.65,0.44c-0.3,0.37-0.33,0.6-0.38,3.65
			c-0.07,3.75,0.05,4.54,0.76,5.19c1.27,1.18,3.92,0.85,4.66-0.57c0.47-0.9,0.59-2.01,0.54-4.97c-0.06-3.12-0.17-3.51-0.98-3.69
			c-0.25-0.05-0.39-0.18-0.39-0.34c0-0.24,0.14-0.25,2.08-0.25s2.09,0.03,2.09,0.27c0,0.16-0.18,0.33-0.46,0.43
			c-0.25,0.1-0.51,0.28-0.58,0.41c-0.06,0.13-0.16,1.93-0.21,4l-0.09,3.78l-0.47,0.82c-0.55,0.96-1.44,1.64-2.59,1.94
			c-0.97,0.27-3.23,0.28-4,0.03C176.56,198.98,176.65,198.91,176.65,198.91z M225.46,198.91c-0.62-0.24-1.35-1.07-2.48-2.79
			c-1.47-2.23-1.63-2.43-2.01-2.43c-0.34,0-0.35,0.03-0.35,1.74c0,2.08,0.19,2.67,0.92,2.8c0.37,0.07,0.47,0.16,0.47,0.42v0.33
			h-5.24v-0.33c0-0.26,0.1-0.35,0.47-0.42c0.88-0.16,0.94-0.53,0.89-5.38l-0.05-4.29l-0.37-0.36c-0.21-0.2-0.5-0.36-0.66-0.36
			c-0.17,0-0.28-0.1-0.28-0.27c0-0.23,0.16-0.28,1.14-0.36c0.63-0.06,2.34-0.08,3.81-0.05c2.4,0.04,2.76,0.08,3.33,0.35
			c1.02,0.48,1.59,1.43,1.59,2.62c0,1.14-0.72,2.14-2.04,2.81c-0.42,0.22-0.69,0.43-0.6,0.48c0.09,0.05,0.77,0.91,1.51,1.93
			c1.46,1.99,2.27,2.88,2.61,2.88c0.3,0,0.27,0.65-0.03,0.75c-0.43,0.15-2.13,0.08-2.61-0.11L225.46,198.91L225.46,198.91z
			 M222.61,192.36c0.61-0.29,1.21-0.97,1.33-1.52c0.15-0.7-0.2-1.61-0.78-2.12c-0.55-0.46-1.07-0.6-1.98-0.49l-0.56,0.06v4.28h0.78
			c0.42,0,0.97-0.09,1.21-0.2L222.61,192.36L222.61,192.36z M291.26,198.89c-0.46-0.11-0.87-0.23-0.9-0.26
			c-0.03-0.03-0.15-0.65-0.25-1.38l-0.19-1.33h0.43c0.24,0,0.44,0.05,0.44,0.11c0,0.37,1.01,1.43,1.6,1.69
			c1.59,0.7,3.49,0.04,3.49-1.19c0-0.81-0.44-1.29-1.92-2.13c-2.08-1.18-2.89-1.8-3.3-2.56c-0.42-0.75-0.49-1.93-0.18-2.78
			c0.21-0.56,1.18-1.41,1.99-1.72c0.82-0.33,3.39-0.32,4.45,0.01l0.81,0.25v2.48h-0.44c-0.35,0-0.47-0.08-0.54-0.34
			c-0.16-0.58-0.99-1.31-1.68-1.47c-1.84-0.44-3.33,1.27-2.17,2.51c0.22,0.24,1.23,0.94,2.23,1.56c1.96,1.19,2.68,1.85,2.93,2.62
			c0.54,1.72-0.35,3.26-2.26,3.89c-1.02,0.35-3.23,0.38-4.52,0.06L291.26,198.89L291.26,198.89z M89.22,198.6
			c0-0.25,0.09-0.32,0.37-0.32c0.22,0,0.51-0.15,0.7-0.37c0.31-0.35,0.32-0.53,0.32-4.74c0-3.06-0.06-4.47-0.18-4.68
			c-0.24-0.39-0.6-0.64-0.94-0.65c-0.18,0-0.27-0.12-0.27-0.35v-0.35h9.26v2.94l-0.41-0.04c-0.31-0.03-0.46-0.16-0.59-0.52
			c-0.31-0.83-0.82-1.04-2.65-1.1l-1.62-0.05v3.96l1.24-0.06c1.35-0.07,2.03-0.37,2.12-0.93c0.03-0.22,0.16-0.3,0.46-0.3h0.41v3.62
			h-0.42c-0.34,0-0.43-0.06-0.43-0.33c0-0.62-0.52-0.85-2.02-0.9l-1.37-0.05v1.96c0,2.36,0.01,2.39,1.78,2.39
			c1.74,0,2.64-0.39,3.09-1.36c0.22-0.48,0.76-0.62,0.93-0.24c0.1,0.25-0.33,1.89-0.65,2.46l-0.24,0.41l-4.47-0.03l-4.47-0.03v-0.32
			L89.22,198.6z M101.1,198.64c0-0.25,0.1-0.35,0.44-0.41c0.81-0.15,0.85-0.35,0.9-4.82c0.05-4.65-0.01-5.07-0.86-5.43
			c-0.35-0.15-0.5-0.3-0.51-0.53v-0.33l3.5,0.06c3.79,0.06,4.1,0.13,5.13,0.9c1.12,0.86,1.42,2.57,0.65,3.84
			c-0.67,1.12-1.83,1.7-3.66,1.86l-0.97,0.09l-0.23-0.53l-0.25-0.53l0.56-0.08c0.72-0.09,1.5-0.51,1.92-1.01
			c0.24-0.28,0.33-0.58,0.31-1.12c-0.03-1.36-0.86-2.18-2.34-2.29l-0.84-0.06l0.04,4.65c0.05,5.07,0.08,5.21,0.94,5.37
			c0.31,0.06,0.42,0.16,0.42,0.42v0.33h-5.24v-0.33C101.03,198.68,101.1,198.64,101.1,198.64z M126.7,198.59
			c0-0.22,0.09-0.31,0.29-0.31c0.16,0,0.46-0.12,0.65-0.27l0.37-0.27l0.04-4.31c0.05-4.83-0.01-5.19-0.9-5.49
			c-0.29-0.1-0.47-0.26-0.47-0.41c0-0.23,0.21-0.25,2.35-0.28c4.49-0.07,5.45-0.02,6.18,0.3c0.94,0.42,1.38,1.01,1.46,1.99
			c0.03,0.44,0.01,0.95-0.04,1.14c-0.16,0.54-0.87,1.21-1.67,1.55l-0.74,0.31l0.63,0.17c1.47,0.38,2.43,1.8,2.23,3.31
			c-0.17,1.27-0.77,1.99-2.18,2.57c-0.74,0.3-0.94,0.32-4.5,0.32h-3.7v-0.32C126.68,198.57,126.7,198.59,126.7,198.59z
			 M133.49,197.54c0.78-0.47,1.1-1.12,1-2.09c-0.13-1.46-1.27-2.33-3.04-2.33h-0.94l0.04,2.1c0.04,2.01,0.06,2.11,0.4,2.37
			c0.52,0.39,1.82,0.36,2.49-0.05H133.49z M132.85,191.76c0.94-0.33,1.44-1,1.35-1.81c-0.13-1.09-1.11-1.7-2.73-1.7h-0.93v3.76
			l0.81-0.01c0.44,0,1.11-0.11,1.49-0.25H132.85z M139.17,198.6c0-0.22,0.1-0.32,0.41-0.35c0.22-0.03,0.55-0.22,0.73-0.44
			c0.31-0.38,0.33-0.55,0.33-4.66c0-3.42-0.05-4.34-0.22-4.62c-0.27-0.43-0.63-0.68-0.98-0.69c-0.18-0.01-0.27-0.11-0.27-0.33
			c0-0.32,0-0.32,2.77-0.32c2.77,0,2.77,0,2.77,0.3c0,0.22-0.09,0.3-0.3,0.3c-0.17,0-0.5,0.15-0.73,0.33l-0.39,0.37l-0.05,4.38
			l-0.04,4.38l0.39,0.23c0.31,0.18,0.64,0.22,1.59,0.16c1.46-0.08,2.16-0.41,2.56-1.23c0.26-0.55,0.56-0.67,0.97-0.44
			c0.14,0.09,0.12,0.34-0.12,1.2c-0.17,0.6-0.42,1.24-0.55,1.42l-0.25,0.33l-4.31-0.05l-4.31-0.05v-0.3L139.17,198.6L139.17,198.6z
			 M149.96,198.64c0-0.26,0.1-0.35,0.47-0.42c0.85-0.15,0.91-0.53,0.91-5.2c0-3.87-0.03-4.17-0.3-4.59
			c-0.17-0.25-0.48-0.49-0.69-0.54c-0.27-0.05-0.39-0.18-0.39-0.38c0-0.29,0.04-0.29,2.63-0.29c2.59,0,2.61,0.01,2.61,0.3
			c0,0.2-0.13,0.33-0.38,0.39c-0.26,0.08-0.49,0.25-0.65,0.47c-0.25,0.34-0.27,0.8-0.27,4.63c0,4.73,0.06,5.11,0.86,5.26
			c0.33,0.06,0.43,0.16,0.43,0.42v0.33h-5.24v-0.33C149.94,198.69,149.96,198.64,149.96,198.64z M186.81,198.61
			c0-0.23,0.12-0.33,0.47-0.39c0.85-0.15,0.91-0.53,0.91-5.21c0-4.1-0.01-4.17-0.35-4.63c-0.2-0.26-0.51-0.49-0.69-0.52
			c-0.25-0.03-0.34-0.14-0.34-0.38v-0.34h9.09v1.46c0,1.45-0.01,1.46-0.38,1.46c-0.3,0-0.39-0.09-0.47-0.48
			c-0.18-0.82-0.81-1.1-2.65-1.17l-1.55-0.05l-0.1,0.66c-0.05,0.35-0.1,1.25-0.1,1.98v1.32l1.31-0.08c1.44-0.09,2.01-0.32,2.17-0.87
			c0.07-0.25,0.2-0.35,0.46-0.35h0.37v3.61h-0.38c-0.26,0-0.39-0.08-0.39-0.24c-0.01-0.7-0.76-1.01-2.31-1.01h-1.27l0.05,1.95
			c0.07,2.37,0.05,2.36,1.89,2.36c1.63,0,2.48-0.35,2.93-1.22c0.22-0.44,0.39-0.6,0.64-0.6c0.18,0,0.39,0.06,0.44,0.15
			c0.14,0.2-0.55,2.47-0.82,2.71c-0.18,0.16-0.97,0.19-4.6,0.16l-4.38-0.03v-0.3L186.81,198.61L186.81,198.61z M203.78,198.65
			c0-0.23,0.14-0.38,0.48-0.52c0.27-0.11,0.63-0.38,0.81-0.59c0.31-0.38,0.31-0.55,0.31-5.64c0-5.9-0.01-5.97-1.08-6.28
			c-0.42-0.13-0.55-0.24-0.55-0.51v-0.34h10.79v3.48h-0.47c-0.38,0-0.47-0.06-0.47-0.32c0-0.52-0.58-1.22-1.2-1.46
			c-0.37-0.14-1.2-0.25-2.3-0.29l-1.74-0.06v4.76l1.27-0.01c1.7-0.01,2.27-0.2,2.64-0.86c0.23-0.43,0.37-0.53,0.73-0.53h0.46v4.19
			l-0.5-0.05c-0.34-0.04-0.52-0.14-0.58-0.33c-0.25-0.82-1.19-1.19-3.07-1.19h-0.99l0.07,2.47c0.06,2.81,0.2,3.23,1.12,3.52
			c0.4,0.13,0.54,0.25,0.54,0.49v0.32h-6.32v-0.32L203.78,198.65L203.78,198.65z M228.45,198.62c0-0.25,0.08-0.35,0.3-0.35
			c0.47,0,1.01-0.87,2.18-3.51c1.57-3.54,3.06-7.14,3.06-7.4c0-0.17,0.16-0.22,0.73-0.22l0.73,0l2.08,4.81
			c2.26,5.22,2.68,6.04,3.2,6.25c0.21,0.08,0.34,0.26,0.34,0.45c0,0.32,0,0.32-2.63,0.32h-2.63v-0.33c0-0.25,0.1-0.35,0.46-0.41
			c0.67-0.12,0.71-0.52,0.2-1.9l-0.44-1.18h-3.64l-0.37,0.98c-0.47,1.23-0.44,2.06,0.06,2.14c0.25,0.04,0.34,0.14,0.34,0.38v0.34
			h-4.01v-0.34C228.41,198.64,228.45,198.62,228.45,198.62z M235.54,193.75c0-0.2-1.14-2.99-1.23-2.99c-0.06,0-0.22,0.27-0.35,0.6
			l-0.65,1.53l-0.39,0.94h1.31c0.72,0,1.31-0.03,1.31-0.06L235.54,193.75L235.54,193.75z M242.17,198.64c0-0.24,0.1-0.34,0.42-0.41
			c0.84-0.15,0.86-0.34,0.93-4.89c0.07-4.69,0-5.08-0.9-5.38c-0.27-0.09-0.47-0.25-0.47-0.41c0-0.22,0.17-0.24,1.74-0.24h1.72
			l1.01,1.15c0.55,0.63,1.97,2.18,3.16,3.45c0.85,0.9,1.68,1.81,2.51,2.72l0.35,0.42l-0.05-3.14c-0.05-3.42-0.14-3.78-0.97-3.97
			c-0.25-0.05-0.39-0.19-0.39-0.35c0-0.24,0.14-0.27,2.08-0.27c1.96,0,2.08,0.03,2.08,0.28c0,0.18-0.13,0.29-0.34,0.32
			c-0.18,0.03-0.48,0.23-0.65,0.44c-0.31,0.38-0.33,0.57-0.38,5.54l-0.05,5.15h-0.68c-0.61,0-0.73-0.05-1.19-0.58
			c-0.42-0.47-6.95-7.78-7.2-8.03c-0.04-0.04-0.04,1.5,0,3.41c0.07,3.89,0.17,4.35,0.9,4.49c0.34,0.06,0.44,0.15,0.44,0.41v0.33
			h-4.15v-0.33L242.17,198.64L242.17,198.64z M269.16,198.63c0-0.2,0.08-0.34,0.21-0.34c0.3,0,0.87-0.65,1.28-1.47
			c0.56-1.13,3.2-7.27,3.66-8.52l0.42-1.15l1.38,0.1l2.04,4.74c1.12,2.61,2.17,4.96,2.32,5.22c0.34,0.62,0.85,1.12,1.11,1.12
			c0.12,0,0.21,0.15,0.21,0.35v0.35h-5.25v-0.35c0-0.24,0.08-0.34,0.27-0.34c0.74,0,0.81-0.58,0.25-2.12l-0.4-1.08h-3.62l-0.33,0.94
			c-0.61,1.77-0.59,2.27,0.14,2.27c0.21,0,0.29,0.1,0.29,0.35v0.35h-4.01v-0.35L269.16,198.63L269.16,198.63z M275.7,192.41
			c-0.3-0.79-0.58-1.52-0.63-1.64c-0.05-0.13-0.37,0.41-0.77,1.33c-0.38,0.85-0.68,1.58-0.68,1.63c0,0.06,0.57,0.11,1.29,0.11h1.29
			l-0.54-1.42L275.7,192.41L275.7,192.41z M282.73,198.64c0-0.27,0.08-0.34,0.35-0.34c0.2,0,0.5-0.13,0.65-0.29
			c0.26-0.27,0.29-0.6,0.33-4.62c0.03-2.38,0.01-4.47-0.04-4.64c-0.1-0.39-0.68-0.87-1.03-0.87c-0.2,0-0.29-0.1-0.29-0.3
			c0-0.3,0-0.3,2.61-0.3c2.52,0,2.63,0.01,2.63,0.28c0,0.18-0.17,0.35-0.46,0.46c-0.25,0.1-0.51,0.35-0.6,0.56
			c-0.22,0.53-0.35,4.88-0.21,7.22c0.09,1.63,0.16,2.03,0.41,2.27c0.16,0.16,0.42,0.29,0.57,0.29c0.2,0,0.27,0.1,0.27,0.35v0.35
			h-5.24v-0.35L282.73,198.64z M299.99,198.62c0-0.24,0.09-0.32,0.38-0.32c0.22,0,0.5-0.15,0.69-0.37c0.3-0.35,0.31-0.52,0.31-4.74
			c0-3.05-0.05-4.46-0.18-4.68c-0.24-0.38-0.6-0.63-0.94-0.65c-0.18,0-0.27-0.11-0.27-0.35v-0.34h9.25v2.94l-0.4-0.04
			c-0.3-0.03-0.44-0.15-0.58-0.52c-0.3-0.82-0.81-1.04-2.65-1.1l-1.62-0.05v3.93h0.97c1.33-0.01,1.98-0.23,2.27-0.79
			c0.17-0.33,0.33-0.44,0.61-0.44h0.38v3.61h-0.39c-0.35,0-0.43-0.06-0.43-0.33c0-0.62-0.51-0.85-2.03-0.9l-1.37-0.05v1.95
			c0,2.36,0.03,2.39,1.79,2.39c1.74,0,2.64-0.39,3.1-1.36c0.22-0.48,0.76-0.62,0.93-0.24c0.1,0.25-0.33,1.89-0.65,2.46l-0.24,0.41
			l-4.47-0.03l-4.47-0.03v-0.33L299.99,198.62L299.99,198.62z M93.39,185.9l-0.38-0.26l0.92-1.25c0.5-0.7,1.01-1.27,1.14-1.27
			c0.52,0,2.18,0.32,2.14,0.42c-0.08,0.2-3.13,2.65-3.28,2.64c-0.08,0-0.32-0.12-0.53-0.27C93.39,185.92,93.39,185.9,93.39,185.9z
			 M73.8,176.29h234.87v1.25H73.8L73.8,176.29L73.8,176.29z M163.19,173.44c-1.23-0.4-1.93-1.43-1.7-2.55
			c0.16-0.75,0.63-1.27,1.46-1.62l0.73-0.3l-0.44-0.23c-0.25-0.13-0.44-0.35-0.44-0.51c0-0.25,1.14-1.27,1.41-1.27
			c0.07,0-0.03-0.23-0.21-0.51c-0.78-1.21-0.16-2.96,1.32-3.64c0.8-0.37,1.07-0.39,3.87-0.23c1.61,0.09,1.67,0.11,1.58,0.39
			c-0.04,0.16-0.08,0.35-0.09,0.4c0,0.06-0.26,0.1-0.6,0.1h-0.6l0.08,0.81c0.18,1.77-1.21,2.97-3.46,3.01
			c-1.16,0.02-1.72,0.24-1.27,0.5c0.13,0.07,0.89,0.32,1.67,0.55c2.56,0.75,3.03,1.12,2.93,2.32c-0.1,1.25-1.21,2.33-2.82,2.77
			c-0.91,0.25-2.57,0.25-3.36,0L163.19,173.44z M166.63,172.58c1.25-0.56,1.79-1.64,1.11-2.19c-0.46-0.38-2.47-0.96-2.99-0.86
			c-1.06,0.19-2.05,1.36-1.87,2.19C163.13,172.87,165.01,173.3,166.63,172.58C166.62,172.58,166.63,172.58,166.63,172.58z
			 M167.04,166.28c0.94-0.51,1.31-1.98,0.68-2.71c-0.86-0.99-2.51,0.11-2.52,1.7c0,0.49,0.08,0.67,0.43,0.94
			c0.52,0.41,0.81,0.42,1.44,0.08C167.07,166.28,167.04,166.28,167.04,166.28z M172.89,169.51c-0.68-0.13-1.03-0.53-1.11-1.25
			c-0.2-1.85,1.53-4.57,3.46-5.44c1.01-0.46,2.99-0.5,4.31-0.1c0.12,0.04,0.04,0.51-0.27,1.49c-0.59,1.91-0.94,3.83-0.74,4.16
			c0.13,0.22,0.22,0.23,0.64,0.1c0.38-0.13,0.51-0.11,0.61,0.04c0.22,0.32,0.09,0.43-0.8,0.71c-1.18,0.37-1.72,0.29-1.91-0.25
			l-0.13-0.43l-0.63,0.32c-1.06,0.54-2.52,0.82-3.4,0.66C172.93,169.51,172.89,169.51,172.89,169.51z M175.56,168.26
			c0.46-0.19,0.91-0.49,1.04-0.66c0.21-0.28,0.84-2.37,1.08-3.59c0.1-0.5,0.09-0.51-0.47-0.65c-1.03-0.26-2.08,0.42-2.9,1.9
			c-0.86,1.55-1.08,2.93-0.52,3.29c0.39,0.25,0.63,0.2,1.79-0.29C175.58,168.26,175.56,168.26,175.56,168.26z M248.58,169.47
			c-0.69-0.15-0.93-0.37-1.12-1c-0.29-0.96,0.38-2.78,1.52-4.13c1.36-1.61,2.86-2.16,5.08-1.84c0.59,0.08,1.11,0.2,1.16,0.25
			c0.07,0.05-0.13,0.94-0.43,1.98c-0.29,1.03-0.55,2.28-0.56,2.78l-0.03,0.91l0.65-0.03c0.59-0.03,0.65,0.01,0.65,0.29
			c0,0.27-0.14,0.35-0.89,0.56c-1.21,0.34-1.79,0.27-1.85-0.23c-0.03-0.2-0.08-0.38-0.1-0.38c-0.03,0-0.43,0.15-0.89,0.33
			c-0.73,0.29-2.23,0.67-2.53,0.63c-0.05,0-0.33-0.06-0.6-0.11L248.58,169.47L248.58,169.47z M251.16,168.28
			c0.38-0.18,0.81-0.43,0.95-0.57c0.34-0.35,0.95-2.17,1.28-3.76c0.09-0.43,0.06-0.46-0.52-0.6c-0.5-0.13-0.71-0.11-1.15,0.08
			c-0.98,0.42-1.95,1.84-2.46,3.59c-0.48,1.68,0.12,2.07,1.92,1.26L251.16,168.28L251.16,168.28z M83.91,169.15
			c-0.04-0.18,0.23-1.47,0.61-2.88c0.76-2.78,0.76-3-0.08-2.79c-0.4,0.1-0.44,0.08-0.44-0.2c0-0.27,0.14-0.35,0.89-0.55
			c0.48-0.13,1.14-0.25,1.42-0.27c0.51-0.03,0.55,0,0.59,0.44c0.03,0.26-0.24,1.53-0.59,2.83c-0.35,1.3-0.6,2.46-0.55,2.58
			c0.08,0.17,0.23,0.19,0.8,0.12c0.67-0.09,0.71-0.08,0.65,0.22c-0.04,0.25-0.24,0.37-0.9,0.56c-0.46,0.13-1.18,0.24-1.58,0.24
			c-0.63,0-0.73-0.04-0.81-0.3C83.93,169.14,83.91,169.15,83.91,169.15z M89.84,169.22l-0.35-0.27l1.2-4.74
			c0.65-2.61,1.18-4.92,1.15-5.14c-0.05-0.41-0.1-0.43-0.71-0.27c-0.29,0.08-0.34,0.04-0.34-0.25c0-0.41,0.55-0.6,2.05-0.74
			c0.86-0.08,0.89-0.07,0.89,0.25c0,0.19-0.23,1.33-0.54,2.54c-0.3,1.22-0.54,2.29-0.54,2.39c0,0.14,0.17,0.11,0.67-0.08
			c1.72-0.68,3.21-0.65,3.76,0.09c0.51,0.7,0.25,2.48-0.57,3.95c-0.42,0.77-1.68,1.96-2.38,2.24c-0.9,0.37-3.75,0.38-4.26,0
			C89.88,169.2,89.84,169.22,89.84,169.22z M93.75,168.33c0.78-0.49,1.65-2.17,1.88-3.64c0.25-1.48-0.84-1.77-2.56-0.7
			c-0.36,0.22-0.64,0.54-0.81,0.93c-0.27,0.68-0.85,2.9-0.85,3.3c0,0.58,1.5,0.65,2.35,0.1C93.76,168.32,93.75,168.33,93.75,168.33z
			 M99.64,169.04c-0.42-0.39-0.44-0.51-0.44-1.43c0.03-2.35,1.5-4.45,3.54-5.03c1.02-0.29,1.92-0.19,2.52,0.27
			c0.35,0.27,0.42,0.44,0.42,1c0,1.43-1.44,2.52-3.53,2.65c-0.6,0.04-1.15,0.14-1.2,0.22c-0.17,0.24-0.13,1.04,0.06,1.38
			c0.39,0.66,0.94,0.68,2.26,0.06c0.82-0.38,0.99-0.42,1.12-0.24c0.27,0.39,0.14,0.51-1.05,1.02c-0.99,0.42-1.37,0.51-2.21,0.51
			c-0.91,0-1.05-0.04-1.46-0.43L99.64,169.04L99.64,169.04z M102.41,165.69c1.32-0.33,2.18-1.6,1.51-2.21
			c-0.42-0.38-0.81-0.37-1.36,0.04c-0.43,0.33-1.14,1.37-1.35,1.99c-0.08,0.25-0.04,0.3,0.26,0.3c0.2,0,0.63-0.08,0.95-0.15
			L102.41,165.69z M107.6,169.41c0-0.02,0.27-1.1,0.61-2.39c0.34-1.3,0.63-2.63,0.63-2.96v-0.61l-0.61,0.09
			c-0.55,0.08-0.61,0.06-0.61-0.19c0-0.3,0.5-0.54,1.75-0.82c0.86-0.19,1.19-0.06,1.19,0.48v0.33l0.55-0.33
			c0.97-0.58,1.55-0.7,2.25-0.41c0.34,0.14,0.59,0.32,0.56,0.41c-0.42,1.33-0.65,1.75-0.99,1.75c-0.3,0-0.35-0.06-0.35-0.47
			c0-1.01-0.97-1.01-1.69-0.01c-0.43,0.63-0.89,2.05-1.25,3.94c-0.1,0.57-0.27,1.04-0.35,1.06c-0.27,0.08-1.63,0.2-1.63,0.16
			L107.6,169.41z M115.35,169.28c-0.17-0.18-0.08-0.68,0.81-4.31l0.37-1.5H116c-0.29,0-0.52-0.04-0.52-0.08
			c0-0.22,0.35-0.62,0.54-0.62c0.38,0,1.1-0.66,1.41-1.28c0.34-0.68,0.47-0.8,0.98-0.8c0.34,0,0.37,0.05,0.27,0.46
			c-0.05,0.25-0.14,0.7-0.2,0.98l-0.09,0.52h0.72c0.73,0,0.84,0.11,0.63,0.62c-0.06,0.16-0.3,0.23-0.82,0.23
			c-0.86,0-0.72-0.28-1.4,2.77c-0.5,2.24-0.47,2.45,0.37,2.23c0.71-0.18,0.76-0.16,0.71,0.19c-0.04,0.24-0.23,0.37-0.82,0.55
			c-0.94,0.29-2.13,0.33-2.36,0.08C115.4,169.32,115.35,169.28,115.35,169.28z M121.58,169.1c-1.12-1.09-0.31-4.22,1.49-5.68
			c0.73-0.6,1.88-1.05,2.63-1.05c0.48,0,1.53,0.44,1.68,0.71c0.25,0.42,0.17,1.42-0.14,1.89c-0.64,0.96-2.05,1.58-3.58,1.58h-0.9
			v0.74c0,1.43,0.67,1.67,2.39,0.91c0.55-0.24,1.03-0.42,1.07-0.38c0.04,0.04,0.09,0.19,0.13,0.34c0.04,0.23-0.17,0.38-1.08,0.8
			c-0.99,0.46-1.28,0.52-2.21,0.52c-0.95,0-1.11-0.04-1.44-0.35L121.58,169.1L121.58,169.1z M124.3,165.69
			c0.82-0.24,1.38-0.67,1.63-1.2c0.21-0.44,0.21-0.52-0.06-0.85c-0.42-0.51-0.84-0.52-1.48-0.01c-0.5,0.39-1.33,1.7-1.33,2.08
			C123.05,165.91,123.64,165.9,124.3,165.69z M182.22,169.38c-0.21-0.19-0.08-1.01,0.67-3.85c1.01-3.85,1.54-6.13,1.54-6.5
			c0-0.27-0.06-0.29-0.54-0.22c-0.48,0.08-0.54,0.05-0.54-0.25c0-0.34,0.39-0.51,1.92-0.77c0.8-0.13,1.02-0.04,1.02,0.42
			c0,0.22-0.51,2.41-1.15,4.89c-0.64,2.48-1.16,4.73-1.16,4.98v0.47l0.71-0.08c0.67-0.08,0.71-0.06,0.65,0.23
			c-0.04,0.24-0.24,0.37-0.89,0.55c-0.86,0.25-2.02,0.33-2.21,0.16C182.24,169.41,182.22,169.38,182.22,169.38z M188.03,169.31
			c-0.18-0.28-0.08-0.87,0.57-3.21c0.35-1.2,0.6-2.31,0.58-2.43c-0.07-0.24-0.1-0.25-0.77-0.11c-0.35,0.08-0.43,0.05-0.43-0.19
			c0-0.33,0.67-0.62,1.87-0.84c0.86-0.14,1.23-0.06,1.23,0.25c0,0.11-0.31,1.39-0.69,2.84c-0.38,1.45-0.65,2.7-0.59,2.78
			c0.06,0.09,0.37,0.11,0.78,0.06c0.65-0.08,0.69-0.06,0.64,0.23c-0.04,0.24-0.23,0.37-0.9,0.55c-0.99,0.29-2.09,0.33-2.25,0.09
			C188.07,169.32,188.03,169.31,188.03,169.31z M193.72,169.24c-0.05-0.13-0.01-0.58,0.09-1c0.35-1.39,1.1-4.61,1.1-4.68
			c0-0.04-0.21-0.06-0.47-0.06c-0.67,0-0.54-0.39,0.25-0.76c0.47-0.22,0.74-0.49,1.12-1.15c0.44-0.75,0.58-0.86,0.95-0.86h0.43
			l-0.21,0.87c-0.12,0.48-0.21,0.91-0.21,0.98c0,0.05,0.34,0.1,0.77,0.1c0.81,0,0.84,0.01,0.68,0.52c-0.08,0.28-0.2,0.32-0.89,0.32
			h-0.8l-0.52,2.34c-0.29,1.29-0.48,2.45-0.43,2.57c0.08,0.18,0.2,0.2,0.6,0.09c0.71-0.18,0.74-0.16,0.74,0.2
			c0,0.28-0.13,0.37-0.9,0.56c-1.19,0.3-2.16,0.3-2.28,0L193.72,169.24z M200.08,169.17c-0.38-0.29-0.46-0.46-0.51-1.24
			c-0.12-1.75,0.77-3.73,2.09-4.64c1.46-1,3.06-1.13,3.94-0.33c0.42,0.38,0.46,0.48,0.38,1.11c-0.14,1.38-1.61,2.38-3.62,2.47
			c-1.25,0.06-1.38,0.2-1.14,1.18c0.27,1.06,0.76,1.18,2.3,0.52c1.02-0.43,1.25-0.43,1.25,0c0,0.44-1.84,1.17-3.17,1.23
			c-0.98,0.05-1.14,0.03-1.53-0.29L200.08,169.17L200.08,169.17z M203.35,165.44c0.97-0.44,1.38-1.42,0.84-1.96
			c-0.69-0.68-1.96,0.22-2.6,1.84l-0.22,0.6l0.69-0.09c0.45-0.07,0.89-0.19,1.31-0.37L203.35,165.44z M240.22,169.43
			c0-0.03,0.27-1.1,0.61-2.39c0.34-1.29,0.63-2.62,0.63-2.97v-0.61l-0.61,0.09c-0.55,0.08-0.61,0.06-0.61-0.19
			c0-0.33,0.27-0.47,1.53-0.76c1.08-0.25,1.41-0.15,1.41,0.43v0.33l0.55-0.33c0.97-0.58,1.55-0.7,2.25-0.42
			c0.34,0.14,0.6,0.29,0.6,0.33c0,0.05-0.14,0.48-0.34,0.95c-0.29,0.72-0.41,0.87-0.69,0.87s-0.35-0.08-0.35-0.47
			c0-0.95-0.9-1.03-1.58-0.13c-0.51,0.68-0.77,1.43-1.2,3.38c-0.18,0.89-0.38,1.65-0.43,1.69c-0.09,0.09-1.71,0.29-1.71,0.22
			L240.22,169.43L240.22,169.43z M258.01,169.27c-0.12-0.29,0.03-1.15,0.61-3.61l0.51-2.09l-0.43-0.04
			c-0.51-0.05-0.6-0.51-0.12-0.65c0.55-0.15,1.18-0.72,1.48-1.34c0.34-0.68,0.47-0.8,0.98-0.8c0.34,0,0.37,0.05,0.27,0.46
			c-0.05,0.25-0.14,0.7-0.2,0.98l-0.09,0.52h0.72c0.73,0,0.84,0.11,0.63,0.62c-0.07,0.16-0.3,0.23-0.82,0.23
			c-0.85,0-0.72-0.28-1.4,2.77c-0.5,2.24-0.47,2.45,0.37,2.23c0.71-0.18,0.76-0.16,0.71,0.19c-0.04,0.24-0.24,0.37-0.82,0.54
			c-1.02,0.32-2.21,0.33-2.34,0.04L258.01,169.27z M264.23,169.13c-1.16-1.05-0.35-4.21,1.46-5.68c0.73-0.6,1.88-1.05,2.62-1.05
			c0.48,0,1.53,0.44,1.68,0.71c0.25,0.42,0.17,1.42-0.14,1.9c-0.65,0.98-2.05,1.58-3.59,1.58h-0.91l0.08,0.86
			c0.12,1.36,0.67,1.55,2.35,0.79c0.55-0.24,1.03-0.42,1.07-0.38c0.04,0.04,0.09,0.19,0.13,0.34c0.05,0.23-0.17,0.38-1.08,0.8
			c-0.98,0.46-1.28,0.52-2.17,0.52c-0.9,0-1.08-0.04-1.44-0.35C264.3,169.17,264.23,169.13,264.23,169.13z M267.47,165.5
			c1.08-0.48,1.57-1.6,0.89-2.07c-0.44-0.3-0.77-0.25-1.36,0.22c-0.5,0.39-1.33,1.7-1.33,2.09c0,0.23,1.06,0.09,1.79-0.24H267.47z
			 M272.16,169.38c0-0.06,0.29-1.19,0.63-2.51c0.35-1.32,0.61-2.6,0.59-2.84c-0.04-0.41-0.08-0.43-0.61-0.41
			c-0.43,0.01-0.58-0.04-0.64-0.24c-0.05-0.22,0.08-0.32,0.72-0.53c0.45-0.15,0.91-0.27,1.37-0.37c0.6-0.1,0.59-0.11,0.97,0.71
			c0.01,0.01,0.42-0.16,0.91-0.39c1.07-0.48,1.24-0.51,1.89-0.14l0.5,0.27l-0.33,0.9c-0.27,0.76-0.39,0.91-0.68,0.91
			c-0.29,0-0.35-0.08-0.35-0.46c0-1.22-1.28-0.98-1.97,0.37c-0.17,0.33-0.52,1.49-0.77,2.58c-0.25,1.09-0.48,1.99-0.51,2.01
			c-0.13,0.1-1.67,0.19-1.67,0.1L272.16,169.38L272.16,169.38z M279.88,169.38c0-0.06,0.25-0.99,0.56-2.05
			c0.33-1.17,0.56-2.32,0.57-2.9l0.03-0.98l-0.55,0.05c-0.43,0.04-0.58-0.01-0.63-0.22c-0.06-0.22,0.07-0.3,0.71-0.48
			c1.4-0.39,1.72-0.42,2-0.16c0.15,0.15,0.24,0.35,0.25,0.56c0,0.18,0.03,0.33,0.06,0.33c0.03,0,0.48-0.19,1.02-0.42
			c1.24-0.53,2.89-0.81,3.38-0.57c0.31,0.15,0.34,0.23,0.25,0.87c-0.06,0.38-0.31,1.46-0.56,2.38c-0.25,0.93-0.47,1.9-0.5,2.17
			c-0.04,0.48-0.04,0.48,0.6,0.47c0.44-0.01,0.68,0.05,0.73,0.19c0.12,0.29-0.03,0.38-0.99,0.63c-1.1,0.29-2.12,0.29-2.23,0
			c-0.05-0.13,0.18-1.33,0.52-2.7c0.68-2.74,0.72-3.05,0.39-3.15c-0.34-0.11-1.51,0.41-2.22,0.98c-0.59,0.47-0.65,0.62-1.02,1.99
			c-0.21,0.82-0.43,1.79-0.5,2.15c-0.06,0.37-0.2,0.7-0.29,0.72c-0.47,0.13-1.65,0.19-1.65,0.09L279.88,169.38L279.88,169.38z
			 M290.46,169.28c-0.05-0.13,0.22-1.41,0.61-2.86c0.39-1.45,0.68-2.71,0.63-2.83c-0.05-0.14-0.2-0.15-0.59-0.05
			c-0.18,0.05-0.36,0.1-0.55,0.14c-0.01,0-0.04-0.14-0.04-0.32c0-0.27,0.14-0.35,0.81-0.53c1.83-0.49,2.39-0.41,2.21,0.33
			c-0.04,0.19-0.37,1.39-0.71,2.69c-0.34,1.29-0.59,2.45-0.54,2.56c0.06,0.15,0.26,0.19,0.8,0.11c0.65-0.08,0.69-0.06,0.65,0.23
			c-0.1,0.6-3.06,1.11-3.28,0.58L290.46,169.28L290.46,169.28z M296.28,169.28c-0.1-0.24,0.03-0.9,0.63-3.32
			c0.67-2.67,0.67-2.43,0.1-2.43c-0.68,0-0.56-0.38,0.22-0.75c0.46-0.22,0.73-0.49,1.1-1.12c0.41-0.67,0.58-0.84,0.91-0.87
			c0.47-0.05,0.47-0.01,0.14,1.48l-0.09,0.46h0.81c0.68,0,0.8,0.04,0.72,0.22c-0.05,0.13-0.08,0.27-0.09,0.42
			c0,0.15-0.21,0.2-0.82,0.2h-0.82l-0.51,2.34c-0.27,1.29-0.46,2.45-0.4,2.57c0.08,0.19,0.2,0.2,0.61,0.1
			c0.71-0.18,0.74-0.16,0.74,0.2c0,0.29-0.13,0.37-0.9,0.56c-1.18,0.3-2.16,0.3-2.29,0C296.35,169.34,296.28,169.28,296.28,169.28z
			 M302.63,169.18c-0.43-0.34-0.44-0.38-0.44-1.72c0-1.31,0.03-1.42,0.59-2.43c0.69-1.24,1.46-1.91,2.73-2.33
			c2.19-0.73,3.76,0.52,2.8,2.23c-0.55,0.98-2,1.67-3.49,1.67c-0.89,0-0.95,0.03-1.05,0.37c-0.13,0.47,0.04,1.17,0.34,1.48
			c0.35,0.37,0.95,0.3,2.04-0.2c0.81-0.37,0.98-0.41,1.1-0.24c0.27,0.39,0.14,0.55-0.89,0.99c-0.8,0.35-1.31,0.47-2.13,0.51
			c-0.99,0.05-1.14,0.03-1.54-0.29C302.68,169.2,302.63,169.18,302.63,169.18z M306,165.43c1.04-0.52,1.4-1.56,0.67-1.99
			c-0.27-0.16-0.48-0.19-0.81-0.09c-0.54,0.15-1.32,1.06-1.63,1.91l-0.25,0.66l0.72-0.09c0.39-0.05,0.99-0.23,1.33-0.41
			C306.02,165.43,306,165.43,306,165.43z M72.76,169.09c0.03-0.14,0.19-0.27,0.35-0.29c0.46-0.08,0.85-0.44,1.16-1.07
			c0.4-0.84,1.68-6.64,1.72-7.84c0.03-1.03,0.03-1.04-0.47-1.32c-0.95-0.55-0.69-0.63,1.97-0.63c2.12,0,2.47,0.04,2.47,0.22
			c0,0.13-0.2,0.25-0.47,0.3c-0.98,0.18-1.36,1.05-2.29,5.36c-0.86,4.03-0.86,3.95-0.47,4.31c0.3,0.27,0.46,0.29,1.66,0.24
			c1.62-0.08,2.21-0.32,2.77-1.17c0.44-0.66,0.47-0.67,0.78-0.49c0.18,0.1,0.17,0.24-0.04,0.8c-0.16,0.43-0.36,0.85-0.6,1.24
			l-0.35,0.56l-4.13,0.04c-3.87,0.03-4.13,0.01-4.08-0.22C72.76,169.12,72.76,169.09,72.76,169.09z M150.76,169.13
			c0-0.11,0.26-0.31,0.59-0.45c0.41-0.18,0.68-0.44,0.91-0.88c0.44-0.82,1.78-6.74,1.8-8c0.03-0.94,0.01-0.98-0.47-1.25
			c-1.03-0.6-0.8-0.63,3.9-0.63c4.31,0,4.4,0.01,4.31,0.28c-0.05,0.14-0.18,0.7-0.29,1.22c-0.16,0.8-0.24,0.95-0.52,0.99
			c-0.27,0.04-0.34-0.03-0.34-0.33c0-0.93-0.6-1.19-2.77-1.19h-1.49l-0.42,1.77c-0.16,0.67-0.33,1.35-0.5,2.02
			c-0.06,0.22,0.07,0.24,1.29,0.24c1.54,0,2-0.15,2.44-0.8c0.41-0.58,0.93-0.62,0.81-0.08l-0.35,1.66
			c-0.21,1.01-0.33,1.28-0.52,1.28c-0.16,0-0.29-0.15-0.35-0.42c-0.05-0.23-0.25-0.49-0.44-0.58c-0.37-0.18-2.8-0.27-2.96-0.1
			c-0.1,0.09-0.56,2.09-0.76,3.35c-0.09,0.6-0.06,0.67,0.29,0.89c0.31,0.19,0.67,0.22,1.75,0.18c1.61-0.08,2.18-0.3,2.84-1.15
			c0.29-0.37,0.56-0.58,0.68-0.53c0.3,0.1,0.27,0.35-0.19,1.33c-0.68,1.46-0.3,1.36-5.03,1.36c-3.46,0-4.14-0.04-4.14-0.2
			C150.84,169.08,150.76,169.13,150.76,169.13z M229.11,169.13c0-0.11,0.23-0.27,0.51-0.35c0.98-0.3,1.31-1.09,2.27-5.6
			c0.84-3.88,0.82-4.5-0.16-4.78c-0.17-0.05-0.29-0.16-0.25-0.25c0.05-0.11,1.25-0.17,4.35-0.2c4.21-0.04,4.28-0.04,4.18,0.23
			c-0.05,0.15-0.18,0.7-0.29,1.22c-0.16,0.8-0.24,0.95-0.52,0.99c-0.29,0.04-0.34-0.03-0.34-0.39c0-0.89-0.74-1.17-2.85-1.1
			l-1.21,0.04l-0.43,1.8c-0.23,0.99-0.43,1.89-0.43,1.98c0,0.25,2.35,0.23,2.91-0.04c0.23-0.11,0.52-0.39,0.63-0.63
			c0.12-0.27,0.31-0.43,0.48-0.43c0.37,0,0.37-0.1-0.04,1.77c-0.27,1.32-0.38,1.57-0.61,1.57c-0.17,0-0.27-0.1-0.27-0.25
			c0-0.65-1.44-1.14-2.77-0.94l-0.59,0.09l-0.31,1.56c-0.55,2.74-0.52,2.99,0.31,3.29c0.93,0.34,0.39,0.47-2.08,0.51
			c-2.03,0.04-2.42,0.01-2.42-0.16L229.11,169.13L229.11,169.13z M138.64,166.14c-0.69-0.28-1.29-1.16-1.29-1.87
			c0-1.11,1.08-2.09,2.3-2.09c1.45,0,2.34,0.8,2.34,2.08c0.01,1.64-1.65,2.57-3.33,1.89L138.64,166.14z M217.14,166.21
			c-0.26-0.11-0.68-0.42-0.91-0.71c-0.35-0.42-0.43-0.65-0.42-1.24c0.03-1.28,0.9-2.07,2.31-2.07c0.71,0,0.94,0.07,1.41,0.42
			c1.07,0.77,1.24,2.07,0.39,2.98c-0.71,0.77-1.78,1.01-2.76,0.62H217.14L217.14,166.21z M124.93,161.26
			c-0.3-0.3-0.33-0.27,1.42-2.07l0.59-0.61l0.88,0.18c0.48,0.1,0.88,0.22,0.88,0.27c0,0.09-3.3,2.51-3.43,2.51
			c-0.04,0-0.2-0.12-0.35-0.28L124.93,161.26z M203.39,161.26l-0.34-0.25l1.16-1.2c0.64-0.66,1.22-1.2,1.29-1.2
			c0.38,0,1.7,0.34,1.67,0.43c-0.04,0.09-2.91,2.18-3.28,2.38C203.8,161.47,203.58,161.4,203.39,161.26
			C203.4,161.26,203.39,161.26,203.39,161.26z M305.91,161.26l-0.37-0.25l1.21-1.2c0.66-0.66,1.26-1.2,1.33-1.2
			c0.31,0,1.7,0.33,1.68,0.41c0,0.08-2.91,2.2-3.29,2.4c-0.09,0.05-0.34-0.02-0.54-0.16C305.92,161.26,305.91,161.26,305.91,161.26z
			 M85.82,160.55c-0.63-0.56-0.02-1.65,0.93-1.65c0.66,0,1,0.31,1,0.91C87.74,160.73,86.53,161.2,85.82,160.55L85.82,160.55z
			 M189.89,160.64c-0.38-0.26-0.36-1.12,0.04-1.48c0.63-0.57,1.85-0.19,1.85,0.58c0,0.84-1.16,1.39-1.88,0.91
			C189.9,160.66,189.89,160.64,189.89,160.64z M292.31,160.55c-0.64-0.58-0.01-1.65,0.95-1.65c0.97,0,1.38,0.98,0.68,1.61
			c-0.48,0.43-1.2,0.45-1.64,0.05H292.31z M157.19,156.57c-0.24-0.24-0.18-0.32,0.93-1.42l1.19-1.17l0.88,0.19
			c0.48,0.1,0.87,0.22,0.87,0.27c-0.01,0.14-3.11,2.28-3.38,2.34c-0.14,0.04-0.37-0.05-0.5-0.19
			C157.19,156.6,157.19,156.57,157.19,156.57z"/>
		<path class="st4" d="M208.47,150.66l0.36-0.84c0.61-1.52,1.24-2.67,2.16-3.95c0.97-1.35,3.09-3.33,3.98-3.71
			c1.09-0.47,2.44-0.63,4.11-0.5c1.44,0.11,5.85,0.76,7.63,1.13c1.36,0.27,3.34,0.3,4.27,0.05c1.8-0.47,2.86-1.38,3.37-2.89
			c0.39-1.15,0.39-2.21-0.01-2.9c-0.53-0.94-0.44-1.19,0.85-2.29c0.64-0.56,1.16-1.06,1.16-1.13c0-0.38-0.89-1.86-1.11-1.88
			c-0.14,0-0.42-0.13-0.61-0.27l-0.37-0.27l0.76-0.35c1.04-0.48,1.82-1.23,1.82-1.76c0-0.23-0.22-0.79-0.5-1.24
			c-0.52-0.87-0.65-1.71-0.37-2.2c0.18-0.33,0.52-0.47,2.14-0.89c1.36-0.35,1.85-0.72,2.05-1.51c0.16-0.67,0.08-1.1-0.37-1.91
			c-0.37-0.66-2.74-3.94-3.42-4.74c-0.93-1.08-2.06-2.94-2.39-3.94c-0.33-0.99-0.34-1.05-0.09-2.32c0.51-2.7,0.21-4.93-1.24-9.28
			c-1.08-3.24-1.37-4.03-1.7-4.64c-0.61-1.09-0.54-1.34,0.72-2.27c0.6-0.44,1.15-0.91,1.23-1.05c0.38-0.63-0.05-1.86-0.76-2.2
			c-0.46-0.22-0.71-0.06-1.16,0.7c-0.35,0.58-0.5,0.68-0.86,0.68c-0.61,0-0.72-0.23-0.33-0.7c0.44-0.56,0.42-0.65-0.3-0.73
			c-0.54-0.06-0.81-0.25-1.97-1.32c-1.54-1.42-2.59-2.08-4.65-2.94c-0.95-0.39-1.28-0.58-0.94-0.53c0.3,0.04,1.35,0.11,2.34,0.16
			c2.86,0.13,3.55-0.22,4.22-2.08c0.44-1.27,0.67-1.85-0.38-2.74l-3.73-3.14h85.55v72.36H208.47L208.47,150.66z"/>
		<path class="st5" d="M135.52,150.66c-0.62-0.06-1.16-0.08-1.2-0.12c-0.07-0.06,0.64-0.47,3.85-2.23c1.03-0.57,1.45-0.87,1.31-0.94
			c-0.12-0.06-1.02-0.14-2-0.2c-1.46-0.08-1.88-0.06-2.31,0.12c-0.29,0.12-1.45,0.44-2.57,0.7c-2.8,0.66-3.72,1.11-4.62,2.23
			l-0.34,0.43H72.75V78.3h108.93l-2.11,1.24c-1.16,0.52-2.51,1.25-3,1.61c-1.66,1.23-3.89,4.03-4.44,5.58
			c-0.21,0.57-0.39,0.78-1.02,1.17c-0.97,0.59-2.12,1.72-3.07,3c-1.29,1.74-3.76,5.66-4.24,6.75c-0.76,1.69-0.69,2.97,0.42,8.02
			c0.48,2.22,1.01,4.48,1.16,5.01c0.16,0.54,0.33,1.45,0.38,2.02c0.09,1.03,0.17,1.25,0.84,2.51c0.18,0.34,0.33,0.73,0.33,0.87
			c0,0.13,0.13,0.32,0.3,0.42c0.18,0.11,0.29,0.31,0.3,0.52c0,0.24,0.35,0.7,1.12,1.46c1.76,1.75,3.04,3.39,3.04,3.91
			c0,0.43-0.69,0.54-1.81,0.29c-1.31-0.29-2.38-0.92-4.02-2.36c-0.71-0.61-1.27-1.03-1.27-0.92c0,0.11,0.47,0.68,1.06,1.27
			c1.16,1.17,1.35,1.49,1.1,1.92c-0.22,0.37-0.76,0.48-1.49,0.3c-0.85-0.21-1.33,0.08-1.2,0.71c0.08,0.39,0.06,0.43-0.18,0.35
			c-0.47-0.16-1.51-0.35-2.44-0.44c-0.86-0.08-0.93-0.11-1.44-0.76c-0.39-0.49-0.71-0.72-1.11-0.82c-1.53-0.38-5.34-0.99-7.89-1.24
			c-4.49-0.44-5.58-0.48-7.73-0.24c-1.66,0.18-2.1,0.29-3,0.7c-1.61,0.74-4.39,3.04-4.39,3.64c0,0.28,0.61,0.19,1.31-0.2
			c2.12-1.18,9.39-2.85,12.96-2.98c1.76-0.06,1.67,0.01-0.46,0.37c-0.59,0.1-1.97,0.42-3.08,0.72c-1.11,0.3-3.03,0.76-4.26,1.03
			c-1.23,0.25-2.63,0.6-3.08,0.75l-0.85,0.28l1.31,0.01c6.69,0.06,14.29,1.98,17.4,4.37c1.33,1.03,1.82,1.15,3.77,0.96
			c2.69-0.25,6.16-1.41,7.69-2.56c0.67-0.49,1.2-0.7,1.2-0.43c0,0.46-0.87,2.9-1.25,3.5c-0.42,0.68-0.44,0.77-0.22,0.93
			c0.13,0.09,0.21,0.2,0.16,0.24c-0.05,0.05,0.05,0.13,0.23,0.18c0.51,0.15,0.38,0.29-0.43,0.47c-0.78,0.19-1.41,0.51-1.41,0.72
			c0,0.08,0.1,0.14,0.24,0.14c0.39,0,0.1,0.25-0.42,0.35c-0.35,0.08-0.42,0.13-0.26,0.22c0.16,0.09,0.16,0.13,0.01,0.13
			c-0.1,0-0.2,0.14-0.2,0.32c0,0.22-0.16,0.37-0.47,0.49c-0.77,0.32-0.56,0.48,0.5,0.39c0.54-0.05,0.86-0.05,0.73,0
			c-0.13,0.04-0.99,0.39-1.92,0.79c-0.94,0.38-2.16,0.85-2.7,1.03c-0.63,0.2-1.02,0.41-1.06,0.56c-0.05,0.24,0.24,0.23,0.97-0.03
			c0.13-0.05,0.25-0.03,0.25,0.04c0,0.06-1.61,0.9-3.57,1.86c-1.97,0.96-3.8,1.95-4.09,2.19c-0.29,0.25-0.64,0.46-0.81,0.46
			c-0.16,0-0.37,0.16-0.47,0.35c-0.3,0.6-0.25,0.67,0.47,0.56c1.06-0.16,1.55-0.15,1.62,0.04c0.04,0.1-0.07,0.18-0.24,0.18
			c-0.18,0.01-0.35,0.08-0.48,0.2c-0.1,0.11-0.37,0.23-0.59,0.24c-0.27,0.04-0.52,0.2-0.73,0.49c-0.17,0.24-0.44,0.48-0.61,0.52
			c-0.17,0.04,0.07,0.05,0.54,0.01c6.93-0.47,8.23-0.7,11.03-1.98c2.38-1.09,4.86-2.72,6.62-4.35c0.51-0.47,0.98-0.85,1.04-0.85
			c0.24,0,0.11,0.77-0.24,1.47c-0.61,1.19-1.89,2.28-4.53,3.86c-1.33,0.8-2.77,1.56-3.19,1.67c-1.32,0.38-3.46,0.79-5.71,1.08
			c-7.3,0.95-10.1,1.67-12.87,3.33c-0.47,0.27-0.95,0.48-1.08,0.46c-0.13-0.01-0.48,0.15-0.77,0.38c-0.82,0.65-0.22,0.53,1.5-0.27
			c1.78-0.82,2.6-0.95,1.2-0.19c-1.71,0.94-3,1.53-4.28,1.53h-6.81L135.52,150.66L135.52,150.66z M126.44,142.59
			c0.28-0.11,1.19-0.57,2.04-1.03c0.84-0.46,1.85-0.97,2.23-1.12l2.39-0.98c1.95-0.8,4.83-1.55,4.99-1.3
			c0.06,0.08,0.49,0.18,0.95,0.21c0.65,0.04,0.76,0.08,0.5,0.16c-0.19,0.06-0.35,0.16-0.35,0.23c0,0.25,1.44,0.18,2.05-0.11
			c0.24-0.11,0.78-0.24,1.2-0.29c0.52-0.06,0.76-0.15,0.76-0.29c0-0.16,0.13-0.19,0.6-0.11c0.65,0.1,2.04-0.14,5.8-0.99
			c2.54-0.58,4.47-1.17,6.16-1.86l1.22-0.51l-1.22-0.71c-2.98-1.72-5.98-2.79-12.56-4.45c-1.15-0.29-2.15-0.6-2.24-0.67
			c-0.1-0.09-0.05-0.1,0.15-0.04c0.66,0.22,1.16,0.25,1.16,0.09c0-0.2-0.5-0.37-1.47-0.49c-0.89-0.11-1.47-0.35-0.85-0.35
			c0.96,0-0.69-0.56-2.54-0.84c-1.37-0.22-1.45-0.27-0.87-0.52c0.5-0.22,1.03-1.04,0.89-1.37c-0.12-0.29-0.26-0.25-1.01,0.19
			c-1.42,0.86-2.73,2.28-3.46,3.75c-0.42,0.84-0.27,0.91,1.88,1c1.78,0.06,1.8,0.08,1.35,0.29c-0.36,0.15-0.75,0.26-1.14,0.32
			c-1.25,0.16-1.95,0.71-1.32,1.03c0.18,0.09,0.12,0.16-0.34,0.37c-0.51,0.22-0.54,0.27-0.3,0.38c0.16,0.08,0.6,0.11,0.99,0.09
			c0.55-0.04,0.8,0.01,1.06,0.22l0.34,0.27l-0.68,0.38c-0.38,0.22-0.8,0.6-0.94,0.84c-0.14,0.24-0.65,0.82-1.15,1.29
			c-0.48,0.47-0.89,0.95-0.89,1.08c0,0.11-0.71,0.74-1.58,1.36c-2.34,1.69-3.36,2.62-3.36,3.07c0,0.24-0.13,0.44-0.37,0.58
			c-0.73,0.43-1.11,0.92-0.71,0.92c0.09,0,0.39-0.09,0.67-0.19L126.44,142.59z M144.48,140.96c0.58-0.07,1.25-0.23,1.49-0.36
			l0.44-0.23l-0.74-0.33l-0.74-0.33l-0.74,0.27c-0.41,0.15-0.97,0.35-1.26,0.45c-1.14,0.39-1.29,0.91-0.22,0.77
			C143.29,141.11,143.89,141.04,144.48,140.96C144.48,140.97,144.48,140.96,144.48,140.96z M118.37,134.63
			c3.43-3.24,5.86-5.17,8.94-7.1c1.05-0.65,1.78-1.03,1.82-0.93c0.1,0.27,0.55,0.19,1.28-0.23c0.84-0.48,1.26-0.98,2.3-2.67
			c1.08-1.77,1.5-2.22,3.06-3.31c0.74-0.51,1.82-1.28,2.4-1.7c0.85-0.61,1.04-0.71,0.98-0.47c-0.05,0.18-0.01,0.3,0.1,0.3
			c0.35,0,2.01-0.65,2.06-0.8c0.09-0.25-1.58-0.51-2.82-0.43c-0.95,0.05-1.28,0.15-2.47,0.72c-2.77,1.36-4.78,2.81-8.61,6.27
			c-2.76,2.48-4.92,4.16-6.02,4.63c-0.35,0.15-0.63,0.48-1.06,1.27c-0.84,1.55-2.35,3.76-3.77,5.56c-1.35,1.7-1.63,2.28-0.59,1.19
			c0.8-0.8,1.61-1.58,2.43-2.36L118.37,134.63z M152.76,149.87c4.13-0.78,4.58-0.83,7.48-0.95c3.25-0.13,3.67-0.21,5.62-1.04
			c0.63-0.27,0.87-0.31,0.96-0.19c0.15,0.22,1.21-0.3,3.29-1.62c0.85-0.54,2.05-1.22,2.66-1.52c0.93-0.46,1.21-0.53,1.66-0.46
			c0.48,0.08,0.62,0.03,1.23-0.46c1.69-1.35,3.14-1.97,4.58-1.97c0.43,0,0.58,0.06,0.58,0.22c0,0.14,0.08,0.2,0.23,0.14
			c0.43-0.15,0.24,0.01-0.87,0.76c-1.28,0.85-1.16,1.12,0.14,0.29c1.25-0.79,1.27-0.79,1.27-0.47c0,0.18-0.48,0.63-1.36,1.29
			c-2,1.5-3.41,2.74-5.55,4.88l-1.92,1.86h-24.41l4.39-0.8L152.76,149.87z M152.8,121.52c0.15-0.03,0.39-0.03,0.54,0
			c0.15,0.04,0.03,0.06-0.27,0.06C152.77,121.58,152.65,121.55,152.8,121.52z"/>
		<path class="st6" d="M224.74,116.22c-0.67-0.09-0.33-0.32,0.49-0.32c0.82,0,1.25-0.28,1.25-0.82c0-0.25-0.05-0.29-0.31-0.22
			c-0.22,0.06-0.38,0.01-0.54-0.18c-0.13-0.18-0.47-0.3-0.97-0.36c-0.87-0.11-2.3-0.87-2.05-1.1c0.09-0.08,0.55-0.17,1.01-0.21
			c0.81-0.06,0.86-0.09,1.02-0.53c0.13-0.33,0.3-0.49,0.59-0.56c0.24-0.05,0.59-0.23,0.8-0.41c0.22-0.18,0.91-0.63,1.54-1
			c1.07-0.63,1.74-1.31,1.5-1.52c-0.25-0.23-2.56-0.47-3.66-0.39c-1.27,0.09-3.45,0.51-4.35,0.82c-0.93,0.32-0.67,0.04,0.63-0.65
			c1.74-0.94,5.08-1.8,6.92-1.8c0.72,0,3.12,0.51,3.41,0.72c0.56,0.42-0.05,1.89-1.08,2.62l-0.43,0.3l0.71,0.68l-0.37,0.27
			c-0.2,0.14-0.47,0.27-0.6,0.27c-0.13,0-0.47,0.19-0.74,0.43c-0.42,0.37-0.47,0.48-0.35,0.77c0.09,0.22,0.09,0.43-0.03,0.62
			c-0.1,0.18-0.13,0.57-0.06,1.03c0.13,0.93-0.05,1.25-0.81,1.45c-0.55,0.14-2.59,0.16-3.47,0.04L224.74,116.22L224.74,116.22z"/>
	</g>
	<g>
		<path class="st2" d="M269.28,257.62c-1.16,0-2.13,0.91-2.13,2.08c0,1.06,0.97,1.97,2.1,1.97c1.2,0,2.21-0.88,2.21-1.97
			C271.45,258.57,270.44,257.62,269.28,257.62L269.28,257.62z"/>
		<path class="st2" d="M128.88,255.3h3.08c-0.57,1.08-1.1,1.93-1.57,2.55c-0.49,0.63-1.07,1.19-1.72,1.67
			c-1.84,1.44-4.01,2.16-6.53,2.16c-2.03,0-3.87-0.46-5.54-1.39c-1.67-0.92-2.98-2.19-3.93-3.81c-0.95-1.62-1.43-3.4-1.43-5.35
			c0-1.92,0.47-3.68,1.42-5.27c0.95-1.6,2.24-2.86,3.89-3.78c1.65-0.92,3.45-1.39,5.42-1.39c2.26,0,4.29,0.59,6.07,1.77
			c1.78,1.18,3.08,2.78,3.89,4.79h-3.04c-0.77-1.31-1.76-2.32-2.95-3.02c-1.19-0.7-2.53-1.05-4.01-1.05c-2.23,0-4.11,0.77-5.64,2.32
			c-1.53,1.55-2.3,3.45-2.3,5.7c0,2.23,0.78,4.12,2.33,5.66c1.56,1.54,3.46,2.32,5.71,2.32c1.43,0,2.67-0.3,3.71-0.89
			C126.78,257.69,127.83,256.7,128.88,255.3L128.88,255.3z M159.75,241.18v20.02h-2.72v-3.52c-1.06,1.43-2.18,2.46-3.37,3.08
			c-1.19,0.62-2.63,0.93-4.32,0.93c-2.04,0-3.88-0.45-5.52-1.35c-1.64-0.9-2.92-2.15-3.85-3.74s-1.39-3.38-1.39-5.36
			s0.46-3.77,1.38-5.38c0.89-1.59,2.21-2.9,3.79-3.79c1.61-0.92,3.4-1.38,5.38-1.38c1.75,0,3.26,0.32,4.51,0.96
			c1.26,0.64,2.39,1.66,3.39,3.07v-3.54H159.75z M149.09,243.18c-2.15,0-3.98,0.77-5.49,2.32c-1.51,1.55-2.27,3.43-2.27,5.63
			c0,2.25,0.77,4.16,2.32,5.71c1.55,1.56,3.43,2.33,5.65,2.33c2.18,0,4.01-0.77,5.5-2.32c1.48-1.54,2.23-3.45,2.23-5.73
			c0-2.28-0.76-4.17-2.27-5.69C153.25,243.94,151.36,243.18,149.09,243.18z M168.01,261.2v-20.02h2.72v2.31
			c0.79-1.01,1.61-1.73,2.46-2.15c0.85-0.42,1.91-0.63,3.17-0.63c1.53,0,2.8,0.3,3.84,0.9c1.03,0.6,1.94,1.58,2.73,2.94
			c0.83-1.34,1.81-2.31,2.92-2.92c1.11-0.61,2.45-0.92,4-0.92c1.36,0,2.59,0.26,3.69,0.77c1.1,0.51,2.01,1.25,2.71,2.2
			c1,1.36,1.5,3.24,1.5,5.63v11.91h-2.72v-11.6c0-2.06-0.4-3.6-1.2-4.61c-0.44-0.56-1.03-1-1.75-1.32
			c-0.73-0.32-1.51-0.48-2.36-0.48c-0.94-0.01-1.86,0.22-2.69,0.65c-0.83,0.43-1.48,1.03-1.96,1.78c-0.56,0.89-0.84,2.22-0.84,3.99
			v11.6h-2.7v-11.67c0-2.06-0.45-3.6-1.36-4.61c-1.04-1.16-2.39-1.73-4.06-1.73c-1.68,0-3,0.56-3.95,1.68
			c-0.95,1.12-1.43,2.68-1.43,4.67v11.67H168.01L168.01,261.2z M206.01,261.2v-20.02h2.72v20.02
			C208.73,261.2,206.01,261.2,206.01,261.2z M206.01,238.77v-4.61h2.72v4.61C208.73,238.77,206.01,238.77,206.01,238.77z
			 M216.99,261.2v-20.02h2.72v2.59c1.64-2.05,3.79-3.08,6.44-3.08c1.42,0,2.71,0.27,3.88,0.8c1.15,0.52,2.16,1.31,2.93,2.32
			c0.64,0.84,1.1,1.8,1.36,2.82c0.26,1.03,0.39,2.38,0.39,4.06v10.51h-2.7v-10.51c0-1.35-0.11-2.43-0.33-3.26
			c-0.22-0.83-0.59-1.56-1.1-2.19c-1.13-1.37-2.72-2.06-4.76-2.06c-1.1,0-2.1,0.23-3.01,0.68c-0.91,0.45-1.63,1.08-2.15,1.9
			c-0.35,0.56-0.6,1.17-0.73,1.81c-0.14,0.66-0.21,1.53-0.21,2.62v11.01H216.99L216.99,261.2z M252.83,240.7
			c1.94,0,3.7,0.46,5.27,1.37c1.57,0.91,2.8,2.17,3.68,3.78c0.89,1.61,1.33,3.41,1.33,5.4c0,3-0.97,5.5-2.9,7.47
			c-1.93,1.98-4.37,2.97-7.31,2.97c-2.01,0-3.84-0.45-5.47-1.36c-1.63-0.91-2.91-2.16-3.83-3.75c-0.92-1.6-1.39-3.39-1.39-5.36
			c0-3.04,1-5.55,3-7.54C247.22,241.69,249.76,240.7,252.83,240.7L252.83,240.7z M252.62,243.18c-2.19,0-4.02,0.77-5.47,2.3
			c-1.45,1.53-2.18,3.45-2.18,5.77c0,2.29,0.74,4.18,2.23,5.69c1.49,1.5,3.37,2.25,5.63,2.25c2.21,0,4.01-0.74,5.43-2.23
			c1.41-1.48,2.12-3.38,2.12-5.68c0-2.36-0.73-4.3-2.18-5.82C256.74,243.94,254.88,243.18,252.62,243.18L252.62,243.18z"/>
	</g>
	<line class="st1" x1="18.24" y1="219.75" x2="364.44" y2="219.75"/>
</g>
</svg>
