<svg xmlns="http://www.w3.org/2000/svg" height="60" width="362"><g font-size="47" fill="#373c42"><path d="M118.05 48h6.5V24.04h-6.5v2.618c-2.347-2.166-5.036-3.248-8.164-3.248-6.745 0-12.22 5.143-12.22 12.633 0 7.355 5.768 12.59 12.367 12.59 3.275 0 5.72-1.084 8.016-3.16V48zm-6.844-19.086c4.106 0 7.136 2.843 7.136 7.04 0 4.376-3.128 7.173-7.136 7.173-4.057 0-6.99-3.023-6.99-7.13 0-3.924 2.688-7.083 6.99-7.083zm26.404-4.874h-6.502v32.713h6.5v-11.28c2.347 2.076 4.742 3.16 8.017 3.16 6.6 0 12.416-5.235 12.416-12.59 0-7.49-5.57-12.633-12.26-12.633-3.13 0-5.815 1.082-8.16 3.248V24.04zm6.842 4.874c4.3 0 7.04 3.16 7.04 7.084 0 4.106-2.983 7.13-7.04 7.13-4.008 0-7.137-2.844-7.137-7.175 0-4.196 2.982-7.04 7.137-7.04zM162.74 48h6.502V24.04h-6.5V48zm3.227-33.84c-2.25 0-4.155 1.58-4.155 3.655 0 2.21 1.76 4.15 4.155 4.15 2.297 0 4.154-1.714 4.154-3.834 0-2.16-1.8-3.97-4.15-3.97zm12.72 27.568c-2.053 0-3.764 1.49-3.764 3.43 0 1.894 1.71 3.474 3.764 3.474 2.102 0 3.715-1.58 3.715-3.475s-1.662-3.43-3.715-3.43zm35.795-17.688h-6.5v2.618c-2.445-2.12-4.987-3.248-8.213-3.248-6.6 0-12.13 4.873-12.13 12.272 0 7.174 5.47 12.318 12.46 12.318 3.373 0 5.72-1.038 7.87-2.978 0 2.256-.05 3.88-1.613 5.234-1.174.993-3.13 1.58-5.524 1.58-2.737 0-4.69-.632-6.01-2.076h-7.186c1.76 5.008 6.307 7.58 13.444 7.58 3.958 0 7.086-.857 9.43-2.662 2.984-2.346 3.96-5.46 3.96-10.107V24.04zm-13.247 4.874c4.302 0 7.088 2.978 7.088 6.858 0 4.06-2.982 6.723-6.99 6.723-4.057 0-7.137-2.797-7.137-6.768 0-3.7 2.738-6.813 7.04-6.813zm32.025-5.504c-7.088 0-13.443 5.37-13.443 12.633 0 7.04 5.964 12.59 13.49 12.59 7.92 0 13.736-5.686 13.736-12.635 0-7.084-6.207-12.588-13.784-12.588zm.097 5.685c4.252 0 7.136 2.887 7.136 6.948 0 4.196-3.128 6.904-7.136 6.904-4.204 0-6.99-2.888-6.99-6.95 0-3.97 2.933-6.902 6.99-6.902zm18.95 5.91c0 1.986-.098 3.114.244 5.054 1.03 5.59 4.89 8.52 11.15 8.52 3.62 0 6.31-.906 8.36-3.026 2.74-2.798 3.03-6.047 3.03-10.468V24.04h-6.5v12.77c0 4.06-1.414 6.272-4.89 6.272-3.42 0-4.89-2.256-4.89-6.542v-12.5h-6.5v10.965zM289.97 48h4.205l11.047-23.96h-6.6l-6.55 14.124-6.55-14.123h-6.646L289.97 48z" font-weight="700" font-family="Century Gothic Std"/><path d="M310.642 43.28q1.23 0 2.057.79.85.766.85 1.873 0 1.108-.86 1.9-.86.763-2.06.763t-2.056-.764q-.83-.79-.83-1.9 0-1.106.83-1.87.857-.792 2.056-.792zm27.108-18.51l-.514 1.74h-4.17l-3.143 11.523q-2.085 7.62-4.2 11.786-2.998 5.88-6.454 8.12-2.63 1.71-5.26 1.71-1.72 0-2.92-.95-.887-.66-.887-1.72 0-.843.743-1.475.714-.607 1.77-.607.772 0 1.315.45.513.45.513 1.03 0 .58-.6 1.08-.457.37-.457.553 0 .237.2.37.258.183.8.183 1.23 0 2.6-.713 1.343-.71 2.4-2.133 1.057-1.398 2-4.06.4-1.108 2.14-7.305l4.97-17.85h-4.97l.4-1.74q2.373 0 3.316-.29.94-.317 1.712-1.16.8-.87 2.057-3.217 1.685-3.168 3.228-4.908 2.115-2.345 4.43-3.506 2.34-1.187 4.4-1.187 2.17 0 3.482 1.027 1.313 1.003 1.313 2.19 0 .923-.658 1.555t-1.687.632q-.883 0-1.454-.473-.543-.477-.543-1.136 0-.42.375-1.03.37-.63.37-.84 0-.37-.257-.553-.37-.264-1.085-.264-1.8 0-3.228 1.055-1.914 1.4-3.428 4.38-.774 1.555-2.83 7.725h4.2z" font-style="italic" font-weight="400" font-size="56.25" font-family="Times New Roman"/><path d="M339.692 25.614l9.855-1.476-4.113 12.814q5-7.884 9.083-11.02 2.314-1.794 3.77-1.794.943 0 1.486.527.543.5.543 1.477 0 1.74-.97 3.322-.687 1.186-1.972 1.186-.657 0-1.143-.395-.45-.396-.57-1.213-.05-.5-.25-.66-.23-.21-.54-.21-.484 0-.913.21-.743.37-2.257 2.057-2.37 2.58-5.143 6.69-1.2 1.74-2.056 3.93-1.196 3.002-1.37 3.61l-.92 3.325h-4.37l5.285-16.375q.918-2.847.918-4.06 0-.474-.426-.79-.573-.42-1.515-.42-.6 0-2.2.236l-.2-.977z" font-style="italic" font-weight="400" font-size="56.25" font-family="Times New Roman"/></g></svg>