<?xml version="1.0" encoding="UTF-8" standalone="no"?>
<svg
   xmlns:dc="http://purl.org/dc/elements/1.1/"
   xmlns:cc="http://creativecommons.org/ns#"
   xmlns:rdf="http://www.w3.org/1999/02/22-rdf-syntax-ns#"
   xmlns:svg="http://www.w3.org/2000/svg"
   xmlns="http://www.w3.org/2000/svg"
   height="60"
   width="520"
   version="1.1">
  <metadata>
    <rdf:RDF>
      <cc:Work>
        <dc:format>image/svg+xml</dc:format>
        <dc:type
           rdf:resource="http://purl.org/dc/dcmitype/StillImage" />
        <dc:title>Logo api.gouv.fr</dc:title>
      </cc:Work>
    </rdf:RDF>
  </metadata>
  <g
     style="font-size:47px;fill:#373c42"
     transform="scale(1.04,0.96)">
    <path
       d="m 218.98145,37.171387 q 0,-4.911133 -1.56055,-7.412598 -1.56055,-2.501465 -4.61279,-2.501465 -3.0752,0 -4.6587,2.524414 -1.58349,2.501465 -1.58349,7.389649 0,4.865234 1.58349,7.389648 1.5835,2.524414 4.6587,2.524414 3.05224,0 4.61279,-2.501465 1.56055,-2.501464 1.56055,-7.412597 z m -12.41553,-9.592774 q 1.00976,-1.881836 2.77685,-2.891601 1.79004,-1.009766 4.13086,-1.009766 4.63574,0 7.29785,3.580078 2.66211,3.557129 2.66211,9.822266 0,6.356933 -2.68505,9.98291 -2.66211,3.603027 -7.32081,3.603027 -2.29492,0 -4.06201,-0.986816 -1.74414,-1.009766 -2.7998,-2.914551 l 0,3.23584 -4.22266,0 0,-35.708984 4.22266,0 0,13.287597 z" />
    <path
       d="m 251.70703,35.771484 0,2.06543 -18.29053,0 0,0.137695 q 0,4.520996 2.18018,6.815918 2.20312,2.294922 6.19629,2.294922 2.01953,0 4.22265,-0.642578 2.20313,-0.642578 4.70459,-1.950684 l 0,4.199708 q -2.40966,0.986816 -4.65869,1.46875 -2.22607,0.504882 -4.31445,0.504882 -5.98975,0 -9.36328,-3.580078 -3.37354,-3.603027 -3.37354,-9.914062 0,-6.150391 3.30469,-9.822266 3.30469,-3.671875 8.8125,-3.671875 4.91113,0 7.73389,3.327637 2.8457,3.327637 2.8457,8.766601 z m -4.22266,-1.239257 q -0.0918,-3.396485 -1.76708,-5.324219 -1.65235,-1.950684 -4.77344,-1.950684 -3.05225,0 -5.02588,2.019531 -1.97363,2.019532 -2.34082,5.278321 l 13.90722,-0.02295 z" />
    <path
       d="m 268.55176,16.999023 0,7.297852 9.59277,0 0,3.281738 -9.59277,0 0,13.953125 q 0,2.845703 1.07861,3.970215 1.07861,1.124512 3.76367,1.124512 l 4.75049,0 0,3.373535 -5.16357,0 q -4.75049,0 -6.70117,-1.904785 -1.95069,-1.904785 -1.95069,-6.563477 l 0,-13.953125 -6.86181,0 0,-3.281738 6.86181,0 0,-7.297852 4.22266,0 z" />
    <path
       d="m 298.84473,37.07959 -1.39991,0 q -3.69482,0 -5.57666,1.308105 -1.85888,1.285157 -1.85888,3.855469 0,2.317871 1.3999,3.603027 1.3999,1.285157 3.87842,1.285157 3.48828,0 5.48486,-2.409668 1.99658,-2.432618 2.01953,-6.701172 l 0,-0.940918 -3.94726,0 z m 8.19287,-1.744141 0,14.664551 -4.24561,0 0,-3.80957 q -1.354,2.294922 -3.41943,3.396484 -2.04248,1.078613 -4.97998,1.078613 -3.92432,0 -6.26514,-2.203125 -2.34082,-2.226074 -2.34082,-5.943847 0,-4.291504 2.86865,-6.517578 2.8916,-2.226075 8.46827,-2.226075 l 5.66845,0 0,-0.665527 q -0.0229,-3.075195 -1.56054,-4.452148 -1.5376,-1.399903 -4.91114,-1.399903 -2.15722,0 -4.36035,0.619629 -2.20312,0.619629 -4.2915,1.812988 l 0,-4.222656 q 2.34082,-0.895019 4.47509,-1.331055 2.15723,-0.458984 4.17676,-0.458984 3.18994,0 5.43897,0.940918 2.27197,0.940918 3.67187,2.822754 0.87207,1.147461 1.23926,2.845703 0.36719,1.675293 0.36719,5.048828 z" />
    <path
       style="font-style:italic;font-weight:normal;font-size:56.25px;font-family:'Times New Roman'"
       d="m 315.677,45.083618 q 1.18103,0 1.97754,0.823975 0.82398,0.796509 0.82398,1.950073 0,1.153564 -0.82398,1.977539 -0.82397,0.796509 -1.97754,0.796509 -1.15356,0 -1.97754,-0.796509 -0.79651,-0.823975 -0.79651,-1.977539 0,-1.153564 0.79651,-1.950073 0.82398,-0.823975 1.97754,-0.823975 z" />
    <path
       style="font-style:italic;font-weight:normal;font-size:56.25px;font-family:'Times New Roman'"
       d="m 354.37634,26.846313 -0.79651,2.856446 -4.58679,0 q 0.52185,1.483154 0.52185,2.774048 0,3.625488 -3.07617,6.454467 -3.10364,2.82898 -8.5144,3.131104 -2.91138,0.878906 -4.36707,2.087402 -0.54932,0.439453 -0.54932,0.906372 0,0.549317 0.49439,1.016236 0.49438,0.439453 2.49939,0.906372 l 5.32837,1.235962 q 4.422,1.043701 5.85022,2.471924 1.40075,1.455688 1.40075,3.35083 0,2.252197 -1.67541,4.119873 -1.64795,1.867675 -4.86145,2.911377 -3.18604,1.071167 -7.05872,1.071167 -3.40576,0 -6.20727,-0.823975 -2.80152,-0.796509 -4.01001,-2.1698 -1.2085,-1.373291 -1.2085,-2.828979 0,-1.181031 0.79651,-2.471924 0.76904,-1.263428 1.95007,-2.087403 0.74158,-0.52185 4.20227,-2.471923 -1.26342,-0.98877 -1.26342,-2.1698 0,-1.098633 1.09863,-2.334595 1.1261,-1.235962 4.72412,-2.719116 -3.02124,-0.576782 -4.80652,-2.526856 -1.75781,-1.950073 -1.75781,-4.339599 0,-3.900147 3.40576,-6.976319 3.43323,-3.076171 9.11865,-3.076171 2.05994,0 3.3783,0.411987 1.31836,0.411987 2.55432,1.290893 l 7.41577,0 z m -9.53064,4.312134 q 0,-2.197265 -1.23596,-3.460693 -1.20849,-1.263428 -3.18603,-1.263428 -3.10364,0 -5.13611,3.131104 -2.00501,3.103637 -2.00501,6.481933 0,2.114868 1.2909,3.460694 1.29089,1.345825 3.1311,1.345825 1.45569,0 2.80151,-0.796509 1.37329,-0.796509 2.30713,-2.197266 0.93384,-1.400756 1.48316,-3.570556 0.54931,-2.1698 0.54931,-3.131104 z M 331.68958,50 q -2.22474,1.016235 -3.3783,2.609253 -1.1261,1.593018 -1.1261,3.131103 0,1.812745 1.64795,2.993775 2.36206,1.702881 6.92139,1.702881 3.92761,0 6.70166,-1.345825 2.80151,-1.31836 2.80151,-3.433228 0,-1.071167 -1.0437,-2.032471 -1.01624,-0.961303 -3.98254,-1.565551 Q 338.61096,51.730347 331.68958,50 Z" />
    <path
       style="font-style:italic;font-weight:normal;font-size:56.25px;font-family:'Times New Roman'"
       d="m 379.20544,33.740234 q 0,4.119873 -2.19726,8.157349 -2.1698,4.037476 -6.06995,6.399536 -3.90014,2.362061 -7.58056,2.362061 -3.76282,0 -6.15235,-2.389527 -2.36206,-2.416992 -2.36206,-6.234741 0,-4.037475 2.30713,-8.102417 2.3346,-4.064941 6.20728,-6.427002 3.90014,-2.36206 7.52563,-2.36206 3.62549,0 5.96008,2.389526 2.36206,2.389526 2.36206,6.207275 z m -4.55932,-1.895141 q 0,-2.554322 -1.26343,-3.900147 -1.23596,-1.373291 -3.2135,-1.373291 -4.03748,0 -7.44324,5.795288 -3.37829,5.767823 -3.37829,11.480713 0,2.609253 1.31836,4.037476 1.31835,1.400757 3.32336,1.400757 3.87268,0 7.25098,-5.740357 3.40576,-5.767822 3.40576,-11.700439 z" />
    <path
       style="font-style:italic;font-weight:normal;font-size:56.25px;font-family:'Times New Roman'"
       d="m 407.79736,25.802612 -4.77905,16.369629 q -1.07117,3.652954 -1.07117,4.614258 0,0.494385 0.1648,0.741577 0.19226,0.219727 0.49438,0.219727 0.46692,0 1.01624,-0.411988 0.57678,-0.439453 2.85644,-3.405761 l 0.82398,0.631714 q -2.1698,3.433227 -4.44946,5.053711 -1.51062,1.043701 -2.91138,1.043701 -1.07117,0 -1.67542,-0.604248 -0.60424,-0.604248 -0.60424,-1.565552 0,-0.933838 0.35705,-2.471924 0.43945,-2.032471 2.49939,-8.843994 -4.66919,7.662964 -7.82776,10.574341 -3.1311,2.911377 -5.82275,2.911377 -1.26343,0 -2.14234,-0.878907 -0.8789,-0.878906 -0.8789,-2.224731 0,-2.059937 1.20849,-6.317139 l 2.38953,-8.486938 q 0.87891,-3.048706 0.87891,-3.790283 0,-0.32959 -0.2472,-0.549317 -0.21972,-0.247192 -0.49438,-0.247192 -0.57678,0 -1.15356,0.411987 -0.57679,0.411987 -2.60926,3.048706 l -0.85144,-0.604248 q 2.05994,-3.186035 4.36707,-4.696655 1.75781,-1.18103 3.24096,-1.18103 1.01624,0 1.64795,0.659179 0.65918,0.631714 0.65918,1.64795 0,1.483154 -1.09863,5.300903 l -2.58179,8.87146 q -1.07116,3.625488 -1.07116,4.586792 0,0.52185 0.32959,0.85144 0.35705,0.302124 0.93383,0.302124 0.90638,0 2.36206,-0.906372 1.45569,-0.906372 3.87268,-4.01001 2.44446,-3.131103 4.01001,-5.850219 1.59302,-2.746582 3.3783,-8.706665 l 0.60425,-2.087403 4.1748,0 z" />
    <path
       style="font-style:italic;font-weight:normal;font-size:56.25px;font-family:'Times New Roman'"
       d="m 410.65381,26.846313 7.93762,-1.70288 q 0.85144,2.03247 1.37329,4.147338 0.74158,3.103638 1.2085,7.36084 0.21972,2.142334 0.60425,9.063721 3.43322,-3.790283 4.0924,-4.696655 3.62549,-4.916382 4.17481,-5.767823 0.90637,-1.455688 1.26343,-2.554321 0.30212,-0.823974 0.30212,-1.565552 0,-0.714111 -1.29089,-1.647949 -1.26343,-0.933838 -1.26343,-2.087402 0,-0.878906 0.68664,-1.565552 0.71412,-0.686645 1.67542,-0.686645 1.15356,0 2.03247,0.961303 0.87891,0.933838 0.87891,2.334595 0,1.400757 -0.43946,2.69165 -0.71411,2.087403 -2.66418,5.108643 -1.95008,2.993774 -6.28967,8.047485 -0.54932,0.631714 -6.09742,6.372071 l -1.01623,0 q -0.65918,-17.385865 -2.74658,-21.697998 -0.68665,-1.400757 -2.27967,-1.400757 -0.68664,0 -1.95007,0.247192 l -0.19226,-0.961304 z" />
    <path
       style="font-style:italic;font-weight:normal;font-size:56.25px;font-family:'Times New Roman'"
       d="m 434.87866,45.083618 q 1.18103,0 1.97754,0.823975 0.82398,0.796509 0.82398,1.950073 0,1.153564 -0.82398,1.977539 -0.82397,0.796509 -1.97754,0.796509 -1.15356,0 -1.97754,-0.796509 -0.79651,-0.823975 -0.79651,-1.977539 0,-1.153564 0.79651,-1.950073 0.82398,-0.823975 1.97754,-0.823975 z" />
    <path
       style="font-style:italic;font-weight:normal;font-size:56.25px;font-family:'Times New Roman'"
       d="m 460.94373,25.802612 -0.49439,1.812744 -4.01001,0 -3.02124,12.002564 q -2.005,7.937622 -4.03747,12.277222 -2.88392,6.124878 -6.20728,8.459472 -2.52686,1.785279 -5.05371,1.785279 -1.64795,0 -2.80151,-0.98877 -0.85145,-0.686645 -0.85145,-1.785278 0,-0.878907 0.71412,-1.538086 0.68664,-0.631714 1.70288,-0.631714 0.74157,0 1.26342,0.466919 0.49439,0.466919 0.49439,1.071167 0,0.604248 -0.57678,1.126098 -0.43946,0.384522 -0.43946,0.576783 0,0.247192 0.19226,0.384521 0.2472,0.192261 0.76905,0.192261 1.18103,0 2.49939,-0.741577 1.29089,-0.741577 2.30713,-2.224732 1.01623,-1.455688 1.9226,-4.229736 0.38453,-1.153564 2.05994,-7.608032 l 4.77905,-18.594361 -4.77905,0 0.38452,-1.812744 q 2.27966,0 3.18604,-0.302124 0.90637,-0.32959 1.64795,-1.208496 0.76904,-0.906372 1.97754,-3.35083 1.62048,-3.295898 3.10363,-5.108642 2.03247,-2.444458 4.25721,-3.652955 2.25219,-1.235961 4.22973,-1.235961 2.0874,0 3.35083,1.071167 1.26343,1.043701 1.26343,2.279663 0,0.961303 -0.63171,1.620483 -0.63172,0.65918 -1.62049,0.65918 -0.85144,0 -1.40075,-0.494385 -0.52186,-0.494385 -0.52186,-1.18103 0,-0.439453 0.35706,-1.071167 0.35706,-0.65918 0.35706,-0.878907 0,-0.384521 -0.2472,-0.576782 -0.35705,-0.274658 -1.0437,-0.274658 -1.73034,0 -3.10364,1.098633 -1.84021,1.455688 -3.29589,4.559326 -0.74158,1.620483 -2.71912,8.047485 l 4.03748,0 z" />
    <path
       style="font-style:italic;font-weight:normal;font-size:56.25px;font-family:'Times New Roman'"
       d="m 462.8114,26.681519 9.47571,-1.538086 -3.95508,13.348388 q 4.80652,-8.21228 8.73413,-11.480713 2.22473,-1.867675 3.62549,-1.867675 0.90637,0 1.42822,0.549316 0.52185,0.521851 0.52185,1.538086 0,1.812744 -0.93383,3.460693 -0.65918,1.235962 -1.89515,1.235962 -0.63171,0 -1.09863,-0.411987 -0.43945,-0.411987 -0.54932,-1.263428 -0.0549,-0.52185 -0.24719,-0.686645 -0.21972,-0.219727 -0.52185,-0.219727 -0.46692,0 -0.8789,0.219727 -0.71412,0.384521 -2.1698,2.142334 -2.27967,2.69165 -4.94385,6.976318 -1.15357,1.812744 -1.97754,4.092407 -1.15357,3.131104 -1.31836,3.762818 L 465.22839,50 l -4.20227,0 5.08118,-17.056274 q 0.87891,-2.966309 0.87891,-4.229737 0,-0.494385 -0.41199,-0.823974 -0.54932,-0.439453 -1.45569,-0.439453 -0.57678,0 -2.11487,0.247192 l -0.19226,-1.016235 z" />
  </g>
</svg>
