<?xml version="1.0" encoding="UTF-8" standalone="no"?>
<svg
   xmlns:dc="http://purl.org/dc/elements/1.1/"
   xmlns:cc="http://creativecommons.org/ns#"
   xmlns:rdf="http://www.w3.org/1999/02/22-rdf-syntax-ns#"
   xmlns:svg="http://www.w3.org/2000/svg"
   xmlns="http://www.w3.org/2000/svg"
   version="1.1"
   id="svg3578"
   viewBox="0 0 288.55323 113.97626"
   height="32.166634mm"
   width="81.436134mm">
  <defs
     id="defs3580" />
  <metadata
     id="metadata3583">
    <rdf:RDF>
      <cc:Work
         rdf:about="">
        <dc:format>image/svg+xml</dc:format>
        <dc:type
           rdf:resource="http://purl.org/dc/dcmitype/StillImage" />
        <dc:title></dc:title>
      </cc:Work>
    </rdf:RDF>
  </metadata>
  <g
     transform="translate(-0.32813442,-0.43209256)"
     id="layer1">
    <path
       d="m 114.30263,57.422096 c 0,31.47375 -25.514996,56.986254 -56.986296,56.986254 -31.4725,0 -56.98749958,-25.512504 -56.98749958,-56.986254 0,-31.472504 25.51499958,-56.98500344 56.98749958,-56.98500344 31.4713,0 56.986296,25.51249944 56.986296,56.98500344"
       style="fill:#ffffff;fill-opacity:1;fill-rule:nonzero;stroke:none"
       id="path3393" />
    <path
       d="m 171.35883,35.332092 c -0.965,-0.9625 -2.1387,-1.45 -3.4975,-1.45 l -36.5662,0 c -1.3588,0 -2.5313,0.4875 -3.4913,1.4475 -0.9562,0.9475 -1.4437,2.12375 -1.4437,3.49125 0,1.36625 0.4875,2.54125 1.4462,3.49125 0.9563,0.95875 2.1288,1.4425 3.4888,1.4425 l 13.3512,0 0,45.720004 c 0,1.36 0.4838,2.5325 1.4375,3.48875 0.9538,0.96 2.13,1.4475 3.495,1.4475 1.3575,0 2.5325,-0.485 3.4938,-1.4475 0.9575,-0.96125 1.4412,-2.13375 1.4412,-3.48875 l 0,-45.720004 13.3475,0 c 1.3613,0 2.5363,-0.48375 3.4975,-1.445 0.955,-0.96 1.44,-2.13125 1.44,-3.48875 0,-1.355 -0.485,-2.53 -1.44,-3.48875"
       style="fill:#1b458f;fill-opacity:1;fill-rule:nonzero;stroke:none"
       id="path3395" />
    <path
       d="m 215.03011,87.519596 -19.565,-50.327504 -0.006,-0.01 -0.004,-0.0125 c -0.89375,-2.15 -2.50875,-3.2875 -4.66875,-3.2875 -1.4675,0 -3.46623,0.56875 -4.66003,3.26875 l -0.01,0.0187 -0.01,0.0225 -19.4825,50.122504 c -0.3212,0.7075 -0.4825,1.435 -0.4825,2.16 0,1.36 0.4788,2.5325 1.4238,3.48375 0.9375,0.965 2.1075,1.4525 3.4762,1.4525 1.365,0 2.5375,-0.4875 3.4888,-1.4475 0.4862,-0.48125 0.855,-1.00625 1.0975,-1.565 l 0.01,-0.01875 0.01,-0.02 6.5162,-16.6575 17.24003,0 6.48,16.655 0.009,0.0275 0.0138,0.02625 c 0.24875,0.54875 0.6125,1.07125 1.0875,1.545 0.9275,0.9675 2.09375,1.455 3.46125,1.455 1.36125,0 2.53625,-0.4875 3.49375,-1.45 0.95625,-0.95 1.4425,-2.12625 1.4425,-3.48625 0,-0.68125 -0.12375,-1.3375 -0.3625,-1.955 m -30.59753,-21.62375 6.35378,-16.382504 6.34625,16.382504 -12.70003,0"
       style="fill:#1b458f;fill-opacity:1;fill-rule:nonzero;stroke:none"
       id="path3397" />
    <path
       d="m 268.56886,86.423346 -0.005,-0.0075 -0.002,-0.005 -17.3375,-22.25875 17.41,-22.418754 0.015,-0.0175 0.015,-0.0175 c 0.5875,-0.835 0.88625,-1.80375 0.88625,-2.8775 0,-1.355 -0.47625,-2.5275 -1.41375,-3.48375 -0.95375,-0.9675 -2.12375,-1.4525 -3.4825,-1.4525 -1.44875,0 -2.63625,0.4975 -3.52875,1.48375 l -0.025,0.0263 -0.025,0.0325 -16.128,20.671254 -16.1275,-20.671254 -0.0175,-0.0225 -0.0212,-0.0212 c -0.865,-0.99625 -2.05875,-1.49875 -3.54375,-1.49875 -1.35625,0 -2.52875,0.485 -3.49125,1.445 -0.95875,0.95375 -1.445,2.13125 -1.445,3.49125 0,1.06625 0.29875,2.03625 0.8875,2.87375 l 0.015,0.0212 0.0188,0.02 17.4462,22.416254 -17.33625,22.25875 c -0.70375,0.89625 -1.065,1.94125 -1.065,3.09875 0,1.36625 0.48875,2.53875 1.45125,3.47875 0.95375,0.945 2.125,1.4225 3.4875,1.4225 1.355,0 2.52875,-0.4875 3.48875,-1.4475 l 0.045,-0.04375 0.0413,-0.05125 16.165,-20.67125 15.8725,20.415 c 0.92875,1.17875 2.2675,1.79875 3.87,1.79875 1.3625,0 2.53375,-0.48 3.47875,-1.43 0.9425,-0.9425 1.42375,-2.1125 1.42375,-3.47125 0,-1.155 -0.345,-2.1925 -1.0225,-3.08625"
       style="fill:#1b458f;fill-opacity:1;fill-rule:nonzero;stroke:none"
       id="path3399" />
    <path
       d="m 287.43636,35.329592 c -0.96,-0.96 -2.135,-1.445 -3.4925,-1.445 -1.36,0 -2.53625,0.485 -3.49625,1.445 -0.95625,0.96125 -1.44,2.13625 -1.44,3.49125 l 0,50.653754 c 0,1.3575 0.48625,2.53 1.44,3.48875 0.95,0.96 2.12875,1.4475 3.49625,1.4475 1.365,0 2.5425,-0.4875 3.495,-1.45 0.9575,-0.95375 1.4425,-2.12625 1.4425,-3.48625 l 0,-50.653754 c 0,-1.3575 -0.485,-2.5325 -1.445,-3.49125"
       style="fill:#1b458f;fill-opacity:1;fill-rule:nonzero;stroke:none"
       id="path3401" />
    <path
       d="m 87.975134,45.639592 c 0,-2.9475 -0.7113,-4.82875 -2.9375,-4.82875 -5.8863,0 -11.7675,13.051254 -14.2375,24.222504 9.1787,-0.4775 17.175,-9.52875 17.175,-19.393754"
       style="fill:#e71c2c;fill-opacity:1;fill-rule:nonzero;stroke:none"
       id="path3403" />
    <path
       d="m 57.316334,0.43209256 c -0.6375,0 -1.2537,0.08 -1.885,0.0925 L 39.055134,74.873346 c -0.3525,1.52 -0.4675,2.705 -0.4675,3.75375 0,3.29625 1.5287,4.35625 4.815,4.35625 3.5475,0 6.8525,-2.68625 8.9887,-6.61375 0,-0.2375 -0.047,-0.4375 -0.047,-0.68125 0,-13.5225 7.65,-41.848754 31.7563,-41.848754 10.4587,0 12.925,5.39625 12.925,11.285 0,13.635004 -12.925,23.988754 -27.0438,24.808754 -0.1187,1.1775 -0.2312,2.46625 -0.2312,3.52875 0,7.40875 3.1712,9.7575 7.29,9.7575 4.46,0 10.1,-2.94875 13.865,-6.2325 -2.4675,13.4075 -10.9263,17.405 -20.3375,17.405 -8.4275,0 -14.655,-3.27375 -17.0875,-10.855 -6.4613,9.275 -14.39,10.855 -19.2475,10.855 -7.0525,0 -12.5713,-4.23375 -12.5713,-14.11875 0,-2.22375 0.3425,-4.82 0.93,-7.6375 l 15.195,-68.6912534 C 15.954334,11.915842 0.32813442,32.814592 0.32813442,57.422096 c 0,31.47875 25.51369958,56.986254 56.98869958,56.986254 31.4675,0 56.983796,-25.507504 56.983796,-56.986254 0,-31.470004 -25.516296,-56.99000344 -56.983796,-56.99000344"
       style="fill:#e71c2c;fill-opacity:1;fill-rule:nonzero;stroke:none"
       id="path3405" />
  </g>
</svg>
